<svg id="Layer_1" data-name="Layer 1" xmlns="http://www.w3.org/2000/svg" xmlns:xlink="http://www.w3.org/1999/xlink" viewBox="0 0 327.3 291.7"><defs><style>.cls-1{fill:none;}.cls-16,.cls-2{isolation:isolate;}.cls-3{font-size:18px;font-family:SourceSansPro-Regular, Source Sans Pro;}.cls-4{letter-spacing:0em;}.cls-5{letter-spacing:-0.05em;}.cls-6{letter-spacing:-0.02em;}.cls-7{letter-spacing:-0.02em;}.cls-8{letter-spacing:-0.03em;}.cls-9{letter-spacing:-0.01em;}.cls-10{letter-spacing:-0.01em;}.cls-11{letter-spacing:0.03em;}.cls-12{letter-spacing:-0.01em;}.cls-13{letter-spacing:-0.02em;}.cls-14{letter-spacing:0em;}.cls-15{fill:#531b93;}.cls-16{opacity:0.1;}.cls-17{fill:#04a0f4;}.cls-18{fill:#9e9e9e;}.cls-19{fill:#fff;}.cls-20{fill:#009193;}.cls-21{clip-path:url(#clip-path);}.cls-22{fill:#484949;}.cls-23{fill:#c9c9c7;}.cls-24{clip-path:url(#clip-path-14);}.cls-25{clip-path:url(#clip-path-15);}.cls-26{clip-path:url(#clip-path-20);}</style><clipPath id="clip-path"><circle class="cls-1" cx="98.9" cy="90" r="21.7"/></clipPath><clipPath id="clip-path-14"><circle class="cls-1" cx="109" cy="88.4" r="21.7"/></clipPath><clipPath id="clip-path-15"><circle class="cls-1" cx="104.2" cy="78" r="21.7"/></clipPath><clipPath id="clip-path-20"><circle class="cls-1" cx="188.3" cy="179.8" r="21.7"/></clipPath></defs><g id="backup"><g class="cls-2"><g class="cls-2"><text class="cls-3" transform="translate(119.74 86.35)">H<tspan class="cls-4" x="11.74" y="0">o</tspan><tspan x="21.42" y="0">w</tspan><tspan class="cls-5" x="34.34" y="0">’</tspan><tspan x="37.94" y="0">s </tspan><tspan class="cls-4" x="49.09" y="0">y</tspan><tspan x="57.42" y="0">our m</tspan><tspan class="cls-6" x="101.73" y="0">o</tspan><tspan x="111.18" y="0">ther</tspan></text></g><g class="cls-2"><text class="cls-3" transform="translate(119.74 107.95)">doing po<tspan class="cls-7" x="66.44" y="0">s</tspan><tspan class="cls-8" x="73.62" y="0">t</tspan><tspan x="79.24" y="0">-su</tspan><tspan class="cls-9" x="102.17" y="0">r</tspan><tspan class="cls-10" x="108.23" y="0">g</tspan><tspan x="117.05" y="0">e</tspan><tspan class="cls-11" x="125.98" y="0">r</tspan><tspan x="132.68" y="0">y?</tspan></text></g></g><g class="cls-2"><g class="cls-2"><text class="cls-3" transform="translate(209.3 172.57)">Sh<tspan class="cls-12" x="19.4" y="0">e</tspan><tspan class="cls-5" x="28.15" y="0">’</tspan><tspan x="31.75" y="0">s</tspan></text></g><g class="cls-2"><text class="cls-3" transform="translate(209.3 194.17)"><tspan class="cls-12">r</tspan><tspan x="6.07" y="0">e</tspan><tspan class="cls-13" x="14.99" y="0">c</tspan><tspan class="cls-14" x="22.82" y="0">ov</tspan><tspan x="40.84" y="0">ering!</tspan></text></g></g></g><path class="cls-15" d="M158.6,46.6H113.9a5.91,5.91,0,0,1-5.9-5.9v-20a5.91,5.91,0,0,1,5.9-5.9h44.7a5.91,5.91,0,0,1,5.9,5.9V40.8A5.83,5.83,0,0,1,158.6,46.6Z"/><path class="cls-15" d="M220.6,46.6H175.9a5.91,5.91,0,0,1-5.9-5.9v-20a5.91,5.91,0,0,1,5.9-5.9h44.7a5.91,5.91,0,0,1,5.9,5.9V40.8A6,6,0,0,1,220.6,46.6Z"/><g class="cls-16"><rect class="cls-17" x="50.9" y="38.8" width="198.9" height="68"/></g><g class="cls-16"><rect class="cls-17" x="50.9" y="120.2" width="198.9" height="68"/></g><rect class="cls-18" x="61.6" y="48.4" width="85.8" height="1"/><path class="cls-19" d="M102,37.5v-15c0-4-3.5-7.2-7.8-7.2H44.6c-4.3,0-7.8,3.2-7.8,7.2V240.2H264.3V37.5Z"/><path class="cls-18" d="M264.8,240.7H36.3V22.5c0-4.25,3.72-7.7,8.3-7.7H94.2c4.58,0,8.3,3.45,8.3,7.7V37H264.8Zm-227.5-1H263.8V38H101.5V22.5c0-3.69-3.27-6.7-7.3-6.7H44.6c-4,0-7.3,3-7.3,6.7Z"/><g class="cls-16"><circle class="cls-15" cx="69.8" cy="212.4" r="67.6"/></g><g class="cls-16"><circle class="cls-15" cx="69.8" cy="212.4" r="51.2"/></g><path class="cls-15" d="M71.2,175.8a37,37,0,0,0-38.9,34.7,36.54,36.54,0,0,0,4.6,20l-12,20.6,21.6-9.4a36.88,36.88,0,1,0,24.7-65.9Z"/><path class="cls-19" d="M55.3,219.8h-1a2,2,0,0,1-2-2V206.4a2,2,0,0,1,2-2h1a2,2,0,0,1,2,2v11.4A2,2,0,0,1,55.3,219.8Z"/><path class="cls-19" d="M46.9,215h-1a2,2,0,0,1-2-2v-1a2,2,0,0,1,2-2h1a2,2,0,0,1,2,2v1A2,2,0,0,1,46.9,215Z"/><path class="cls-19" d="M63.4,225.4h-1a2,2,0,0,1-2-2V200.8a2,2,0,0,1,2-2h1a2,2,0,0,1,2,2v22.6A1.94,1.94,0,0,1,63.4,225.4Z"/><path class="cls-19" d="M71.7,236.6h-1a2,2,0,0,1-2-2V189.8a2,2,0,0,1,2-2h1a2,2,0,0,1,2,2v44.8A2.15,2.15,0,0,1,71.7,236.6Z"/><path class="cls-19" d="M79.8,225.4h-1a2,2,0,0,1-2-2V200.8a2,2,0,0,1,2-2h1a2,2,0,0,1,2,2v22.6A1.94,1.94,0,0,1,79.8,225.4Z"/><path class="cls-19" d="M88,219.8H87a2,2,0,0,1-2-2V206.4a2,2,0,0,1,2-2h1a2,2,0,0,1,2,2v11.4A1.94,1.94,0,0,1,88,219.8Z"/><circle class="cls-20" cx="179" cy="255.7" r="27.3"/><polygon class="cls-20" points="145.6 236.7 159.1 254.1 166 239.2 145.6 236.7"/><path class="cls-19" d="M197.2,257.3h-1.3a1.32,1.32,0,0,1-1.3-1.3v-1.3a1.32,1.32,0,0,1,1.3-1.3h1.3a1.32,1.32,0,0,1,1.3,1.3V256A1.32,1.32,0,0,1,197.2,257.3Z"/><path class="cls-19" d="M165.8,261.1h-1.3a1.32,1.32,0,0,1-1.3-1.3v-9.4a1.32,1.32,0,0,1,1.3-1.3h1.3a1.32,1.32,0,0,1,1.3,1.3v9.4A1.32,1.32,0,0,1,165.8,261.1Z"/><path class="cls-19" d="M172.2,265.4h-1.3a1.32,1.32,0,0,1-1.3-1.3v-18a1.32,1.32,0,0,1,1.3-1.3h1.3a1.32,1.32,0,0,1,1.3,1.3v18A1.32,1.32,0,0,1,172.2,265.4Z"/><path class="cls-19" d="M178.5,261.1h-1.3a1.32,1.32,0,0,1-1.3-1.3v-9.4a1.32,1.32,0,0,1,1.3-1.3h1.3a1.32,1.32,0,0,1,1.3,1.3v9.4A1.32,1.32,0,0,1,178.5,261.1Z"/><path class="cls-19" d="M184.9,271.3h-1.3a1.32,1.32,0,0,1-1.3-1.3V240.1a1.32,1.32,0,0,1,1.3-1.3h1.3a1.32,1.32,0,0,1,1.3,1.3V270A1.26,1.26,0,0,1,184.9,271.3Z"/><path class="cls-19" d="M191.2,261.1h-1.3a1.32,1.32,0,0,1-1.3-1.3v-9.4a1.32,1.32,0,0,1,1.3-1.3h1.3a1.32,1.32,0,0,1,1.3,1.3v9.4A1.32,1.32,0,0,1,191.2,261.1Z"/><g id="doctor"><path class="cls-19" d="M288.6,127.6H76A11.61,11.61,0,0,1,64.4,116V63.6A11.61,11.61,0,0,1,76,52H288.6a11.61,11.61,0,0,1,11.6,11.6V116A11.61,11.61,0,0,1,288.6,127.6Z"/><path class="cls-18" d="M288.6,128.1H76A12.12,12.12,0,0,1,63.9,116V63.6A12.12,12.12,0,0,1,76,51.5H288.6a12.12,12.12,0,0,1,12.1,12.1V116A12.12,12.12,0,0,1,288.6,128.1ZM76,52.5A11.11,11.11,0,0,0,64.9,63.6V116A11.11,11.11,0,0,0,76,127.1H288.6A11.11,11.11,0,0,0,299.7,116V63.6a11.11,11.11,0,0,0-11.1-11.1Z"/><g id="Layer_2" data-name="Layer 2"><g class="cls-2"><path d="M134.4,72.5h1.5v5h5.5v-5h1.5V84.3h-1.5V78.7h-5.5v5.6h-1.5Z"/><path d="M145.5,80c0-2.9,1.9-4.6,4.1-4.6s4.1,1.7,4.1,4.6-1.9,4.6-4.1,4.6S145.5,82.9,145.5,80Zm6.6,0c0-2-1-3.4-2.5-3.4s-2.5,1.4-2.5,3.4,1,3.3,2.5,3.3S152.1,82,152.1,80Z"/><path d="M155,75.6h1.5l1.3,5.1a20.48,20.48,0,0,1,.5,2.4h.1l.6-2.4,1.4-5.1h1.4l1.4,5.1.6,2.4h.1a20.48,20.48,0,0,0,.5-2.4l1.3-5.1h1.4l-2.3,8.8H163l-1.3-4.7c-.2-.8-.4-1.6-.6-2.5H161c-.2.9-.4,1.7-.6,2.5l-1.2,4.7h-1.7Z"/><path d="M168.8,75.9a2.54,2.54,0,0,0,1.4-2.3h-.1a.92.92,0,0,1-1-.9.94.94,0,0,1,1-1c.7,0,1.1.6,1.1,1.6a3.58,3.58,0,0,1-1.9,3.2Z"/><path d="M171.9,83.4l.7-1a4,4,0,0,0,2.6,1c1.2,0,1.7-.6,1.7-1.4s-1-1.3-2-1.7c-1.2-.5-2.6-1-2.6-2.5s1.1-2.5,3-2.5a4.4,4.4,0,0,1,2.7,1l-.7.9a3,3,0,0,0-2-.8c-1.1,0-1.6.6-1.6,1.3s1,1.1,1.9,1.5c1.3.5,2.7,1,2.7,2.6,0,1.4-1.1,2.6-3.2,2.6A4.41,4.41,0,0,1,171.9,83.4Z"/><path d="M183.5,87.9l.3-1.2a1.7,1.7,0,0,0,.7.1c1,0,1.6-.8,2-1.9l.2-.6-3.5-8.8h1.5l1.8,4.8a24.13,24.13,0,0,1,.8,2.5h.1a23.35,23.35,0,0,0,.7-2.5l1.6-4.8h1.4L187.8,85c-.6,1.7-1.5,3-3.3,3A1.64,1.64,0,0,1,183.5,87.9Z"/><path d="M192.2,80c0-2.9,1.9-4.6,4.1-4.6s4.1,1.7,4.1,4.6-1.9,4.6-4.1,4.6S192.2,82.9,192.2,80Zm6.6,0c0-2-1-3.4-2.5-3.4s-2.5,1.4-2.5,3.4,1,3.3,2.5,3.3S198.8,82,198.8,80Z"/><path d="M202.7,81.1V75.6h1.5v5.3c0,1.6.5,2.3,1.6,2.3.9,0,1.5-.5,2.4-1.5V75.5h1.5v8.8h-1.2l-.1-1.4h-.1a3.62,3.62,0,0,1-2.9,1.6C203.5,84.6,202.7,83.4,202.7,81.1Z"/><path d="M212.8,75.6H214l.1,1.6h.1a3,3,0,0,1,2.5-1.8,2.39,2.39,0,0,1,.9.2l-.3,1.3a2.2,2.2,0,0,0-.8-.1c-.7,0-1.6.5-2.2,2v5.6h-1.5Z"/><path d="M223,75.6h1.2l.1,1.3h.1a4.13,4.13,0,0,1,2.7-1.5,2.23,2.23,0,0,1,2.4,1.7,4.07,4.07,0,0,1,2.9-1.7c1.8,0,2.7,1.2,2.7,3.4v5.5h-1.5V79c0-1.6-.5-2.3-1.6-2.3a3.27,3.27,0,0,0-2.2,1.4v6.3h-1.5V79c0-1.6-.5-2.3-1.6-2.3a3.49,3.49,0,0,0-2.2,1.4v6.3H223Z"/><path d="M237.5,80c0-2.9,1.9-4.6,4.1-4.6s4.1,1.7,4.1,4.6-1.9,4.6-4.1,4.6S237.5,82.9,237.5,80Zm6.5,0c0-2-1-3.4-2.5-3.4S239,78,239,80s1,3.3,2.5,3.3S244,82,244,80Z"/><path d="M248,81.6V76.8h-1.3V75.7l1.4-.1.2-2.4h1.2v2.4h2.4v1.2h-2.4v4.9c0,1.1.3,1.7,1.4,1.7a3.55,3.55,0,0,0,1-.2l.3,1.1a4.53,4.53,0,0,1-1.6.3C248.6,84.6,248,83.4,248,81.6Z"/><path d="M254,71.5h1.5V75l-.1,1.8a4,4,0,0,1,2.9-1.4c1.8,0,2.7,1.2,2.7,3.4v5.5h-1.5V79c0-1.6-.5-2.3-1.7-2.3-.9,0-1.5.5-2.4,1.4v6.3H254Z"/><path d="M263.3,80c0-2.9,1.9-4.6,3.9-4.6,2.2,0,3.5,1.6,3.5,4.1a2,2,0,0,1-.1.8h-5.9a2.81,2.81,0,0,0,2.9,3,4.39,4.39,0,0,0,2.2-.7l.5,1a5.25,5.25,0,0,1-2.9.9C265.2,84.6,263.3,82.9,263.3,80Zm6.1-.7c0-1.8-.8-2.7-2.2-2.7a2.72,2.72,0,0,0-2.5,2.7Z"/><path d="M273.1,75.6h1.2l.1,1.6h.1a3,3,0,0,1,2.5-1.8,2.39,2.39,0,0,1,.9.2l-.3,1.3a2.2,2.2,0,0,0-.8-.1c-.7,0-1.6.5-2.2,2v5.6h-1.5V75.6Z"/><path d="M133.6,101.6c0-2.8,1.8-4.6,3.8-4.6a3.49,3.49,0,0,1,2.4,1l-.1-1.5V93.1h1.5v12.8H140l-.1-1h-.1a3.73,3.73,0,0,1-2.6,1.2C135,106.2,133.6,104.5,133.6,101.6Zm6.2,2.1V99.1a2.8,2.8,0,0,0-2.1-.9c-1.4,0-2.5,1.4-2.5,3.3,0,2.1.9,3.3,2.4,3.3A2.74,2.74,0,0,0,139.8,103.7Z"/><path d="M143.7,101.6c0-2.9,1.9-4.6,4.1-4.6s4.1,1.7,4.1,4.6-1.9,4.6-4.1,4.6S143.7,104.5,143.7,101.6Zm6.6,0c0-2-1-3.4-2.5-3.4s-2.5,1.4-2.5,3.4,1,3.3,2.5,3.3S150.3,103.6,150.3,101.6Z"/><path d="M154.1,94.4a1,1,0,0,1,2,0,1,1,0,0,1-2,0Zm.2,2.8h1.5V106h-1.5Z"/><path d="M158.9,97.2h1.2l.1,1.3h.1a4.14,4.14,0,0,1,2.9-1.5c1.8,0,2.7,1.2,2.7,3.4v5.5h-1.5v-5.3c0-1.6-.5-2.3-1.7-2.3-.9,0-1.5.5-2.4,1.4V106h-1.5V97.2Z"/><path d="M168.3,107.6a2.72,2.72,0,0,1,1.3-2v-.1a1.68,1.68,0,0,1-.8-1.4,2,2,0,0,1,1-1.6v-.1a3.05,3.05,0,0,1-1.1-2.4,3.1,3.1,0,0,1,3.3-3.1,3.73,3.73,0,0,1,1.2.2h3v1.1h-1.8a2.67,2.67,0,0,1,.7,1.8,2.94,2.94,0,0,1-3.2,3,3.08,3.08,0,0,1-1.3-.3,1.52,1.52,0,0,0-.6,1c0,.6.4,1,1.5,1h1.7c2,0,3.1.6,3.1,2.1s-1.7,3-4.4,3C169.8,110,168.3,109.1,168.3,107.6Zm6.6-.4c0-.8-.6-1.1-1.8-1.1h-1.5a4.1,4.1,0,0,1-1.1-.1,2,2,0,0,0-.9,1.5c0,.9,1,1.5,2.5,1.5C173.8,109,174.9,108.1,174.9,107.2Zm-1.1-7.1a1.81,1.81,0,0,0-1.9-2,1.87,1.87,0,0,0-1.9,2,2,2,0,0,0,1.9,2.1A1.9,1.9,0,0,0,173.8,100.1Z"/><path d="M182,97.2h1.2l.1,1h.1a4.42,4.42,0,0,1,2.8-1.2c2.3,0,3.5,1.7,3.5,4.5,0,3-1.8,4.7-3.8,4.7a4.16,4.16,0,0,1-2.4-1v4.5H182Zm6.1,4.2c0-1.9-.6-3.2-2.3-3.2a3.45,3.45,0,0,0-2.3,1.2V104a3.31,3.31,0,0,0,2.1.9C187,104.9,188.1,103.6,188.1,101.4Z"/><path d="M191.5,101.6c0-2.9,1.9-4.6,4.1-4.6s4.1,1.7,4.1,4.6-1.9,4.6-4.1,4.6S191.5,104.5,191.5,101.6Zm6.6,0c0-2-1-3.4-2.5-3.4s-2.5,1.4-2.5,3.4,1,3.3,2.5,3.3S198.1,103.6,198.1,101.6Z"/><path d="M201.1,105l.7-1a4,4,0,0,0,2.6,1c1.2,0,1.7-.6,1.7-1.4s-1-1.3-2-1.7c-1.2-.5-2.6-1-2.6-2.5s1.1-2.5,3-2.5a4.4,4.4,0,0,1,2.7,1l-.7.9a3,3,0,0,0-2-.8c-1.1,0-1.6.6-1.6,1.3s1,1.1,1.9,1.5c1.3.5,2.7,1,2.7,2.6,0,1.4-1.1,2.6-3.2,2.6A4.41,4.41,0,0,1,201.1,105Z"/><path d="M209.7,103.2V98.4h-1.3V97.3l1.4-.1.2-2.4h1.2v2.4h2.4v1.2h-2.4v4.9c0,1.1.3,1.7,1.4,1.7a3.55,3.55,0,0,0,1-.2l.3,1.1a4.53,4.53,0,0,1-1.6.3C210.3,106.2,209.7,105,209.7,103.2Z"/><path d="M214.5,100.9h4.1V102h-4.1Z"/><path d="M220.1,105l.7-1a4,4,0,0,0,2.6,1c1.2,0,1.7-.6,1.7-1.4s-1-1.3-2-1.7c-1.2-.5-2.6-1-2.6-2.5s1.1-2.5,3-2.5a4.4,4.4,0,0,1,2.7,1l-.7.9a3,3,0,0,0-2-.8c-1.1,0-1.6.6-1.6,1.3s1,1.1,1.9,1.5c1.3.5,2.7,1,2.7,2.6,0,1.4-1.1,2.6-3.2,2.6A4.41,4.41,0,0,1,220.1,105Z"/><path d="M228.6,102.7V97.2h1.5v5.3c0,1.6.5,2.3,1.6,2.3.9,0,1.5-.5,2.4-1.5V97.1h1.5v8.8h-1.2l-.1-1.4h-.1a3.62,3.62,0,0,1-2.9,1.6C229.5,106.2,228.6,105,228.6,102.7Z"/><path d="M238.7,97.2h1.2l.1,1.6h.1a3,3,0,0,1,2.5-1.8,2.39,2.39,0,0,1,.9.2l-.3,1.3a2.2,2.2,0,0,0-.8-.1c-.7,0-1.6.5-2.2,2V106h-1.5Z"/><path d="M244.3,107.6a2.72,2.72,0,0,1,1.3-2v-.1a1.68,1.68,0,0,1-.8-1.4,2,2,0,0,1,1-1.6v-.1a3.05,3.05,0,0,1-1.1-2.4,3.1,3.1,0,0,1,3.3-3.1,3.73,3.73,0,0,1,1.2.2h3v1.1h-1.8a2.67,2.67,0,0,1,.7,1.8,2.94,2.94,0,0,1-3.2,3,3.08,3.08,0,0,1-1.3-.3,1.52,1.52,0,0,0-.6,1c0,.6.4,1,1.5,1h1.7c2,0,3.1.6,3.1,2.1s-1.7,3-4.4,3C245.8,110,244.3,109.1,244.3,107.6Zm6.6-.4c0-.8-.6-1.1-1.8-1.1h-1.5a4.1,4.1,0,0,1-1.1-.1,2,2,0,0,0-.9,1.5c0,.9,1,1.5,2.5,1.5C249.8,109,250.9,108.1,250.9,107.2Zm-1.1-7.1a1.81,1.81,0,0,0-1.9-2,1.87,1.87,0,0,0-1.9,2,1.91,1.91,0,1,0,3.8,0Z"/><path d="M253.3,101.6c0-2.9,1.9-4.6,3.9-4.6,2.2,0,3.5,1.6,3.5,4.1a2,2,0,0,1-.1.8h-5.9a2.81,2.81,0,0,0,2.9,3,4.39,4.39,0,0,0,2.2-.7l.5,1a5.25,5.25,0,0,1-2.9.9C255.2,106.2,253.3,104.5,253.3,101.6Zm6.1-.7c0-1.8-.8-2.7-2.2-2.7a2.72,2.72,0,0,0-2.5,2.7Z"/><path d="M263.1,97.2h1.2l.1,1.6h.1A3,3,0,0,1,267,97a2.39,2.39,0,0,1,.9.2l-.3,1.3a2.2,2.2,0,0,0-.8-.1c-.7,0-1.6.5-2.2,2V106h-1.5V97.2Z"/><path d="M269.1,109.5l.3-1.2a1.7,1.7,0,0,0,.7.1c1,0,1.6-.8,2-1.9l.2-.6-3.5-8.8h1.5l1.8,4.8a24.13,24.13,0,0,1,.8,2.5h.1a23.35,23.35,0,0,0,.7-2.5l1.6-4.8h1.4l-3.3,9.5c-.6,1.7-1.5,3-3.3,3A1.64,1.64,0,0,1,269.1,109.5Z"/><path d="M282.4,96.6a1.58,1.58,0,0,0-1.7-1.7,3,3,0,0,0-2.1,1l-.8-.8a4,4,0,0,1,3.1-1.5,2.76,2.76,0,0,1,3,2.9c0,2.4-2.9,3.3-2.6,5.8H280C279.5,99.6,282.4,98.5,282.4,96.6Zm-2.8,8.4a1.1,1.1,0,1,1,2.2,0,1.11,1.11,0,0,1-1.1,1.1C280,106.2,279.6,105.7,279.6,105Z"/></g></g><g id="Layer_3" data-name="Layer 3"><g id="Layer_1-2" data-name="Layer 1"><circle class="cls-19" cx="98.9" cy="90" r="21.7"/><g class="cls-21"><path class="cls-19" d="M99.2,118.3a27.89,27.89,0,0,0-4.4-4.7,7.48,7.48,0,0,0-3.9-2.1,10.38,10.38,0,0,0-4.6.5c-3.2.9-6.5,2-8.8,4.4"/><path d="M99,118.4a38,38,0,0,0-4.3-4.7,9.36,9.36,0,0,0-3.8-2.1,10.23,10.23,0,0,0-4.6.5c-3.2.9-6.5,2-8.7,4.3l-.3-.2c2.3-2.4,5.6-3.6,8.9-4.4a10.51,10.51,0,0,1,4.7-.5,8.67,8.67,0,0,1,4,2.2,27.89,27.89,0,0,1,4.4,4.7Z"/></g><g class="cls-21"><path class="cls-19" d="M135.1,126.1c-5.4-20.8-24.1-27.3-38.1-28-8.2-.4-17,2-22.7,8.1a36.63,36.63,0,0,0-7,11.1"/><path class="cls-22" d="M134.9,126.1c-6.4-24.5-30.7-27.5-38-27.8-9-.4-17.4,2.6-22.6,8.1a37,37,0,0,0-7,11l-.3-.1a35.84,35.84,0,0,1,7.1-11.1c5.2-5.6,13.7-8.6,22.8-8.2,5.8.3,14.4,1.6,22.4,6.4a34.34,34.34,0,0,1,15.9,21.7Z"/></g><g class="cls-21"><path class="cls-19" d="M102.5,116.8a30.67,30.67,0,0,0,.7-4.2c.6-4.6,1.3-9.4.7-14.1a63,63,0,0,1,11.4,3.6,26,26,0,0,1,10.4,7.9"/><path class="cls-22" d="M102.7,116.9l-.3-.1a30.67,30.67,0,0,0,.7-4.2v-.2c.6-4.5,1.2-9.2.6-13.8v-.3l.2.1a59.13,59.13,0,0,1,11.4,3.6,25.64,25.64,0,0,1,10.5,8l-.3.2a25.44,25.44,0,0,0-10.3-7.8,58.3,58.3,0,0,0-11.1-3.5c.5,4.5-.1,9.2-.7,13.6v.2A23,23,0,0,1,102.7,116.9Z"/></g><g class="cls-21"><path class="cls-19" d="M99,115.5a37.41,37.41,0,0,0-5.1-10.9c-.9-1.4-2-2.8-2.1-4.4-.2-1.8.8-2.6,1.5-4,.8-1.6.4-3.8.1-5.4a1.39,1.39,0,0,1,0-1.1,1.09,1.09,0,0,1,.9-.4c2.8-.3,5.5,1.1,7.8,2.7a5.17,5.17,0,0,1,1.7,1.6,5.09,5.09,0,0,1,.6,2.1,86.34,86.34,0,0,1,1,10.1,45.57,45.57,0,0,1,0,6.4c-.6,5.3-3.1,10-4.1,15.2"/><path class="cls-22" d="M101.6,127.6l-.4-.1a52.67,52.67,0,0,1,1.9-6.8,47.13,47.13,0,0,0,2.2-8.4,27.39,27.39,0,0,0,0-6.4c-.2-3.3-.5-6.6-1-10.1v-.1a4.66,4.66,0,0,0-.6-2,6.56,6.56,0,0,0-1.7-1.6c-2.1-1.4-4.8-2.9-7.7-2.7-.3,0-.7.1-.8.3s-.1.6,0,.9v.1c.4,1.8.7,3.9-.1,5.5a8.79,8.79,0,0,1-.6,1,4.47,4.47,0,0,0-.9,2.8,8.67,8.67,0,0,0,1.9,4l.2.3a36.24,36.24,0,0,1,5.1,10.9l-.3.1a35.7,35.7,0,0,0-5.1-10.8l-.2-.3a8.55,8.55,0,0,1-1.9-4.1,4.62,4.62,0,0,1,1-3.1,8.79,8.79,0,0,0,.6-1c.7-1.5.4-3.6.1-5.3v-.1c-.1-.4-.2-.8.1-1.1s.7-.4,1.1-.5c3-.3,5.8,1.3,7.9,2.7a5.88,5.88,0,0,1,1.8,1.7,5.09,5.09,0,0,1,.6,2.1v.1a90.8,90.8,0,0,1,1,10.1,45.51,45.51,0,0,1,0,6.4,42.52,42.52,0,0,1-2.2,8.5A41.52,41.52,0,0,0,101.6,127.6Z"/></g><g class="cls-21"><path class="cls-23" d="M102.7,125.1c1.6-4,4.3-7.6,4.6-11.9a34.35,34.35,0,0,0-.4-5.6c-.1-.9,0-1.8-.1-2.7a5.91,5.91,0,0,0-.9-2.4l-1.2.9a2.19,2.19,0,0,1-.5.3c-1.8,1-4.3.4-6-.4a12.51,12.51,0,0,1-4.9-3.6c-.3-.4-1.1.2-1.2.7a4.42,4.42,0,0,0,.5,1.5c2.6,4,2.8,9.2,4.6,13.6"/></g><g class="cls-21"><path class="cls-19" d="M109,115.4a10.24,10.24,0,0,0,1-3.4,5.43,5.43,0,0,0-1.8-4.5,1.52,1.52,0,0,1-.6-1,.76.76,0,0,1,.2-.5,8.51,8.51,0,0,0,.9-3.1,3,3,0,0,0-1.4-2.5,22,22,0,0,0-1.8-1.4,3.11,3.11,0,0,0-.6-.4c.3,2.5.5,5,.7,7.5a45.57,45.57,0,0,1,0,6.4c-.6,5.3-3.1,10-4.1,15.2"/><path class="cls-22" d="M101.6,127.6l-.4-.1a52.67,52.67,0,0,1,1.9-6.8,47.13,47.13,0,0,0,2.2-8.4,27.39,27.39,0,0,0,0-6.4c-.2-2.7-.4-5.2-.7-7.5l-.1-.4.3.2a.76.76,0,0,0,.4.2c.1.1.2.1.3.2a14.1,14.1,0,0,1,1.8,1.4,3,3,0,0,1,1.4,2.7,8,8,0,0,1-.9,3.2c-.1.2-.2.3-.2.5s.1.5.5.9a5.83,5.83,0,0,1,1.8,4.7,11.84,11.84,0,0,1-1,3.5l-.3-.1a10.86,10.86,0,0,0,1-3.3,5.72,5.72,0,0,0-1.7-4.4c-.5-.4-.7-.8-.6-1.1a1.42,1.42,0,0,1,.2-.6,7.46,7.46,0,0,0,.8-3.1,3,3,0,0,0-1.3-2.4,14.1,14.1,0,0,0-1.8-1.4c-.1-.1-.2-.1-.3-.2h-.1c.3,2.3.5,4.6.6,7.2a45.51,45.51,0,0,1,0,6.4,42.52,42.52,0,0,1-2.2,8.5C102.8,123,102,125.3,101.6,127.6Z"/></g><g class="cls-21"><path class="cls-19" d="M106.1,98c-4,.4-8-2-10.8-4.5a14.13,14.13,0,0,1-4.1-6.4c-.4-1.3-1-2.5-1.3-3.9a14.18,14.18,0,0,1-.1-4.1,6.64,6.64,0,0,1,.6-2A4.94,4.94,0,0,1,92.8,75a15.33,15.33,0,0,1,7.9-1.5c2.6.1,5.5.8,6.6,3.1a8.51,8.51,0,0,1,.6,1.7,47.43,47.43,0,0,1,1.4,9.3,52.29,52.29,0,0,1,0,5.6,6.83,6.83,0,0,1-1,4A5.28,5.28,0,0,1,106.1,98Z"/><path class="cls-22" d="M105.3,98.2c-4.5,0-8.5-3.2-10.1-4.6A14.89,14.89,0,0,1,91,87.1c-.2-.6-.4-1.1-.6-1.7a18.66,18.66,0,0,1-.7-2.2,14.94,14.94,0,0,1-.1-4.2,6.3,6.3,0,0,1,.6-2,5.07,5.07,0,0,1,2.4-2.1,15.74,15.74,0,0,1,7.9-1.5c2,.1,5.4.5,6.8,3.2a16.19,16.19,0,0,1,.6,1.7,58,58,0,0,1,1.4,9.3,53.85,53.85,0,0,1,0,5.7c-.1,1.9-.4,3.3-1.1,4.1a3.76,3.76,0,0,1-2.2,1h0C105.9,98.2,105.6,98.2,105.3,98.2ZM99.9,73.6a15.22,15.22,0,0,0-7.1,1.5A4.66,4.66,0,0,0,89.9,79a14.31,14.31,0,0,0,.1,4.1,18.66,18.66,0,0,0,.7,2.2c.2.6.4,1.1.6,1.7a14.07,14.07,0,0,0,4.1,6.3c1.6,1.5,6,4.9,10.7,4.5a3.67,3.67,0,0,0,2-.8c.6-.7.9-2,1-3.9a52,52,0,0,0,0-5.6,47.58,47.58,0,0,0-1.4-9.2,5.94,5.94,0,0,0-.6-1.6c-1.3-2.5-4.6-3-6.5-3A1.48,1.48,0,0,0,99.9,73.6Z"/></g><g class="cls-21"><path class="cls-22" d="M91.7,88.7a6.71,6.71,0,0,0,.9,1.4c-.3-.4,1.3-1.5,1.6-1.6.7-.3,1.5.2,2.2.4a2.61,2.61,0,0,1,.8.3c.1.1.6.5.6.6-.1-1.6,0-3.6,1.3-4.6a6.25,6.25,0,0,1-1-2.2,2.3,2.3,0,0,1,.8-2.2,3.61,3.61,0,0,1,2-.4c1,.1,2,.1,3,.2,3,.2,6.4-.9,4.9-4.8-.9-2.3-3.8-2.5-5.9-2.6a28.08,28.08,0,0,0-4.1-.1,10.13,10.13,0,0,0-4.2.8,8.72,8.72,0,0,0-3.1,1.8,8.39,8.39,0,0,0-1.8,2.8C88.4,81.9,89.9,85.6,91.7,88.7Z"/></g><g class="cls-21"><path class="cls-22" d="M106.1,102.4a19.53,19.53,0,0,1-2.3-.2c-2.5-.4-8.2-3.7-9.3-6.8-.7-1.9-.6-3.6.5-4.9l.6.5a4.27,4.27,0,0,0-.4,4.2c1,2.8,6.5,6,8.8,6.3,2.5.4,4.7.5,5.8-2a10.57,10.57,0,0,0-.7-9.1l.6-.4a11.41,11.41,0,0,1,.7,9.8A4.14,4.14,0,0,1,106.1,102.4Z"/></g><g class="cls-21"><path class="cls-22" d="M102,90.4a67.85,67.85,0,0,0-7.7-2.5l.1-.3c2,.6,5.2,1.6,7.8,2.5Z"/></g><g class="cls-21"><path d="M110.2,85.9a7.46,7.46,0,0,1-1.2-.7l.2-.3c.4.3.8.5,1.1.7Z"/></g><g class="cls-21"><path class="cls-22" d="M95.8,94a.9.9,0,0,1-.5-.1c-.3-.1-.5-.4-.7-.6l-.1-.1-.1-.2a2.7,2.7,0,0,0-.7-.8l-.3-.3a3.45,3.45,0,0,1-.8-.9,2,2,0,0,1,.1-1.5,2.15,2.15,0,0,1,2.7-1.1l-.1.3a1.74,1.74,0,0,0-2.2.9,2.55,2.55,0,0,0-.1,1.2c.1.3.4.5.7.8l.3.3a5.5,5.5,0,0,1,.7.9l.2.2a2.65,2.65,0,0,0,.6.5,1.19,1.19,0,0,0,1.1-.3.94.94,0,0,0,.2-1.1l.3-.1a1.63,1.63,0,0,1-.3,1.5A1.39,1.39,0,0,1,95.8,94Z"/></g><g class="cls-21"><path class="cls-22" d="M95.6,92.3a3.56,3.56,0,0,0-1.9-2.7l.2-.3a3.74,3.74,0,0,1,2.1,3Z"/></g><g class="cls-24"><path class="cls-22" d="M103.6,92.2a1.28,1.28,0,0,1-1-.4,2.18,2.18,0,0,1,.1-3h0c.8-1,2.2-1.3,2.9-.6a2.18,2.18,0,0,1-.1,3A3,3,0,0,1,103.6,92.2Zm-.6-3.1a1.87,1.87,0,0,0-.2,2.5,1.76,1.76,0,0,0,2.4-.6,1.87,1.87,0,0,0,.2-2.5,1.84,1.84,0,0,0-2.4.6Z"/></g><g class="cls-25"><path class="cls-22" d="M109.1,89.5a.75.75,0,0,1-.5-.1,1.65,1.65,0,0,1-1-1,2,2,0,0,1,0-1.5,2.34,2.34,0,0,1,1-1.2,1.81,1.81,0,0,1,1.4-.2,1.92,1.92,0,0,1,1,2.6A2.27,2.27,0,0,1,109.1,89.5Zm.3-3.7a1.85,1.85,0,0,0-.7.2,1.59,1.59,0,0,0-.8,1h0a1.93,1.93,0,0,0,0,1.3c.2.4.4.7.8.8a1.49,1.49,0,0,0,1.9-1.1,1.68,1.68,0,0,0-.8-2.1A.76.76,0,0,0,109.4,85.8Z"/></g><g class="cls-21"><path class="cls-22" d="M105.6,88.8a2,2,0,0,1,.2-1.1,1.34,1.34,0,0,1,.8-.7,1,1,0,0,1,1,.3l-.3.2a.48.48,0,0,0-.6-.2,1.33,1.33,0,0,0-.6.5,2.77,2.77,0,0,0-.1.9Z"/></g><g class="cls-21"><path class="cls-22" d="M109.3,129.4l-.7-.1c.1-.8.4-2.1.7-3.6,1.4-6.4,4-18.3-.3-24.4l.6-.4c4.5,6.3,1.8,18.4.4,25C109.7,127.4,109.4,128.6,109.3,129.4Z"/></g><g class="cls-21"><path class="cls-19" d="M101.1,128.6a28.36,28.36,0,0,0-6.6-14c-1.3-1.5-2.8-2.9-2.3-4.9.3-1,.9-1.8,1.1-2.8a1.39,1.39,0,0,0,0-.9c-.1-.2-.4-.3-.5-.4a15.44,15.44,0,0,0-3-.4c-1.7-.2-2.9-.9-2.5-2.7a7.43,7.43,0,0,1,2.5-3.7c1-1,2.1-2.2,3.6-2.3-.4,0-.2,3-.1,3.4a8.52,8.52,0,0,0,1.3,3.1,45,45,0,0,1,3.8,7.6,48.9,48.9,0,0,1,2.8,21.1"/><path class="cls-22" d="M101.6,131.9h-.4a49.86,49.86,0,0,0-2.8-21,41.49,41.49,0,0,0-3.8-7.6,7.73,7.73,0,0,1-1.3-3.2,15,15,0,0,1-.1-3.2,5.4,5.4,0,0,0-2.7,1.8l-.4.4a7.39,7.39,0,0,0-2.4,3.6,1.76,1.76,0,0,0,.2,1.6,2.76,2.76,0,0,0,2.1.9,3.75,3.75,0,0,0,1,.1,7.47,7.47,0,0,1,2,.3h0a.35.35,0,0,0,.2.1,1.38,1.38,0,0,1,.4.3c.2.3.1.6,0,1a8.43,8.43,0,0,1-.6,1.4,8.43,8.43,0,0,0-.6,1.4c-.4,1.6.6,2.8,1.7,4.1.2.2.3.4.5.6a28.61,28.61,0,0,1,6.6,14.1h-.4a28.94,28.94,0,0,0-6.5-14c-.2-.2-.3-.4-.5-.6-1.1-1.3-2.3-2.6-1.8-4.4a9.38,9.38,0,0,1,.6-1.5,6.94,6.94,0,0,0,.5-1.3c0-.2.1-.5,0-.7s-.2-.2-.3-.2-.1-.1-.2-.1a10.79,10.79,0,0,0-1.9-.3,4.48,4.48,0,0,1-1.1-.1,3,3,0,0,1-2.4-1.1,2.2,2.2,0,0,1-.2-1.8,7.69,7.69,0,0,1,2.5-3.8c.1-.1.3-.2.4-.4a5.73,5.73,0,0,1,3.3-2v.4h0a11.41,11.41,0,0,0,0,3.2,9,9,0,0,0,1.3,3.1,50,50,0,0,1,3.8,7.7C101.1,116.7,102.1,124.7,101.6,131.9Z"/></g><g class="cls-21"><path class="cls-19" d="M118.8,115.2a1.32,1.32,0,0,1,1.3-1.3h0a1.32,1.32,0,0,1,1.3,1.3"/></g><path class="cls-18" d="M98.9,111.9A21.9,21.9,0,1,1,120.8,90,22,22,0,0,1,98.9,111.9Zm0-43.4A21.5,21.5,0,1,0,120.4,90,21.53,21.53,0,0,0,98.9,68.5Z"/></g></g></g><g id="patient"><path class="cls-19" d="M314.3,216.6l-150,.4a11.61,11.61,0,0,1-11.6-11.6l-.1-52.4a11.61,11.61,0,0,1,11.6-11.6l149.9-.3a11.61,11.61,0,0,1,11.6,11.6l.1,52.4A11.44,11.44,0,0,1,314.3,216.6Z"/><path class="cls-18" d="M164.3,217.5a12.12,12.12,0,0,1-12.1-12.1l-.1-52.4a12.12,12.12,0,0,1,12.1-12.1l149.9-.3a12.12,12.12,0,0,1,12.1,12.1l.1,52.4a11.64,11.64,0,0,1-3.39,8.4,12,12,0,0,1-8.61,3.6Zm149.8-75.9-149.9.3A11.11,11.11,0,0,0,153.1,153l.1,52.4a11.11,11.11,0,0,0,11.1,11.1l150-.4a11,11,0,0,0,7.9-3.3,10.66,10.66,0,0,0,3.1-7.69l-.1-52.41A11.11,11.11,0,0,0,314.1,141.6Z"/><g class="cls-2"><path d="M223.1,174l.9-1a4.46,4.46,0,0,0,3.3,1.5c1.5,0,2.5-.8,2.5-1.9s-.8-1.6-2-2.1l-1.7-.7c-1.1-.5-2.4-1.3-2.4-3s1.6-3.1,3.7-3.1a4.91,4.91,0,0,1,3.5,1.5l-.8,1a3.69,3.69,0,0,0-2.7-1.1c-1.3,0-2.2.7-2.2,1.7s1,1.6,2,2l1.7.7c1.4.6,2.4,1.4,2.4,3.2s-1.5,3.4-4,3.4A7,7,0,0,1,223.1,174Z"/><path d="M233.6,162.7h1.5v3.5L235,168a4,4,0,0,1,2.9-1.4c1.8,0,2.7,1.2,2.7,3.4v5.5h-1.5v-5.3c0-1.6-.5-2.3-1.7-2.3-.9,0-1.5.5-2.4,1.4v6.3h-1.5V162.7Z"/><path d="M242.9,171.2c0-2.9,1.9-4.6,3.9-4.6,2.2,0,3.5,1.6,3.5,4.1a2,2,0,0,1-.1.8h-5.9a2.81,2.81,0,0,0,2.9,3,4.39,4.39,0,0,0,2.2-.7l.5,1a5.25,5.25,0,0,1-2.9.9C244.8,175.8,242.9,174.1,242.9,171.2Zm6.1-.7c0-1.8-.8-2.7-2.2-2.7a2.72,2.72,0,0,0-2.5,2.7Z"/><path d="M252.1,167.1a2.54,2.54,0,0,0,1.4-2.3h-.1a.92.92,0,0,1-1-.9.94.94,0,0,1,1-1c.7,0,1.1.6,1.1,1.6a3.58,3.58,0,0,1-1.9,3.2Z"/><path d="M255.3,174.6l.7-1a4,4,0,0,0,2.6,1c1.2,0,1.7-.6,1.7-1.4s-1-1.3-2-1.7c-1.2-.5-2.6-1-2.6-2.5s1.1-2.5,3-2.5a4.4,4.4,0,0,1,2.7,1l-.7.9a3,3,0,0,0-2-.8c-1.1,0-1.6.6-1.6,1.3s1,1.1,1.9,1.5c1.3.5,2.7,1,2.7,2.6,0,1.4-1.1,2.6-3.2,2.6A4,4,0,0,1,255.3,174.6Z"/><path d="M223.8,188.4H225l.1,1.6h.1a3,3,0,0,1,2.5-1.8,2.39,2.39,0,0,1,.9.2l-.3,1.3a2.2,2.2,0,0,0-.8-.1c-.7,0-1.6.5-2.2,2v5.6h-1.5Z"/><path d="M229.4,192.8c0-2.9,1.9-4.6,3.9-4.6,2.2,0,3.5,1.6,3.5,4.1a2,2,0,0,1-.1.8h-5.9a2.81,2.81,0,0,0,2.9,3,4.39,4.39,0,0,0,2.2-.7l.5,1a5.25,5.25,0,0,1-2.9.9C231.2,197.4,229.4,195.7,229.4,192.8Zm6.1-.7c0-1.8-.8-2.7-2.2-2.7a2.72,2.72,0,0,0-2.5,2.7Z"/><path d="M238.5,192.8a4.27,4.27,0,0,1,4.2-4.6,4.1,4.1,0,0,1,2.6,1l-.8,1a2.29,2.29,0,0,0-1.7-.8c-1.6,0-2.7,1.4-2.7,3.4s1.1,3.3,2.7,3.3a3.33,3.33,0,0,0,2.1-.9l.6,1a4.3,4.3,0,0,1-2.8,1.1C240.3,197.4,238.5,195.7,238.5,192.8Z"/><path d="M246.5,192.8c0-2.9,1.9-4.6,4.1-4.6s4.1,1.7,4.1,4.6-1.9,4.6-4.1,4.6S246.5,195.7,246.5,192.8Zm6.6,0c0-2-1-3.4-2.5-3.4s-2.5,1.4-2.5,3.4,1,3.3,2.5,3.3S253.1,194.8,253.1,192.8Z"/><path d="M255.7,188.4h1.5l1.7,5c.3.9.5,1.7.8,2.6h.1c.3-.8.5-1.7.8-2.6l1.7-5h1.5l-3.1,8.8H259Z"/><path d="M264.9,192.8c0-2.9,1.9-4.6,3.9-4.6,2.2,0,3.5,1.6,3.5,4.1a2,2,0,0,1-.1.8h-5.9a2.81,2.81,0,0,0,2.9,3,4.39,4.39,0,0,0,2.2-.7l.5,1a5.25,5.25,0,0,1-2.9.9C266.7,197.4,264.9,195.7,264.9,192.8Zm6.1-.7c0-1.8-.8-2.7-2.2-2.7a2.72,2.72,0,0,0-2.5,2.7Z"/><path d="M274.6,188.4h1.2l.1,1.6h.1a3,3,0,0,1,2.5-1.8,2.39,2.39,0,0,1,.9.2l-.3,1.3a2.2,2.2,0,0,0-.8-.1c-.7,0-1.6.5-2.2,2v5.6h-1.5v-8.8Z"/><path d="M280.8,185.7a1,1,0,0,1,2,0,.94.94,0,0,1-1,1A1,1,0,0,1,280.8,185.7Zm.3,2.7h1.5v8.8h-1.5Z"/><path d="M285.7,188.4h1.2l.1,1.3h.1a4.14,4.14,0,0,1,2.9-1.5c1.8,0,2.7,1.2,2.7,3.4v5.5h-1.5v-5.3c0-1.6-.5-2.3-1.7-2.3-.9,0-1.5.5-2.4,1.4v6.3h-1.5v-8.8Z"/><path d="M295,198.8a2.72,2.72,0,0,1,1.3-2v-.1a1.68,1.68,0,0,1-.8-1.4,2,2,0,0,1,1-1.6v-.1a3.05,3.05,0,0,1-1.1-2.4,3.1,3.1,0,0,1,3.3-3.1,3.73,3.73,0,0,1,1.2.2h3v1.1h-1.8a2.67,2.67,0,0,1,.7,1.8,2.94,2.94,0,0,1-3.2,3,3.08,3.08,0,0,1-1.3-.3,1.52,1.52,0,0,0-.6,1c0,.6.4,1,1.5,1h1.7c2,0,3.1.6,3.1,2.1s-1.7,3-4.4,3C296.5,201.2,295,200.4,295,198.8Zm6.6-.4c0-.8-.6-1.1-1.8-1.1h-1.5a4.1,4.1,0,0,1-1.1-.1,2,2,0,0,0-.9,1.5c0,.9,1,1.5,2.5,1.5C300.5,200.2,301.6,199.3,301.6,198.4Zm-1.1-7.1a1.81,1.81,0,0,0-1.9-2,1.87,1.87,0,0,0-1.9,2,2,2,0,0,0,1.9,2.1A1.9,1.9,0,0,0,300.5,191.3Z"/><path d="M305,196.3a1.1,1.1,0,1,1,2.2,0,1.1,1.1,0,1,1-2.2,0Zm.4-9.5v-1.7h1.5v1.7l-.2,6.8h-1Z"/></g><g id="Layer_2-2" data-name="Layer 2"><circle class="cls-19" cx="188.3" cy="179.8" r="21.7"/><g class="cls-26"><path class="cls-19" d="M192.3,179.4a5.54,5.54,0,0,0,2.3-3.9,7,7,0,0,0-1.6-5c-1.1-1.6-3-2.1-4.8-2.3-2.3,0-4.8-.5-6.8.5-3.4,1.9-4.1,7.5-4.8,11.8a3.48,3.48,0,0,0,1.1,3.2,6.81,6.81,0,0,0,2.8.7c.1,0,2.6-.1,2.5-.3a14.2,14.2,0,0,1,2,2.8,1.31,1.31,0,0,1,.3,1,1.6,1.6,0,0,1-.7.9,22.07,22.07,0,0,1-3.6,2.3c-1.1.5-1.6.6-2.1,1.8a12.81,12.81,0,0,0-1,5.5c0,2,.3,4.3,1.8,5.6a6.15,6.15,0,0,0,3.2,1.1c5.9.9,12.1.5,17.2-2.5a6.42,6.42,0,0,0,3.2-3.3,5.68,5.68,0,0,0,.3-2.9,4.59,4.59,0,0,0-2.8-4.5c-1.6-.8-3.3-1.2-4.9-2.1a9.36,9.36,0,0,1-4.1-4.9l-.3-.9A4.45,4.45,0,0,1,192.3,179.4Z"/><path class="cls-22" d="M188.4,205.9a42.6,42.6,0,0,1-5.4-.4,7,7,0,0,1-3.3-1.2c-1.3-1.1-2-2.9-1.9-5.7a13.36,13.36,0,0,1,1-5.6,2.77,2.77,0,0,1,2-1.8l.2-.1a15.09,15.09,0,0,0,3.5-2.3,1.68,1.68,0,0,0,.7-.8c.1-.3-.1-.6-.3-.9a14.3,14.3,0,0,0-1.9-2.7,15.17,15.17,0,0,1-2.4.3,5.92,5.92,0,0,1-2.9-.7,3.31,3.31,0,0,1-1.2-3.4l.1-.6c.6-4.2,1.4-9.5,4.8-11.4a12.85,12.85,0,0,1,5.2-.6c.6,0,1.2.1,1.7.1a6.46,6.46,0,0,1,4.9,2.4,6.29,6.29,0,0,1,1.6,5.1,6,6,0,0,1-2.3,4c-1.3,1.4-1.2,2.7-.6,4.6l.3.9a8.8,8.8,0,0,0,4.1,4.8,12,12,0,0,0,2.6,1.1c.8.3,1.5.6,2.3.9,2,1,2.8,2.3,2.9,4.7a6.48,6.48,0,0,1-.3,2.9,7.76,7.76,0,0,1-3.3,3.4A23.84,23.84,0,0,1,188.4,205.9Zm-5.1-21.7a31.59,31.59,0,0,1,2,2.7,1.56,1.56,0,0,1,.3,1.2,1.65,1.65,0,0,1-.8,1,16.94,16.94,0,0,1-3.6,2.3l-.2.1a2.84,2.84,0,0,0-1.8,1.6,12.41,12.41,0,0,0-1,5.4c0,2.7.5,4.5,1.8,5.4a7.24,7.24,0,0,0,3.1,1.1c4.7.7,11.4.9,17.1-2.5a6.45,6.45,0,0,0,3.1-3.2,6,6,0,0,0,.3-2.8,4.67,4.67,0,0,0-2.7-4.4,10.2,10.2,0,0,0-2.2-.9A16,16,0,0,1,196,190a9.39,9.39,0,0,1-4.2-5l-.3-.9c-.5-1.6-.9-3.3.7-4.9h0a5.58,5.58,0,0,0,2.2-3.7,6.39,6.39,0,0,0-1.6-4.8c-1.1-1.6-2.9-2-4.6-2.2a9.7,9.7,0,0,1-1.7-.1,10.47,10.47,0,0,0-5,.5c-3.2,1.8-3.9,6.9-4.6,11.1l-.1.6a3,3,0,0,0,1.1,3,5.1,5.1,0,0,0,2.7.6,17.85,17.85,0,0,0,2.3-.2.1.1,0,0,0-.1.1h.2l.3.1Z"/><path class="cls-19" d="M187,178.6c.4-.2.9-.4,1.3-.6a.6.6,0,0,1,.4-.1.76.76,0,0,1,.8.6,3.75,3.75,0,0,1,.1,1.1,2.8,2.8,0,0,1-1.4,2.2,1.07,1.07,0,0,1-.6.2.55.55,0,0,1-.6-.4"/><path class="cls-22" d="M187.8,182a1,1,0,0,1-.8-.5l.3-.2a.55.55,0,0,0,.5.3c.1,0,.3-.1.4-.1a2.77,2.77,0,0,0,1.3-2.1,3.4,3.4,0,0,0-.1-1c-.1-.2-.4-.5-.7-.4-.1,0-.2.1-.4.1-.4.2-.9.4-1.3.6l-.2-.3c.4-.2.9-.4,1.3-.6.2-.1.3-.1.5-.2a1.17,1.17,0,0,1,1.1.7,1.67,1.67,0,0,1,.1,1.2,3.27,3.27,0,0,1-1.5,2.4C188.3,182,188,182,187.8,182Z"/><path class="cls-19" d="M184.2,194.5a2.93,2.93,0,0,0,1.6.7,8.65,8.65,0,0,0,5-.7,8.88,8.88,0,0,0,5.1-4.6.1.1,0,0,1,.1-.1h.1c2.9.7,6.3,1.2,7.8,4.2a8.53,8.53,0,0,1,.8,3.5c.3,5.9-.5,27.9.3,33.9-1.6-1.3-4.3-2.3-6.2-3.1-2.2-.9-4.3-1.8-6.5-2.5-1.3-.4-12.5-4.1-13.3-2.5a11.92,11.92,0,0,0,1-7.2,49.13,49.13,0,0,0-1.5-5.1,18.76,18.76,0,0,1-.8-5.2,10.28,10.28,0,0,1,.6-4.6c0-.1.1-.2,0-.3s-.1-.1-.2-.2c-.4-.3-5.4-4.4-5.4-4.4a15.84,15.84,0,0,1,2.9-3.9,12.27,12.27,0,0,1,5.2-3.2c.6-.1,3.7-.3,4-.7-.7,1.3-1.4,2.2-1.4,3.8a3.81,3.81,0,0,0,.4,1.9C184,194.4,184.1,194.5,184.2,194.5Z"/><path class="cls-22" d="M205.3,231.8l-.4-.3a20.62,20.62,0,0,0-5.1-2.7c-.3-.1-.7-.3-1-.4-2.4-1-4.5-1.8-6.5-2.5l-.2-.1c-11.3-3.6-12.7-2.8-12.9-2.5l-.3-.2a11.61,11.61,0,0,0,1-7.1c-.2-1.1-.6-2.2-.9-3.3l-.6-1.8a21.73,21.73,0,0,1-.9-5.3,11.1,11.1,0,0,1,.6-4.7c0-.1.1-.2,0-.2l-.1-.1c-.3-.3-5.3-4.3-5.3-4.4l-.1-.1.1-.1a15.67,15.67,0,0,1,2.9-4,12,12,0,0,1,5.3-3.2,3.45,3.45,0,0,1,1.2-.1c.8-.1,2.5-.2,2.7-.5l.3.2h0l-.3.6a5.45,5.45,0,0,0-1,3.1,3.13,3.13,0,0,0,.4,1.8c.1.1.1.2.2.2h.1a3,3,0,0,0,1.5.7,9.27,9.27,0,0,0,4.9-.7c2.5-1.1,4.2-2.5,5-4.5.1-.1.1-.3.3-.3h.2l.6.1c2.8.6,5.9,1.3,7.4,4.2a9,9,0,0,1,.8,3.6c.1,2.4.1,7.5,0,12.9-.1,8.2-.2,17.5.3,21Zm-24.9-9c2,0,6,.9,11.8,2.8l.2.1c2,.7,4.2,1.5,6.5,2.5a10.37,10.37,0,0,0,1,.4,28.23,28.23,0,0,1,4.9,2.5c-.4-3.8-.3-12.7-.2-20.6.1-5.4.1-10.5,0-12.8a7.73,7.73,0,0,0-.8-3.4c-1.4-2.7-4.3-3.4-7.1-4l-.6-.1h0a10.32,10.32,0,0,1-10.3,5.4,3.3,3.3,0,0,1-1.7-.8q-.3-.15-.3-.3a3.78,3.78,0,0,1-.4-2,6.5,6.5,0,0,1,1.1-3.3v-.1a21.44,21.44,0,0,1-2.4.3,10.42,10.42,0,0,0-1.1.1,11.19,11.19,0,0,0-5.1,3.1,22.53,22.53,0,0,0-2.8,3.7c.7.6,4.9,4,5.2,4.3.1.1.2.2.2.3s0,.3,0,.5a10.21,10.21,0,0,0-.6,4.5,27,27,0,0,0,.8,5.2l.6,1.8a20.25,20.25,0,0,1,.9,3.3,11.89,11.89,0,0,1-.8,6.7A3.08,3.08,0,0,1,180.4,222.8Z"/><path class="cls-22" d="M180.5,184.6H180v-.4a11.44,11.44,0,0,0,5.2-.9l.1.3A11.49,11.49,0,0,1,180.5,184.6Z"/><path class="cls-19" d="M186.3,192.2a7.16,7.16,0,0,0-1-4.8"/><path d="M186.4,192.2l-.4-.1a7.76,7.76,0,0,0-1-4.7l.3-.2A7,7,0,0,1,186.4,192.2Z"/><path class="cls-22" d="M180.3,169.7a2.36,2.36,0,0,1,1.2.1c1,.6,1.2,2.1,1.2,3.1v.5a1.34,1.34,0,0,0,.6.7,5.39,5.39,0,0,1,1.5,5.1,5.93,5.93,0,0,1,2.3-.5,3.59,3.59,0,0,1,1.8.2c.4.3.3.7.4,1a7.55,7.55,0,0,0,1.1,1.4,5,5,0,0,1,.9,2.3c.4,2.1-1.1,7.1,1.7,8a6.61,6.61,0,0,0,2.8,0c2.5-.2,4.7.4,7.1.7a19.45,19.45,0,0,0,.5-2,15.18,15.18,0,0,0,.9-2.8,3.71,3.71,0,0,0-1.2-3.2c-1.1-.8-2.9-.7-3.6-1.9-1.3-2.3,1.3-5.2.3-7.6-.8-1.9-3.4-2.2-4.6-3.9a18.89,18.89,0,0,1-1.1-2.5c-1.2-2.7-4.1-3.7-6.8-3.8-2-.1-4.2.1-5.6,1.5-1,.9-1.1,2.3-1.4,3.5Z"/></g><path class="cls-18" d="M188.3,201.7a21.9,21.9,0,1,1,21.9-21.9A21.89,21.89,0,0,1,188.3,201.7Zm0-43.4a21.5,21.5,0,1,0,21.5,21.5A21.53,21.53,0,0,0,188.3,158.3Z"/></g></g></svg>