<?xml version="1.0" encoding="utf-8"?>
<!-- Generator: Adobe Illustrator 24.1.2, SVG Export Plug-In . SVG Version: 6.00 Build 0)  -->
<svg version="1.1" xmlns="http://www.w3.org/2000/svg" xmlns:xlink="http://www.w3.org/1999/xlink" x="0px" y="0px"
	 viewBox="0 0 327.3 291.7" style="enable-background:new 0 0 327.3 291.7;" xml:space="preserve">
<style type="text/css">
	.st0{display:none;}
	.st1{display:inline;enable-background:new    ;}
	.st2{font-family:'SourceSansPro-Regular';}
	.st3{font-size:18px;}
	.st4{fill:#04A0F4;}
	.st5{opacity:0.1;fill:#04A0F4;enable-background:new    ;}
	.st6{fill:none;stroke:#9E9E9E;stroke-miterlimit:10;}
	.st7{fill:#FFFFFF;stroke:#9E9E9E;stroke-miterlimit:10;}
	.st8{fill:#00A1F4;}
	.st9{fill:#FFFFFF;}
	.st10{fill:#FFBE4F;}
	.st11{enable-background:new    ;}
	.st12{clip-path:url(#SVGID_2_);}
	.st13{clip-path:url(#SVGID_4_);}
	.st14{fill:#484949;}
	.st15{clip-path:url(#SVGID_6_);}
	.st16{clip-path:url(#SVGID_8_);}
	.st17{clip-path:url(#SVGID_10_);}
	.st18{fill:#C9C9C7;}
	.st19{clip-path:url(#SVGID_12_);}
	.st20{clip-path:url(#SVGID_14_);}
	.st21{clip-path:url(#SVGID_16_);}
	.st22{clip-path:url(#SVGID_18_);}
	.st23{clip-path:url(#SVGID_20_);}
	.st24{clip-path:url(#SVGID_22_);}
	.st25{clip-path:url(#SVGID_24_);}
	.st26{clip-path:url(#SVGID_26_);}
	.st27{clip-path:url(#SVGID_28_);}
	.st28{clip-path:url(#SVGID_30_);}
	.st29{clip-path:url(#SVGID_32_);}
	.st30{clip-path:url(#SVGID_34_);}
	.st31{clip-path:url(#SVGID_36_);}
	.st32{clip-path:url(#SVGID_38_);}
	.st33{clip-path:url(#SVGID_40_);}
	.st34{fill:none;}
	.st35{fill:#9E9E9E;}
	.st36{clip-path:url(#SVGID_42_);}
</style>
<g id="Layer_1">
	<g id="backup" class="st0">
		<text transform="matrix(1 0 0 1 119.7392 86.3477)" class="st1"><tspan x="0" y="0" class="st2 st3">How’s your mother</tspan><tspan x="0" y="21.6" class="st2 st3">doing post-surgery?</tspan></text>
		<text transform="matrix(1 0 0 1 209.3044 172.5651)" class="st1"><tspan x="0" y="0" class="st2 st3">She’s</tspan><tspan x="0" y="21.6" class="st2 st3">recovering!</tspan></text>
	</g>
	<g id="Layer_1_1_">
		<g id="Layer_3">
		</g>
		<g>
			<path class="st4" d="M158.6,46.6h-44.7c-3.2,0-5.9-2.6-5.9-5.9v-20c0-3.2,2.6-5.9,5.9-5.9h44.7c3.2,0,5.9,2.6,5.9,5.9v20.1
				C164.5,44,161.9,46.6,158.6,46.6z"/>
			<path class="st4" d="M220.6,46.6h-44.7c-3.2,0-5.9-2.6-5.9-5.9v-20c0-3.2,2.6-5.9,5.9-5.9h44.7c3.2,0,5.9,2.6,5.9,5.9v20.1
				C226.4,44,223.8,46.6,220.6,46.6z"/>
			<g>
				<rect x="50.9" y="38.8" class="st5" width="198.9" height="68"/>
				<rect x="50.9" y="120.2" class="st5" width="198.9" height="68"/>
				<line class="st6" x1="61.6" y1="48.9" x2="147.4" y2="48.9"/>
				<path class="st7" d="M102,37.5v-15c0-4-3.5-7.2-7.8-7.2H44.6c-4.3,0-7.8,3.2-7.8,7.2v15.1v4.8v197.8h227.5V37.5H102z"/>
			</g>
		</g>
		<circle class="st5" cx="69.8" cy="212.4" r="67.6"/>
		<circle class="st5" cx="69.8" cy="212.4" r="51.2"/>
		<g>
			<path class="st8" d="M71.2,175.8c-20.3-1.1-37.7,14.4-38.9,34.7c-0.4,7.3,1.3,14.1,4.6,20l-12,20.6l21.6-9.4
				c5.8,4.4,12.8,7.3,20.6,7.7c20.3,1.1,37.7-14.4,38.9-34.7C107,194.3,91.5,177,71.2,175.8z"/>
			<path class="st9" d="M55.3,219.8h-1c-1.1,0-2-0.9-2-2v-11.4c0-1.1,0.9-2,2-2h1c1.1,0,2,0.9,2,2v11.4
				C57.2,219,56.4,219.8,55.3,219.8z"/>
			<path class="st9" d="M46.9,215h-1c-1.1,0-2-0.9-2-2v-1c0-1.1,0.9-2,2-2h1c1.1,0,2,0.9,2,2v1C48.9,214.1,48,215,46.9,215z"/>
			<path class="st9" d="M63.4,225.4h-1c-1.1,0-2-0.9-2-2v-22.6c0-1.1,0.9-2,2-2h1c1.1,0,2,0.9,2,2v22.6
				C65.5,224.5,64.5,225.4,63.4,225.4z"/>
			<path class="st9" d="M71.7,236.6h-1c-1.1,0-2-0.9-2-2v-44.8c0-1.1,0.9-2,2-2h1c1.1,0,2,0.9,2,2v44.8
				C73.6,235.7,72.7,236.6,71.7,236.6z"/>
			<path class="st9" d="M79.8,225.4h-1c-1.1,0-2-0.9-2-2v-22.6c0-1.1,0.9-2,2-2h1c1.1,0,2,0.9,2,2v22.6
				C81.9,224.5,80.9,225.4,79.8,225.4z"/>
			<path class="st9" d="M88,219.8h-1c-1.1,0-2-0.9-2-2v-11.4c0-1.1,0.9-2,2-2h1c1.1,0,2,0.9,2,2v11.4C90,219,89.1,219.8,88,219.8z"
				/>
		</g>
		<g>
			<circle class="st10" cx="179" cy="255.7" r="27.3"/>
			<polygon class="st10" points="145.6,236.7 159.1,254.1 166,239.2 			"/>
			<g>
				<path class="st9" d="M197.2,257.3h-1.3c-0.7,0-1.3-0.6-1.3-1.3v-1.3c0-0.7,0.6-1.3,1.3-1.3h1.3c0.7,0,1.3,0.6,1.3,1.3v1.3
					C198.5,256.7,197.9,257.3,197.2,257.3z"/>
				<path class="st9" d="M165.8,261.1h-1.3c-0.7,0-1.3-0.6-1.3-1.3v-9.4c0-0.7,0.6-1.3,1.3-1.3h1.3c0.7,0,1.3,0.6,1.3,1.3v9.4
					C167.1,260.5,166.5,261.1,165.8,261.1z"/>
				<path class="st9" d="M172.2,265.4h-1.3c-0.7,0-1.3-0.6-1.3-1.3v-18c0-0.7,0.6-1.3,1.3-1.3h1.3c0.7,0,1.3,0.6,1.3,1.3v18
					C173.5,264.8,172.9,265.4,172.2,265.4z"/>
				<path class="st9" d="M178.5,261.1h-1.3c-0.7,0-1.3-0.6-1.3-1.3v-9.4c0-0.7,0.6-1.3,1.3-1.3h1.3c0.7,0,1.3,0.6,1.3,1.3v9.4
					C179.8,260.5,179.2,261.1,178.5,261.1z"/>
				<path class="st9" d="M184.9,271.3h-1.3c-0.7,0-1.3-0.6-1.3-1.3v-29.9c0-0.7,0.6-1.3,1.3-1.3h1.3c0.7,0,1.3,0.6,1.3,1.3V270
					C186.2,270.8,185.6,271.3,184.9,271.3z"/>
				<path class="st9" d="M191.2,261.1h-1.3c-0.7,0-1.3-0.6-1.3-1.3v-9.4c0-0.7,0.6-1.3,1.3-1.3h1.3c0.7,0,1.3,0.6,1.3,1.3v9.4
					C192.5,260.5,191.9,261.1,191.2,261.1z"/>
			</g>
		</g>
	</g>
	<g id="doctor">
		<path class="st7" d="M288.6,127.6H76c-6.4,0-11.6-5.2-11.6-11.6V63.6C64.4,57.2,69.6,52,76,52h212.6c6.4,0,11.6,5.2,11.6,11.6V116
			C300.2,122.4,295,127.6,288.6,127.6z"/>
		<g id="Layer_2_1_">
			<g class="st11">
				<path d="M134.4,72.5h1.5v5h5.5v-5h1.5v11.8h-1.5v-5.6h-5.5v5.6h-1.5V72.5z"/>
				<path d="M145.5,80c0-2.9,1.9-4.6,4.1-4.6s4.1,1.7,4.1,4.6c0,2.9-1.9,4.6-4.1,4.6S145.5,82.9,145.5,80z M152.1,80
					c0-2-1-3.4-2.5-3.4c-1.5,0-2.5,1.4-2.5,3.4c0,2,1,3.3,2.5,3.3C151,83.3,152.1,82,152.1,80z"/>
				<path d="M155,75.6h1.5l1.3,5.1c0.2,0.8,0.4,1.6,0.5,2.4h0.1c0.2-0.8,0.4-1.6,0.6-2.4l1.4-5.1h1.4l1.4,5.1
					c0.2,0.8,0.4,1.6,0.6,2.4h0.1c0.2-0.8,0.4-1.6,0.5-2.4l1.3-5.1h1.4l-2.3,8.8h-1.8l-1.3-4.7c-0.2-0.8-0.4-1.6-0.6-2.5h-0.1
					c-0.2,0.9-0.4,1.7-0.6,2.5l-1.2,4.7h-1.7L155,75.6z"/>
				<path d="M168.8,75.9c0.9-0.6,1.4-1.2,1.4-2.3c-0.1,0-0.1,0-0.1,0c-0.5,0-1-0.3-1-0.9c0-0.6,0.4-1,1-1c0.7,0,1.1,0.6,1.1,1.6
					c0,1.4-0.7,2.5-1.9,3.2L168.8,75.9z"/>
				<path d="M171.9,83.4l0.7-1c0.8,0.6,1.5,1,2.6,1c1.2,0,1.7-0.6,1.7-1.4c0-0.9-1-1.3-2-1.7c-1.2-0.5-2.6-1-2.6-2.5
					c0-1.4,1.1-2.5,3-2.5c1.1,0,2.1,0.5,2.7,1l-0.7,0.9c-0.6-0.5-1.2-0.8-2-0.8c-1.1,0-1.6,0.6-1.6,1.3c0,0.8,1,1.1,1.9,1.5
					c1.3,0.5,2.7,1,2.7,2.6c0,1.4-1.1,2.6-3.2,2.6C173.9,84.6,172.7,84,171.9,83.4z"/>
				<path d="M183.5,87.9l0.3-1.2c0.2,0.1,0.5,0.1,0.7,0.1c1,0,1.6-0.8,2-1.9l0.2-0.6l-3.5-8.8h1.5l1.8,4.8c0.3,0.8,0.6,1.7,0.8,2.5
					h0.1c0.3-0.8,0.5-1.7,0.7-2.5l1.6-4.8h1.4l-3.3,9.5c-0.6,1.7-1.5,3-3.3,3C184.1,88.1,183.8,88,183.5,87.9z"/>
				<path d="M192.2,80c0-2.9,1.9-4.6,4.1-4.6s4.1,1.7,4.1,4.6c0,2.9-1.9,4.6-4.1,4.6S192.2,82.9,192.2,80z M198.8,80
					c0-2-1-3.4-2.5-3.4c-1.5,0-2.5,1.4-2.5,3.4c0,2,1,3.3,2.5,3.3C197.8,83.3,198.8,82,198.8,80z"/>
				<path d="M202.7,81.1v-5.5h1.5v5.3c0,1.6,0.5,2.3,1.6,2.3c0.9,0,1.5-0.5,2.4-1.5v-6.2h1.5v8.8h-1.2l-0.1-1.4h-0.1
					c-0.8,1-1.7,1.6-2.9,1.6C203.5,84.6,202.7,83.4,202.7,81.1z"/>
				<path d="M212.8,75.6h1.2l0.1,1.6h0.1c0.6-1.1,1.5-1.8,2.5-1.8c0.4,0,0.6,0.1,0.9,0.2l-0.3,1.3c-0.3-0.1-0.5-0.1-0.8-0.1
					c-0.7,0-1.6,0.5-2.2,2v5.6h-1.5V75.6z"/>
				<path d="M223,75.6h1.2l0.1,1.3h0.1c0.8-0.8,1.7-1.5,2.7-1.5c1.3,0,2.1,0.6,2.4,1.7c0.9-1,1.8-1.7,2.9-1.7c1.8,0,2.7,1.2,2.7,3.4
					v5.5h-1.5V79c0-1.6-0.5-2.3-1.6-2.3c-0.7,0-1.4,0.5-2.2,1.4v6.3h-1.5V79c0-1.6-0.5-2.3-1.6-2.3c-0.6,0-1.4,0.5-2.2,1.4v6.3H223
					V75.6z"/>
				<path d="M237.5,80c0-2.9,1.9-4.6,4.1-4.6s4.1,1.7,4.1,4.6c0,2.9-1.9,4.6-4.1,4.6S237.5,82.9,237.5,80z M244,80
					c0-2-1-3.4-2.5-3.4c-1.5,0-2.5,1.4-2.5,3.4c0,2,1,3.3,2.5,3.3C243,83.3,244,82,244,80z"/>
				<path d="M248,81.6v-4.8h-1.3v-1.1l1.4-0.1l0.2-2.4h1.2v2.4h2.4v1.2h-2.4v4.9c0,1.1,0.3,1.7,1.4,1.7c0.3,0,0.7-0.1,1-0.2l0.3,1.1
					c-0.5,0.2-1.1,0.3-1.6,0.3C248.6,84.6,248,83.4,248,81.6z"/>
				<path d="M254,71.5h1.5V75l-0.1,1.8c0.8-0.8,1.7-1.4,2.9-1.4c1.8,0,2.7,1.2,2.7,3.4v5.5h-1.5V79c0-1.6-0.5-2.3-1.7-2.3
					c-0.9,0-1.5,0.5-2.4,1.4v6.3H254V71.5z"/>
				<path d="M263.3,80c0-2.9,1.9-4.6,3.9-4.6c2.2,0,3.5,1.6,3.5,4.1c0,0.3,0,0.6-0.1,0.8h-5.9c0.1,1.9,1.2,3,2.9,3
					c0.8,0,1.5-0.3,2.2-0.7l0.5,1c-0.8,0.5-1.7,0.9-2.9,0.9C265.2,84.6,263.3,82.9,263.3,80z M269.4,79.3c0-1.8-0.8-2.7-2.2-2.7
					c-1.2,0-2.3,1-2.5,2.7H269.4z"/>
				<path d="M273.1,75.6h1.2l0.1,1.6h0.1c0.6-1.1,1.5-1.8,2.5-1.8c0.4,0,0.6,0.1,0.9,0.2l-0.3,1.3c-0.3-0.1-0.5-0.1-0.8-0.1
					c-0.7,0-1.6,0.5-2.2,2v5.6h-1.5V75.6z"/>
				<path d="M133.6,101.6c0-2.8,1.8-4.6,3.8-4.6c1,0,1.7,0.4,2.4,1l-0.1-1.5v-3.4h1.5v12.8H140l-0.1-1h-0.1
					c-0.7,0.7-1.6,1.2-2.6,1.2C135,106.2,133.6,104.5,133.6,101.6z M139.8,103.7v-4.6c-0.7-0.7-1.4-0.9-2.1-0.9
					c-1.4,0-2.5,1.4-2.5,3.3c0,2.1,0.9,3.3,2.4,3.3C138.3,104.9,139,104.5,139.8,103.7z"/>
				<path d="M143.7,101.6c0-2.9,1.9-4.6,4.1-4.6s4.1,1.7,4.1,4.6c0,2.9-1.9,4.6-4.1,4.6S143.7,104.5,143.7,101.6z M150.3,101.6
					c0-2-1-3.4-2.5-3.4c-1.5,0-2.5,1.4-2.5,3.4c0,2,1,3.3,2.5,3.3C149.3,104.9,150.3,103.6,150.3,101.6z"/>
				<path d="M154.1,94.4c0-0.6,0.5-1,1-1s1,0.4,1,1c0,0.6-0.4,1-1,1S154.1,95,154.1,94.4z M154.3,97.2h1.5v8.8h-1.5V97.2z"/>
				<path d="M158.9,97.2h1.2l0.1,1.3h0.1c0.8-0.8,1.7-1.5,2.9-1.5c1.8,0,2.7,1.2,2.7,3.4v5.5h-1.5v-5.3c0-1.6-0.5-2.3-1.7-2.3
					c-0.9,0-1.5,0.5-2.4,1.4v6.3h-1.5V97.2z"/>
				<path d="M168.3,107.6c0-0.7,0.5-1.4,1.3-2v-0.1c-0.4-0.3-0.8-0.7-0.8-1.4c0-0.7,0.5-1.3,1-1.6v-0.1c-0.6-0.5-1.1-1.3-1.1-2.4
					c0-1.9,1.5-3.1,3.3-3.1c0.5,0,0.9,0.1,1.2,0.2h3v1.1h-1.8c0.4,0.4,0.7,1.1,0.7,1.8c0,1.9-1.4,3-3.2,3c-0.4,0-0.9-0.1-1.3-0.3
					c-0.3,0.3-0.6,0.6-0.6,1c0,0.6,0.4,1,1.5,1h1.7c2,0,3.1,0.6,3.1,2.1c0,1.6-1.7,3-4.4,3C169.8,110,168.3,109.1,168.3,107.6z
					 M174.9,107.2c0-0.8-0.6-1.1-1.8-1.1h-1.5c-0.3,0-0.8,0-1.1-0.1c-0.6,0.5-0.9,1-0.9,1.5c0,0.9,1,1.5,2.5,1.5
					C173.8,109,174.9,108.1,174.9,107.2z M173.8,100.1c0-1.3-0.8-2-1.9-2s-1.9,0.8-1.9,2s0.8,2.1,1.9,2.1S173.8,101.4,173.8,100.1z"
					/>
				<path d="M182,97.2h1.2l0.1,1h0.1c0.8-0.7,1.8-1.2,2.8-1.2c2.3,0,3.5,1.7,3.5,4.5c0,3-1.8,4.7-3.8,4.7c-0.8,0-1.6-0.4-2.4-1
					l0,1.5v3H182V97.2z M188.1,101.4c0-1.9-0.6-3.2-2.3-3.2c-0.7,0-1.5,0.4-2.3,1.2v4.6c0.8,0.7,1.6,0.9,2.1,0.9
					C187,104.9,188.1,103.6,188.1,101.4z"/>
				<path d="M191.5,101.6c0-2.9,1.9-4.6,4.1-4.6s4.1,1.7,4.1,4.6c0,2.9-1.9,4.6-4.1,4.6S191.5,104.5,191.5,101.6z M198.1,101.6
					c0-2-1-3.4-2.5-3.4c-1.5,0-2.5,1.4-2.5,3.4c0,2,1,3.3,2.5,3.3C197.1,104.9,198.1,103.6,198.1,101.6z"/>
				<path d="M201.1,105l0.7-1c0.8,0.6,1.5,1,2.6,1c1.2,0,1.7-0.6,1.7-1.4c0-0.9-1-1.3-2-1.7c-1.2-0.5-2.6-1-2.6-2.5
					c0-1.4,1.1-2.5,3-2.5c1.1,0,2.1,0.5,2.7,1l-0.7,0.9c-0.6-0.5-1.2-0.8-2-0.8c-1.1,0-1.6,0.6-1.6,1.3c0,0.8,1,1.1,1.9,1.5
					c1.3,0.5,2.7,1,2.7,2.6c0,1.4-1.1,2.6-3.2,2.6C203.1,106.2,201.9,105.6,201.1,105z"/>
				<path d="M209.7,103.2v-4.8h-1.3v-1.1l1.4-0.1l0.2-2.4h1.2v2.4h2.4v1.2h-2.4v4.9c0,1.1,0.3,1.7,1.4,1.7c0.3,0,0.7-0.1,1-0.2
					l0.3,1.1c-0.5,0.2-1.1,0.3-1.6,0.3C210.3,106.2,209.7,105,209.7,103.2z"/>
				<path d="M214.5,100.9h4.1v1.1h-4.1V100.9z"/>
				<path d="M220.1,105l0.7-1c0.8,0.6,1.5,1,2.6,1c1.2,0,1.7-0.6,1.7-1.4c0-0.9-1-1.3-2-1.7c-1.2-0.5-2.6-1-2.6-2.5
					c0-1.4,1.1-2.5,3-2.5c1.1,0,2.1,0.5,2.7,1l-0.7,0.9c-0.6-0.5-1.2-0.8-2-0.8c-1.1,0-1.6,0.6-1.6,1.3c0,0.8,1,1.1,1.9,1.5
					c1.3,0.5,2.7,1,2.7,2.6c0,1.4-1.1,2.6-3.2,2.6C222.1,106.2,220.9,105.6,220.1,105z"/>
				<path d="M228.6,102.7v-5.5h1.5v5.3c0,1.6,0.5,2.3,1.6,2.3c0.9,0,1.5-0.5,2.4-1.5v-6.2h1.5v8.8h-1.2l-0.1-1.4h-0.1
					c-0.8,1-1.7,1.6-2.9,1.6C229.5,106.2,228.6,105,228.6,102.7z"/>
				<path d="M238.7,97.2h1.2l0.1,1.6h0.1c0.6-1.1,1.5-1.8,2.5-1.8c0.4,0,0.6,0.1,0.9,0.2l-0.3,1.3c-0.3-0.1-0.5-0.1-0.8-0.1
					c-0.7,0-1.6,0.5-2.2,2v5.6h-1.5V97.2z"/>
				<path d="M244.3,107.6c0-0.7,0.5-1.4,1.3-2v-0.1c-0.4-0.3-0.8-0.7-0.8-1.4c0-0.7,0.5-1.3,1-1.6v-0.1c-0.6-0.5-1.1-1.3-1.1-2.4
					c0-1.9,1.5-3.1,3.3-3.1c0.5,0,0.9,0.1,1.2,0.2h3v1.1h-1.8c0.4,0.4,0.7,1.1,0.7,1.8c0,1.9-1.4,3-3.2,3c-0.4,0-0.9-0.1-1.3-0.3
					c-0.3,0.3-0.6,0.6-0.6,1c0,0.6,0.4,1,1.5,1h1.7c2,0,3.1,0.6,3.1,2.1c0,1.6-1.7,3-4.4,3C245.8,110,244.3,109.1,244.3,107.6z
					 M250.9,107.2c0-0.8-0.6-1.1-1.8-1.1h-1.5c-0.3,0-0.8,0-1.1-0.1c-0.6,0.5-0.9,1-0.9,1.5c0,0.9,1,1.5,2.5,1.5
					C249.8,109,250.9,108.1,250.9,107.2z M249.8,100.1c0-1.3-0.8-2-1.9-2s-1.9,0.8-1.9,2s0.8,2.1,1.9,2.1
					C248.9,102.2,249.8,101.4,249.8,100.1z"/>
				<path d="M253.3,101.6c0-2.9,1.9-4.6,3.9-4.6c2.2,0,3.5,1.6,3.5,4.1c0,0.3,0,0.6-0.1,0.8h-5.9c0.1,1.9,1.2,3,2.9,3
					c0.8,0,1.5-0.3,2.2-0.7l0.5,1c-0.8,0.5-1.7,0.9-2.9,0.9C255.2,106.2,253.3,104.5,253.3,101.6z M259.4,100.9
					c0-1.8-0.8-2.7-2.2-2.7c-1.2,0-2.3,1-2.5,2.7H259.4z"/>
				<path d="M263.1,97.2h1.2l0.1,1.6h0.1c0.6-1.1,1.5-1.8,2.5-1.8c0.4,0,0.6,0.1,0.9,0.2l-0.3,1.3c-0.3-0.1-0.5-0.1-0.8-0.1
					c-0.7,0-1.6,0.5-2.2,2v5.6h-1.5V97.2z"/>
				<path d="M269.1,109.5l0.3-1.2c0.2,0.1,0.5,0.1,0.7,0.1c1,0,1.6-0.8,2-1.9l0.2-0.6l-3.5-8.8h1.5l1.8,4.8c0.3,0.8,0.6,1.7,0.8,2.5
					h0.1c0.3-0.8,0.5-1.7,0.7-2.5l1.6-4.8h1.4l-3.3,9.5c-0.6,1.7-1.5,3-3.3,3C269.7,109.7,269.4,109.6,269.1,109.5z"/>
				<path d="M282.4,96.6c0-1-0.6-1.7-1.7-1.7c-0.8,0-1.5,0.4-2.1,1l-0.8-0.8c0.8-0.9,1.8-1.5,3.1-1.5c1.8,0,3,1.1,3,2.9
					c0,2.4-2.9,3.3-2.6,5.8h-1.3C279.5,99.6,282.4,98.5,282.4,96.6z M279.6,105c0-0.7,0.5-1.2,1.1-1.2c0.6,0,1.1,0.5,1.1,1.2
					c0,0.6-0.5,1.1-1.1,1.1C280,106.2,279.6,105.7,279.6,105z"/>
			</g>
		</g>
		<g id="Layer_3_1_">
			<g>
				<g id="Layer_1_2_">
					<g>
						<circle class="st9" cx="98.9" cy="90" r="21.7"/>
					</g>
					<g>
						<g>
							<g>
								<g>
									<g>
										<g>
											<defs>
												<circle id="SVGID_1_" cx="98.9" cy="90" r="21.7"/>
											</defs>
											<clipPath id="SVGID_2_">
												<use xlink:href="#SVGID_1_"  style="overflow:visible;"/>
											</clipPath>
											<g class="st12">
												<path class="st9" d="M99.2,118.3c-1.3-1.6-2.7-3.4-4.4-4.7c-1.1-1-2.4-1.9-3.9-2.1c-1.5-0.3-3.1,0.1-4.6,0.5
													c-3.2,0.9-6.5,2-8.8,4.4"/>
												<path d="M99,118.4c-1.3-1.6-2.7-3.3-4.3-4.7c-1-0.8-2.3-1.8-3.8-2.1c-1.5-0.3-3.2,0.1-4.6,0.5c-3.2,0.9-6.5,2-8.7,4.3
													l-0.3-0.2c2.3-2.4,5.6-3.6,8.9-4.4c1.4-0.4,3.1-0.8,4.7-0.5s3,1.3,4,2.2c1.7,1.3,3.1,3.1,4.4,4.7L99,118.4z"/>
											</g>
										</g>
									</g>
								</g>
							</g>
						</g>
						<g>
							<g>
								<g>
									<g>
										<g>
											<defs>
												<circle id="SVGID_3_" cx="98.9" cy="90" r="21.7"/>
											</defs>
											<clipPath id="SVGID_4_">
												<use xlink:href="#SVGID_3_"  style="overflow:visible;"/>
											</clipPath>
											<g class="st13">
												<path class="st9" d="M135.1,126.1c-5.4-20.8-24.1-27.3-38.1-28c-8.2-0.4-17,2-22.7,8.1c-3,3.2-5.3,7-7,11.1"/>
												<path class="st14" d="M134.9,126.1c-6.4-24.5-30.7-27.5-38-27.8c-9-0.4-17.4,2.6-22.6,8.1c-2.8,3-5.2,6.7-7,11l-0.3-0.1
													c1.8-4.3,4.2-8.1,7.1-11.1c5.2-5.6,13.7-8.6,22.8-8.2c5.8,0.3,14.4,1.6,22.4,6.4c8.1,4.9,13.5,12.2,15.9,21.7
													L134.9,126.1z"/>
											</g>
										</g>
									</g>
								</g>
							</g>
						</g>
						<g>
							<g>
								<g>
									<g>
										<g>
											<defs>
												<circle id="SVGID_5_" cx="98.9" cy="90" r="21.7"/>
											</defs>
											<clipPath id="SVGID_6_">
												<use xlink:href="#SVGID_5_"  style="overflow:visible;"/>
											</clipPath>
											<g class="st15">
												<path class="st9" d="M102.5,116.8c0.4-1.4,0.5-2.8,0.7-4.2c0.6-4.6,1.3-9.4,0.7-14.1c3.9,0.9,7.8,2,11.4,3.6
													c4.1,1.8,7.6,4.3,10.4,7.9"/>
												<path class="st14" d="M102.7,116.9l-0.3-0.1c0.4-1.4,0.5-2.8,0.7-4.2v-0.2c0.6-4.5,1.2-9.2,0.6-13.8v-0.3l0.2,0.1
													c4.6,1,8.2,2.2,11.4,3.6c4.4,1.9,7.8,4.5,10.5,8l-0.3,0.2c-2.6-3.4-6-5.9-10.3-7.8c-3.1-1.4-6.7-2.5-11.1-3.5
													c0.5,4.5-0.1,9.2-0.7,13.6v0.2C103.3,114,103.1,115.4,102.7,116.9z"/>
											</g>
										</g>
									</g>
								</g>
							</g>
						</g>
						<g>
							<g>
								<g>
									<g>
										<g>
											<defs>
												<circle id="SVGID_7_" cx="98.9" cy="90" r="21.7"/>
											</defs>
											<clipPath id="SVGID_8_">
												<use xlink:href="#SVGID_7_"  style="overflow:visible;"/>
											</clipPath>
											<g class="st16">
												<path class="st9" d="M99,115.5c-1.1-3.9-2.8-7.5-5.1-10.9c-0.9-1.4-2-2.8-2.1-4.4c-0.2-1.8,0.8-2.6,1.5-4
													c0.8-1.6,0.4-3.8,0.1-5.4c-0.1-0.4-0.2-0.8,0-1.1c0.2-0.3,0.6-0.4,0.9-0.4c2.8-0.3,5.5,1.1,7.8,2.7
													c0.6,0.4,1.3,0.9,1.7,1.6c0.4,0.6,0.5,1.4,0.6,2.1c0.5,3.4,0.9,6.7,1,10.1c0.1,2.1,0.2,4.3,0,6.4
													c-0.6,5.3-3.1,10-4.1,15.2"/>
												<path class="st14" d="M101.6,127.6l-0.4-0.1c0.4-2.3,1.2-4.6,1.9-6.8c0.9-2.7,1.8-5.5,2.2-8.4c0.3-2.2,0.2-4.4,0-6.4
													c-0.2-3.3-0.5-6.6-1-10.1v-0.1c-0.1-0.7-0.2-1.4-0.6-2s-1-1.1-1.7-1.6c-2.1-1.4-4.8-2.9-7.7-2.7c-0.3,0-0.7,0.1-0.8,0.3
													c-0.2,0.2-0.1,0.6,0,0.9v0.1c0.4,1.8,0.7,3.9-0.1,5.5c-0.2,0.4-0.4,0.7-0.6,1c-0.5,0.9-1,1.6-0.9,2.8
													c0.1,1.4,1,2.7,1.9,4l0.2,0.3c2.3,3.3,4,7,5.1,10.9l-0.3,0.1c-1.1-3.9-2.8-7.5-5.1-10.8l-0.2-0.3
													c-0.9-1.3-1.8-2.6-1.9-4.1c-0.1-1.3,0.4-2.2,1-3.1c0.2-0.3,0.4-0.6,0.6-1c0.7-1.5,0.4-3.6,0.1-5.3v-0.1
													c-0.1-0.4-0.2-0.8,0.1-1.1c0.2-0.3,0.7-0.4,1.1-0.5c3-0.3,5.8,1.3,7.9,2.7c0.7,0.5,1.4,1,1.8,1.7
													c0.4,0.6,0.5,1.4,0.6,2.1v0.1c0.5,3.5,0.9,6.8,1,10.1c0.1,1.9,0.2,4.2,0,6.4c-0.3,2.9-1.3,5.7-2.2,8.5
													C102.7,123.1,102,125.3,101.6,127.6z"/>
											</g>
										</g>
									</g>
								</g>
							</g>
						</g>
						<g>
							<g>
								<g>
									<g>
										<g>
											<defs>
												<circle id="SVGID_9_" cx="98.9" cy="90" r="21.7"/>
											</defs>
											<clipPath id="SVGID_10_">
												<use xlink:href="#SVGID_9_"  style="overflow:visible;"/>
											</clipPath>
											<g class="st17">
												<path class="st18" d="M102.7,125.1c1.6-4,4.3-7.6,4.6-11.9c0-1.9-0.1-3.8-0.4-5.6c-0.1-0.9,0-1.8-0.1-2.7
													c0-0.8-0.5-1.6-0.9-2.4c-0.4,0.3-0.8,0.6-1.2,0.9c-0.1,0.1-0.3,0.2-0.5,0.3c-1.8,1-4.3,0.4-6-0.4
													c-1.9-0.8-3.6-2-4.9-3.6c-0.3-0.4-1.1,0.2-1.2,0.7c0,0.5,0.3,1,0.5,1.5c2.6,4,2.8,9.2,4.6,13.6"/>
											</g>
										</g>
									</g>
								</g>
							</g>
						</g>
						<g>
							<g>
								<g>
									<g>
										<g>
											<defs>
												<circle id="SVGID_11_" cx="98.9" cy="90" r="21.7"/>
											</defs>
											<clipPath id="SVGID_12_">
												<use xlink:href="#SVGID_11_"  style="overflow:visible;"/>
											</clipPath>
											<g class="st19">
												<path class="st9" d="M109,115.4c0.5-1.1,0.9-2.2,1-3.4c0.1-1.7-0.5-3.4-1.8-4.5c-0.3-0.3-0.6-0.6-0.6-1
													c0-0.2,0.1-0.4,0.2-0.5c0.4-1,0.9-2,0.9-3.1s-0.5-1.8-1.4-2.5c-0.6-0.5-1.2-1-1.8-1.4c-0.1-0.1-0.4-0.3-0.6-0.4
													c0.3,2.5,0.5,5,0.7,7.5c0.1,2.1,0.2,4.3,0,6.4c-0.6,5.3-3.1,10-4.1,15.2"/>
												<path class="st14" d="M101.6,127.6l-0.4-0.1c0.4-2.3,1.2-4.6,1.9-6.8c0.9-2.7,1.8-5.5,2.2-8.4c0.3-2.2,0.2-4.4,0-6.4
													c-0.2-2.7-0.4-5.2-0.7-7.5l-0.1-0.4l0.3,0.2c0.1,0.1,0.3,0.2,0.4,0.2c0.1,0.1,0.2,0.1,0.3,0.2c0.7,0.5,1.3,0.9,1.8,1.4
													c0.8,0.6,1.5,1.4,1.4,2.7c0,1.2-0.5,2.3-0.9,3.2c-0.1,0.2-0.2,0.3-0.2,0.5c0,0.3,0.1,0.5,0.5,0.9
													c1.3,1.2,1.9,2.9,1.8,4.7c-0.1,1-0.4,2.1-1,3.5l-0.3-0.1c0.6-1.3,0.9-2.4,1-3.3c0.1-1.6-0.5-3.2-1.7-4.4
													c-0.5-0.4-0.7-0.8-0.6-1.1c0-0.2,0.1-0.4,0.2-0.6c0.4-0.9,0.8-1.9,0.8-3.1c0-1.1-0.5-1.7-1.3-2.4
													c-0.5-0.5-1.1-0.9-1.8-1.4c-0.1-0.1-0.2-0.1-0.3-0.2c0,0,0,0-0.1,0c0.3,2.3,0.5,4.6,0.6,7.2c0.1,1.9,0.2,4.2,0,6.4
													c-0.3,2.9-1.3,5.7-2.2,8.5C102.8,123,102,125.3,101.6,127.6z"/>
											</g>
										</g>
									</g>
								</g>
							</g>
						</g>
						<g>
							<g>
								<g>
									<g>
										<g>
											<defs>
												<circle id="SVGID_13_" cx="98.9" cy="90" r="21.7"/>
											</defs>
											<clipPath id="SVGID_14_">
												<use xlink:href="#SVGID_13_"  style="overflow:visible;"/>
											</clipPath>
											<g class="st20">
												<path class="st9" d="M106.1,98c-4,0.4-8-2-10.8-4.5c-1.9-1.8-3.4-3.9-4.1-6.4c-0.4-1.3-1-2.5-1.3-3.9
													c-0.2-1.4-0.3-2.8-0.1-4.1c0.1-0.7,0.3-1.4,0.6-2c0.5-1,1.4-1.6,2.4-2.1c2.4-1.3,5.2-1.6,7.9-1.5
													c2.6,0.1,5.5,0.8,6.6,3.1c0.3,0.5,0.4,1.1,0.6,1.7c0.8,3,1.2,6.1,1.4,9.3c0.1,1.9,0.1,3.8,0,5.6c0,1.3-0.2,3-1,4
													C107.7,97.6,106.9,97.9,106.1,98z"/>
												<path class="st14" d="M105.3,98.2c-4.5,0-8.5-3.2-10.1-4.6c-2-1.9-3.5-4.1-4.2-6.5c-0.2-0.6-0.4-1.1-0.6-1.7
													c-0.3-0.7-0.5-1.5-0.7-2.2c-0.2-1.5-0.3-2.9-0.1-4.2c0.1-0.5,0.2-1.3,0.6-2c0.4-0.8,1.2-1.5,2.4-2.1
													c2.1-1.1,4.7-1.6,7.9-1.5c2,0.1,5.4,0.5,6.8,3.2c0.2,0.5,0.4,1,0.6,1.7c0.7,3,1.2,6.2,1.4,9.3c0.1,2.3,0.1,4,0,5.7
													c-0.1,1.9-0.4,3.3-1.1,4.1c-0.5,0.5-1.3,0.9-2.2,1l0,0C105.9,98.2,105.6,98.2,105.3,98.2z M99.9,73.6
													c-2.8,0-5.2,0.5-7.1,1.5c-1.1,0.6-1.9,1.2-2.3,2c-0.4,0.6-0.5,1.4-0.6,1.9c-0.2,1.2-0.1,2.6,0.1,4.1
													c0.2,0.7,0.4,1.5,0.7,2.2c0.2,0.6,0.4,1.1,0.6,1.7c0.7,2.3,2.1,4.5,4.1,6.3c1.6,1.5,6,4.9,10.7,4.5
													c0.8-0.1,1.6-0.4,2-0.8c0.6-0.7,0.9-2,1-3.9c0.1-1.6,0.1-3.4,0-5.6c-0.2-3.1-0.6-6.2-1.4-9.2c-0.2-0.6-0.3-1.2-0.6-1.6
													c-1.3-2.5-4.6-3-6.5-3C100.4,73.6,100.2,73.6,99.9,73.6z"/>
											</g>
										</g>
									</g>
								</g>
							</g>
						</g>
						<g>
							<g>
								<g>
									<g>
										<g>
											<defs>
												<circle id="SVGID_15_" cx="98.9" cy="90" r="21.7"/>
											</defs>
											<clipPath id="SVGID_16_">
												<use xlink:href="#SVGID_15_"  style="overflow:visible;"/>
											</clipPath>
											<g class="st21">
												<path class="st14" d="M91.7,88.7c0.3,0.5,0.5,1,0.9,1.4c-0.3-0.4,1.3-1.5,1.6-1.6c0.7-0.3,1.5,0.2,2.2,0.4
													c0.3,0.1,0.5,0.1,0.8,0.3c0.1,0.1,0.6,0.5,0.6,0.6c-0.1-1.6,0-3.6,1.3-4.6c-0.4-0.7-0.9-1.4-1-2.2
													c-0.1-0.8,0.1-1.7,0.8-2.2c0.6-0.4,1.4-0.4,2-0.4c1,0.1,2,0.1,3,0.2c3,0.2,6.4-0.9,4.9-4.8c-0.9-2.3-3.8-2.5-5.9-2.6
													c-1.4-0.1-2.7-0.2-4.1-0.1c-1.4,0-2.9,0.2-4.2,0.8c-1.1,0.4-2.3,1-3.1,1.8c-0.8,0.8-1.4,1.8-1.8,2.8
													C88.4,81.9,89.9,85.6,91.7,88.7z"/>
											</g>
										</g>
									</g>
								</g>
							</g>
						</g>
						<g>
							<g>
								<g>
									<g>
										<g>
											<defs>
												<circle id="SVGID_17_" cx="98.9" cy="90" r="21.7"/>
											</defs>
											<clipPath id="SVGID_18_">
												<use xlink:href="#SVGID_17_"  style="overflow:visible;"/>
											</clipPath>
											<g class="st22">
												<path class="st14" d="M106.1,102.4c-0.7,0-1.5-0.1-2.3-0.2c-2.5-0.4-8.2-3.7-9.3-6.8c-0.7-1.9-0.6-3.6,0.5-4.9l0.6,0.5
													c-1.1,1.3-0.8,3-0.4,4.2c1,2.8,6.5,6,8.8,6.3c2.5,0.4,4.7,0.5,5.8-2c1-2.4,1.1-6.2-0.7-9.1l0.6-0.4
													c1.9,3.1,1.8,7.2,0.7,9.8C109.5,101.9,107.9,102.4,106.1,102.4z"/>
											</g>
										</g>
									</g>
								</g>
							</g>
						</g>
						<g>
							<g>
								<g>
									<g>
										<g>
											<defs>
												<circle id="SVGID_19_" cx="98.9" cy="90" r="21.7"/>
											</defs>
											<clipPath id="SVGID_20_">
												<use xlink:href="#SVGID_19_"  style="overflow:visible;"/>
											</clipPath>
											<g class="st23">
												<path class="st14" d="M102,90.4c-2.5-1-5.7-2-7.7-2.5l0.1-0.3c2,0.6,5.2,1.6,7.8,2.5L102,90.4z"/>
											</g>
										</g>
									</g>
								</g>
							</g>
						</g>
						<g>
							<g>
								<g>
									<g>
										<g>
											<defs>
												<circle id="SVGID_21_" cx="98.9" cy="90" r="21.7"/>
											</defs>
											<clipPath id="SVGID_22_">
												<use xlink:href="#SVGID_21_"  style="overflow:visible;"/>
											</clipPath>
											<g class="st24">
												<path d="M110.2,85.9c-0.4-0.2-0.8-0.4-1.2-0.7l0.2-0.3c0.4,0.3,0.8,0.5,1.1,0.7L110.2,85.9z"/>
											</g>
										</g>
									</g>
								</g>
							</g>
						</g>
						<g>
							<g>
								<g>
									<g>
										<g>
											<defs>
												<circle id="SVGID_23_" cx="98.9" cy="90" r="21.7"/>
											</defs>
											<clipPath id="SVGID_24_">
												<use xlink:href="#SVGID_23_"  style="overflow:visible;"/>
											</clipPath>
											<g class="st25">
												<path class="st14" d="M95.8,94c-0.2,0-0.3,0-0.5-0.1c-0.3-0.1-0.5-0.4-0.7-0.6l-0.1-0.1L94.4,93
													c-0.2-0.3-0.4-0.6-0.7-0.8c-0.1-0.1-0.2-0.2-0.3-0.3c-0.3-0.3-0.6-0.5-0.8-0.9c-0.2-0.4-0.1-1.1,0.1-1.5
													c0.4-1,1.7-1.5,2.7-1.1l-0.1,0.3c-0.9-0.3-1.9,0.1-2.2,0.9C93,90,92.9,90.5,93,90.8c0.1,0.3,0.4,0.5,0.7,0.8
													c0.1,0.1,0.2,0.2,0.3,0.3c0.3,0.3,0.5,0.6,0.7,0.9l0.2,0.2c0.2,0.2,0.4,0.4,0.6,0.5c0.3,0.1,0.8,0,1.1-0.3
													c0.3-0.3,0.4-0.8,0.2-1.1l0.3-0.1c0.2,0.5,0,1.1-0.3,1.5C96.5,93.8,96.2,94,95.8,94z"/>
											</g>
										</g>
									</g>
								</g>
							</g>
						</g>
						<g>
							<g>
								<g>
									<g>
										<g>
											<defs>
												<circle id="SVGID_25_" cx="98.9" cy="90" r="21.7"/>
											</defs>
											<clipPath id="SVGID_26_">
												<use xlink:href="#SVGID_25_"  style="overflow:visible;"/>
											</clipPath>
											<g class="st26">
												<path class="st14" d="M95.6,92.3c-0.1-1.1-0.9-2.2-1.9-2.7l0.2-0.3c1.1,0.5,2,1.7,2.1,3H95.6z"/>
											</g>
										</g>
									</g>
								</g>
							</g>
						</g>
						<g>
							<g>
								<g>
									<g>
										<g>
											<defs>
												<circle id="SVGID_27_" cx="109" cy="88.4" r="21.7"/>
											</defs>
											<clipPath id="SVGID_28_">
												<use xlink:href="#SVGID_27_"  style="overflow:visible;"/>
											</clipPath>
											<g class="st27">
												<path class="st14" d="M103.6,92.2c-0.4,0-0.7-0.1-1-0.4c-0.8-0.7-0.7-2,0.1-3l0,0c0.8-1,2.2-1.3,2.9-0.6
													c0.8,0.7,0.7,2-0.1,3C104.9,91.8,104.2,92.2,103.6,92.2z M103,89.1c-0.7,0.8-0.8,2-0.2,2.5c0.6,0.5,1.7,0.3,2.4-0.6
													c0.7-0.8,0.8-2,0.2-2.5C104.7,88,103.7,88.3,103,89.1L103,89.1z"/>
											</g>
										</g>
									</g>
								</g>
							</g>
						</g>
						<g>
							<g>
								<g>
									<g>
										<g>
											<defs>
												<circle id="SVGID_29_" cx="104.2" cy="78" r="21.7"/>
											</defs>
											<clipPath id="SVGID_30_">
												<use xlink:href="#SVGID_29_"  style="overflow:visible;"/>
											</clipPath>
											<g class="st28">
												<path class="st14" d="M109.1,89.5c-0.2,0-0.4,0-0.5-0.1c-0.5-0.2-0.8-0.5-1-1s-0.2-1,0-1.5s0.5-0.9,1-1.2
													c0.5-0.3,1-0.3,1.4-0.2c1,0.3,1.4,1.5,1,2.6C110.6,88.9,109.9,89.5,109.1,89.5z M109.4,85.8c-0.2,0-0.5,0.1-0.7,0.2
													c-0.4,0.2-0.7,0.6-0.8,1l0,0c-0.2,0.4-0.1,0.9,0,1.3c0.2,0.4,0.4,0.7,0.8,0.8c0.8,0.3,1.6-0.2,1.9-1.1s-0.1-1.8-0.8-2.1
													C109.6,85.8,109.5,85.8,109.4,85.8z"/>
											</g>
										</g>
									</g>
								</g>
							</g>
						</g>
						<g>
							<g>
								<g>
									<g>
										<g>
											<defs>
												<circle id="SVGID_31_" cx="98.9" cy="90" r="21.7"/>
											</defs>
											<clipPath id="SVGID_32_">
												<use xlink:href="#SVGID_31_"  style="overflow:visible;"/>
											</clipPath>
											<g class="st29">
												<path class="st14" d="M105.6,88.8c0-0.4,0-0.8,0.2-1.1c0.2-0.4,0.5-0.6,0.8-0.7s0.8,0,1,0.3l-0.3,0.2
													c-0.1-0.2-0.4-0.3-0.6-0.2c-0.2,0.1-0.4,0.2-0.6,0.5c-0.1,0.3-0.1,0.6-0.1,0.9L105.6,88.8z"/>
											</g>
										</g>
									</g>
								</g>
							</g>
						</g>
						<g>
							<g>
								<g>
									<g>
										<g>
											<defs>
												<circle id="SVGID_33_" cx="98.9" cy="90" r="21.7"/>
											</defs>
											<clipPath id="SVGID_34_">
												<use xlink:href="#SVGID_33_"  style="overflow:visible;"/>
											</clipPath>
											<g class="st30">
												<path class="st14" d="M109.3,129.4l-0.7-0.1c0.1-0.8,0.4-2.1,0.7-3.6c1.4-6.4,4-18.3-0.3-24.4l0.6-0.4
													c4.5,6.3,1.8,18.4,0.4,25C109.7,127.4,109.4,128.6,109.3,129.4z"/>
											</g>
										</g>
									</g>
								</g>
							</g>
						</g>
						<g>
							<g>
								<g>
									<g>
										<g>
											<defs>
												<circle id="SVGID_35_" cx="98.9" cy="90" r="21.7"/>
											</defs>
											<clipPath id="SVGID_36_">
												<use xlink:href="#SVGID_35_"  style="overflow:visible;"/>
											</clipPath>
											<g class="st31">
												<path class="st9" d="M101.1,128.6c-0.4-3.4-2.3-8.9-6.6-14c-1.3-1.5-2.8-2.9-2.3-4.9c0.3-1,0.9-1.8,1.1-2.8
													c0.1-0.3,0.1-0.6,0-0.9c-0.1-0.2-0.4-0.3-0.5-0.4c-1-0.3-2-0.3-3-0.4c-1.7-0.2-2.9-0.9-2.5-2.7c0.4-1.5,1.4-2.8,2.5-3.7
													c1-1,2.1-2.2,3.6-2.3c-0.4,0-0.2,3-0.1,3.4c0.2,1.1,0.7,2.2,1.3,3.1c1.5,2.4,2.8,5,3.8,7.6c2.5,6.4,3.4,14.3,2.8,21.1"
													/>
												<path class="st14" d="M101.6,131.9h-0.4c0.6-7.2-0.5-15-2.8-21c-1-2.6-2.2-5.1-3.8-7.6c-0.7-1.1-1.2-2.2-1.3-3.2
													c0-0.2-0.3-2.3-0.1-3.2c-1.1,0.2-1.9,1-2.7,1.8c-0.1,0.1-0.3,0.3-0.4,0.4c-0.9,0.8-2,2-2.4,3.6
													c-0.2,0.6-0.1,1.2,0.2,1.6c0.3,0.5,1.1,0.8,2.1,0.9c0.4,0.1,0.7,0.1,1,0.1c0.6,0,1.3,0.1,2,0.3l0,0c0,0,0.1,0.1,0.2,0.1
													c0.2,0.1,0.3,0.2,0.4,0.3c0.2,0.3,0.1,0.6,0,1c-0.1,0.5-0.4,0.9-0.6,1.4s-0.5,0.9-0.6,1.4c-0.4,1.6,0.6,2.8,1.7,4.1
													c0.2,0.2,0.3,0.4,0.5,0.6c4.3,5.1,6.2,10.7,6.6,14.1h-0.4c-0.4-3.4-2.3-8.9-6.5-14c-0.2-0.2-0.3-0.4-0.5-0.6
													c-1.1-1.3-2.3-2.6-1.8-4.4c0.1-0.5,0.4-1,0.6-1.5c0.2-0.4,0.4-0.9,0.5-1.3c0-0.2,0.1-0.5,0-0.7
													c-0.1-0.1-0.2-0.2-0.3-0.2c-0.1,0-0.1-0.1-0.2-0.1c-0.6-0.2-1.2-0.2-1.9-0.3c-0.3,0-0.7,0-1.1-0.1
													c-1.2-0.1-2-0.5-2.4-1.1c-0.3-0.5-0.4-1.1-0.2-1.8c0.4-1.7,1.6-3,2.5-3.8c0.1-0.1,0.3-0.2,0.4-0.4c0.9-0.9,2-1.9,3.3-2
													v0.4l0,0c-0.2,0.3-0.1,2.7,0,3.2c0.2,1,0.6,2,1.3,3.1c1.5,2.5,2.8,5.1,3.8,7.7C101.1,116.7,102.1,124.7,101.6,131.9z"/>
											</g>
										</g>
									</g>
								</g>
							</g>
						</g>
						<g>
							<g>
								<g>
									<g>
										<g>
											<defs>
												<circle id="SVGID_37_" cx="98.9" cy="90" r="21.7"/>
											</defs>
											<clipPath id="SVGID_38_">
												<use xlink:href="#SVGID_37_"  style="overflow:visible;"/>
											</clipPath>
											<g class="st32">
												<path class="st9" d="M118.8,115.2c0-0.7,0.6-1.3,1.3-1.3l0,0c0.7,0,1.3,0.6,1.3,1.3"/>
											</g>
										</g>
									</g>
								</g>
							</g>
						</g>
						<g>
							<g>
								<g>
									<g>
										<g>
											<defs>
												<circle id="SVGID_39_" cx="98.9" cy="90" r="21.7"/>
											</defs>
											<clipPath id="SVGID_40_">
												<use xlink:href="#SVGID_39_"  style="overflow:visible;"/>
											</clipPath>
											<g class="st33">
												<line class="st34" x1="71.5" y1="125.2" x2="71.5" y2="19"/>
											</g>
										</g>
									</g>
								</g>
							</g>
						</g>
					</g>
					<g>
						<path class="st35" d="M98.9,111.9c-12,0-21.9-9.8-21.9-21.9s9.8-21.9,21.9-21.9s21.9,9.8,21.9,21.9S111,111.9,98.9,111.9z
							 M98.9,68.5C87,68.5,77.4,78.2,77.4,90s9.7,21.5,21.5,21.5s21.5-9.7,21.5-21.5S110.8,68.5,98.9,68.5z"/>
					</g>
					<g id="Layer_3_2_">
					</g>
				</g>
				<g id="Layer_2_2_">
				</g>
			</g>
		</g>
	</g>
	<g id="patient">
		<path class="st7" d="M314.3,216.6L164.3,217c-6.4,0-11.6-5.2-11.6-11.6l-0.1-52.4c0-6.4,5.2-11.6,11.6-11.6l149.9-0.3
			c6.4,0,11.6,5.2,11.6,11.6l0.1,52.4C325.9,211.4,320.7,216.6,314.3,216.6z"/>
		<g class="st11">
			<path d="M223.1,174l0.9-1c0.8,0.9,2,1.5,3.3,1.5c1.5,0,2.5-0.8,2.5-1.9c0-1.2-0.8-1.6-2-2.1l-1.7-0.7c-1.1-0.5-2.4-1.3-2.4-3
				c0-1.8,1.6-3.1,3.7-3.1c1.4,0,2.6,0.6,3.5,1.5l-0.8,1c-0.7-0.7-1.6-1.1-2.7-1.1c-1.3,0-2.2,0.7-2.2,1.7c0,1.1,1,1.6,2,2l1.7,0.7
				c1.4,0.6,2.4,1.4,2.4,3.2c0,1.9-1.5,3.4-4,3.4C225.5,175.8,224.1,175.1,223.1,174z"/>
			<path d="M233.6,162.7h1.5v3.5L235,168c0.8-0.8,1.7-1.4,2.9-1.4c1.8,0,2.7,1.2,2.7,3.4v5.5h-1.5v-5.3c0-1.6-0.5-2.3-1.7-2.3
				c-0.9,0-1.5,0.5-2.4,1.4v6.3h-1.5V162.7z"/>
			<path d="M242.9,171.2c0-2.9,1.9-4.6,3.9-4.6c2.2,0,3.5,1.6,3.5,4.1c0,0.3,0,0.6-0.1,0.8h-5.9c0.1,1.9,1.2,3,2.9,3
				c0.8,0,1.5-0.3,2.2-0.7l0.5,1c-0.8,0.5-1.7,0.9-2.9,0.9C244.8,175.8,242.9,174.1,242.9,171.2z M249,170.5c0-1.8-0.8-2.7-2.2-2.7
				c-1.2,0-2.3,1-2.5,2.7H249z"/>
			<path d="M252.1,167.1c0.9-0.6,1.4-1.2,1.4-2.3c-0.1,0-0.1,0-0.1,0c-0.5,0-1-0.3-1-0.9c0-0.6,0.4-1,1-1c0.7,0,1.1,0.6,1.1,1.6
				c0,1.4-0.7,2.5-1.9,3.2L252.1,167.1z"/>
			<path d="M255.3,174.6l0.7-1c0.8,0.6,1.5,1,2.6,1c1.2,0,1.7-0.6,1.7-1.4c0-0.9-1-1.3-2-1.7c-1.2-0.5-2.6-1-2.6-2.5
				c0-1.4,1.1-2.5,3-2.5c1.1,0,2.1,0.5,2.7,1l-0.7,0.9c-0.6-0.5-1.2-0.8-2-0.8c-1.1,0-1.6,0.6-1.6,1.3c0,0.8,1,1.1,1.9,1.5
				c1.3,0.5,2.7,1,2.7,2.6c0,1.4-1.1,2.6-3.2,2.6C257.3,175.8,256.1,175.3,255.3,174.6z"/>
			<path d="M223.8,188.4h1.2l0.1,1.6h0.1c0.6-1.1,1.5-1.8,2.5-1.8c0.4,0,0.6,0.1,0.9,0.2l-0.3,1.3c-0.3-0.1-0.5-0.1-0.8-0.1
				c-0.7,0-1.6,0.5-2.2,2v5.6h-1.5V188.4z"/>
			<path d="M229.4,192.8c0-2.9,1.9-4.6,3.9-4.6c2.2,0,3.5,1.6,3.5,4.1c0,0.3,0,0.6-0.1,0.8h-5.9c0.1,1.9,1.2,3,2.9,3
				c0.8,0,1.5-0.3,2.2-0.7l0.5,1c-0.8,0.5-1.7,0.9-2.9,0.9C231.2,197.4,229.4,195.7,229.4,192.8z M235.5,192.1
				c0-1.8-0.8-2.7-2.2-2.7c-1.2,0-2.3,1-2.5,2.7H235.5z"/>
			<path d="M238.5,192.8c0-2.9,2-4.6,4.2-4.6c1.2,0,1.9,0.5,2.6,1l-0.8,1c-0.5-0.5-1-0.8-1.7-0.8c-1.6,0-2.7,1.4-2.7,3.4
				c0,2,1.1,3.3,2.7,3.3c0.8,0,1.5-0.4,2.1-0.9l0.6,1c-0.8,0.7-1.8,1.1-2.8,1.1C240.3,197.4,238.5,195.7,238.5,192.8z"/>
			<path d="M246.5,192.8c0-2.9,1.9-4.6,4.1-4.6s4.1,1.7,4.1,4.6c0,2.9-1.9,4.6-4.1,4.6S246.5,195.7,246.5,192.8z M253.1,192.8
				c0-2-1-3.4-2.5-3.4c-1.5,0-2.5,1.4-2.5,3.4c0,2,1,3.3,2.5,3.3C252.1,196.2,253.1,194.8,253.1,192.8z"/>
			<path d="M255.7,188.4h1.5l1.7,5c0.3,0.9,0.5,1.7,0.8,2.6h0.1c0.3-0.8,0.5-1.7,0.8-2.6l1.7-5h1.5l-3.1,8.8h-1.7L255.7,188.4z"/>
			<path d="M264.9,192.8c0-2.9,1.9-4.6,3.9-4.6c2.2,0,3.5,1.6,3.5,4.1c0,0.3,0,0.6-0.1,0.8h-5.9c0.1,1.9,1.2,3,2.9,3
				c0.8,0,1.5-0.3,2.2-0.7l0.5,1c-0.8,0.5-1.7,0.9-2.9,0.9C266.7,197.4,264.9,195.7,264.9,192.8z M271,192.1c0-1.8-0.8-2.7-2.2-2.7
				c-1.2,0-2.3,1-2.5,2.7H271z"/>
			<path d="M274.6,188.4h1.2l0.1,1.6h0.1c0.6-1.1,1.5-1.8,2.5-1.8c0.4,0,0.6,0.1,0.9,0.2l-0.3,1.3c-0.3-0.1-0.5-0.1-0.8-0.1
				c-0.7,0-1.6,0.5-2.2,2v5.6h-1.5V188.4z"/>
			<path d="M280.8,185.7c0-0.6,0.5-1,1-1s1,0.4,1,1c0,0.6-0.4,1-1,1S280.8,186.2,280.8,185.7z M281.1,188.4h1.5v8.8h-1.5V188.4z"/>
			<path d="M285.7,188.4h1.2l0.1,1.3h0.1c0.8-0.8,1.7-1.5,2.9-1.5c1.8,0,2.7,1.2,2.7,3.4v5.5h-1.5v-5.3c0-1.6-0.5-2.3-1.7-2.3
				c-0.9,0-1.5,0.5-2.4,1.4v6.3h-1.5V188.4z"/>
			<path d="M295,198.8c0-0.7,0.5-1.4,1.3-2v-0.1c-0.4-0.3-0.8-0.7-0.8-1.4c0-0.7,0.5-1.3,1-1.6v-0.1c-0.6-0.5-1.1-1.3-1.1-2.4
				c0-1.9,1.5-3.1,3.3-3.1c0.5,0,0.9,0.1,1.2,0.2h3v1.1h-1.8c0.4,0.4,0.7,1.1,0.7,1.8c0,1.9-1.4,3-3.2,3c-0.4,0-0.9-0.1-1.3-0.3
				c-0.3,0.3-0.6,0.6-0.6,1c0,0.6,0.4,1,1.5,1h1.7c2,0,3.1,0.6,3.1,2.1c0,1.6-1.7,3-4.4,3C296.5,201.2,295,200.4,295,198.8z
				 M301.6,198.4c0-0.8-0.6-1.1-1.8-1.1h-1.5c-0.3,0-0.8,0-1.1-0.1c-0.6,0.5-0.9,1-0.9,1.5c0,0.9,1,1.5,2.5,1.5
				C300.5,200.2,301.6,199.3,301.6,198.4z M300.5,191.3c0-1.3-0.8-2-1.9-2s-1.9,0.8-1.9,2s0.8,2.1,1.9,2.1
				C299.7,193.4,300.5,192.6,300.5,191.3z"/>
			<path d="M305,196.3c0-0.7,0.5-1.2,1.1-1.2c0.6,0,1.1,0.5,1.1,1.2c0,0.6-0.5,1.1-1.1,1.1C305.5,197.4,305,196.9,305,196.3z
				 M305.4,186.8l0-1.7h1.5l0,1.7l-0.2,6.8h-1L305.4,186.8z"/>
		</g>
		<g id="Layer_2">
			<g>
				<g>
					<g>
						<circle class="st9" cx="188.3" cy="179.8" r="21.7"/>
					</g>
					<g>
						<g>
							<g>
								<g>
									<g>
										<defs>
											<circle id="SVGID_41_" cx="188.3" cy="179.8" r="21.7"/>
										</defs>
										<clipPath id="SVGID_42_">
											<use xlink:href="#SVGID_41_"  style="overflow:visible;"/>
										</clipPath>
										<g class="st36">
											<g>
												<path class="st9" d="M192.3,179.4c1.4-1.1,2.1-2.3,2.3-3.9c0.2-1.8-0.5-3.6-1.6-5c-1.1-1.6-3-2.1-4.8-2.3
													c-2.3,0-4.8-0.5-6.8,0.5c-3.4,1.9-4.1,7.5-4.8,11.8c-0.2,1.1,0.2,2.5,1.1,3.2c0.9,0.5,1.8,0.6,2.8,0.7
													c0.1,0,2.6-0.1,2.5-0.3c0.8,0.8,1.4,1.8,2,2.8c0.2,0.3,0.4,0.7,0.3,1c-0.1,0.4-0.4,0.7-0.7,0.9
													c-1.1,0.8-2.3,1.7-3.6,2.3c-1.1,0.5-1.6,0.6-2.1,1.8c-0.8,1.7-1,3.6-1,5.5c0,2,0.3,4.3,1.8,5.6c0.9,0.7,2.1,1,3.2,1.1
													c5.9,0.9,12.1,0.5,17.2-2.5c1.4-0.8,2.7-1.8,3.2-3.3c0.4-0.9,0.4-1.9,0.3-2.9c-0.1-2.2-0.8-3.5-2.8-4.5
													c-1.6-0.8-3.3-1.2-4.9-2.1c-1.9-1.1-3.4-2.9-4.1-4.9c-0.1-0.3-0.2-0.6-0.3-0.9C191.1,182.5,190.9,181,192.3,179.4z"/>
												<path class="st14" d="M188.4,205.9c-2,0-3.8-0.2-5.4-0.4c-1.1-0.2-2.3-0.4-3.3-1.2c-1.3-1.1-2-2.9-1.9-5.7
													c0-2.2,0.3-4.1,1-5.6c0.5-1.2,1-1.4,2-1.8l0.2-0.1c1.2-0.5,2.4-1.4,3.5-2.3c0.4-0.3,0.6-0.5,0.7-0.8
													c0.1-0.3-0.1-0.6-0.3-0.9c-0.6-1.1-1.2-1.9-1.9-2.7c-0.6,0.2-2.4,0.3-2.4,0.3c-1-0.1-2-0.1-2.9-0.7
													c-1-0.7-1.5-2.1-1.2-3.4l0.1-0.6c0.6-4.2,1.4-9.5,4.8-11.4c1.6-0.7,3.4-0.6,5.2-0.6c0.6,0,1.2,0.1,1.7,0.1
													c1.8,0.2,3.7,0.7,4.9,2.4c1.3,1.5,1.9,3.4,1.6,5.1c-0.2,1.6-0.9,2.8-2.3,4c-1.3,1.4-1.2,2.7-0.6,4.6
													c0.1,0.3,0.2,0.6,0.3,0.9c0.7,2,2.2,3.8,4.1,4.8c0.8,0.5,1.7,0.8,2.6,1.1c0.8,0.3,1.5,0.6,2.3,0.9c2,1,2.8,2.3,2.9,4.7
													c0.1,1.2,0,2.1-0.3,2.9c-0.6,1.6-2.2,2.7-3.3,3.4C196.5,205.2,192.3,205.9,188.4,205.9z M183.3,184.2
													c0.7,0.8,1.3,1.7,2,2.7c0.2,0.3,0.4,0.7,0.3,1.2c-0.1,0.5-0.5,0.8-0.8,1c-1.1,0.9-2.3,1.7-3.6,2.3l-0.2,0.1
													c-0.9,0.4-1.3,0.6-1.8,1.6c-0.7,1.5-1,3.2-1,5.4c0,2.7,0.5,4.5,1.8,5.4c0.9,0.7,2.1,0.9,3.1,1.1
													c4.7,0.7,11.4,0.9,17.1-2.5c1.1-0.6,2.6-1.7,3.1-3.2c0.3-0.8,0.4-1.6,0.3-2.8c-0.1-2.2-0.9-3.4-2.7-4.4
													c-0.7-0.4-1.5-0.7-2.2-0.9c-0.9-0.3-1.8-0.7-2.7-1.2c-1.9-1.1-3.5-2.9-4.2-5c-0.1-0.3-0.2-0.6-0.3-0.9
													c-0.5-1.6-0.9-3.3,0.7-4.9l0,0c1.3-1.1,2-2.2,2.2-3.7c0.2-1.6-0.4-3.4-1.6-4.8c-1.1-1.6-2.9-2-4.6-2.2
													c-0.6,0-1.1,0-1.7-0.1c-1.7-0.1-3.5-0.2-5,0.5c-3.2,1.8-3.9,6.9-4.6,11.1l-0.1,0.6c-0.2,1.1,0.2,2.4,1.1,3
													c0.8,0.5,1.8,0.6,2.7,0.6c0.2,0,2.1-0.1,2.3-0.2c0,0-0.1,0-0.1,0.1l0.2,0L183.3,184.2L183.3,184.2L183.3,184.2z"/>
											</g>
											<g>
												<path class="st9" d="M187,178.6c0.4-0.2,0.9-0.4,1.3-0.6c0.1-0.1,0.3-0.1,0.4-0.1c0.4,0,0.7,0.2,0.8,0.6
													c0.1,0.3,0.1,0.7,0.1,1.1c-0.1,0.9-0.6,1.8-1.4,2.2c-0.1,0.1-0.4,0.2-0.6,0.2c-0.3,0-0.5-0.1-0.6-0.4"/>
												<path class="st14" d="M187.8,182c-0.3,0-0.6-0.2-0.8-0.5l0.3-0.2c0.1,0.2,0.3,0.3,0.5,0.3c0.1,0,0.3-0.1,0.4-0.1
													c0.7-0.4,1.2-1.2,1.3-2.1c0-0.3,0-0.7-0.1-1c-0.1-0.2-0.4-0.5-0.7-0.4c-0.1,0-0.2,0.1-0.4,0.1c-0.4,0.2-0.9,0.4-1.3,0.6
													l-0.2-0.3c0.4-0.2,0.9-0.4,1.3-0.6c0.2-0.1,0.3-0.1,0.5-0.2c0.4,0,0.9,0.2,1.1,0.7c0.2,0.4,0.2,0.8,0.1,1.2
													c-0.1,1-0.7,1.9-1.5,2.4C188.3,182,188,182,187.8,182z"/>
											</g>
											<g>
												<path class="st9" d="M184.2,194.5c0.4,0.4,1,0.6,1.6,0.7c1.7,0.3,3.4,0,5-0.7c2.2-0.9,4.1-2.3,5.1-4.6
													c0-0.1,0.1-0.1,0.1-0.1c0,0,0.1,0,0.1,0c2.9,0.7,6.3,1.2,7.8,4.2c0.6,1.1,0.7,2.3,0.8,3.5c0.3,5.9-0.5,27.9,0.3,33.9
													c-1.6-1.3-4.3-2.3-6.2-3.1c-2.2-0.9-4.3-1.8-6.5-2.5c-1.3-0.4-12.5-4.1-13.3-2.5c1.1-2.2,1.4-4.8,1-7.2
													c-0.3-1.7-1-3.4-1.5-5.1c-0.5-1.7-0.8-3.5-0.8-5.2c-0.1-1.8,0-2.9,0.6-4.6c0-0.1,0.1-0.2,0-0.3c0-0.1-0.1-0.1-0.2-0.2
													c-0.4-0.3-5.4-4.4-5.4-4.4c0.7-1.5,1.8-2.7,2.9-3.9c1.4-1.5,3.3-2.6,5.2-3.2c0.6-0.1,3.7-0.3,4-0.7
													c-0.7,1.3-1.4,2.2-1.4,3.8c0,0.7,0.1,1.4,0.4,1.9C184,194.4,184.1,194.5,184.2,194.5z"/>
												<path class="st14" d="M205.3,231.8l-0.4-0.3c-1.3-1.1-3.4-2-5.1-2.7c-0.3-0.1-0.7-0.3-1-0.4c-2.4-1-4.5-1.8-6.5-2.5
													l-0.2-0.1c-11.3-3.6-12.7-2.8-12.9-2.5l-0.3-0.2c1.1-2.2,1.4-4.7,1-7.1c-0.2-1.1-0.6-2.2-0.9-3.3
													c-0.2-0.6-0.4-1.2-0.6-1.8c-0.5-1.6-0.8-3.4-0.9-5.3c-0.1-1.7,0-2.9,0.6-4.7c0-0.1,0.1-0.2,0-0.2c0,0-0.1-0.1-0.1-0.1
													c-0.3-0.3-5.3-4.3-5.3-4.4l-0.1-0.1l0.1-0.1c0.7-1.5,1.7-2.7,2.9-4c1.4-1.5,3.3-2.6,5.3-3.2c0.2-0.1,0.6-0.1,1.2-0.1
													c0.8-0.1,2.5-0.2,2.7-0.5l0.3,0.2c0,0,0,0,0,0c-0.1,0.2-0.2,0.4-0.3,0.6c-0.6,1-1,1.8-1,3.1c0,0.5,0,1.2,0.4,1.8
													c0.1,0.1,0.1,0.2,0.2,0.2l0.1,0l0,0c0.4,0.4,1,0.6,1.5,0.7c1.9,0.3,3.7-0.2,4.9-0.7c2.5-1.1,4.2-2.5,5-4.5
													c0.1-0.1,0.1-0.3,0.3-0.3l0.2,0l0.6,0.1c2.8,0.6,5.9,1.3,7.4,4.2c0.6,1.1,0.7,2.4,0.8,3.6c0.1,2.4,0.1,7.5,0,12.9
													c-0.1,8.2-0.2,17.5,0.3,21L205.3,231.8z M180.4,222.8c2,0,6,0.9,11.8,2.8l0.2,0.1c2,0.7,4.2,1.5,6.5,2.5
													c0.3,0.1,0.6,0.3,1,0.4c1.6,0.7,3.5,1.5,4.9,2.5c-0.4-3.8-0.3-12.7-0.2-20.6c0.1-5.4,0.1-10.5,0-12.8
													c-0.1-1.2-0.2-2.4-0.8-3.4c-1.4-2.7-4.3-3.4-7.1-4l-0.6-0.1c0,0,0,0,0,0c-0.9,2.1-2.6,3.6-5.2,4.7
													c-1.2,0.5-3.1,1.1-5.1,0.7c-0.5-0.1-1.2-0.3-1.7-0.8c-0.2-0.1-0.3-0.2-0.3-0.3c-0.4-0.6-0.4-1.5-0.4-2
													c0-1.3,0.5-2.2,1.1-3.3c0,0,0-0.1,0-0.1c-0.5,0.1-1.2,0.2-2.4,0.3c-0.5,0-1,0.1-1.1,0.1c-1.9,0.5-3.8,1.7-5.1,3.1
													c-1.1,1.3-2.1,2.4-2.8,3.7c0.7,0.6,4.9,4,5.2,4.3c0.1,0.1,0.2,0.2,0.2,0.3c0.1,0.2,0,0.3,0,0.5
													c-0.6,1.7-0.7,2.9-0.6,4.5c0.1,1.9,0.4,3.6,0.8,5.2c0.2,0.6,0.4,1.2,0.6,1.8c0.4,1.1,0.7,2.2,0.9,3.3
													c0.4,2.2,0.1,4.6-0.8,6.7C179.7,222.8,180,222.8,180.4,222.8z"/>
											</g>
											<g>
												<path class="st14" d="M180.5,184.6c-0.2,0-0.4,0-0.5,0l0-0.4c1.8,0.1,3.6-0.2,5.2-0.9l0.1,0.3
													C183.8,184.3,182.1,184.6,180.5,184.6z"/>
											</g>
											<g>
												<path class="st9" d="M186.3,192.2c0.3-1.1,0-3-1-4.8"/>
												<path d="M186.4,192.2l-0.4-0.1c0.2-1,0-2.8-1-4.7l0.3-0.2C186.5,189.2,186.7,191.2,186.4,192.2z"/>
											</g>
											<g>
												<path class="st14" d="M180.3,169.7c0.5,0,0.8-0.1,1.2,0.1c1,0.6,1.2,2.1,1.2,3.1c0,0.1,0,0.3,0,0.5
													c0.1,0.3,0.3,0.5,0.6,0.7c1.4,1.3,1.9,3.3,1.5,5.1c0.7-0.3,1.5-0.5,2.3-0.5c0.6,0,1.3-0.1,1.8,0.2
													c0.4,0.3,0.3,0.7,0.4,1c0.2,0.5,0.8,1,1.1,1.4c0.5,0.7,0.8,1.5,0.9,2.3c0.4,2.1-1.1,7.1,1.7,8c0.9,0.3,1.9,0.1,2.8,0
													c2.5-0.2,4.7,0.4,7.1,0.7c0.3-0.7,0.3-1.4,0.5-2c0.3-1,0.8-1.8,0.9-2.8c0.1-1.2-0.3-2.5-1.2-3.2
													c-1.1-0.8-2.9-0.7-3.6-1.9c-1.3-2.3,1.3-5.2,0.3-7.6c-0.8-1.9-3.4-2.2-4.6-3.9c-0.5-0.7-0.7-1.7-1.1-2.5
													c-1.2-2.7-4.1-3.7-6.8-3.8c-2-0.1-4.2,0.1-5.6,1.5c-1,0.9-1.1,2.3-1.4,3.5C180.3,169.7,180.3,169.7,180.3,169.7z"/>
											</g>
										</g>
									</g>
								</g>
							</g>
						</g>
					</g>
					<g>
						<path class="st35" d="M188.3,201.7c-12.1,0-21.9-9.8-21.9-21.9c0-12.1,9.8-21.9,21.9-21.9c12.1,0,21.9,9.8,21.9,21.9
							C210.2,191.9,200.4,201.7,188.3,201.7z M188.3,158.3c-11.9,0-21.5,9.7-21.5,21.5c0,11.9,9.7,21.5,21.5,21.5
							c11.9,0,21.5-9.7,21.5-21.5C209.9,168,200.2,158.3,188.3,158.3z"/>
					</g>
				</g>
			</g>
		</g>
	</g>
</g>
<g id="Layer_5">
</g>
<g id="Layer_3_3_">
</g>
</svg>
