<svg id="Layer_1" data-name="Layer 1" xmlns="http://www.w3.org/2000/svg" xmlns:xlink="http://www.w3.org/1999/xlink" viewBox="0 0 325.5 291.7"><defs><style>.cls-1,.cls-10,.cls-11,.cls-4,.cls-7{fill:none;}.cls-13,.cls-2{fill:#fff;}.cls-2,.cls-4,.cls-6,.cls-7{stroke:#9e9e9e;}.cls-10,.cls-11,.cls-2,.cls-4,.cls-6,.cls-7{stroke-miterlimit:10;}.cls-3,.cls-8{fill:#04a0f4;}.cls-3{isolation:isolate;opacity:0.1;}.cls-5{opacity:0.5;}.cls-6{fill:#f4f5f0;}.cls-7{stroke-linecap:round;stroke-width:5px;}.cls-9{fill:#c9c9c7;}.cls-10{stroke:#fff;}.cls-10,.cls-11{stroke-width:2px;}.cls-11{stroke:#04a0f4;}.cls-12{fill:#00a1f4;}.cls-14{fill:#ffbe4f;}.cls-15{clip-path:url(#clip-path);}.cls-16{fill:#484949;}</style><clipPath id="clip-path"><circle class="cls-1" cx="189.43" cy="131.26" r="17"/></clipPath></defs><path class="cls-2" d="M298.9,225.7H51.6a13,13,0,0,1-13-13V68.5a13,13,0,0,1,13-13H298.9a13,13,0,0,1,13,13V212.6A13,13,0,0,1,298.9,225.7Z"/><polyline class="cls-2" points="160.93 97.97 160.93 100.78 160.93 216.89 294.46 216.89 294.46 97.97 160.93 97.97"/><rect class="cls-3" x="169.23" y="98.72" width="116.73" height="39.91"/><rect class="cls-3" x="169.23" y="146.5" width="116.73" height="39.91"/><line class="cls-4" x1="175.48" y1="104.66" x2="225.88" y2="104.66"/><polyline class="cls-2" points="160.93 97.97 160.93 100.78 160.93 216.89 294.46 216.89 294.46 97.97 160.93 97.97"/><path class="cls-6" d="M223.07,181.29h-44.4a2.73,2.73,0,0,1-2.75-2.75v-5.06a2.73,2.73,0,0,1,2.75-2.74h44.4a2.73,2.73,0,0,1,2.75,2.74v5.06A2.7,2.7,0,0,1,223.07,181.29Z"/><circle class="cls-6" cx="239.19" cy="175.98" r="4.5"/><circle class="cls-6" cx="239.19" cy="192.28" r="4.5"/><line class="cls-7" x1="248.81" y1="175.98" x2="275.91" y2="175.98"/><line class="cls-7" x1="248.81" y1="192.28" x2="257.61" y2="192.28"/><line class="cls-7" x1="262.92" y1="192.28" x2="280.72" y2="192.28"/><polygon class="cls-8" points="221.2 178.17 223.26 174.61 219.2 174.61 221.2 178.17"/><path class="cls-6" d="M223.07,197.59h-44.4a2.73,2.73,0,0,1-2.75-2.75v-5.05a2.73,2.73,0,0,1,2.75-2.75h44.4a2.74,2.74,0,0,1,2.75,2.75v5.05A2.7,2.7,0,0,1,223.07,197.59Z"/><polygon class="cls-8" points="221.2 194.41 223.26 190.85 219.2 190.85 221.2 194.41"/><circle class="cls-8" cx="239.19" cy="175.98" r="2.56"/><rect class="cls-3" x="210.39" y="111.71" width="75.89" height="38.47"/><line class="cls-7" x1="216.77" y1="118.15" x2="270.04" y2="118.15"/><line class="cls-7" x1="238.38" y1="126.39" x2="261.86" y2="126.39"/><line class="cls-7" x1="216.77" y1="134.64" x2="245.37" y2="134.64"/><line class="cls-7" x1="216.77" y1="142.88" x2="235.13" y2="142.88"/><line class="cls-7" x1="241.31" y1="142.88" x2="271.23" y2="142.88"/><line class="cls-7" x1="216.77" y1="126.39" x2="230.01" y2="126.39"/><line class="cls-7" x1="254.18" y1="134.64" x2="279.35" y2="134.64"/><path class="cls-2" d="M127.9,253.3H38.1a16.73,16.73,0,0,1-16.7-16.7V39.4A16.73,16.73,0,0,1,38.1,22.7h89.8a16.73,16.73,0,0,1,16.7,16.7V236.6A16.73,16.73,0,0,1,127.9,253.3Z"/><path class="cls-9" d="M98,33.2H68.7a1.79,1.79,0,0,1-1.8-1.8V31a1.79,1.79,0,0,1,1.8-1.8H98A1.79,1.79,0,0,1,99.8,31v.4A1.79,1.79,0,0,1,98,33.2Z"/><circle class="cls-3" cx="83.1" cy="137.2" r="70.2"/><circle class="cls-3" cx="83.1" cy="137.2" r="50.9"/><circle class="cls-8" cx="83.1" cy="137.2" r="31.5"/><circle class="cls-10" cx="83.1" cy="137.2" r="7.3"/><circle class="cls-10" cx="192.8" cy="137.2" r="5.2"/><line class="cls-10" x1="83.1" y1="129.9" x2="83.1" y2="105.7"/><line class="cls-10" x1="192.8" y1="132" x2="192.8" y2="122.4"/><path class="cls-11" d="M83,105.7V87.1a6.66,6.66,0,0,1,6.6-6.6H192.8"/><circle class="cls-3" cx="283.9" cy="80.5" r="21"/><circle class="cls-8" cx="283.9" cy="80.5" r="7.7"/><circle class="cls-3" cx="283.9" cy="80.5" r="14.8"/><path class="cls-11" d="M179.3,80.3h38.2a2.47,2.47,0,0,0,2.4-2l1.4-7.7a2,2,0,0,1,2-1.7h0a2,2,0,0,1,2,1.8l1.5,15.8a2.16,2.16,0,0,0,2.1,2h0a2.08,2.08,0,0,0,2.1-1.9L233.5,65a1.62,1.62,0,0,1,1.6-1.4h0a1.6,1.6,0,0,1,1.6,1.3l1.5,26.2a2.35,2.35,0,0,0,2.3,1.9h0a2.35,2.35,0,0,0,2.3-1.9l1.8-26.4a1.59,1.59,0,0,1,1.5-1.2h.2a1.62,1.62,0,0,1,1.6,1.4l2.6,21.6a2.08,2.08,0,0,0,2.1,1.9h0a2.07,2.07,0,0,0,2.1-1.8l2.2-16.4a1.62,1.62,0,0,1,1.6-1.4h0a1.71,1.71,0,0,1,1.6,1.3l1.4,8.2a2.25,2.25,0,0,0,2.2,1.9h14"/><g id="Layer_2" data-name="Layer 2"><circle class="cls-3" cx="269.7" cy="224.3" r="53.7"/><circle class="cls-3" cx="269.7" cy="224.3" r="40.7" transform="translate(5.1 454.59) rotate(-80.78)"/><path class="cls-12" d="M270.9,195.2A29.37,29.37,0,0,0,240,222.8a28.8,28.8,0,0,0,3.7,15.9l-9.5,16.4,17.1-7.5a29,29,0,0,0,16.3,6.1,29.3,29.3,0,1,0,3.3-58.5Z"/><path class="cls-13" d="M257.8,230.2h0a1.9,1.9,0,0,1-1.9-1.9V220a1.9,1.9,0,0,1,1.9-1.9h0a1.9,1.9,0,0,1,1.9,1.9v8.3A1.84,1.84,0,0,1,257.8,230.2Z"/><path class="cls-13" d="M251.2,226.3h0a1.9,1.9,0,0,1-1.9-1.9h0a1.9,1.9,0,0,1,1.9-1.9h0a1.9,1.9,0,0,1,1.9,1.9h0A1.84,1.84,0,0,1,251.2,226.3Z"/><path class="cls-13" d="M264.3,234.6h0a1.9,1.9,0,0,1-1.9-1.9V215.5a1.9,1.9,0,0,1,1.9-1.9h0a1.9,1.9,0,0,1,1.9,1.9v17.2A1.78,1.78,0,0,1,264.3,234.6Z"/><path class="cls-13" d="M270.9,243.5h0a1.9,1.9,0,0,1-1.9-1.9V206.7a1.9,1.9,0,0,1,1.9-1.9h0a1.9,1.9,0,0,1,1.9,1.9v34.9A2,2,0,0,1,270.9,243.5Z"/><path class="cls-13" d="M277.4,234.6h0a1.9,1.9,0,0,1-1.9-1.9V215.5a1.9,1.9,0,0,1,1.9-1.9h0a1.9,1.9,0,0,1,1.9,1.9v17.2A1.9,1.9,0,0,1,277.4,234.6Z"/><path class="cls-13" d="M283.9,230.2h0a1.9,1.9,0,0,1-1.9-1.9V220a1.9,1.9,0,0,1,1.9-1.9h0a1.9,1.9,0,0,1,1.9,1.9v8.3A2,2,0,0,1,283.9,230.2Z"/></g><g id="Layer_3" data-name="Layer 3"><circle class="cls-14" cx="176.1" cy="217" r="21.7"/><polygon class="cls-14" points="201.4 234.1 191.7 219.5 179.9 230.8 201.4 234.1"/><path class="cls-13" d="M189.5,218.4h0a1.54,1.54,0,0,1-1.5-1.5h0a1.54,1.54,0,0,1,1.5-1.5h0a1.54,1.54,0,0,1,1.5,1.5h0A1.47,1.47,0,0,1,189.5,218.4Z"/><path class="cls-13" d="M164.5,221.5h0A1.54,1.54,0,0,1,163,220v-6.4a1.54,1.54,0,0,1,1.5-1.5h0a1.54,1.54,0,0,1,1.5,1.5V220A1.54,1.54,0,0,1,164.5,221.5Z"/><path class="cls-13" d="M169.6,224.9h0a1.54,1.54,0,0,1-1.5-1.5V210.1a1.54,1.54,0,0,1,1.5-1.5h0a1.54,1.54,0,0,1,1.5,1.5v13.3A1.47,1.47,0,0,1,169.6,224.9Z"/><path class="cls-13" d="M174.6,221.5h0a1.54,1.54,0,0,1-1.5-1.5v-6.4a1.54,1.54,0,0,1,1.5-1.5h0a1.54,1.54,0,0,1,1.5,1.5V220A1.47,1.47,0,0,1,174.6,221.5Z"/><path class="cls-13" d="M179.7,229.6h0a1.54,1.54,0,0,1-1.5-1.5V205.4a1.54,1.54,0,0,1,1.5-1.5h0a1.54,1.54,0,0,1,1.5,1.5v22.7A1.47,1.47,0,0,1,179.7,229.6Z"/><path class="cls-13" d="M184.7,221.5h0a1.54,1.54,0,0,1-1.5-1.5v-6.4a1.54,1.54,0,0,1,1.5-1.5h0a1.54,1.54,0,0,1,1.5,1.5V220A1.47,1.47,0,0,1,184.7,221.5Z"/></g><circle class="cls-14" cx="189.43" cy="131.26" r="17"/><g class="cls-15"><path class="cls-13" d="M186.79,134.7l-.24.71a7,7,0,0,1-3.27,3.84c-1.2.63-2.63.95-3.83,1.59a3.87,3.87,0,0,0-2.23,3.51,5.24,5.24,0,0,0,.24,2.24,5.58,5.58,0,0,0,2.55,2.55c4,2.4,8.94,2.72,13.49,2a5.72,5.72,0,0,0,2.55-.88c1.28-1,1.44-2.79,1.44-4.39a10.07,10.07,0,0,0-.8-4.31c-.4-1-.8-1-1.68-1.44a21,21,0,0,1-2.79-1.75,1.28,1.28,0,0,1-.56-.72,1,1,0,0,1,.24-.8,10.46,10.46,0,0,1,1.6-2.15,12.41,12.41,0,0,0,1.91.24,5.37,5.37,0,0,0,2.24-.48,2.64,2.64,0,0,0,.88-2.48c-.56-3.43-1.12-7.82-3.76-9.26-1.59-.71-3.59-.31-5.34-.31a5,5,0,0,0-3.75,1.75,5.29,5.29,0,0,0-1.28,3.91,4.44,4.44,0,0,0,1.75,3C187.43,132.14,187.27,133.34,186.79,134.7Z"/><path class="cls-8" d="M192.86,142.6a3,3,0,0,0,.32-1.52,6.54,6.54,0,0,0-1-3c.16.32,2.71.4,3.11.56a9.58,9.58,0,0,1,4.07,2.47,13.72,13.72,0,0,1,2.24,3s-3.91,3.2-4.15,3.44c-.08.08-.16.08-.16.16V148a8,8,0,0,1,.48,3.6,18.73,18.73,0,0,1-.64,4.15,36.55,36.55,0,0,0-1.12,4,9.22,9.22,0,0,0,.8,5.66c-.64-1.27-9.5,1.6-10.46,1.92a41.1,41.1,0,0,0-5.1,2,20.92,20.92,0,0,0-4.79,2.48c.64-4.63,0-21.95.24-26.58a6.77,6.77,0,0,1,.64-2.79c1.19-2.32,3.83-2.8,6.14-3.27h.08a.08.08,0,0,1,.08.08,6.87,6.87,0,0,0,4,3.59,7.33,7.33,0,0,0,3.91.56,2.34,2.34,0,0,0,1.28-.56C192.78,142.76,192.86,142.68,192.86,142.6Z"/><path class="cls-16" d="M195.65,123.2c.24-.79-.56-2.23-1-2.71-1.12-1.12-2.88-1.2-4.39-1.12-2.16.08-4.39.88-5.35,3a8.48,8.48,0,0,1-.88,1.91c-1,1.28-3,1.52-3.59,3-.72,1.92,1.28,4.15.24,6-.56,1-1.92.88-2.8,1.52a2.75,2.75,0,0,0-.95,2.55,10,10,0,0,0,.71,2.15c.16.48.24,1,.4,1.6,1.92-.16,3.6-.72,5.51-.56a5.29,5.29,0,0,0,2.24,0c3-1,.16-7.18,2.39-9.18a6.58,6.58,0,0,1,1-.63,6.91,6.91,0,0,1,3.27-.88c0-1.6-.48-4,.64-5.27.64-.72,2-.48,2.47-1C195.65,123.36,195.65,123.28,195.65,123.2Z"/></g></svg>