<svg id="Layer_1" data-name="Layer 1" xmlns="http://www.w3.org/2000/svg" xmlns:xlink="http://www.w3.org/1999/xlink" viewBox="0 0 325.5 291.7"><defs><style>.cls-1{fill:none;}.cls-2{isolation:isolate;opacity:0.1;}.cls-3{fill:#531b93;}.cls-4{fill:#fff;}.cls-5{fill:#009193;}.cls-6{fill:#f2f2f2;}.cls-7{clip-path:url(#clip-path);}.cls-8{fill:#484949;}.cls-9{fill:#c9c9c7;}.cls-10{clip-path:url(#clip-path-14);}.cls-11{clip-path:url(#clip-path-15);}.cls-12{fill:#9e9e9e;}.cls-13{clip-path:url(#clip-path-20);}</style><clipPath id="clip-path"><circle class="cls-1" cx="74.7" cy="89.2" r="60.7"/></clipPath><clipPath id="clip-path-14"><circle class="cls-1" cx="94.37" cy="75.73" r="60.7"/></clipPath><clipPath id="clip-path-15"><circle class="cls-1" cx="74.03" cy="86.48" r="60.7"/></clipPath><clipPath id="clip-path-20"><circle class="cls-1" cx="261.8" cy="202" r="59.2"/></clipPath></defs><g class="cls-2"><circle class="cls-3" cx="153.8" cy="175.4" r="80"/></g><g class="cls-2"><circle class="cls-3" cx="155.94" cy="173.26" r="97.54"/></g><path class="cls-3" d="M71.6,210.5a32.15,32.15,0,0,1-17,18.8c-11.6,5.3-23.3,4.3-32.5-.9L0,233.5l11.6-14.1c-6.7-8.6-9.5-20.4-5.4-33a32,32,0,0,1,16.9-19.3C52.2,153.5,81.9,180.1,71.6,210.5Z"/><path class="cls-4" d="M24.6,191.8h0a2.43,2.43,0,0,1,2.4,2.4v10.4a2.43,2.43,0,0,1-2.4,2.4h0a2.43,2.43,0,0,1-2.4-2.4V194.2A2.43,2.43,0,0,1,24.6,191.8Z"/><path class="cls-4" d="M16.3,196.6h0a2.43,2.43,0,0,1,2.4,2.4h0a2.43,2.43,0,0,1-2.4,2.4h0a2.43,2.43,0,0,1-2.4-2.4h0A2.43,2.43,0,0,1,16.3,196.6Z"/><path class="cls-4" d="M32.7,186.3h0a2.43,2.43,0,0,1,2.4,2.4v21.4a2.43,2.43,0,0,1-2.4,2.4h0a2.43,2.43,0,0,1-2.4-2.4V188.7A2.43,2.43,0,0,1,32.7,186.3Z"/><path class="cls-4" d="M40.8,175.2h0a2.43,2.43,0,0,1,2.4,2.4v43.5a2.43,2.43,0,0,1-2.4,2.4h0a2.43,2.43,0,0,1-2.4-2.4V177.6A2.43,2.43,0,0,1,40.8,175.2Z"/><path class="cls-4" d="M48.9,186.3h0a2.43,2.43,0,0,1,2.4,2.4v21.4a2.43,2.43,0,0,1-2.4,2.4h0a2.43,2.43,0,0,1-2.4-2.4V188.7A2.43,2.43,0,0,1,48.9,186.3Z"/><path class="cls-4" d="M57,191.8h0a2.43,2.43,0,0,1,2.4,2.4v10.4A2.43,2.43,0,0,1,57,207h0a2.43,2.43,0,0,1-2.4-2.4V194.2A2.43,2.43,0,0,1,57,191.8Z"/><circle class="cls-5" cx="232.7" cy="66.2" r="31.6"/><polygon class="cls-5" points="269.6 91.2 255.5 69.9 238.2 86.4 269.6 91.2"/><path class="cls-4" d="M252.2,68.3h0a2.22,2.22,0,0,1-2.2-2.2h0a2.22,2.22,0,0,1,2.2-2.2h0a2.22,2.22,0,0,1,2.2,2.2h0A2.16,2.16,0,0,1,252.2,68.3Z"/><path class="cls-4" d="M215.8,72.7h0a2.22,2.22,0,0,1-2.2-2.2V61.1a2.22,2.22,0,0,1,2.2-2.2h0a2.22,2.22,0,0,1,2.2,2.2v9.4A2.22,2.22,0,0,1,215.8,72.7Z"/><path class="cls-4" d="M223.2,77.7h0a2.22,2.22,0,0,1-2.2-2.2V56.1a2.22,2.22,0,0,1,2.2-2.2h0a2.22,2.22,0,0,1,2.2,2.2V75.5A2.16,2.16,0,0,1,223.2,77.7Z"/><path class="cls-4" d="M230.5,72.7h0a2.22,2.22,0,0,1-2.2-2.2V61.1a2.22,2.22,0,0,1,2.2-2.2h0a2.22,2.22,0,0,1,2.2,2.2v9.4A2.16,2.16,0,0,1,230.5,72.7Z"/><path class="cls-4" d="M237.9,84.6h0a2.22,2.22,0,0,1-2.2-2.2V49.2a2.22,2.22,0,0,1,2.2-2.2h0a2.22,2.22,0,0,1,2.2,2.2V82.4A2.16,2.16,0,0,1,237.9,84.6Z"/><path class="cls-4" d="M245.3,72.7h0a2.22,2.22,0,0,1-2.2-2.2V61.1a2.22,2.22,0,0,1,2.2-2.2h0a2.22,2.22,0,0,1,2.2,2.2v9.4A2.22,2.22,0,0,1,245.3,72.7Z"/><path class="cls-3" d="M153.5,203.7a5.21,5.21,0,0,1-5.18-4.2l0-.14-2.69-46.52a1.88,1.88,0,0,0-1.81-1.44A1.9,1.9,0,0,0,142,153l-4.4,38.37a4.83,4.83,0,0,1-9.59-.21l-2.7-28a2.58,2.58,0,0,0-2.6-2.4,2.52,2.52,0,0,0-2.51,2.07l-2.51,13.61a5.29,5.29,0,0,1-5.28,4.42H48.6a1,1,0,1,1,0-2h63.8a3.3,3.3,0,0,0,3.31-2.74l2.51-13.64a4.53,4.53,0,0,1,4.48-3.72,4.57,4.57,0,0,1,4.59,4.2L130,191a2.8,2.8,0,0,0,2.8,2.6,2.86,2.86,0,0,0,2.81-2.46l4.4-38.35a3.83,3.83,0,0,1,7.57-.3l0,.15,2.69,46.53a3.25,3.25,0,0,0,6.32.09l3.22-46.89a3.77,3.77,0,0,1,3.67-3h.3a3.88,3.88,0,0,1,3.79,3.36l4.6,38.42a2.73,2.73,0,0,0,5.42,0l3.9-29.23a3.78,3.78,0,0,1,3.79-3.27,3.88,3.88,0,0,1,3.77,3.08l2.51,14.55a3,3,0,0,0,2.92,2.47h33.8a1,1,0,0,1,0,2H194.5a5,5,0,0,1-4.89-4.14l-2.5-14.49a1.85,1.85,0,0,0-1.81-1.47,1.81,1.81,0,0,0-1.81,1.54l-3.9,29.19a4.72,4.72,0,0,1-9.38,0L165.61,153a1.9,1.9,0,0,0-1.81-1.62h-.3a1.77,1.77,0,0,0-1.71,1.35l-3.21,46.86A5.2,5.2,0,0,1,153.5,203.7Z"/><circle class="cls-3" cx="153.8" cy="175.4" r="65.5"/><path class="cls-4" d="M66.9,111.5h0a1.75,1.75,0,0,1,1.7,1.7V128a1.75,1.75,0,0,1-1.7,1.7h0a1.75,1.75,0,0,1-1.7-1.7V113.1A1.67,1.67,0,0,1,66.9,111.5Z"/><path class="cls-4" d="M61.3,115.3h0A1.75,1.75,0,0,1,63,117v7.2a1.75,1.75,0,0,1-1.7,1.7h0a1.75,1.75,0,0,1-1.7-1.7V117A1.69,1.69,0,0,1,61.3,115.3Z"/><path class="cls-4" d="M55.6,106.2h0a1.75,1.75,0,0,1,1.7,1.7v25.4a1.75,1.75,0,0,1-1.7,1.7h0a1.75,1.75,0,0,1-1.7-1.7V107.9A1.75,1.75,0,0,1,55.6,106.2Z"/><path class="cls-4" d="M50,115.3h0a1.75,1.75,0,0,1,1.7,1.7v7.2a1.75,1.75,0,0,1-1.7,1.7h0a1.75,1.75,0,0,1-1.7-1.7V117A1.75,1.75,0,0,1,50,115.3Z"/><g id="Layer_2" data-name="Layer 2"><g id="Layer_1-2" data-name="Layer 1-2"><path class="cls-6" d="M187.4,178.7a1.93,1.93,0,0,1-1.9-1.6l-2-11.8a3.5,3.5,0,0,0-4.2-2.9,3.61,3.61,0,0,0-2.9,3l-3.2,23.7a1.67,1.67,0,0,1-2,1.5,1.7,1.7,0,0,1-1.5-1.5L166,157.9a3.59,3.59,0,0,0-3.6-3.2h-.3a3.52,3.52,0,0,0-3.4,2.8l-2.6,11.1a2.14,2.14,0,0,1-2.5,1.7,2.27,2.27,0,0,1-1.7-1.7l-2.2-10.9a3.68,3.68,0,0,0-4.2-2.9,3.73,3.73,0,0,0-2.9,3.1L138.9,189a1.81,1.81,0,0,1-3.6,0l-2.2-22.7a4.25,4.25,0,0,0-4.6-3.8,4.15,4.15,0,0,0-3.7,3.4l-2,11.1a2.25,2.25,0,0,1-2.2,1.9H88.1v2.6h32.6a4.84,4.84,0,0,0,4.8-4l2-11.1a1.71,1.71,0,0,1,1.6-1.3,1.56,1.56,0,0,1,1.6,1.5l2.2,22.7a4.43,4.43,0,0,0,8.8.2l3.6-31.1a1.06,1.06,0,0,1,1-.9,1,1,0,0,1,1,.8l2.2,10.9a4.49,4.49,0,0,0,3.4,3.6v20a4,4,0,1,0,5.1,2.5,3.89,3.89,0,0,0-2.5-2.5v-20a4.69,4.69,0,0,0,3.3-3.5l2.6-11.1a1,1,0,0,1,1-.8h.3a1.06,1.06,0,0,1,1,.9l3.7,31.1a4.39,4.39,0,0,0,8.7.1l3.2-23.7a1.06,1.06,0,0,1,1-.9,1,1,0,0,1,1,.8l2,11.8a4.6,4.6,0,0,0,4.5,3.8h31.8v-2.6ZM154.1,198a1.4,1.4,0,1,1,1.4-1.4,1.43,1.43,0,0,1-1.4,1.4Z"/></g></g><g id="Layer_4" data-name="Layer 4"><g id="Layer_1-2-2" data-name="Layer 1"><circle class="cls-4" cx="74.7" cy="89.2" r="60.7"/><g class="cls-7"><path class="cls-4" d="M75.4,168.2c-3.6-4.6-7.6-9.4-12.2-13.1-3.2-2.7-6.8-5.2-10.9-6-4.3-.8-8.7.2-13,1.4-9,2.4-18.3,5.5-24.7,12.3"/><path d="M75,168.51c-3.59-4.59-7.54-9.34-12.12-13-2.75-2.31-6.43-5.07-10.69-5.9s-8.85.3-12.77,1.39C31,153.23,21.5,156.2,15,163.14l-.72-.68c6.39-6.8,15.76-10,24.93-12.44,4-1.12,8.69-2.26,13.22-1.41s8.31,3.72,11.13,6.11c4.65,3.74,8.65,8.54,12.27,13.17Z"/></g><g class="cls-7"><path class="cls-4" d="M175.8,190c-15.2-58.3-67.4-76.4-106.7-78.2-22.9-1.1-47.6,5.7-63.5,22.7a106.07,106.07,0,0,0-19.7,31"/><path class="cls-8" d="M175.32,190.13c-17.87-68.52-85.84-76.9-106.24-77.83C43.88,111.09,20.3,119.52,6,134.84A105.12,105.12,0,0,0-13.64,165.7l-.92-.4A106.15,106.15,0,0,1,5.23,134.16c14.54-15.54,38.42-24.08,63.89-22.86,16.26.75,40.33,4.47,62.63,18,22.65,13.72,37.63,34.11,44.53,60.58Z"/></g><g class="cls-7"><path class="cls-4" d="M84.8,164.2a93.78,93.78,0,0,0,2-11.8c1.7-13,3.5-26.3,1.9-39.4a164.22,164.22,0,0,1,31.9,10.1c11.6,5.1,21.3,12.1,29.1,22.1"/><path class="cls-8" d="M85.28,164.32l-1-.24a93.17,93.17,0,0,0,2-11.74l.09-.69c1.66-12.68,3.38-25.78,1.81-38.59l-.08-.7.69.15c12.82,2.85,23,6.07,32,10.13,12.22,5.38,21.8,12.66,29.28,22.25l-.78.62c-7.39-9.47-16.84-16.65-28.91-21.95-8.79-4-18.7-7.12-31.12-9.92,1.43,12.71-.26,25.63-1.89,38.14l-.09.68A94.07,94.07,0,0,1,85.28,164.32Z"/></g><g class="cls-7"><path class="cls-4" d="M74.8,160.4A106.85,106.85,0,0,0,60.6,130c-2.6-3.8-5.5-7.7-5.9-12.2-.5-4.9,2.3-7.2,4.3-11.1,2.2-4.4,1.2-10.5.2-15.1-.2-1-.5-2.2.1-3a3.31,3.31,0,0,1,2.6-1.1c7.8-.7,15.3,3.2,21.9,7.6a14.77,14.77,0,0,1,4.8,4.5,15.88,15.88,0,0,1,1.7,6c1.4,9.4,2.4,18.8,2.9,28.3a97.25,97.25,0,0,1-.1,17.9c-1.7,14.7-8.8,28.1-11.5,42.5"/><path class="cls-8" d="M82.09,194.39l-1-.18a144.32,144.32,0,0,1,5.41-19c2.53-7.56,5.15-15.37,6.08-23.44a97.48,97.48,0,0,0,.1-17.81c-.48-9.18-1.43-18.42-2.89-28.26l0-.2a14.84,14.84,0,0,0-1.6-5.61,14.28,14.28,0,0,0-4.65-4.34C77.7,91.64,70,87.28,61.94,88c-.88.09-1.84.26-2.22.87a3.24,3.24,0,0,0-.07,2.43l0,.2c1.12,5.15,2,11-.24,15.42-.55,1.08-1.15,2-1.73,2.93-1.54,2.41-2.87,4.49-2.52,7.9.36,4,2.84,7.65,5.24,11.13l.57.84a106.69,106.69,0,0,1,14.27,30.54l-1,.28a105.91,105.91,0,0,0-14.13-30.26l-.58-.83c-2.47-3.59-5-7.3-5.41-11.61-.38-3.75,1.1-6.07,2.67-8.53.57-.89,1.16-1.81,1.69-2.84,2.07-4.16,1.17-10.07.15-14.76l0-.21c-.21-1-.46-2.27.23-3.2s1.82-1.18,3-1.3c8.36-.75,16.27,3.71,22.23,7.68a15.28,15.28,0,0,1,5,4.67,15.78,15.78,0,0,1,1.73,6l0,.21c1.47,9.87,2.42,19.14,2.91,28.34a99.47,99.47,0,0,1-.1,18c-.95,8.16-3.58,16-6.13,23.64A144,144,0,0,0,82.09,194.39Z"/></g><g class="cls-7"><path class="cls-9" d="M85.3,187.3c4.6-11.1,12-21.3,13-33.3a138.18,138.18,0,0,0-1-15.8c-.2-2.5-.1-5-.3-7.5-.1-2.2-1.5-4.6-2.4-6.6a41.92,41.92,0,0,1-3.3,2.6,9.13,9.13,0,0,1-1.3.8c-5,2.7-11.9,1-16.9-1a33.16,33.16,0,0,1-13.7-10c-.9-1.2-3.2.5-3.4,2a7.12,7.12,0,0,0,1.5,4.1c7.2,11.3,7.9,25.6,13,38"/></g><g class="cls-7"><path class="cls-4" d="M102.9,160.2a31.34,31.34,0,0,0,2.7-9.5,16.22,16.22,0,0,0-4.9-12.7c-.8-.7-1.7-1.7-1.6-2.8a3,3,0,0,1,.5-1.5c1.2-2.8,2.4-5.7,2.4-8.8s-1.4-5.1-3.8-7.1a61.19,61.19,0,0,0-5-3.9c-.4-.3-1.1-.7-1.8-1.2.9,7,1.5,14,1.9,21.1a97.25,97.25,0,0,1-.1,17.9c-1.7,14.7-8.8,28.1-11.5,42.5"/><path class="cls-8" d="M82.19,194.29l-1-.18a144.32,144.32,0,0,1,5.41-19c2.53-7.56,5.15-15.37,6.08-23.44a97.48,97.48,0,0,0,.1-17.81c-.42-7.56-1-14.45-1.9-21.07l-.14-1.13.93.66c.36.26.72.49,1,.69s.58.37.78.52a61.42,61.42,0,0,1,5,3.92c2.13,1.78,4.09,3.92,4,7.5,0,3.28-1.35,6.44-2.44,9a2.61,2.61,0,0,0-.46,1.3c-.06.74.42,1.54,1.43,2.42a16.79,16.79,0,0,1,5.07,13.11,31.28,31.28,0,0,1-2.74,9.67l-.92-.4a30.55,30.55,0,0,0,2.66-9.34,15.73,15.73,0,0,0-4.75-12.3c-1.26-1.11-1.84-2.16-1.75-3.21a3.48,3.48,0,0,1,.57-1.71c1.08-2.52,2.33-5.44,2.33-8.54s-1.38-4.85-3.62-6.72a60,60,0,0,0-5-3.87,8.3,8.3,0,0,0-.73-.49l-.15-.09c.79,6.3,1.37,12.87,1.77,20a99.47,99.47,0,0,1-.1,18c-1,8.16-3.58,16-6.13,23.64A144,144,0,0,0,82.19,194.29Z"/></g><g class="cls-7"><path class="cls-4" d="M94.9,111.4c-11.1,1-22.4-5.5-30.3-12.7a39.61,39.61,0,0,1-11.5-18c-1-3.7-2.7-7.1-3.5-10.9a41,41,0,0,1-.3-11.6,14.61,14.61,0,0,1,1.6-5.5c1.4-2.7,4-4.5,6.6-5.8,6.7-3.5,14.5-4.4,22-4.2,7.2.2,15.3,2.3,18.6,8.7a26,26,0,0,1,1.6,4.7A142.16,142.16,0,0,1,103.6,82c.2,5.2.3,10.5.1,15.8-.1,3.5-.6,8.4-2.9,11.1A9.35,9.35,0,0,1,94.9,111.4Z"/><path class="cls-8" d="M92.57,112c-12.68,0-23.9-8.91-28.31-12.93A40.22,40.22,0,0,1,52.62,80.84c-.43-1.6-1-3.18-1.56-4.7a44,44,0,0,1-2-6.24,41.71,41.71,0,0,1-.31-11.77,15.09,15.09,0,0,1,1.66-5.67c1.22-2.36,3.45-4.33,6.82-6,5.93-3.1,13.21-4.48,22.23-4.25,5.46.15,15.19,1.52,19,9A26.37,26.37,0,0,1,100.19,56a142.71,142.71,0,0,1,3.91,26c.24,6.35.27,11.23.1,15.85-.15,5.39-1.17,9.23-3,11.4A9.77,9.77,0,0,1,95,111.9h0C94.15,112,93.36,112,92.57,112Zm-15-68.83c-8,0-14.46,1.37-19.82,4.17-3.17,1.59-5.26,3.42-6.39,5.59a14.27,14.27,0,0,0-1.54,5.32,40.27,40.27,0,0,0,.29,11.47A46.61,46.61,0,0,0,52,75.8c.57,1.54,1.15,3.13,1.59,4.77A39.21,39.21,0,0,0,64.94,98.33c4.58,4.18,16.68,13.76,29.91,12.57h0a8.75,8.75,0,0,0,5.58-2.34c1.69-2,2.62-5.61,2.77-10.77.17-4.6.14-9.46-.1-15.77a141.64,141.64,0,0,0-3.89-25.8,24.5,24.5,0,0,0-1.56-4.61c-3.6-7-12.93-8.26-18.16-8.41Z"/></g><g class="cls-7"><path class="cls-8" d="M54.5,85.4a32.58,32.58,0,0,0,2.4,4c-.7-1.1,3.7-4.2,4.5-4.5,1.9-.7,4.3.5,6.1,1.1a12.93,12.93,0,0,1,2.1.7c.3.2,1.8,1.4,1.8,1.7-.2-4.6,0-10.1,3.7-12.8a16.31,16.31,0,0,1-2.7-6.2c-.4-2.2.2-4.8,2.1-6.1,1.6-1.2,3.8-1.1,5.7-1,2.8.2,5.5.4,8.3.5,8.5.5,17.8-2.4,13.6-13.3-2.4-6.5-10.7-7.1-16.4-7.3a107.63,107.63,0,0,0-11.4-.4,33.18,33.18,0,0,0-11.7,2.1A29.79,29.79,0,0,0,53.8,49a19,19,0,0,0-5,7.8C45.3,66.5,49.5,76.7,54.5,85.4Z"/></g><g class="cls-7"><path class="cls-8" d="M94.89,123.78a45,45,0,0,1-6.44-.59c-6.85-1.09-22.9-10.35-26.09-18.94-2.06-5.38-1.59-10.12,1.37-13.69l1.54,1.28c-3.12,3.76-2.29,8.44-1,11.7,2.91,7.86,18.24,16.67,24.53,17.67,6.86,1,13.26,1.38,16.12-5.49,2.79-6.61,3-17.48-1.93-25.49l1.7-1.06c5.31,8.6,5.06,20.25,2.07,27.32C104.32,122.27,99.88,123.78,94.89,123.78Z"/></g><g class="cls-7"><path class="cls-8" d="M83.42,90.17c-7.07-2.76-16.08-5.55-21.65-7.09l.26-1c5.6,1.55,14.65,4.34,21.75,7.11Z"/></g><g class="cls-7"><path d="M106.16,77.64a34.69,34.69,0,0,1-3.25-2l.58-.82a32.64,32.64,0,0,0,3.15,2Z"/></g><g class="cls-7"><path class="cls-8" d="M65.92,100.32a3.44,3.44,0,0,1-1.31-.26,6,6,0,0,1-2.08-1.79L62.32,98,62,97.54a13.21,13.21,0,0,0-1.91-2.37c-.3-.29-.6-.57-.91-.84a8.63,8.63,0,0,1-2.11-2.41,6,6,0,0,1,.18-4.19,5.94,5.94,0,0,1,7.55-3.2l-.36.94a5,5,0,0,0-6.25,2.61,5.07,5.07,0,0,0-.22,3.4,7.84,7.84,0,0,0,1.88,2.11c.32.28.63.57.92.86A13.39,13.39,0,0,1,62.81,97l.48.65A5.12,5.12,0,0,0,65,99.14a2.8,2.8,0,0,0,3-.77,3.44,3.44,0,0,0,.7-3.21l.94-.32a4.35,4.35,0,0,1-.9,4.19A3.87,3.87,0,0,1,65.92,100.32Z"/></g><g class="cls-7"><path class="cls-8" d="M65.4,95.45A9.45,9.45,0,0,0,60.19,88l.42-.9a10.46,10.46,0,0,1,5.79,8.3Z"/></g><g class="cls-10"><path class="cls-8" d="M87.65,95.23a4.3,4.3,0,0,1-2.83-1c-2.14-1.82-2-5.56.38-8.33h0c2.36-2.78,6-3.55,8.16-1.74s2,5.56-.38,8.34A7.23,7.23,0,0,1,87.65,95.23ZM86,86.57c-2,2.35-2.22,5.46-.5,6.92s4.75.73,6.75-1.62,2.22-5.46.5-6.92S88,84.21,86,86.57Z"/></g><g class="cls-11"><path class="cls-8" d="M103.12,87.7a4.48,4.48,0,0,1-1.49-.25c-2.66-.92-4-4.12-2.93-7.15h0c1-3,4.06-4.73,6.72-3.81a4.8,4.8,0,0,1,2.87,2.81,6.28,6.28,0,0,1,0,4.34A6.15,6.15,0,0,1,105.62,87,5,5,0,0,1,103.12,87.7Zm-3.47-7.07h0c-.87,2.5.17,5.14,2.31,5.88a3.79,3.79,0,0,0,3.16-.37,5.38,5.38,0,0,0,2.24-6.46,3.82,3.82,0,0,0-2.27-2.25C103,76.7,100.51,78.13,99.65,80.63Z"/></g><g class="cls-7"><path class="cls-8" d="M93.5,85.65a4.7,4.7,0,0,1,.68-3,3.6,3.6,0,0,1,2.1-1.91,2.51,2.51,0,0,1,2.83.89l-.82.58a1.51,1.51,0,0,0-1.71-.52A2.78,2.78,0,0,0,95,83.15a3.69,3.69,0,0,0-.53,2.4Z"/></g><g class="cls-7"><path class="cls-8" d="M103.79,199.33l-2-.26c.31-2.34,1.06-5.79,2-10.16,3.92-17.93,11.23-51.31-.84-68.23l1.62-1.16c12.6,17.65,5.16,51.59,1.17,69.82C104.83,193.66,104.09,197.07,103.79,199.33Z"/></g><g class="cls-7"><path class="cls-4" d="M80.9,197.1c-1.1-9.6-6.4-24.9-18.4-39.3-3.5-4.2-7.8-8-6.3-13.6.7-2.7,2.4-5.1,3.2-7.8a3.3,3.3,0,0,0,0-2.4c-.3-.5-1-.7-1.5-1-2.7-.9-5.5-.7-8.3-1.1-4.7-.5-8.1-2.4-6.9-7.5,1-4.1,3.8-7.7,6.9-10.4,2.9-2.7,6-6.2,10.1-6.5-1.2.1-.5,8.5-.3,9.4a25.38,25.38,0,0,0,3.7,8.8,125.28,125.28,0,0,1,10.6,21.4c6.9,17.9,9.4,40,7.9,59.1"/><path class="cls-8" d="M82.1,206.24l-1-.08c1.57-20-1.37-42-7.87-58.88A124.6,124.6,0,0,0,62.67,126a25.38,25.38,0,0,1-3.76-9c-.12-.52-.73-6.44-.16-8.85-2.94.61-5.35,2.92-7.68,5.16l-1.13,1.07c-2.48,2.16-5.66,5.67-6.75,10.15a5.16,5.16,0,0,0,.51,4.33c1,1.38,3,2.24,5.95,2.55,1,.14,2,.21,2.93.27a21.79,21.79,0,0,1,5.48.86l.1,0a4.13,4.13,0,0,0,.42.22,2.76,2.76,0,0,1,1.25,1,3.58,3.58,0,0,1,.05,2.78,24.91,24.91,0,0,1-1.58,3.82,22.43,22.43,0,0,0-1.62,4c-1.23,4.59,1.68,7.92,4.75,11.46.49.56,1,1.12,1.45,1.69C74.83,171.82,80.28,187.32,81.4,197l-1,.12c-1.09-9.58-6.48-24.87-18.28-39-.47-.56-1-1.12-1.44-1.67-3.11-3.58-6.33-7.28-5-12.38a22.78,22.78,0,0,1,1.68-4.16,25.8,25.8,0,0,0,1.52-3.65c.11-.44.38-1.51.06-2a2,2,0,0,0-.84-.59l-.45-.23a20.59,20.59,0,0,0-5.18-.79c-1-.06-2-.13-3-.27-3.31-.36-5.49-1.33-6.65-3a6.15,6.15,0,0,1-.67-5.14c1.16-4.74,4.48-8.42,7.06-10.67q.54-.5,1.11-1.05c2.59-2.48,5.53-5.29,9.28-5.57l.08,1a.28.28,0,0,0,.13,0c-.66.72-.25,7.63,0,8.84a24.55,24.55,0,0,0,3.63,8.64,125.52,125.52,0,0,1,10.65,21.49C80.72,163.91,83.68,186.09,82.1,206.24Z"/></g><g class="cls-7"><path class="cls-4" d="M130.4,159.7a3.54,3.54,0,0,1,3.5-3.5h0a3.54,3.54,0,0,1,3.5,3.5"/></g><path class="cls-12" d="M74.7,150.4a61.2,61.2,0,1,1,61.2-61.2A61.26,61.26,0,0,1,74.7,150.4ZM74.7,29a60.2,60.2,0,1,0,60.2,60.2A60.27,60.27,0,0,0,74.7,29Z"/></g><circle class="cls-4" cx="261.8" cy="202" r="59.2"/><g class="cls-13"><path class="cls-4" d="M272.7,200.9c3.7-3.1,5.6-6.2,6.2-10.5a18.11,18.11,0,0,0-4.4-13.6c-3.1-4.4-8.1-5.6-13-6.2-6.2,0-13-1.3-18.6,1.3-9.3,5.2-11.2,20.5-13,32.3a9.18,9.18,0,0,0,3.1,8.7c2.4,1.4,5,1.6,7.7,1.8.4,0,7.1-.4,6.7-.8a46,46,0,0,1,5.5,7.6,4,4,0,0,1,.8,2.8,4.14,4.14,0,0,1-2,2.5A49.83,49.83,0,0,1,242,233c-2.9,1.3-4.3,1.7-5.7,5a36.62,36.62,0,0,0-2.7,15c-.1,5.5.7,11.8,5,15.2,2.5,1.9,5.7,2.6,8.8,3.1,16,2.5,33.1,1.4,47-6.8,3.7-2.2,7.3-5,8.8-9a17.3,17.3,0,0,0,.9-7.8c-.4-6-2.3-9.5-7.7-12.3-4.3-2.2-9.1-3.3-13.3-5.7a25.25,25.25,0,0,1-11.3-13.4,22.5,22.5,0,0,1-.8-2.4C269.4,209.2,268.7,205.1,272.7,200.9Z"/><path class="cls-8" d="M262.11,273a95.59,95.59,0,0,1-14.79-1.19c-3-.47-6.34-1.15-9-3.19-3.64-2.88-5.34-8-5.2-15.61,0-6.09.9-11.06,2.74-15.19,1.37-3.23,2.78-3.85,5.33-5l.63-.28a49.86,49.86,0,0,0,9.6-6.14,2.87,2.87,0,0,0,1.08-4.64,46.83,46.83,0,0,0-5.2-7.25,36.83,36.83,0,0,1-6.58.69c-2.69-.2-5.44-.4-7.95-1.87a9.69,9.69,0,0,1-3.34-9.22l.24-1.63c1.75-11.55,3.92-25.94,13-31,4.35-2,9.34-1.77,14.16-1.52,1.55.08,3.15.16,4.68.16,4.84.59,10.17,1.81,13.41,6.41a18.62,18.62,0,0,1,4.49,14c-.61,4.35-2.51,7.58-6.36,10.81-3.58,3.77-3.28,7.43-1.57,12.47a23.74,23.74,0,0,0,.8,2.38,24.72,24.72,0,0,0,11.07,13.14,48.75,48.75,0,0,0,7.12,3.11,57.66,57.66,0,0,1,6.17,2.59c5.38,2.79,7.54,6.23,8,12.71a17.48,17.48,0,0,1-.94,8c-1.68,4.48-5.94,7.42-9,9.24C284.23,271.08,272.55,273,262.11,273ZM248,213.8a46.34,46.34,0,0,1,5.35,7.45,4.44,4.44,0,0,1,.86,3.15,4.64,4.64,0,0,1-2.21,2.82,50.64,50.64,0,0,1-9.78,6.24l-.63.28c-2.47,1.09-3.59,1.59-4.81,4.46-1.79,4-2.66,8.85-2.66,14.8-.13,7.3,1.44,12.14,4.81,14.81,2.49,1.89,5.73,2.54,8.57,3,12.71,2,31.13,2.43,46.67-6.74,2.93-1.74,7-4.55,8.58-8.75a16.57,16.57,0,0,0,.87-7.58c-.4-6.07-2.42-9.3-7.43-11.9a59.18,59.18,0,0,0-6.06-2.53,48.46,48.46,0,0,1-7.26-3.18,25.75,25.75,0,0,1-11.52-13.66,22.71,22.71,0,0,1-.82-2.45c-1.46-4.28-2.53-8.89,1.83-13.46l0,0c3.65-3.06,5.46-6.11,6-10.19a17.67,17.67,0,0,0-4.29-13.21c-3-4.3-7.89-5.44-12.68-6-1.5,0-3.11-.08-4.67-.16-4.71-.24-9.56-.49-13.66,1.41-8.63,4.83-10.76,18.94-12.47,30.28l-.25,1.65a8.67,8.67,0,0,0,2.91,8.22c2.27,1.32,4.78,1.5,7.44,1.7a49.77,49.77,0,0,0,6.38-.64.47.47,0,0,0-.2.3l.43.07.4-.38.24.23Z"/><path class="cls-4" d="M258.3,198.6c1.2-.6,2.4-1.2,3.6-1.7a5.64,5.64,0,0,1,1.2-.4,2.37,2.37,0,0,1,2.3,1.5,5.68,5.68,0,0,1,.3,2.9,8.56,8.56,0,0,1-3.8,6.1,2.69,2.69,0,0,1-1.5.5,1.94,1.94,0,0,1-1.7-1"/><path class="cls-8" d="M260.4,208a2.42,2.42,0,0,1-2.15-1.28l.9-.44a1.43,1.43,0,0,0,1.25.72,2.24,2.24,0,0,0,1.2-.4,8,8,0,0,0,3.6-5.76,5.13,5.13,0,0,0-.26-2.64,1.9,1.9,0,0,0-1.79-1.2,5,5,0,0,0-1,.35c-1.21.51-2.42,1.11-3.6,1.7l-.44-.9c1.18-.59,2.41-1.2,3.63-1.71A6.14,6.14,0,0,1,263,196a2.88,2.88,0,0,1,2.88,1.79,6.22,6.22,0,0,1,.34,3.15,9,9,0,0,1-4,6.47A3.14,3.14,0,0,1,260.4,208Z"/><path class="cls-4" d="M250.6,242a7.78,7.78,0,0,0,4.4,2,24.39,24.39,0,0,0,13.6-1.9c6-2.5,11.3-6.3,13.9-12.6.1-.2.2-.4.3-.4h.3c8,1.8,17.2,3.3,21.4,11.5,1.5,2.9,1.9,6.3,2.1,9.6.9,16-1.4,76.2.8,92.4-4.4-3.6-11.7-6.3-16.8-8.5-5.9-2.5-11.8-4.8-17.8-6.8-3.5-1.1-34.2-11.1-36.4-6.7a32.27,32.27,0,0,0,2.7-19.6c-.8-4.7-2.7-9.2-4-13.8a57.71,57.71,0,0,1-2.3-14.3,29.64,29.64,0,0,1,1.7-12.5,1.41,1.41,0,0,0,.1-.9,2.65,2.65,0,0,0-.5-.6c-1-.8-14.6-11.9-14.6-11.9,1.9-4,4.9-7.4,7.9-10.7a31.52,31.52,0,0,1,14.2-8.6c1.5-.4,10.2-.7,10.8-1.9-1.9,3.6-3.7,6.1-3.7,10.3a10.16,10.16,0,0,0,1.1,5.2A1.39,1.39,0,0,0,250.6,242Z"/><path class="cls-8" d="M308.07,343.79l-1-.8c-3.61-3-9.36-5.36-14-7.29l-2.7-1.14c-6.43-2.73-12.24-4.95-17.76-6.79l-.65-.2c-30.84-9.8-34.69-7.64-35.14-6.75l-.9-.44a31.69,31.69,0,0,0,2.66-19.29,62.57,62.57,0,0,0-2.47-8.91c-.52-1.58-1.06-3.22-1.52-4.84a58.09,58.09,0,0,1-2.32-14.42A30,30,0,0,1,234,260.24a1.13,1.13,0,0,0,.1-.58,3.74,3.74,0,0,0-.38-.41c-.95-.75-14.43-11.75-14.57-11.86l-.3-.25.17-.35c1.88-4,4.73-7.25,8-10.83a32.07,32.07,0,0,1,14.43-8.74,29.74,29.74,0,0,1,3.26-.41c2.19-.21,6.76-.65,7.24-1.25l.89.46,0,0c-.29.56-.58,1.09-.87,1.6-1.54,2.81-2.76,5-2.76,8.45a9.9,9.9,0,0,0,1,4.94c.17.26.29.42.49.47l.15,0,.1.11a7.42,7.42,0,0,0,4.12,1.85,24,24,0,0,0,13.31-1.87c7-2.89,11.41-6.93,13.64-12.33.16-.33.35-.71.76-.71h.41l1.63.36c7.54,1.66,16.08,3.55,20.11,11.4,1.55,3,1.95,6.49,2.15,9.8.36,6.46.2,20.37,0,35.1-.25,22.32-.54,47.62.77,57.26Zm-68-24.76c5.51,0,16.28,2.53,32.18,7.58l.66.21c5.55,1.85,11.38,4.08,17.84,6.82l2.69,1.13c4.3,1.8,9.56,4,13.28,6.7-1.15-10.47-.87-34.72-.63-56.21.17-14.71.33-28.61,0-35-.19-3.2-.57-6.56-2-9.4-3.81-7.44-11.75-9.19-19.43-10.88L283,229.6a1.33,1.33,0,0,0-.06.12c-2.32,5.63-7,9.84-14.16,12.84a24.9,24.9,0,0,1-13.88,1.93,8.45,8.45,0,0,1-4.58-2.05,2,2,0,0,1-1-.86,10.83,10.83,0,0,1-1.18-5.48c0-3.67,1.34-6.11,2.89-8.93l.13-.24a46.64,46.64,0,0,1-6.41.88c-1.36.13-2.64.26-3.08.37a30.94,30.94,0,0,0-14,8.46c-3.1,3.41-5.83,6.54-7.65,10.22,2,1.65,13.39,10.93,14.29,11.65a3,3,0,0,1,.64.77,1.84,1.84,0,0,1-.07,1.27,29.14,29.14,0,0,0-1.68,12.33,56.62,56.62,0,0,0,2.28,14.17c.46,1.62,1,3.25,1.51,4.82a61.77,61.77,0,0,1,2.5,9.05,32.57,32.57,0,0,1-2.06,18.38A10.19,10.19,0,0,1,240.11,319Z"/><path class="cls-8" d="M240.34,215c-.49,0-1,0-1.46,0l0-1A33,33,0,0,0,253,211.54l.38.92A33.64,33.64,0,0,1,240.34,215Z"/><path class="cls-4" d="M256.2,235.6c.7-2.9,0-8.1-2.7-13.1"/><path d="M256.69,235.72l-1-.24c.63-2.6.07-7.7-2.65-12.74l.88-.48C256.8,227.56,257.38,232.84,256.69,235.72Z"/><path class="cls-8" d="M239.8,174.3c1.3,0,2.1-.4,3.3.2,2.8,1.5,3.4,5.6,3.2,8.4a5.65,5.65,0,0,0,0,1.3,4.54,4.54,0,0,0,1.5,1.9,14.51,14.51,0,0,1,4.1,13.8,17.31,17.31,0,0,1,6.3-1.3c1.5,0,3.6-.4,4.8.6,1,.8.7,1.8,1.2,2.8.6,1.4,2.1,2.6,3,3.9a15.91,15.91,0,0,1,2.5,6.2c1.1,5.8-2.9,19.3,4.6,21.7,2.5.8,5.1.3,7.7.1,6.7-.6,12.7,1.2,19.3,1.8.7-1.8.8-3.7,1.4-5.5.9-2.6,2.1-4.8,2.4-7.6.3-3.3-.7-6.9-3.4-8.8-3.1-2.2-7.9-2-9.7-5.2-3.5-6.2,3.6-14.2.9-20.8-2.1-5.2-9.3-6.1-12.5-10.5-1.4-2-1.9-4.5-2.9-6.7-3.3-7.3-11.1-10.1-18.5-10.3-5.4-.2-11.4.3-15.3,4-2.6,2.5-3.1,6.2-3.9,9.5C239.9,174.2,239.9,174.2,239.8,174.3Z"/></g><path class="cls-12" d="M261.8,261.7A59.7,59.7,0,1,1,321.5,202,59.77,59.77,0,0,1,261.8,261.7Zm0-118.4A58.7,58.7,0,1,0,320.5,202,58.76,58.76,0,0,0,261.8,143.3Z"/></g></svg>