<?xml version="1.0" encoding="utf-8"?>
<!-- Generator: Adobe Illustrator 24.1.3, SVG Export Plug-In . SVG Version: 6.00 Build 0)  -->
<svg version="1.1" id="Layer_1" xmlns="http://www.w3.org/2000/svg" xmlns:xlink="http://www.w3.org/1999/xlink" x="0px" y="0px"
	 viewBox="0 0 325.5 291.7" style="enable-background:new 0 0 325.5 291.7;" xml:space="preserve">
<style type="text/css">
	.st0{opacity:0.1;fill:#04A0F4;enable-background:new    ;}
	.st1{fill:#04A0F4;}
	.st2{fill:#FFFFFF;}
	.st3{fill:#FFBE4F;}
	.st4{fill:none;stroke:#04A0F4;stroke-width:2;stroke-linecap:round;stroke-miterlimit:10;}
	.st5{fill:#F2F2F2;}
	.st6{clip-path:url(#SVGID_2_);fill:#FFFFFF;stroke:#000000;stroke-miterlimit:10;}
	.st7{clip-path:url(#SVGID_4_);fill:#FFFFFF;stroke:#484949;stroke-miterlimit:10;}
	.st8{clip-path:url(#SVGID_6_);fill:#FFFFFF;stroke:#484949;stroke-miterlimit:10;}
	.st9{clip-path:url(#SVGID_8_);fill:#FFFFFF;stroke:#484949;stroke-miterlimit:10;}
	.st10{clip-path:url(#SVGID_10_);fill:#C9C9C7;}
	.st11{clip-path:url(#SVGID_12_);fill:#FFFFFF;stroke:#484949;stroke-miterlimit:10;}
	.st12{clip-path:url(#SVGID_14_);fill:#FFFFFF;stroke:#484949;stroke-miterlimit:10;}
	.st13{clip-path:url(#SVGID_16_);fill:#484949;}
	.st14{clip-path:url(#SVGID_18_);fill:none;stroke:#484949;stroke-width:2;stroke-miterlimit:10;}
	.st15{clip-path:url(#SVGID_20_);fill:none;stroke:#484949;stroke-miterlimit:10;}
	.st16{clip-path:url(#SVGID_22_);fill:none;stroke:#000000;stroke-miterlimit:10;}
	.st17{clip-path:url(#SVGID_24_);fill:none;stroke:#484949;stroke-miterlimit:10;}
	.st18{clip-path:url(#SVGID_26_);fill:none;stroke:#484949;stroke-miterlimit:10;}
	.st19{clip-path:url(#SVGID_28_);fill:none;stroke:#484949;stroke-width:1;stroke-miterlimit:10.0015;}
	.st20{clip-path:url(#SVGID_30_);fill:none;stroke:#484949;stroke-width:1;stroke-miterlimit:9.9985;}
	.st21{clip-path:url(#SVGID_32_);fill:none;stroke:#484949;stroke-miterlimit:10;}
	.st22{clip-path:url(#SVGID_34_);fill:none;stroke:#484949;stroke-width:2;stroke-miterlimit:10;}
	.st23{clip-path:url(#SVGID_36_);fill:#FFFFFF;stroke:#484949;stroke-miterlimit:10;}
	.st24{clip-path:url(#SVGID_38_);fill:#FFFFFF;}
	.st25{clip-path:url(#SVGID_40_);fill:none;}
	.st26{fill:none;stroke:#9E9E9E;stroke-miterlimit:10;}
	.st27{clip-path:url(#SVGID_42_);}
	.st28{fill:#FFFFFF;stroke:#484949;stroke-miterlimit:10;}
	.st29{fill:none;stroke:#484949;stroke-miterlimit:10;}
	.st30{fill:#FFFFFF;stroke:#000000;stroke-miterlimit:10;}
	.st31{fill:#484949;}
</style>
<g id="Layer_1_1_">
	<g>
		<circle class="st0" cx="153.8" cy="175.4" r="80"/>
		<circle class="st0" cx="153.8" cy="175.4" r="95.4"/>
		<g>
			<g>
				<path class="st1" d="M71.6,210.5c-2.8,8.3-9,15.1-17,18.8c-11.6,5.3-23.3,4.3-32.5-0.9L0,233.5l11.6-14.1
					c-6.7-8.6-9.5-20.4-5.4-33c2.7-8.5,8.8-15.5,16.9-19.3C52.2,153.5,81.9,180.1,71.6,210.5z"/>
				<path class="st2" d="M24.6,191.8L24.6,191.8c1.3,0,2.4,1.1,2.4,2.4v10.4c0,1.3-1.1,2.4-2.4,2.4h0c-1.3,0-2.4-1.1-2.4-2.4v-10.4
					C22.2,192.9,23.3,191.8,24.6,191.8z"/>
				<path class="st2" d="M16.3,196.6L16.3,196.6c1.3,0,2.4,1.1,2.4,2.4v0c0,1.3-1.1,2.4-2.4,2.4h0c-1.3,0-2.4-1.1-2.4-2.4v0
					C13.9,197.7,15,196.6,16.3,196.6z"/>
				<path class="st2" d="M32.7,186.3L32.7,186.3c1.3,0,2.4,1.1,2.4,2.4v21.4c0,1.3-1.1,2.4-2.4,2.4h0c-1.3,0-2.4-1.1-2.4-2.4v-21.4
					C30.3,187.4,31.4,186.3,32.7,186.3z"/>
				<path class="st2" d="M40.8,175.2L40.8,175.2c1.3,0,2.4,1.1,2.4,2.4v43.5c0,1.3-1.1,2.4-2.4,2.4h0c-1.3,0-2.4-1.1-2.4-2.4v-43.5
					C38.4,176.3,39.5,175.2,40.8,175.2z"/>
				<path class="st2" d="M48.9,186.3L48.9,186.3c1.3,0,2.4,1.1,2.4,2.4v21.4c0,1.3-1.1,2.4-2.4,2.4h0c-1.3,0-2.4-1.1-2.4-2.4v-21.4
					C46.5,187.4,47.6,186.3,48.9,186.3z"/>
				<path class="st2" d="M57,191.8L57,191.8c1.3,0,2.4,1.1,2.4,2.4v10.4c0,1.3-1.1,2.4-2.4,2.4h0c-1.3,0-2.4-1.1-2.4-2.4v-10.4
					C54.6,192.9,55.7,191.8,57,191.8z"/>
			</g>
		</g>
		<g>
			<circle class="st3" cx="232.7" cy="66.2" r="31.6"/>
			<polygon class="st3" points="269.6,91.2 255.5,69.9 238.2,86.4 			"/>
			<g>
				<path class="st2" d="M252.2,68.3L252.2,68.3c-1.2,0-2.2-1-2.2-2.2l0,0c0-1.2,1-2.2,2.2-2.2l0,0c1.2,0,2.2,1,2.2,2.2l0,0
					C254.4,67.4,253.4,68.3,252.2,68.3z"/>
				<path class="st2" d="M215.8,72.7L215.8,72.7c-1.2,0-2.2-1-2.2-2.2v-9.4c0-1.2,1-2.2,2.2-2.2l0,0c1.2,0,2.2,1,2.2,2.2v9.4
					C218,71.7,217,72.7,215.8,72.7z"/>
				<path class="st2" d="M223.2,77.7L223.2,77.7c-1.2,0-2.2-1-2.2-2.2V56.1c0-1.2,1-2.2,2.2-2.2l0,0c1.2,0,2.2,1,2.2,2.2v19.4
					C225.4,76.8,224.4,77.7,223.2,77.7z"/>
				<path class="st2" d="M230.5,72.7L230.5,72.7c-1.2,0-2.2-1-2.2-2.2v-9.4c0-1.2,1-2.2,2.2-2.2l0,0c1.2,0,2.2,1,2.2,2.2v9.4
					C232.7,71.7,231.8,72.7,230.5,72.7z"/>
				<path class="st2" d="M237.9,84.6L237.9,84.6c-1.2,0-2.2-1-2.2-2.2V49.2c0-1.2,1-2.2,2.2-2.2l0,0c1.2,0,2.2,1,2.2,2.2v33.2
					C240.1,83.7,239.1,84.6,237.9,84.6z"/>
				<path class="st2" d="M245.3,72.7L245.3,72.7c-1.2,0-2.2-1-2.2-2.2v-9.4c0-1.2,1-2.2,2.2-2.2l0,0c1.2,0,2.2,1,2.2,2.2v9.4
					C247.5,71.7,246.5,72.7,245.3,72.7z"/>
			</g>
		</g>
		<path class="st4" d="M48.6,179.9h63.8c2.1,0,4-1.5,4.3-3.6l2.5-13.6c0.3-1.7,1.8-2.9,3.5-2.9l0,0c1.9,0,3.4,1.4,3.6,3.3l2.7,28
			c0.2,2,1.8,3.5,3.8,3.5l0,0c1.9,0,3.5-1.4,3.8-3.3l4.4-38.4c0.2-1.4,1.4-2.5,2.8-2.5l0,0c1.3,0,2.5,0.9,2.8,2.3l2.7,46.6
			c0.4,2,2.1,3.4,4.2,3.4l0,0c2,0,3.7-1.4,4.1-3.3l3.2-46.8c0.3-1.3,1.4-2.2,2.7-2.2h0.3c1.4,0,2.6,1.1,2.8,2.5l4.6,38.4
			c0.2,1.9,1.8,3.3,3.7,3.3l0,0c1.9,0,3.5-1.4,3.7-3.3l3.9-29.2c0.2-1.4,1.4-2.4,2.8-2.4l0,0c1.4,0,2.5,1,2.8,2.3l2.5,14.5
			c0.3,1.9,2,3.3,3.9,3.3h33.8"/>
		<circle class="st1" cx="153.8" cy="175.4" r="65.5"/>
		<g>
			<g>
				<path class="st2" d="M66.9,111.5L66.9,111.5c0.9,0,1.7,0.8,1.7,1.7V128c0,0.9-0.8,1.7-1.7,1.7l0,0c-0.9,0-1.7-0.8-1.7-1.7v-14.9
					C65.2,112.2,66,111.5,66.9,111.5z"/>
				<path class="st2" d="M61.3,115.3L61.3,115.3c0.9,0,1.7,0.8,1.7,1.7v7.2c0,0.9-0.8,1.7-1.7,1.7l0,0c-0.9,0-1.7-0.8-1.7-1.7V117
					C59.6,116.1,60.3,115.3,61.3,115.3z"/>
				<path class="st2" d="M55.6,106.2L55.6,106.2c0.9,0,1.7,0.8,1.7,1.7v25.4c0,0.9-0.8,1.7-1.7,1.7l0,0c-0.9,0-1.7-0.8-1.7-1.7
					v-25.4C53.9,107,54.7,106.2,55.6,106.2z"/>
				<path class="st2" d="M50,115.3L50,115.3c0.9,0,1.7,0.8,1.7,1.7v7.2c0,0.9-0.8,1.7-1.7,1.7l0,0c-0.9,0-1.7-0.8-1.7-1.7V117
					C48.3,116.1,49.1,115.3,50,115.3z"/>
			</g>
		</g>
		<g>
			<g id="Layer_2_3_">
				<g id="Layer_1-2_1_">
					<path class="st5" d="M187.4,178.7c-0.9,0-1.8-0.7-1.9-1.6l-2-11.8c-0.3-2-2.2-3.3-4.2-2.9c-1.5,0.3-2.7,1.5-2.9,3l-3.2,23.7
						c-0.1,1-1,1.7-2,1.5c-0.8-0.1-1.4-0.7-1.5-1.5l-3.7-31.2c-0.2-1.8-1.7-3.2-3.6-3.2h-0.3c-1.6,0-3.1,1.2-3.4,2.8l-2.6,11.1
						c-0.2,1.2-1.4,1.9-2.5,1.7c-0.8-0.2-1.5-0.8-1.7-1.7l-2.2-10.9c-0.4-2-2.3-3.2-4.2-2.9c-1.5,0.3-2.7,1.6-2.9,3.1l-3.7,31.1
						c-0.1,0.9-0.9,1.6-1.8,1.6c-0.9,0-1.7-0.7-1.8-1.6l-2.2-22.7c-0.2-2.3-2.3-4-4.6-3.8c-1.9,0.2-3.4,1.6-3.7,3.4l-2,11.1
						c-0.2,1.1-1.1,1.9-2.2,1.9H88.1v2.6h32.6c2.4,0,4.4-1.7,4.8-4l2-11.1c0.2-0.7,0.8-1.3,1.6-1.3c0.8,0,1.6,0.6,1.6,1.5l2.2,22.7
						c0.2,2.4,2.4,4.2,4.8,4c2.1-0.2,3.7-1.8,4-3.8l3.6-31.1c0.1-0.5,0.5-0.9,1-0.9c0.5,0,0.9,0.3,1,0.8l2.2,10.9
						c0.3,1.7,1.6,3.2,3.4,3.6v20c-2.1,0.7-3.2,3-2.5,5.1s3,3.2,5.1,2.5s3.2-3,2.5-5.1c-0.4-1.2-1.3-2.1-2.5-2.5v-20
						c1.7-0.5,2.9-1.8,3.3-3.5l2.6-11.1c0.1-0.5,0.5-0.8,1-0.8h0.3c0.5,0,0.9,0.4,1,0.9l3.7,31.1c0.3,2.4,2.5,4.1,4.9,3.8
						c2-0.2,3.5-1.8,3.8-3.7l3.2-23.7c0.1-0.5,0.5-0.9,1-0.9c0.5,0,0.9,0.3,1,0.8l2,11.8c0.4,2.2,2.3,3.8,4.5,3.8h31.8v-2.6
						L187.4,178.7z M154.1,198c-0.8,0-1.4-0.6-1.4-1.4c0-0.8,0.6-1.4,1.4-1.4c0.8,0,1.4,0.6,1.4,1.4
						C155.5,197.3,154.9,198,154.1,198C154.1,198,154.1,198,154.1,198z"/>
				</g>
			</g>
		</g>
	</g>
	<g id="Layer_4">
		<g>
			<g id="Layer_1_2_">
				<circle class="st2" cx="74.7" cy="89.2" r="60.7"/>
				<g>
					<g>
						<g>
							<g>
								<g>
									<defs>
										<circle id="SVGID_1_" cx="74.7" cy="89.2" r="60.7"/>
									</defs>
									<clipPath id="SVGID_2_">
										<use xlink:href="#SVGID_1_"  style="overflow:visible;"/>
									</clipPath>
									<path class="st6" d="M75.4,168.2c-3.6-4.6-7.6-9.4-12.2-13.1c-3.2-2.7-6.8-5.2-10.9-6c-4.3-0.8-8.7,0.2-13,1.4
										c-9,2.4-18.3,5.5-24.7,12.3"/>
								</g>
							</g>
						</g>
					</g>
					<g>
						<g>
							<g>
								<g>
									<defs>
										<circle id="SVGID_3_" cx="74.7" cy="89.2" r="60.7"/>
									</defs>
									<clipPath id="SVGID_4_">
										<use xlink:href="#SVGID_3_"  style="overflow:visible;"/>
									</clipPath>
									<path class="st7" d="M175.8,190c-15.2-58.3-67.4-76.4-106.7-78.2c-22.9-1.1-47.6,5.7-63.5,22.7c-8.4,9-14.9,19.7-19.7,31"
										/>
								</g>
							</g>
						</g>
					</g>
					<g>
						<g>
							<g>
								<g>
									<defs>
										<circle id="SVGID_5_" cx="74.7" cy="89.2" r="60.7"/>
									</defs>
									<clipPath id="SVGID_6_">
										<use xlink:href="#SVGID_5_"  style="overflow:visible;"/>
									</clipPath>
									<path class="st8" d="M84.8,164.2c1-3.9,1.5-7.8,2-11.8c1.7-13,3.5-26.3,1.9-39.4c10.8,2.4,21.7,5.5,31.9,10.1
										c11.6,5.1,21.3,12.1,29.1,22.1"/>
								</g>
							</g>
						</g>
					</g>
					<g>
						<g>
							<g>
								<g>
									<defs>
										<circle id="SVGID_7_" cx="74.7" cy="89.2" r="60.7"/>
									</defs>
									<clipPath id="SVGID_8_">
										<use xlink:href="#SVGID_7_"  style="overflow:visible;"/>
									</clipPath>
									<path class="st9" d="M74.8,160.4c-3.1-10.8-7.9-21.1-14.2-30.4c-2.6-3.8-5.5-7.7-5.9-12.2c-0.5-4.9,2.3-7.2,4.3-11.1
										c2.2-4.4,1.2-10.5,0.2-15.1c-0.2-1-0.5-2.2,0.1-3c0.5-0.8,1.6-1,2.6-1.1c7.8-0.7,15.3,3.2,21.9,7.6
										c1.8,1.2,3.7,2.6,4.8,4.5c1.1,1.8,1.4,4,1.7,6c1.4,9.4,2.4,18.8,2.9,28.3c0.4,6,0.6,12-0.1,17.9
										c-1.7,14.7-8.8,28.1-11.5,42.5"/>
								</g>
							</g>
						</g>
					</g>
					<g>
						<g>
							<g>
								<g>
									<defs>
										<circle id="SVGID_9_" cx="74.7" cy="89.2" r="60.7"/>
									</defs>
									<clipPath id="SVGID_10_">
										<use xlink:href="#SVGID_9_"  style="overflow:visible;"/>
									</clipPath>
									<path class="st10" d="M85.3,187.3c4.6-11.1,12-21.3,13-33.3c0-5.4-0.4-10.5-1-15.8c-0.2-2.5-0.1-5-0.3-7.5
										c-0.1-2.2-1.5-4.6-2.4-6.6c-1.1,0.9-2.1,1.8-3.3,2.6c-0.4,0.3-0.9,0.6-1.3,0.8c-5,2.7-11.9,1-16.9-1
										c-5.3-2.1-10.1-5.5-13.7-10c-0.9-1.2-3.2,0.5-3.4,2c-0.1,1.5,0.7,2.8,1.5,4.1c7.2,11.3,7.9,25.6,13,38"/>
								</g>
							</g>
						</g>
					</g>
					<g>
						<g>
							<g>
								<g>
									<defs>
										<circle id="SVGID_11_" cx="74.7" cy="89.2" r="60.7"/>
									</defs>
									<clipPath id="SVGID_12_">
										<use xlink:href="#SVGID_11_"  style="overflow:visible;"/>
									</clipPath>
									<path class="st11" d="M102.9,160.2c1.3-3,2.4-6.2,2.7-9.5c0.3-4.8-1.5-9.4-4.9-12.7c-0.8-0.7-1.7-1.7-1.6-2.8
										c0-0.5,0.2-1,0.5-1.5c1.2-2.8,2.4-5.7,2.4-8.8c0.1-3.1-1.4-5.1-3.8-7.1c-1.6-1.4-3.3-2.7-5-3.9c-0.4-0.3-1.1-0.7-1.8-1.2
										c0.9,7,1.5,14,1.9,21.1c0.4,6,0.6,12-0.1,17.9c-1.7,14.7-8.8,28.1-11.5,42.5"/>
								</g>
							</g>
						</g>
					</g>
					<g>
						<g>
							<g>
								<g>
									<defs>
										<circle id="SVGID_13_" cx="74.7" cy="89.2" r="60.7"/>
									</defs>
									<clipPath id="SVGID_14_">
										<use xlink:href="#SVGID_13_"  style="overflow:visible;"/>
									</clipPath>
									<path class="st12" d="M94.9,111.4c-11.1,1-22.4-5.5-30.3-12.7c-5.3-4.9-9.5-11-11.5-18c-1-3.7-2.7-7.1-3.5-10.9
										C49,66,48.8,62,49.3,58.2c0.2-1.9,0.7-3.9,1.6-5.5c1.4-2.7,4-4.5,6.6-5.8c6.7-3.5,14.5-4.4,22-4.2
										c7.2,0.2,15.3,2.3,18.6,8.7c0.7,1.5,1.2,3.1,1.6,4.7c2.1,8.5,3.4,17.2,3.9,25.9c0.2,5.2,0.3,10.5,0.1,15.8
										c-0.1,3.5-0.6,8.4-2.9,11.1C99.4,110.4,97.1,111.2,94.9,111.4z"/>
								</g>
							</g>
						</g>
					</g>
					<g>
						<g>
							<g>
								<g>
									<defs>
										<circle id="SVGID_15_" cx="74.7" cy="89.2" r="60.7"/>
									</defs>
									<clipPath id="SVGID_16_">
										<use xlink:href="#SVGID_15_"  style="overflow:visible;"/>
									</clipPath>
									<path class="st13" d="M54.5,85.4c0.7,1.4,1.5,2.7,2.4,4c-0.7-1.1,3.7-4.2,4.5-4.5c1.9-0.7,4.3,0.5,6.1,1.1
										c0.7,0.2,1.5,0.4,2.1,0.7c0.3,0.2,1.8,1.4,1.8,1.7c-0.2-4.6,0-10.1,3.7-12.8c-1.2-1.9-2.4-4-2.7-6.2
										c-0.4-2.2,0.2-4.8,2.1-6.1c1.6-1.2,3.8-1.1,5.7-1c2.8,0.2,5.5,0.4,8.3,0.5c8.5,0.5,17.8-2.4,13.6-13.3
										c-2.4-6.5-10.7-7.1-16.4-7.3c-3.8-0.2-7.5-0.6-11.4-0.4c-4,0.1-8,0.6-11.7,2.1c-3,1.2-6.4,2.9-8.8,5.1
										c-2.3,2.1-4,4.9-5,7.8C45.3,66.5,49.5,76.7,54.5,85.4z"/>
								</g>
							</g>
						</g>
					</g>
					<g>
						<g>
							<g>
								<g>
									<defs>
										<circle id="SVGID_17_" cx="74.7" cy="89.2" r="60.7"/>
									</defs>
									<clipPath id="SVGID_18_">
										<use xlink:href="#SVGID_17_"  style="overflow:visible;"/>
									</clipPath>
									<path class="st14" d="M64.5,91.2c-2.9,3.5-3,8-1.2,12.7c3,8.1,18.4,17.2,25.3,18.3c6.7,1,14,1.6,17.2-6.1
										c3-7.1,3-18.3-2-26.4"/>
								</g>
							</g>
						</g>
					</g>
					<g>
						<g>
							<g>
								<g>
									<defs>
										<circle id="SVGID_19_" cx="74.7" cy="89.2" r="60.7"/>
									</defs>
									<clipPath id="SVGID_20_">
										<use xlink:href="#SVGID_19_"  style="overflow:visible;"/>
									</clipPath>
									<path class="st15" d="M61.9,82.6c6.5,1.8,15.3,4.6,21.7,7.1"/>
								</g>
							</g>
						</g>
					</g>
					<g>
						<g>
							<g>
								<g>
									<defs>
										<circle id="SVGID_21_" cx="74.7" cy="89.2" r="60.7"/>
									</defs>
									<clipPath id="SVGID_22_">
										<use xlink:href="#SVGID_21_"  style="overflow:visible;"/>
									</clipPath>
									<path class="st16" d="M103.2,75.2c1,0.7,2.1,1.4,3.2,2"/>
								</g>
							</g>
						</g>
					</g>
					<g>
						<g>
							<g>
								<g>
									<defs>
										<circle id="SVGID_23_" cx="74.7" cy="89.2" r="60.7"/>
									</defs>
									<clipPath id="SVGID_24_">
										<use xlink:href="#SVGID_23_"  style="overflow:visible;"/>
									</clipPath>
									<path class="st17" d="M69.2,95c0.4,1.2,0.1,2.7-0.8,3.7s-2.4,1.4-3.6,0.9c-0.9-0.4-1.5-1.2-2.1-1.9c-0.7-1-1.4-2.1-2.3-2.9
										c-1-1-2.3-1.9-2.9-3.1c-0.5-1-0.2-2.7,0.2-3.8c1-2.6,4.3-3.9,6.9-2.9"/>
								</g>
							</g>
						</g>
					</g>
					<g>
						<g>
							<g>
								<g>
									<defs>
										<circle id="SVGID_25_" cx="74.7" cy="89.2" r="60.7"/>
									</defs>
									<clipPath id="SVGID_26_">
										<use xlink:href="#SVGID_25_"  style="overflow:visible;"/>
									</clipPath>
									<path class="st18" d="M60.4,87.5c3,1.4,5.2,4.6,5.5,7.9"/>
								</g>
							</g>
						</g>
					</g>
					<g>
						<g>
							<g>
								<g>
									<defs>
										<circle id="SVGID_27_" cx="102.8" cy="84.5" r="60.7"/>
									</defs>
									<clipPath id="SVGID_28_">
										<use xlink:href="#SVGID_27_"  style="overflow:visible;"/>
									</clipPath>
									
										<ellipse transform="matrix(0.6468 -0.7627 0.7627 0.6468 -36.5693 99.4796)" class="st19" cx="89.1" cy="89.2" rx="6.1" ry="4.6"/>
								</g>
							</g>
						</g>
					</g>
					<g>
						<g>
							<g>
								<g>
									<defs>
										<circle id="SVGID_29_" cx="89.6" cy="55.6" r="60.7"/>
									</defs>
									<clipPath id="SVGID_30_">
										<use xlink:href="#SVGID_29_"  style="overflow:visible;"/>
									</clipPath>
									
										<ellipse transform="matrix(0.3267 -0.9451 0.9451 0.3267 -7.7888 152.9989)" class="st20" cx="103.5" cy="82" rx="5.3" ry="4.6"/>
								</g>
							</g>
						</g>
					</g>
					<g>
						<g>
							<g>
								<g>
									<defs>
										<circle id="SVGID_31_" cx="74.7" cy="89.2" r="60.7"/>
									</defs>
									<clipPath id="SVGID_32_">
										<use xlink:href="#SVGID_31_"  style="overflow:visible;"/>
									</clipPath>
									<path class="st21" d="M94,85.6c-0.1-1,0.1-1.9,0.6-2.7c0.4-0.7,1-1.5,1.8-1.7c0.8-0.3,1.8,0,2.3,0.7"/>
								</g>
							</g>
						</g>
					</g>
					<g>
						<g>
							<g>
								<g>
									<defs>
										<circle id="SVGID_33_" cx="74.7" cy="89.2" r="60.7"/>
									</defs>
									<clipPath id="SVGID_34_">
										<use xlink:href="#SVGID_33_"  style="overflow:visible;"/>
									</clipPath>
									<path class="st22" d="M102.8,199.2c1.6-12.2,16.2-57.8,1-79.1"/>
								</g>
							</g>
						</g>
					</g>
					<g>
						<g>
							<g>
								<g>
									<defs>
										<circle id="SVGID_35_" cx="74.7" cy="89.2" r="60.7"/>
									</defs>
									<clipPath id="SVGID_36_">
										<use xlink:href="#SVGID_35_"  style="overflow:visible;"/>
									</clipPath>
									<path class="st23" d="M80.9,197.1c-1.1-9.6-6.4-24.9-18.4-39.3c-3.5-4.2-7.8-8-6.3-13.6c0.7-2.7,2.4-5.1,3.2-7.8
										c0.2-0.8,0.4-1.8,0-2.4c-0.3-0.5-1-0.7-1.5-1c-2.7-0.9-5.5-0.7-8.3-1.1c-4.7-0.5-8.1-2.4-6.9-7.5c1-4.1,3.8-7.7,6.9-10.4
										c2.9-2.7,6-6.2,10.1-6.5c-1.2,0.1-0.5,8.5-0.3,9.4c0.6,3.2,2,6.1,3.7,8.8c4.2,6.8,7.8,14,10.6,21.4
										c6.9,17.9,9.4,40,7.9,59.1"/>
								</g>
							</g>
						</g>
					</g>
					<g>
						<g>
							<g>
								<g>
									<defs>
										<circle id="SVGID_37_" cx="74.7" cy="89.2" r="60.7"/>
									</defs>
									<clipPath id="SVGID_38_">
										<use xlink:href="#SVGID_37_"  style="overflow:visible;"/>
									</clipPath>
									<path class="st24" d="M130.4,159.7c0-1.9,1.6-3.5,3.5-3.5l0,0c1.9,0,3.5,1.6,3.5,3.5"/>
								</g>
							</g>
						</g>
					</g>
					<g>
						<g>
							<g>
								<g>
									<defs>
										<circle id="SVGID_39_" cx="74.7" cy="89.2" r="60.7"/>
									</defs>
									<clipPath id="SVGID_40_">
										<use xlink:href="#SVGID_39_"  style="overflow:visible;"/>
									</clipPath>
									<line class="st25" x1="-2.1" y1="187.7" x2="-2.1" y2="-109.6"/>
								</g>
							</g>
						</g>
					</g>
				</g>
				<circle class="st26" cx="74.7" cy="89.2" r="60.7"/>
				<g id="Layer_3_2_">
				</g>
			</g>
			<g id="Layer_2_2_">
			</g>
		</g>
		<g>
			<g>
				<circle class="st2" cx="261.8" cy="202" r="59.2"/>
				<g>
					<g>
						<g>
							<g>
								<g>
									<defs>
										<circle id="SVGID_41_" cx="261.8" cy="202" r="59.2"/>
									</defs>
									<clipPath id="SVGID_42_">
										<use xlink:href="#SVGID_41_"  style="overflow:visible;"/>
									</clipPath>
									<g class="st27">
										<path class="st28" d="M272.7,200.9c3.7-3.1,5.6-6.2,6.2-10.5c0.6-5-1.3-9.9-4.4-13.6c-3.1-4.4-8.1-5.6-13-6.2
											c-6.2,0-13-1.3-18.6,1.3c-9.3,5.2-11.2,20.5-13,32.3c-0.6,3.1,0.6,6.8,3.1,8.7c2.4,1.4,5,1.6,7.7,1.8
											c0.4,0,7.1-0.4,6.7-0.8c2.1,2.3,3.9,4.9,5.5,7.6c0.5,0.8,1,1.8,0.8,2.8c-0.2,1.1-1.1,1.9-2,2.5c-3,2.3-6.3,4.7-9.7,6.2
											c-2.9,1.3-4.3,1.7-5.7,5c-2.1,4.7-2.7,9.9-2.7,15c-0.1,5.5,0.7,11.8,5,15.2c2.5,1.9,5.7,2.6,8.8,3.1
											c16,2.5,33.1,1.4,47-6.8c3.7-2.2,7.3-5,8.8-9c1-2.5,1.1-5.2,0.9-7.8c-0.4-6-2.3-9.5-7.7-12.3c-4.3-2.2-9.1-3.3-13.3-5.7
											c-5.2-2.9-9.3-7.8-11.3-13.4c-0.3-0.8-0.6-1.6-0.8-2.4C269.4,209.2,268.7,205.1,272.7,200.9z"/>
										<path class="st28" d="M258.3,198.6c1.2-0.6,2.4-1.2,3.6-1.7c0.4-0.2,0.8-0.3,1.2-0.4c1-0.1,1.9,0.6,2.3,1.5
											s0.4,1.9,0.3,2.9c-0.3,2.4-1.7,4.8-3.8,6.1c-0.4,0.3-1,0.5-1.5,0.5c-0.7,0-1.4-0.4-1.7-1"/>
										<path class="st28" d="M250.6,242c1.1,1.2,2.8,1.7,4.4,2c4.6,0.8,9.4-0.1,13.6-1.9c6-2.5,11.3-6.3,13.9-12.6
											c0.1-0.2,0.2-0.4,0.3-0.4c0.1,0,0.2,0,0.3,0c8,1.8,17.2,3.3,21.4,11.5c1.5,2.9,1.9,6.3,2.1,9.6c0.9,16-1.4,76.2,0.8,92.4
											c-4.4-3.6-11.7-6.3-16.8-8.5c-5.9-2.5-11.8-4.8-17.8-6.8c-3.5-1.1-34.2-11.1-36.4-6.7c2.9-6,3.9-13,2.7-19.6
											c-0.8-4.7-2.7-9.2-4-13.8c-1.4-4.6-2.1-9.5-2.3-14.3s0.1-7.9,1.7-12.5c0.1-0.3,0.2-0.6,0.1-0.9c-0.1-0.2-0.3-0.4-0.5-0.6
											c-1-0.8-14.6-11.9-14.6-11.9c1.9-4,4.9-7.4,7.9-10.7c3.7-4,8.9-7.1,14.2-8.6c1.5-0.4,10.2-0.7,10.8-1.9
											c-1.9,3.6-3.7,6.1-3.7,10.3c0,1.8,0.2,3.7,1.1,5.2C250,241.6,250.2,241.9,250.6,242z"/>
										<path class="st29" d="M253.2,212c-4.5,1.9-9.4,2.7-14.3,2.5"/>
										<path class="st30" d="M256.2,235.6c0.7-2.9,0-8.1-2.7-13.1"/>
										<path class="st31" d="M239.8,174.3c1.3,0,2.1-0.4,3.3,0.2c2.8,1.5,3.4,5.6,3.2,8.4c0,0.4-0.1,0.9,0,1.3
											c0.2,0.8,0.9,1.3,1.5,1.9c3.7,3.5,5.3,8.9,4.1,13.8c2-0.8,4.2-1.3,6.3-1.3c1.5,0,3.6-0.4,4.8,0.6c1,0.8,0.7,1.8,1.2,2.8
											c0.6,1.4,2.1,2.6,3,3.9c1.3,1.9,2.1,4,2.5,6.2c1.1,5.8-2.9,19.3,4.6,21.7c2.5,0.8,5.1,0.3,7.7,0.1
											c6.7-0.6,12.7,1.2,19.3,1.8c0.7-1.8,0.8-3.7,1.4-5.5c0.9-2.6,2.1-4.8,2.4-7.6c0.3-3.3-0.7-6.9-3.4-8.8
											c-3.1-2.2-7.9-2-9.7-5.2c-3.5-6.2,3.6-14.2,0.9-20.8c-2.1-5.2-9.3-6.1-12.5-10.5c-1.4-2-1.9-4.5-2.9-6.7
											c-3.3-7.3-11.1-10.1-18.5-10.3c-5.4-0.2-11.4,0.3-15.3,4c-2.6,2.5-3.1,6.2-3.9,9.5C239.9,174.2,239.9,174.2,239.8,174.3z"
											/>
									</g>
								</g>
							</g>
						</g>
					</g>
				</g>
				<circle class="st26" cx="261.8" cy="202" r="59.2"/>
			</g>
		</g>
	</g>
</g>
<g id="Layer_3">
</g>
<g id="Layer_2_1_">
</g>
</svg>
