<svg id="Layer_1" data-name="Layer 1" xmlns="http://www.w3.org/2000/svg" xmlns:xlink="http://www.w3.org/1999/xlink" viewBox="0 0 325.5 291.7"><defs><style>.cls-1{fill:none;}.cls-2{fill:#fff;}.cls-3{fill:#9e9e9e;}.cls-4{isolation:isolate;opacity:0.1;}.cls-5{fill:#04a0f4;}.cls-6{fill:#f4f5f0;}.cls-7{fill:#531b93;}.cls-8{fill:#c9c9c7;}.cls-9{fill:#009193;}.cls-10{clip-path:url(#clip-path);}.cls-11{fill:#484949;}</style><clipPath id="clip-path"><circle class="cls-1" cx="189.43" cy="131.26" r="17"/></clipPath></defs><path class="cls-2" d="M298.9,225.7H51.6a13,13,0,0,1-13-13V68.5a13,13,0,0,1,13-13H298.9a13,13,0,0,1,13,13V212.6A13,13,0,0,1,299,225.7Z"/><path class="cls-3" d="M298.9,226.2H51.6a13.52,13.52,0,0,1-13.5-13.5V68.5A13.52,13.52,0,0,1,51.6,55H298.9a13.52,13.52,0,0,1,13.5,13.5V212.6A13.51,13.51,0,0,1,299,226.2ZM51.6,56A12.52,12.52,0,0,0,39.1,68.5V212.7a12.52,12.52,0,0,0,12.5,12.5H298.9v.5l.09-.5a12.51,12.51,0,0,0,12.41-12.6V68.5A12.52,12.52,0,0,0,298.9,56Z"/><polyline class="cls-2" points="160.93 97.97 160.93 100.78 160.93 216.89 294.46 216.89 294.46 97.97 160.93 97.97"/><path class="cls-3" d="M295,217.39H160.43V97.47H295Zm-133.53-1H294V98.47H161.43Z"/><g class="cls-4"><rect class="cls-5" x="169.23" y="98.72" width="116.73" height="39.91"/></g><g class="cls-4"><rect class="cls-5" x="169.23" y="146.5" width="116.73" height="39.91"/></g><rect class="cls-3" x="175.48" y="104.16" width="50.4" height="1"/><polyline class="cls-2" points="160.93 97.97 160.93 100.78 160.93 216.89 294.46 216.89 294.46 97.97 160.93 97.97"/><path class="cls-3" d="M295,217.39H160.43V97.47H295Zm-133.53-1H294V98.47H161.43Z"/><path class="cls-6" d="M223.07,181.29h-44.4a2.73,2.73,0,0,1-2.75-2.71v-5.1a2.73,2.73,0,0,1,2.72-2.74h44.43a2.73,2.73,0,0,1,2.75,2.71v5.09a2.7,2.7,0,0,1-2.65,2.75Z"/><path class="cls-3" d="M178.65,181.79a3.23,3.23,0,0,1-3.23-3.21v-5.1a3.24,3.24,0,0,1,.94-2.29,3.19,3.19,0,0,1,2.28-.95H223.1a3.23,3.23,0,0,1,3.22,3.21v5.09a3.21,3.21,0,0,1-3.14,3.25H178.65Zm44.42-1h.09a2.21,2.21,0,0,0,2.16-2.24v-5.07a2.24,2.24,0,0,0-.66-1.6,2.27,2.27,0,0,0-1.59-.64h-44.4a2.24,2.24,0,0,0-2.25,2.24v5.06a2.24,2.24,0,0,0,2.23,2.25h44.42Z"/><circle class="cls-6" cx="239.19" cy="175.98" r="4.5"/><path class="cls-3" d="M239.19,181a5,5,0,1,1,5-5A5,5,0,0,1,239.19,181Zm0-9a4,4,0,1,0,4,4A4,4,0,0,0,239.19,172Z"/><circle class="cls-6" cx="239.19" cy="192.28" r="4.5"/><path class="cls-3" d="M239.19,197.28a5,5,0,1,1,5-5A5,5,0,0,1,239.19,197.28Zm0-9a4,4,0,1,0,4,4A4,4,0,0,0,239.19,188.28Z"/><path class="cls-3" d="M275.91,178.48h-27.1a2.5,2.5,0,0,1,0-5h27.1a2.5,2.5,0,0,1,0,5Z"/><path class="cls-3" d="M257.61,194.78h-8.8a2.5,2.5,0,0,1,0-5h8.8a2.5,2.5,0,0,1,0,5Z"/><path class="cls-3" d="M280.72,194.78h-17.8a2.5,2.5,0,0,1,0-5h17.8a2.5,2.5,0,0,1,0,5Z"/><polygon class="cls-7" points="221.2 178.17 223.26 174.61 219.2 174.61 221.2 178.17"/><path class="cls-6" d="M223.07,197.59h-44.4a2.73,2.73,0,0,1-2.75-2.71v-5.09a2.73,2.73,0,0,1,2.71-2.75h44.44a2.74,2.74,0,0,1,2.75,2.73v5.07a2.7,2.7,0,0,1-2.65,2.75Z"/><path class="cls-3" d="M178.64,198.09a3.2,3.2,0,0,1-2.26-.93,3.24,3.24,0,0,1-1-2.28v-5.09a3.19,3.19,0,0,1,.93-2.29,3.24,3.24,0,0,1,2.28-1h44.45a3.25,3.25,0,0,1,3.24,3.23v5.07a3.11,3.11,0,0,1-.9,2.27,3.15,3.15,0,0,1-2.24,1H178.64Zm44.43-1h.09a2.21,2.21,0,0,0,2.16-2.24v-5.06a2.24,2.24,0,0,0-2.25-2.25h-44.4a2.22,2.22,0,0,0-2.25,2.25v5.05a2.24,2.24,0,0,0,.66,1.61,2.16,2.16,0,0,0,1.59.64Z"/><polygon class="cls-7" points="221.2 194.41 223.26 190.85 219.2 190.85 221.2 194.41"/><circle class="cls-7" cx="239.19" cy="175.98" r="2.56"/><g class="cls-4"><rect class="cls-7" x="210.39" y="111.71" width="75.89" height="38.47"/></g><path class="cls-3" d="M270,120.65H216.77a2.5,2.5,0,0,1,0-5H270a2.5,2.5,0,0,1,0,5Z"/><path class="cls-3" d="M261.86,128.89H238.38a2.5,2.5,0,0,1,0-5h23.48a2.5,2.5,0,1,1,0,5Z"/><path class="cls-3" d="M245.37,137.14h-28.6a2.5,2.5,0,1,1,0-5h28.6a2.5,2.5,0,0,1,0,5Z"/><path class="cls-3" d="M235.13,145.38H216.77a2.5,2.5,0,1,1,0-5h18.36a2.5,2.5,0,0,1,0,5Z"/><path class="cls-3" d="M271.23,145.38H241.31a2.5,2.5,0,0,1,0-5h29.92a2.5,2.5,0,0,1,0,5Z"/><path class="cls-3" d="M230,128.89H216.77a2.5,2.5,0,0,1,0-5H230a2.5,2.5,0,1,1,0,5Z"/><path class="cls-3" d="M279.35,137.14H254.18a2.5,2.5,0,0,1,0-5h25.17a2.5,2.5,0,0,1,0,5Z"/><path class="cls-2" d="M127.9,253.3H38.1a16.73,16.73,0,0,1-16.7-16.7V39.4A16.73,16.73,0,0,1,38.1,22.7h89.8a16.73,16.73,0,0,1,16.7,16.7V236.6A16.73,16.73,0,0,1,127.9,253.3Z"/><path class="cls-3" d="M127.9,253.8H38.1a17.26,17.26,0,0,1-17.2-17.2V39.4A17.26,17.26,0,0,1,38.1,22.2h89.8a17.26,17.26,0,0,1,17.2,17.2V236.6A17.26,17.26,0,0,1,127.9,253.8ZM38.1,23.2A16.26,16.26,0,0,0,21.9,39.4V236.6a16.26,16.26,0,0,0,16.2,16.2h89.8a16.26,16.26,0,0,0,16.2-16.2V39.4a16.26,16.26,0,0,0-16.2-16.2Z"/><path class="cls-8" d="M98,33.2H68.7a1.79,1.79,0,0,1-1.8-1.78V31a1.79,1.79,0,0,1,1.78-1.8H98A1.79,1.79,0,0,1,99.8,31v.42A1.79,1.79,0,0,1,98,33.2Z"/><g class="cls-4"><circle class="cls-7" cx="83.1" cy="137.2" r="70.2"/></g><g class="cls-4"><circle class="cls-7" cx="83.1" cy="137.2" r="50.9"/></g><circle class="cls-7" cx="83.1" cy="137.2" r="31.5"/><path class="cls-2" d="M83.1,145.5a8.3,8.3,0,1,1,8.3-8.3A8.31,8.31,0,0,1,83.1,145.5Zm0-14.6a6.3,6.3,0,1,0,6.3,6.3A6.31,6.31,0,0,0,83.1,130.9Z"/><path class="cls-2" d="M192.8,143.4a6.2,6.2,0,1,1,6.2-6.2A6.21,6.21,0,0,1,192.8,143.4Zm0-10.4a4.2,4.2,0,1,0,4.2,4.2A4.2,4.2,0,0,0,192.8,133Z"/><rect class="cls-2" x="82.1" y="105.7" width="2" height="24.2"/><rect class="cls-2" x="191.8" y="122.4" width="2" height="9.6"/><path class="cls-7" d="M84,105.7H82V87.1a7.7,7.7,0,0,1,7.59-7.6H192.8v2H89.6A5.68,5.68,0,0,0,84,87.11Z"/><g class="cls-4"><circle class="cls-7" cx="283.9" cy="80.5" r="21"/></g><circle class="cls-7" cx="283.9" cy="80.5" r="7.7"/><g class="cls-4"><circle class="cls-7" cx="283.9" cy="80.5" r="14.8"/></g><path class="cls-7" d="M240.5,94a3.34,3.34,0,0,1-3.28-2.71l0-.13L235.71,65a.61.61,0,0,0-.59-.44.62.62,0,0,0-.63.54L232,86.71a3.08,3.08,0,0,1-3.06,2.79h0a3.15,3.15,0,0,1-3.09-2.93l-1.5-15.78a1,1,0,0,0-1-.89h0a1,1,0,0,0-1,.85l-1.41,7.73a3.48,3.48,0,0,1-3.37,2.82H179.3v-2h38.2a1.47,1.47,0,0,0,1.42-1.19l1.4-7.69a3,3,0,0,1,3-2.52h0a3,3,0,0,1,3,2.7l1.5,15.81a1.17,1.17,0,0,0,1.14,1.09h0a1.07,1.07,0,0,0,1.06-1l2.51-21.62a2.63,2.63,0,0,1,2.59-2.29h0a2.58,2.58,0,0,1,2.54,2.11l0,.13L239.19,91a1.35,1.35,0,0,0,2.62,0l1.82-26.5a2.59,2.59,0,0,1,2.44-2h.23a2.63,2.63,0,0,1,2.59,2.26l2.6,21.62a1.12,1.12,0,0,0,1.1,1h0a1.09,1.09,0,0,0,1.1-.93l2.2-16.4a2.63,2.63,0,0,1,2.59-2.27,2.73,2.73,0,0,1,2.57,2.06l1.42,8.27a1.25,1.25,0,0,0,1.22,1.07h14v2h-14a3.25,3.25,0,0,1-3.19-2.74l-1.4-8.19a.69.69,0,0,0-.65-.47.62.62,0,0,0-.57.54l-2.2,16.39a3.05,3.05,0,0,1-3.11,2.67h0a3.09,3.09,0,0,1-3-2.81L246.91,65a.62.62,0,0,0-.61-.52h-.2a.58.58,0,0,0-.51.38l-1.81,26.41A3.34,3.34,0,0,1,240.5,94Z"/><g class="cls-4"><circle class="cls-7" cx="269.7" cy="224.3" r="53.7"/></g><g class="cls-4"><circle class="cls-7" cx="269.72" cy="224.31" r="40.7" transform="translate(-28.39 409.24) rotate(-71.56)"/></g><path class="cls-7" d="M270.9,195.2A29.37,29.37,0,0,0,240,222.8a28.76,28.76,0,0,0,3.7,15.9l-9.5,16.4,17.1-7.5a29.41,29.41,0,1,0,20.5-52.35Z"/><path class="cls-2" d="M257.8,230.2h0a1.9,1.9,0,0,1-1.9-1.9V220a1.9,1.9,0,0,1,1.9-1.9h0a1.9,1.9,0,0,1,1.9,1.9v8.3a1.84,1.84,0,0,1-1.78,1.9Z"/><path class="cls-2" d="M251.2,226.3h0a1.9,1.9,0,0,1-1.9-1.9h0a1.9,1.9,0,0,1,1.9-1.9h0a1.9,1.9,0,0,1,1.9,1.9h0a1.84,1.84,0,0,1-1.78,1.9Z"/><path class="cls-2" d="M264.3,234.6h0a1.9,1.9,0,0,1-1.9-1.9V215.5a1.9,1.9,0,0,1,1.9-1.9h0a1.9,1.9,0,0,1,1.9,1.9v17.2a1.78,1.78,0,0,1-1.65,1.9A1,1,0,0,1,264.3,234.6Z"/><path class="cls-2" d="M270.9,243.5h0a1.9,1.9,0,0,1-1.9-1.9V206.7a1.9,1.9,0,0,1,1.9-1.9h0a1.9,1.9,0,0,1,1.9,1.9v34.9A2,2,0,0,1,270.9,243.5Z"/><path class="cls-2" d="M277.4,234.6h0a1.9,1.9,0,0,1-1.9-1.9V215.5a1.9,1.9,0,0,1,1.9-1.9h0a1.9,1.9,0,0,1,1.9,1.9v17.2a1.9,1.9,0,0,1-1.9,1.9Z"/><path class="cls-2" d="M283.9,230.2h0a1.9,1.9,0,0,1-1.9-1.9V220a1.9,1.9,0,0,1,1.9-1.9h0a1.9,1.9,0,0,1,1.9,1.9v8.3A2,2,0,0,1,283.9,230.2Z"/><circle class="cls-9" cx="176.1" cy="217" r="21.7"/><polygon class="cls-9" points="201.4 234.1 191.7 219.5 179.9 230.8 201.4 234.1"/><path class="cls-2" d="M189.5,218.4h0a1.54,1.54,0,0,1-1.5-1.5h0a1.54,1.54,0,0,1,1.5-1.5h0a1.54,1.54,0,0,1,1.5,1.5h0a1.47,1.47,0,0,1-1.44,1.5Z"/><path class="cls-2" d="M164.5,221.5h0A1.54,1.54,0,0,1,163,220v-6.4a1.54,1.54,0,0,1,1.5-1.5h0a1.54,1.54,0,0,1,1.5,1.5V220A1.54,1.54,0,0,1,164.5,221.5Z"/><path class="cls-2" d="M169.6,224.9h0a1.54,1.54,0,0,1-1.5-1.5V210.1a1.54,1.54,0,0,1,1.5-1.5h0a1.54,1.54,0,0,1,1.5,1.5v13.3a1.47,1.47,0,0,1-1.44,1.5Z"/><path class="cls-2" d="M174.6,221.5h0a1.54,1.54,0,0,1-1.5-1.5v-6.4a1.54,1.54,0,0,1,1.5-1.5h0a1.54,1.54,0,0,1,1.5,1.5V220a1.47,1.47,0,0,1-1.44,1.5Z"/><path class="cls-2" d="M179.7,229.6h0a1.54,1.54,0,0,1-1.5-1.5V205.4a1.54,1.54,0,0,1,1.5-1.5h0a1.54,1.54,0,0,1,1.5,1.5v22.7a1.47,1.47,0,0,1-1.44,1.5Z"/><path class="cls-2" d="M184.7,221.5h0a1.54,1.54,0,0,1-1.5-1.5v-6.4a1.54,1.54,0,0,1,1.5-1.5h0a1.54,1.54,0,0,1,1.5,1.5V220a1.47,1.47,0,0,1-1.44,1.5Z"/><circle class="cls-9" cx="189.43" cy="131.26" r="17"/><g class="cls-10"><path class="cls-2" d="M186.79,134.7l-.24.71a7,7,0,0,1-3.27,3.84c-1.2.63-2.63.95-3.83,1.59a3.88,3.88,0,0,0-2.23,3.51,5.31,5.31,0,0,0,.24,2.24,5.53,5.53,0,0,0,2.55,2.55c4,2.4,8.94,2.72,13.49,2a5.8,5.8,0,0,0,2.55-.88c1.28-1,1.44-2.79,1.44-4.39a10.11,10.11,0,0,0-.8-4.31c-.4-1-.8-1-1.68-1.44a20.71,20.71,0,0,1-2.79-1.75,1.26,1.26,0,0,1-.56-.72,1,1,0,0,1,.24-.8,10.83,10.83,0,0,1,1.6-2.15,12.31,12.31,0,0,0,1.91.24,5.4,5.4,0,0,0,2.24-.48,2.65,2.65,0,0,0,.88-2.48c-.56-3.43-1.12-7.82-3.76-9.26-1.59-.71-3.59-.31-5.34-.31a5,5,0,0,0-3.75,1.75,5.28,5.28,0,0,0-1.28,3.91,4.41,4.41,0,0,0,1.75,3C187.43,132.14,187.27,133.34,186.79,134.7Z"/><path class="cls-7" d="M192.86,142.6a3,3,0,0,0,.32-1.52,6.52,6.52,0,0,0-1-3c.16.32,2.71.4,3.11.56a9.66,9.66,0,0,1,4.07,2.47,13.73,13.73,0,0,1,2.24,3s-3.91,3.2-4.15,3.44c-.08.08-.16.08-.16.16V148a8,8,0,0,1,.48,3.6,18.78,18.78,0,0,1-.64,4.15,37.08,37.08,0,0,0-1.12,4,9.21,9.21,0,0,0,.8,5.66c-.64-1.27-9.5,1.6-10.46,1.92a40.55,40.55,0,0,0-5.1,2,20.93,20.93,0,0,0-4.79,2.48c.64-4.63,0-21.95.24-26.58a6.74,6.74,0,0,1,.64-2.79c1.19-2.32,3.83-2.8,6.14-3.27h.08a.09.09,0,0,1,.08.08h0a6.84,6.84,0,0,0,4,3.59,7.39,7.39,0,0,0,3.91.56,2.36,2.36,0,0,0,1.28-.56C192.78,142.76,192.86,142.68,192.86,142.6Z"/><path class="cls-11" d="M195.65,123.2c.24-.79-.56-2.23-1-2.71-1.12-1.12-2.88-1.2-4.39-1.12-2.16.08-4.39.88-5.35,3a8.48,8.48,0,0,1-.88,1.91c-1,1.28-3,1.52-3.59,3-.72,1.92,1.28,4.15.24,6-.56,1-1.92.88-2.8,1.52a2.75,2.75,0,0,0-.95,2.55,9.68,9.68,0,0,0,.71,2.15c.16.48.24,1,.4,1.6,1.92-.16,3.6-.72,5.51-.56a5.29,5.29,0,0,0,2.24,0c3-1,.16-7.18,2.39-9.18a6.47,6.47,0,0,1,1-.63,6.93,6.93,0,0,1,3.27-.88c0-1.6-.48-4,.64-5.27.64-.72,2-.48,2.47-1A.85.85,0,0,0,195.65,123.2Z"/></g></svg>