<svg id="Layer_1" data-name="Layer 1" xmlns="http://www.w3.org/2000/svg" viewBox="0 0 392.22 191.02"><path d="M349.88,191H38.11V0H349.88Z" transform="translate(-1.74)" style="fill:#542581"/><path d="M59.78,13.69a4,4,0,1,1-4-4A4,4,0,0,1,59.78,13.69Z" transform="translate(-1.74)" style="fill:#fff"/><path d="M73.45,13.69a4,4,0,1,1-4-4A4,4,0,0,1,73.45,13.69Z" transform="translate(-1.74)" style="fill:#fff"/><path d="M87.13,13.69a4,4,0,1,1-4-4A4,4,0,0,1,87.13,13.69Z" transform="translate(-1.74)" style="fill:#fff"/><path d="M42.76,157.26c-20.71,0-42-39.57-41-65.34,32.25,0,41.09-27.51,41.09-27.51S52.2,91.92,84,91.92C84.92,121.55,63.51,157.28,42.76,157.26Z" transform="translate(-1.74)" style="fill:#00db99"/><path d="M126.68,96.56A67.35,67.35,0,1,1,194,163.9,67.34,67.34,0,0,1,126.68,96.56Z" transform="translate(-1.74)" style="fill:#b772fc"/><path d="M209.86,80.94h-7V69.72a8.76,8.76,0,0,0-17.52,0l-.08,22.47h-7l.08-22.47a15.76,15.76,0,0,1,31.52,0Z" transform="translate(-1.74)" style="fill:#fff"/><path d="M217.23,122.67H170.75V90.41h46.48Z" transform="translate(-1.74)" style="fill:#fff"/><path d="M381.13,108.29l-97.26,24.25a16.92,16.92,0,0,1-20.51-12.32h0A16.94,16.94,0,0,1,275.68,99.7L373,75.45a16.93,16.93,0,0,1,20.51,12.33h0A16.92,16.92,0,0,1,381.13,108.29Z" transform="translate(-1.74)" style="fill:#00db99"/><path d="M286.16,112.66a.42.42,0,0,0,.21,0,.38.38,0,0,0,.28-.28.39.39,0,0,0-.1-.43l-2.8-2.76,2.19-1.67,1.88,3.47a.4.4,0,0,0,.48.2.33.33,0,0,0,.29-.39l0-3.94,2.7.39L290.12,111l0,.18a.41.41,0,0,0,.3.31.36.36,0,0,0,.42-.1l2.75-2.8,1.68,2.19-3.48,1.89a.4.4,0,0,0-.2.47c.06.22.19.32.39.29l3.94,0-.38,2.7L291.74,115a.42.42,0,0,0-.21,0,.4.4,0,0,0-.28.28.39.39,0,0,0,.1.43l2.81,2.76L292,120.13l-1.89-3.48a.41.41,0,0,0-.48-.19.36.36,0,0,0-.29.39l0,3.93-2.7-.38,1.14-3.77,0-.18a.42.42,0,0,0-.3-.32.38.38,0,0,0-.42.11l-2.75,2.8-1.68-2.19,3.48-1.89a.4.4,0,0,0,.2-.47c-.06-.22-.19-.32-.39-.29l-3.94,0,.38-2.71Z" transform="translate(-1.74)" style="fill:#fff"/><path d="M312,106.21a.63.63,0,0,0,.22,0,.41.41,0,0,0,.28-.28.4.4,0,0,0-.11-.44l-2.8-2.75,2.19-1.67,1.89,3.47a.41.41,0,0,0,.47.2.32.32,0,0,0,.29-.39l0-3.94,2.71.39L316,104.59l0,.18a.42.42,0,0,0,.31.31.38.38,0,0,0,.42-.1l2.75-2.8,1.67,2.19-3.47,1.89a.4.4,0,0,0-.2.47c.06.22.18.32.39.29l3.94,0-.39,2.7-3.77-1.14a.52.52,0,0,0-.21,0,.39.39,0,0,0-.29.28.4.4,0,0,0,.11.43L320,112l-2.19,1.68L316,110.2a.4.4,0,0,0-.47-.2.36.36,0,0,0-.29.39l0,3.94-2.7-.38,1.14-3.77,0-.19a.44.44,0,0,0-.3-.31.37.37,0,0,0-.42.11l-2.75,2.8-1.68-2.19,3.48-1.89a.4.4,0,0,0,.2-.47.34.34,0,0,0-.39-.3l-3.94,0,.38-2.71Z" transform="translate(-1.74)" style="fill:#fff"/><path d="M337.91,99.76a.63.63,0,0,0,.22,0,.41.41,0,0,0,.28-.29.38.38,0,0,0-.11-.43l-2.8-2.75,2.19-1.68,1.89,3.48a.41.41,0,0,0,.47.2c.23-.06.32-.19.29-.39l0-3.94,2.71.38-1.14,3.78,0,.18a.42.42,0,0,0,.31.31.36.36,0,0,0,.41-.1l2.76-2.81,1.67,2.2-3.47,1.88a.42.42,0,0,0-.2.48.32.32,0,0,0,.39.29l3.94,0-.39,2.7-3.77-1.14a.59.59,0,0,0-.21,0,.42.42,0,0,0-.29.29.4.4,0,0,0,.11.43l2.8,2.75-2.19,1.68-1.89-3.48a.4.4,0,0,0-.47-.2.36.36,0,0,0-.29.39l0,3.94-2.7-.38,1.14-3.78,0-.18a.43.43,0,0,0-.3-.31.38.38,0,0,0-.42.1l-2.76,2.81-1.67-2.2,3.48-1.88a.42.42,0,0,0,.2-.48.34.34,0,0,0-.39-.29l-3.94,0,.38-2.7Z" transform="translate(-1.74)" style="fill:#fff"/><path d="M363.79,93.31a.57.57,0,0,0,.22,0,.39.39,0,0,0,.28-.28.38.38,0,0,0-.11-.43l-2.8-2.76,2.19-1.67,1.89,3.48a.4.4,0,0,0,.47.2c.23-.06.32-.19.29-.39l0-3.94,2.71.38-1.14,3.77,0,.19a.44.44,0,0,0,.31.31.36.36,0,0,0,.41-.11l2.76-2.8,1.67,2.19-3.47,1.89a.4.4,0,0,0-.2.47.32.32,0,0,0,.39.29l3.94,0-.39,2.71-3.77-1.14a.63.63,0,0,0-.22,0,.43.43,0,0,0-.17.72l2.8,2.75-2.19,1.67-1.89-3.47a.4.4,0,0,0-.47-.2.35.35,0,0,0-.29.39l0,3.94-2.7-.39,1.14-3.77,0-.18a.42.42,0,0,0-.31-.31.37.37,0,0,0-.41.1L362,99.68l-1.67-2.19,3.48-1.89a.39.39,0,0,0,.19-.47c0-.22-.18-.32-.38-.29l-3.94,0,.38-2.7Z" transform="translate(-1.74)" style="fill:#fff"/></svg>