<svg id="Layer_1" data-name="Layer 1" xmlns="http://www.w3.org/2000/svg" viewBox="0 0 316.23 154.48"><path d="M41.59,101.25S-4.58,104.7.37,63c0,0,1.92-27.15,36.55-24.4,0,0,15.69-37.92,49.59-27.19a47.4,47.4,0,0,1,29.5,28,47.39,47.39,0,0,1,3.63,19.23S145.47,49,152.07,79.54c0,0-1.1,37.65-37.1,28.85,0,0-8.25,25.56-25.29,23.91,0,0-22.53,3.3-30-20.89C59.73,111.41,48.19,114.44,41.59,101.25Z" transform="translate(0 0)" style="fill:#582197"/><path d="M229.16,143.86l5.26.45a5,5,0,0,0,2-.24l8.07-2.69a4.75,4.75,0,0,0,1.57-.87l3.73-3.09a23.46,23.46,0,0,0,7.95-13l1.24-5.53a4.91,4.91,0,0,0-6-5.82L230,119.17a4.91,4.91,0,0,0-2,1.1l-7.33,6.62a4.9,4.9,0,0,0-.78,6.37l5.66,8.44A4.92,4.92,0,0,0,229.16,143.86Z" transform="translate(0 0)" style="fill:#e93e8e"/><circle cx="203.43" cy="84.35" r="61.97" style="fill:#d5242e"/><path d="M196.22,139.81l-1.83.64s-8.67,2.21-13.57-3.49a.73.73,0,0,1,.43-1.19c2.05-.39,6.31-2.13,10.48-9.61,0,0,4.31-10.07,4-19.33l-.46-4.58,5.13-11.54,4.49,1.1L209.13,99l8.34,7.69-2.2,7.24-11.36,16.4-6.68,7.42Z" transform="translate(0 0)" style="fill:#0f9197"/><path d="M277.2,86.22,283,92s8.06,7,13.74,1.37c0,0,5.68-4.12,7-8.15,0,0,2.38.64,3.75,7.42v7.14s-2.93,5.59-7.78,8c0,0-4.95-.09-5.31,12.18,0,0-1.29,9.44-7.61,12.1l-5.31-.46-12.28-2.48-9.61-6.32-14.29-10.62-6-8.25-1.47-8.06-1.92-14.39.18-4,11.09.28,11.81.45,10-1.81Z" transform="translate(0 0)" style="fill:#0f9197"/><path d="M170,153.55h-.19a11.62,11.62,0,0,0-9.9-3.48l-7.32,3.48-4.16-1.28a1,1,0,0,1-.38-1.72l13-11.65a20.36,20.36,0,0,0,4.22-7.7s4-17.4,8.61-20.52l6.59-10.26s6.6-19,13-21.8l4.21-3.39L205,70.74a12.55,12.55,0,0,1-6.32-10.62l-.64-7.79s-4.21-1.65-4.12-3.48h3.66l-2-3.3h3.57s7-4.58,13.28-1.83l4.64,1.91a1.86,1.86,0,0,1,1.13,1.7v6.83l.79.24a1.47,1.47,0,0,1,1,1.41v2a1.9,1.9,0,0,1-.61,1.39L217,61.49l.19,2.38L232,65l13.55,2.75,6.51,1.47s11.35-1.38,20.42,1.83l11.09,3.39,2,1.22a2,2,0,0,1,.87,1.2l.17.69a2,2,0,0,1-.27,1.53l-2.3,3.48a2.05,2.05,0,0,1-.67.64L282,84h-1.55a2.27,2.27,0,0,1-1.69-.76l-5.56-6.21-2.74.19L264.74,79s-10,2.29-18.41.73l-10-1.28a158.89,158.89,0,0,1,2.57,16.76s-.37,6.14,1.64,8.61l8.61,7.33,10.91,8.7a23.81,23.81,0,0,0,15.66,7.5,2.38,2.38,0,0,1,.37.06,43,43,0,0,1,15,7.83s7.69,4.77,14.29,6.51l6.51,3.52a7.38,7.38,0,0,1,2.2,1.81l1.59,1.93a2.21,2.21,0,0,1,.51,1.62c-.13,1.44-1,3.91-5.13,3.85,0,0-5.5.46-11.73-5.68,0,0-7-3.94-12.36-4.76,0,0-6.87-2.84-10.08-3,0,0-16.21-5-20.15-7.88,0,0-8.34-1.37-13.56-3.66l-10.81-3.21-5.68,7.61s6,.19,10.63-2.29c0,0,8.33-3.3,7.51,5.13l-2.57,13.74s-1.78,2.51-7.18,1.74a1.66,1.66,0,0,1-1.4-1.28,6.09,6.09,0,0,1,1.16-5l.74-4.31-7,2.66L215,149.16l-10.45,2.74s-14.1,2.93-11.08-6.87c0,0,2.75-10,9.16-16l8.06-11.08,3.67-5.13,1.19-3.39.09-1-8.25-7.33s-5.86-4.76-6.23-9.25a31.32,31.32,0,0,1-7.6,12.46s-6.78,5.5-7,7a22.79,22.79,0,0,0-2.47,8.89s-5.32,9.62-9.26,13.37l-5.31,5.59s-2.56,3-.91,8.43l2.61,3.67A1.5,1.5,0,0,1,170,153.55Z" transform="translate(0 0)" style="fill:#5c3989"/><path d="M205.74,71.48s1.65,6.32,2.3,7.14c0,0,.91,4.31-4.13,2.29,0,0-4.21-1.74-6-5v-.81a7.51,7.51,0,0,1,2.32-5.43l1.52-1.45Z" transform="translate(0 0)" style="fill:#0f9197"/><path d="M227.73,66.9l-1.63,2.77-1.21,2.08-2.84,5.41S217.74,83,216,74.22V74a47.39,47.39,0,0,1,.5-8h0a5,5,0,0,1,.92-2.24c1.5-2,5.42-5.83,13.79-5.7,0,0,13.28-2.55,24.09,5.14l6.32,5.85-7.69.1s-7.42-.46-9.89-1.84l-8.25-1.83S229.1,63.32,227.73,66.9Z" transform="translate(0 0)" style="fill:#0f9197"/><path d="M215.64,108.94s8.43,2.11,12,1.74c0,0,6-.91,8.88-3.85l4-3.38,3.18,3-6,5.12s-5.58,3.75-10.62,4.12c0,0-7.33.92-12.73-2.93Z" transform="translate(0 0)" style="fill:#d21e29"/><path d="M61.19,36.06a3.7,3.7,0,0,1-1.41-.68,1.33,1.33,0,0,1-.44-1,1.36,1.36,0,0,1,.54-1.11,2.12,2.12,0,0,1,1.4-.44,2.31,2.31,0,0,1,1,.22,1.68,1.68,0,0,1,.71.63,1.61,1.61,0,0,1,.26.87h-.76a1,1,0,0,0-.33-.81,1.29,1.29,0,0,0-.92-.3,1.35,1.35,0,0,0-.87.25.81.81,0,0,0-.31.67.72.72,0,0,0,.3.59,2.79,2.79,0,0,0,1,.44,5.1,5.1,0,0,1,1.11.44,1.6,1.6,0,0,1,.59.56,1.46,1.46,0,0,1,.2.76,1.34,1.34,0,0,1-.54,1.11,2.34,2.34,0,0,1-1.44.41,2.7,2.7,0,0,1-1.1-.22,1.88,1.88,0,0,1-.78-.62,1.5,1.5,0,0,1-.27-.88h.75a1,1,0,0,0,.38.81,1.59,1.59,0,0,0,1,.3,1.49,1.49,0,0,0,.91-.24.81.81,0,0,0,.31-.66.76.76,0,0,0-.29-.65A3.43,3.43,0,0,0,61.19,36.06Z" transform="translate(0 0)" style="fill:#fff"/><path d="M68.19,33.52H66.36v5.07h-.75V33.52H63.79v-.61h4.4Z" transform="translate(0 0)" style="fill:#fff"/><path d="M71.12,36.29H69.78v2.3H69V32.91h1.88a2.25,2.25,0,0,1,1.48.43,1.6,1.6,0,0,1,.52,1.28,1.53,1.53,0,0,1-.29.92,1.67,1.67,0,0,1-.8.59l1.34,2.42v0h-.81Zm-1.34-.61h1.15a1.31,1.31,0,0,0,.89-.29,1,1,0,0,0,.33-.78,1,1,0,0,0-.31-.81,1.36,1.36,0,0,0-.91-.28H69.78Z" transform="translate(0 0)" style="fill:#fff"/><path d="M78.33,35.93a3.46,3.46,0,0,1-.28,1.46,2.09,2.09,0,0,1-.8,1,2.33,2.33,0,0,1-2.39,0,2.2,2.2,0,0,1-.81-.94A3.33,3.33,0,0,1,73.76,36v-.41A3.51,3.51,0,0,1,74,34.12a2.11,2.11,0,0,1,2-1.29,2.22,2.22,0,0,1,1.21.33,2.15,2.15,0,0,1,.8,1,3.52,3.52,0,0,1,.28,1.46Zm-.74-.36A2.57,2.57,0,0,0,77.18,34a1.45,1.45,0,0,0-2.26,0,2.53,2.53,0,0,0-.42,1.51v.41a2.49,2.49,0,0,0,.42,1.54,1.3,1.3,0,0,0,1.13.56,1.33,1.33,0,0,0,1.13-.52A2.62,2.62,0,0,0,77.59,36Z" transform="translate(0 0)" style="fill:#fff"/><path d="M83.83,38.59h-.75l-2.87-4.38v4.38h-.75V32.91h.75l2.87,4.4v-4.4h.75Z" transform="translate(0 0)" style="fill:#fff"/><path d="M89.36,37.85a1.77,1.77,0,0,1-.81.62,3.35,3.35,0,0,1-1.2.2,2.44,2.44,0,0,1-1.24-.32,2.21,2.21,0,0,1-.83-.93A3.1,3.1,0,0,1,85,36v-.49a3,3,0,0,1,.6-2,2.08,2.08,0,0,1,1.68-.7,2.2,2.2,0,0,1,1.44.45,2,2,0,0,1,.66,1.29h-.75a1.24,1.24,0,0,0-1.34-1.13,1.34,1.34,0,0,0-1.15.53,2.57,2.57,0,0,0-.39,1.54V36a2.41,2.41,0,0,0,.44,1.52,1.4,1.4,0,0,0,1.18.57,2.37,2.37,0,0,0,.74-.1,1.05,1.05,0,0,0,.52-.31V36.37H87.3v-.61h2.06Z" transform="translate(0 0)" style="fill:#fff"/><path d="M28.58,60.92h-.76V58.29H25v2.63h-.75V55.23H25v2.45h2.86V55.23h.76Z" transform="translate(0 0)" style="fill:#fff"/><path d="M33.91,55.23V59.1a1.81,1.81,0,0,1-.5,1.31,2,2,0,0,1-1.36.58h-.2a2.11,2.11,0,0,1-1.49-.51,1.77,1.77,0,0,1-.56-1.38V55.23h.74v3.85a1.38,1.38,0,0,0,2.28,1,1.26,1.26,0,0,0,.34-.95V55.23Z" transform="translate(0 0)" style="fill:#fff"/><path d="M36.06,55.23l1.86,4.64,1.86-4.64h1v5.69H40V58.7l.07-2.39-1.87,4.61h-.57l-1.87-4.6.08,2.38v2.22H35.1V55.23Z" transform="translate(0 0)" style="fill:#fff"/><path d="M45.29,59.43H42.91l-.54,1.49H41.6l2.17-5.69h.66l2.17,5.69h-.77Zm-2.15-.61h1.93l-1-2.66Z" transform="translate(0 0)" style="fill:#fff"/><path d="M51.74,60.92H51l-2.87-4.38v4.38h-.75V55.23h.75L51,59.63v-4.4h.75Z" transform="translate(0 0)" style="fill:#fff"/><path d="M20.93,68.29v2.23h-.75V64.83h2.1a2.09,2.09,0,0,1,1.46.48,1.8,1.8,0,0,1,0,2.53,2.21,2.21,0,0,1-1.49.45Zm0-.61h1.35a1.38,1.38,0,0,0,.92-.28,1,1,0,0,0,.32-.82,1.07,1.07,0,0,0-.32-.82,1.27,1.27,0,0,0-.88-.32H20.93Z" transform="translate(0 0)" style="fill:#fff"/><path d="M29.61,67.86a3.49,3.49,0,0,1-.29,1.46,2.13,2.13,0,0,1-.79,1,2.35,2.35,0,0,1-2.4,0,2.24,2.24,0,0,1-.8-.94,3.49,3.49,0,0,1-.3-1.42V67.5a3.47,3.47,0,0,1,.29-1.45,2.18,2.18,0,0,1,.8-1,2.13,2.13,0,0,1,1.2-.34,2.21,2.21,0,0,1,1.2.33,2.06,2.06,0,0,1,.8,1,3.49,3.49,0,0,1,.29,1.46Zm-.75-.37a2.55,2.55,0,0,0-.41-1.55,1.34,1.34,0,0,0-1.13-.54,1.32,1.32,0,0,0-1.12.54,2.52,2.52,0,0,0-.42,1.5v.42a2.58,2.58,0,0,0,.41,1.54,1.33,1.33,0,0,0,1.13.56,1.34,1.34,0,0,0,1.13-.53,2.52,2.52,0,0,0,.41-1.52Z" transform="translate(0 0)" style="fill:#fff"/><path d="M32,68.73l.11.75.16-.68,1.12-4H34l1.1,4,.16.69.12-.77.88-3.89H37l-1.38,5.69h-.69l-1.17-4.15-.09-.43-.09.43-1.21,4.15h-.69l-1.37-5.69h.75Z" transform="translate(0 0)" style="fill:#fff"/><path d="M41,67.89H38.58v2h2.86v.61H37.83V64.83H41.4v.61H38.58v1.84H41Z" transform="translate(0 0)" style="fill:#fff"/><path d="M44.46,68.22H43.13v2.3h-.76V64.83h1.88a2.22,2.22,0,0,1,1.48.44,1.56,1.56,0,0,1,.52,1.27,1.54,1.54,0,0,1-.29.93,1.69,1.69,0,0,1-.8.59l1.34,2.41v0h-.8Zm-1.33-.62h1.15a1.32,1.32,0,0,0,.89-.28,1,1,0,0,0,.33-.78,1,1,0,0,0-.32-.81,1.36,1.36,0,0,0-.91-.29H43.13Z" transform="translate(0 0)" style="fill:#fff"/><path d="M50.52,67.89H48.05v2h2.86v.61H47.3V64.83h3.58v.61H48.05v1.84h2.47Z" transform="translate(0 0)" style="fill:#fff"/><path d="M51.85,70.52V64.83h1.6a2.59,2.59,0,0,1,1.32.33,2.26,2.26,0,0,1,.88.93A3.12,3.12,0,0,1,56,67.48v.37a3,3,0,0,1-.31,1.41,2.22,2.22,0,0,1-.89.93,2.86,2.86,0,0,1-1.34.33Zm.75-5.08v4.47h.79a1.71,1.71,0,0,0,1.35-.54,2.25,2.25,0,0,0,.48-1.54V67.5A2.23,2.23,0,0,0,54.76,66a1.62,1.62,0,0,0-1.29-.55Z" transform="translate(0 0)" style="fill:#fff"/><path d="M12.72,78.63H10.34l-.53,1.49H9l2.17-5.69h.66L14,80.12h-.77ZM10.57,78H12.5l-1-2.66Z" transform="translate(0 0)" style="fill:#fff"/><path d="M15.76,78.33l.11.75L16,78.4l1.12-4h.64l1.09,4,.16.69.12-.77L20,74.43h.76l-1.38,5.69h-.69L17.56,76l-.09-.43-.09.43-1.21,4.15h-.69l-1.37-5.69h.75Z" transform="translate(0 0)" style="fill:#fff"/><path d="M24.84,77.49H22.38v2h2.86v.61H21.63V74.43H25.2v.62H22.38v1.83h2.46Z" transform="translate(0 0)" style="fill:#fff"/><path d="M27.85,77.58a3.44,3.44,0,0,1-1.4-.68,1.28,1.28,0,0,1-.44-1,1.39,1.39,0,0,1,.54-1.11,2.12,2.12,0,0,1,1.39-.44,2.38,2.38,0,0,1,1,.23,1.74,1.74,0,0,1,.71.63,1.55,1.55,0,0,1,.25.87H29.2a1,1,0,0,0-.33-.82,1.38,1.38,0,0,0-.93-.29,1.35,1.35,0,0,0-.86.24.81.81,0,0,0-.31.68.72.72,0,0,0,.29.59,2.87,2.87,0,0,0,1,.44,4.32,4.32,0,0,1,1.11.44,1.72,1.72,0,0,1,.6.56,1.39,1.39,0,0,1,.19.75,1.34,1.34,0,0,1-.54,1.11A2.28,2.28,0,0,1,28,80.2,2.66,2.66,0,0,1,26.89,80a1.89,1.89,0,0,1-.79-.61,1.53,1.53,0,0,1-.27-.89h.75a1,1,0,0,0,.38.82,1.69,1.69,0,0,0,1,.29,1.47,1.47,0,0,0,.91-.24.79.79,0,0,0,.32-.66.75.75,0,0,0-.3-.64A3.08,3.08,0,0,0,27.85,77.58Z" transform="translate(0 0)" style="fill:#fff"/><path d="M35.3,77.46A3.65,3.65,0,0,1,35,78.92a2.21,2.21,0,0,1-.8,1,2.18,2.18,0,0,1-1.2.33,2.21,2.21,0,0,1-1.2-.33,2.24,2.24,0,0,1-.8-.94,3.49,3.49,0,0,1-.3-1.42V77.1A3.47,3.47,0,0,1,31,75.65a2.18,2.18,0,0,1,.8-1,2.21,2.21,0,0,1,1.2-.34,2.18,2.18,0,0,1,1.2.33,2.14,2.14,0,0,1,.81,1,3.69,3.69,0,0,1,.28,1.46Zm-.75-.37a2.56,2.56,0,0,0-.4-1.55A1.35,1.35,0,0,0,33,75a1.32,1.32,0,0,0-1.12.54,2.52,2.52,0,0,0-.42,1.5v.42A2.58,2.58,0,0,0,31.88,79a1.35,1.35,0,0,0,1.14.56A1.32,1.32,0,0,0,34.14,79a2.52,2.52,0,0,0,.41-1.52Z" transform="translate(0 0)" style="fill:#fff"/><path d="M37.39,74.43l1.86,4.64,1.86-4.64h1v5.69h-.75V77.9l.07-2.39-1.86,4.61H39L37.1,75.53l.07,2.37v2.22h-.75V74.43Z" transform="translate(0 0)" style="fill:#fff"/><path d="M46.62,77.49H44.16v2H47v.61H43.41V74.43H47v.62H44.16v1.83h2.46Z" transform="translate(0 0)" style="fill:#fff"/><path d="M52.32,80.12h-.75l-2.86-4.38v4.38H48V74.43h.76l2.87,4.4v-4.4h.74Z" transform="translate(0 0)" style="fill:#fff"/><path d="M56.87,77.49H54.41v2h2.86v.61H53.66V74.43h3.57v.62H54.41v1.83h2.46Z" transform="translate(0 0)" style="fill:#fff"/><path d="M59.88,77.58a3.44,3.44,0,0,1-1.4-.68,1.28,1.28,0,0,1-.44-1,1.38,1.38,0,0,1,.53-1.11,2.17,2.17,0,0,1,1.4-.44,2.31,2.31,0,0,1,1,.23,1.71,1.71,0,0,1,.72.63,1.64,1.64,0,0,1,.25.87h-.76a1.08,1.08,0,0,0-.32-.82A1.38,1.38,0,0,0,60,75a1.41,1.41,0,0,0-.87.24.83.83,0,0,0-.31.68.73.73,0,0,0,.3.59,2.87,2.87,0,0,0,1,.44,4.64,4.64,0,0,1,1.11.44,1.72,1.72,0,0,1,.6.56,1.49,1.49,0,0,1,.19.75,1.34,1.34,0,0,1-.54,1.11A2.28,2.28,0,0,1,60,80.2a2.71,2.71,0,0,1-1.1-.23,1.86,1.86,0,0,1-.78-.61,1.53,1.53,0,0,1-.27-.89h.75a1,1,0,0,0,.38.82,1.65,1.65,0,0,0,1,.29,1.49,1.49,0,0,0,.91-.24.78.78,0,0,0,.31-.66.74.74,0,0,0-.29-.64A3.17,3.17,0,0,0,59.88,77.58Z" transform="translate(0 0)" style="fill:#fff"/><path d="M64.63,77.58a3.42,3.42,0,0,1-1.41-.68,1.31,1.31,0,0,1-.44-1,1.39,1.39,0,0,1,.54-1.11,2.15,2.15,0,0,1,1.4-.44,2.34,2.34,0,0,1,1,.23,1.68,1.68,0,0,1,.71.63,1.55,1.55,0,0,1,.25.87H66a1,1,0,0,0-.33-.82,1.37,1.37,0,0,0-.92-.29,1.41,1.41,0,0,0-.87.24.81.81,0,0,0-.31.68.75.75,0,0,0,.29.59,2.94,2.94,0,0,0,1,.44,4.64,4.64,0,0,1,1.11.44,1.77,1.77,0,0,1,.59.56,1.39,1.39,0,0,1,.19.75,1.33,1.33,0,0,1-.53,1.11,2.29,2.29,0,0,1-1.45.42A2.66,2.66,0,0,1,63.66,80a1.8,1.8,0,0,1-.78-.61,1.47,1.47,0,0,1-.28-.89h.76a1,1,0,0,0,.38.82,1.64,1.64,0,0,0,1,.29,1.47,1.47,0,0,0,.91-.24.85.85,0,0,0,0-1.3A3.27,3.27,0,0,0,64.63,77.58Z" transform="translate(0 0)" style="fill:#fff"/><path d="M80,55.3v3.87a1.81,1.81,0,0,1-.5,1.31,2.06,2.06,0,0,1-1.37.58h-.2a2.1,2.1,0,0,1-1.48-.51,1.82,1.82,0,0,1-.57-1.39V55.3h.75v3.85a1.3,1.3,0,0,0,.34,1,1.28,1.28,0,0,0,1,.34,1.31,1.31,0,0,0,1-.34,1.3,1.3,0,0,0,.34-1V55.3Z" transform="translate(0 0)" style="fill:#fff"/><path d="M85.55,61h-.76L81.93,56.6V61h-.76V55.3h.76l2.87,4.4V55.3h.75Z" transform="translate(0 0)" style="fill:#fff"/><path d="M87.68,61h-.75V55.3h.75Z" transform="translate(0 0)" style="fill:#fff"/><path d="M92.19,58.48H89.8V61h-.75V55.3h3.53v.61H89.8v2h2.39Z" transform="translate(0 0)" style="fill:#fff"/><path d="M94.28,61h-.75V55.3h.75Z" transform="translate(0 0)" style="fill:#fff"/><path d="M98.87,58.36H96.4v2h2.86V61H95.65V55.3h3.58v.61H96.4v1.84h2.47Z" transform="translate(0 0)" style="fill:#fff"/><path d="M100.2,61V55.3h1.6a2.59,2.59,0,0,1,1.32.33,2.26,2.26,0,0,1,.88.93,3.12,3.12,0,0,1,.31,1.39v.37a3,3,0,0,1-.31,1.41,2.22,2.22,0,0,1-.89.93,2.86,2.86,0,0,1-1.34.33Zm.75-5.08v4.46h.79a1.71,1.71,0,0,0,1.35-.54,2.23,2.23,0,0,0,.48-1.53V58a2.23,2.23,0,0,0-.46-1.51,1.62,1.62,0,0,0-1.29-.55Z" transform="translate(0 0)" style="fill:#fff"/><path d="M101.84,79.57H100v5.07h-.75V79.57H97.44V79h4.4Z" transform="translate(0 0)" style="fill:#fff"/><path d="M105.9,82h-2.47v2h2.87v.61h-3.62V79h3.58v.62h-2.83V81.4h2.47Z" transform="translate(0 0)" style="fill:#fff"/><path d="M110.37,83.15H108l-.54,1.49h-.77L108.85,79h.66l2.17,5.69h-.77Zm-2.16-.61h1.94l-1-2.66Z" transform="translate(0 0)" style="fill:#fff"/><path d="M113.42,79l1.86,4.64L117.14,79h1v5.69h-.75V82.42l.07-2.39-1.87,4.61H115l-1.87-4.59.08,2.37v2.22h-.75V79Z" transform="translate(0 0)" style="fill:#fff"/><path d="M55.18,100.88V95.19H57a2.19,2.19,0,0,1,1.39.38,1.39,1.39,0,0,1,.47,1.13,1.18,1.18,0,0,1-.23.71,1.48,1.48,0,0,1-.62.47,1.34,1.34,0,0,1,.73.49,1.4,1.4,0,0,1,.27.86,1.52,1.52,0,0,1-.5,1.21,2.06,2.06,0,0,1-1.4.44Zm.75-3.27h1.13a1.22,1.22,0,0,0,.79-.24.86.86,0,0,0,.29-.67.83.83,0,0,0-.27-.69A1.35,1.35,0,0,0,57,95.8H55.93Zm0,.61v2h1.23A1.2,1.2,0,0,0,58,100a1,1,0,0,0,.3-.75q0-1-1.11-1Z" transform="translate(0 0)" style="fill:#fff"/><path d="M63.37,98.25H60.91v2h2.86v.62H60.16V95.19h3.57v.61H60.91v1.83h2.46Z" transform="translate(0 0)" style="fill:#fff"/><path d="M66.38,98.34a3.44,3.44,0,0,1-1.4-.68,1.28,1.28,0,0,1-.44-1,1.35,1.35,0,0,1,.53-1.11,2.17,2.17,0,0,1,1.4-.44,2.31,2.31,0,0,1,1,.23,1.75,1.75,0,0,1,.72.62,1.69,1.69,0,0,1,.25.87h-.76A1.07,1.07,0,0,0,67.4,96a1.61,1.61,0,0,0-1.8,0,.83.83,0,0,0-.31.68.73.73,0,0,0,.3.59,3.07,3.07,0,0,0,1,.44,4.64,4.64,0,0,1,1.11.44,1.63,1.63,0,0,1,.6.56,1.49,1.49,0,0,1,.19.75,1.34,1.34,0,0,1-.54,1.11,2.34,2.34,0,0,1-1.44.41,2.7,2.7,0,0,1-1.1-.22,1.88,1.88,0,0,1-.78-.62,1.5,1.5,0,0,1-.27-.88h.75a1,1,0,0,0,.38.81,1.59,1.59,0,0,0,1,.3,1.49,1.49,0,0,0,.91-.24.78.78,0,0,0,.31-.66.76.76,0,0,0-.29-.65A3.43,3.43,0,0,0,66.38,98.34Z" transform="translate(0 0)" style="fill:#fff"/><path d="M73.38,95.8H71.55v5.08h-.74V95.8H69v-.61h4.4Z" transform="translate(0 0)" style="fill:#fff"/><path d="M74.71,98.75H72.8v-.59h1.91Z" transform="translate(0 0)" style="fill:#fff"/><path d="M76.33,100.88h-.75V95.19h.75Z" transform="translate(0 0)" style="fill:#fff"/><path d="M82.07,100.88h-.75l-2.87-4.39v4.39H77.7V95.19h.75l2.87,4.4v-4.4h.75Z" transform="translate(0 0)" style="fill:#fff"/><path d="M84.79,98.75h-1.9v-.59h1.9Z" transform="translate(0 0)" style="fill:#fff"/><path d="M89.79,99.07a2.08,2.08,0,0,1-.66,1.39,2.18,2.18,0,0,1-1.49.49,2,2,0,0,1-1.62-.72,2.94,2.94,0,0,1-.61-1.93v-.55a3.2,3.2,0,0,1,.29-1.39,2.15,2.15,0,0,1,.8-.93,2.29,2.29,0,0,1,1.2-.32,2.06,2.06,0,0,1,1.46.51,2.11,2.11,0,0,1,.63,1.4H89a1.69,1.69,0,0,0-.42-1,1.47,1.47,0,0,0-2,.23,2.36,2.36,0,0,0-.41,1.51v.55a2.47,2.47,0,0,0,.39,1.47,1.22,1.22,0,0,0,1.08.55,1.46,1.46,0,0,0,1-.28,1.58,1.58,0,0,0,.44-1Z" transform="translate(0 0)" style="fill:#fff"/><path d="M91.57,100.26h2.7v.62H90.82V95.19h.75Z" transform="translate(0 0)" style="fill:#fff"/><path d="M98.34,99.39H96l-.53,1.49h-.77l2.17-5.69h.65l2.18,5.69h-.77Zm-2.16-.62h1.93l-1-2.66Z" transform="translate(0 0)" style="fill:#fff"/><path d="M102.09,98.34a3.44,3.44,0,0,1-1.4-.68,1.28,1.28,0,0,1-.44-1,1.38,1.38,0,0,1,.53-1.11,2.17,2.17,0,0,1,1.4-.44,2.38,2.38,0,0,1,1,.23,1.79,1.79,0,0,1,.71.62,1.69,1.69,0,0,1,.25.87h-.76a1.07,1.07,0,0,0-.32-.81,1.61,1.61,0,0,0-1.8,0,.83.83,0,0,0-.31.68.73.73,0,0,0,.3.59,3.07,3.07,0,0,0,1,.44,4.32,4.32,0,0,1,1.11.44,1.63,1.63,0,0,1,.6.56,1.39,1.39,0,0,1,.19.75,1.34,1.34,0,0,1-.54,1.11,2.34,2.34,0,0,1-1.44.41,2.62,2.62,0,0,1-1.09-.22,1.91,1.91,0,0,1-.79-.62,1.5,1.5,0,0,1-.27-.88h.75a1,1,0,0,0,.38.81,1.61,1.61,0,0,0,1,.3,1.47,1.47,0,0,0,.91-.24.79.79,0,0,0,.32-.66.77.77,0,0,0-.3-.65A3.43,3.43,0,0,0,102.09,98.34Z" transform="translate(0 0)" style="fill:#fff"/><path d="M106.84,98.34a3.49,3.49,0,0,1-1.41-.68,1.31,1.31,0,0,1-.44-1,1.36,1.36,0,0,1,.54-1.11,2.15,2.15,0,0,1,1.4-.44,2.31,2.31,0,0,1,1,.23,1.72,1.72,0,0,1,.71.62,1.6,1.6,0,0,1,.25.87h-.75a1,1,0,0,0-.33-.81,1.32,1.32,0,0,0-.92-.3,1.35,1.35,0,0,0-.87.25.81.81,0,0,0-.31.68.73.73,0,0,0,.3.59,3,3,0,0,0,1,.44,4.64,4.64,0,0,1,1.11.44,1.6,1.6,0,0,1,.59.56,1.4,1.4,0,0,1,.2.75,1.34,1.34,0,0,1-.54,1.11A2.34,2.34,0,0,1,107,101a2.67,2.67,0,0,1-1.1-.22,1.81,1.81,0,0,1-.78-.62,1.44,1.44,0,0,1-.28-.88h.76a1,1,0,0,0,.38.81,1.59,1.59,0,0,0,1,.3,1.51,1.51,0,0,0,.91-.24.87.87,0,0,0,0-1.31A3.55,3.55,0,0,0,106.84,98.34Z" transform="translate(0 0)" style="fill:#fff"/><path d="M186.73,34.74v1.67h-.56V32.15h1.57a1.57,1.57,0,0,1,1.1.36,1.18,1.18,0,0,1,.4.94,1.2,1.2,0,0,1-.39,1,1.67,1.67,0,0,1-1.11.33Zm0-.46h1a1.06,1.06,0,0,0,.7-.21.78.78,0,0,0,.24-.61.79.79,0,0,0-.24-.61.91.91,0,0,0-.66-.24h-1.05Z" transform="translate(0 0)" style="fill:#fff"/><path d="M192.37,34.44h-1.85V36h2.15v.46H190V32.15h2.68v.46h-2.12V34h1.85Z" transform="translate(0 0)" style="fill:#fff"/><path d="M196.65,34.42a2.62,2.62,0,0,1-.21,1.09,1.64,1.64,0,0,1-.6.72,1.68,1.68,0,0,1-.9.24,1.59,1.59,0,0,1-1.5-.95,2.39,2.39,0,0,1-.22-1.06v-.31a2.68,2.68,0,0,1,.21-1.09,1.6,1.6,0,0,1,.61-.72,1.57,1.57,0,0,1,.89-.25,1.6,1.6,0,0,1,.9.25,1.58,1.58,0,0,1,.61.71,2.7,2.7,0,0,1,.21,1.1Zm-.56-.28a1.86,1.86,0,0,0-.31-1.16,1.08,1.08,0,0,0-1.69,0,1.84,1.84,0,0,0-.31,1.12v.32a1.94,1.94,0,0,0,.3,1.15,1.09,1.09,0,0,0,1.7,0,2,2,0,0,0,.31-1.14Z" transform="translate(0 0)" style="fill:#fff"/><path d="M198.05,34.74v1.67h-.56V32.15h1.57a1.57,1.57,0,0,1,1.1.36,1.18,1.18,0,0,1,.4.94,1.2,1.2,0,0,1-.39,1,1.67,1.67,0,0,1-1.11.33Zm0-.46h1a1,1,0,0,0,.7-.21.78.78,0,0,0,.24-.61.79.79,0,0,0-.24-.61.89.89,0,0,0-.66-.24h-1Z" transform="translate(0 0)" style="fill:#fff"/><path d="M201.84,36h2v.46h-2.58V32.15h.56Z" transform="translate(0 0)" style="fill:#fff"/><path d="M206.92,34.44h-1.85V36h2.14v.46H204.5V32.15h2.69v.46h-2.12V34h1.85Z" transform="translate(0 0)" style="fill:#fff"/><path d="M161,59.23V55h1.21a1.88,1.88,0,0,1,1,.25,1.55,1.55,0,0,1,.66.7,2.31,2.31,0,0,1,.24,1v.27a2.24,2.24,0,0,1-.24,1.06,1.65,1.65,0,0,1-.66.7,2.07,2.07,0,0,1-1,.24Zm.56-3.8v3.34h.6a1.28,1.28,0,0,0,1-.4,1.67,1.67,0,0,0,.36-1.15V57a1.68,1.68,0,0,0-.34-1.13,1.2,1.2,0,0,0-1-.41Z" transform="translate(0 0)" style="fill:#fff"/><path d="M167.35,57.26H165.5v1.51h2.15v.46h-2.71V55h2.68v.46H165.5V56.8h1.85Z" transform="translate(0 0)" style="fill:#fff"/><path d="M168.35,59.23V55h1.2a1.86,1.86,0,0,1,1,.25,1.62,1.62,0,0,1,.67.7,2.31,2.31,0,0,1,.23,1v.27a2.36,2.36,0,0,1-.23,1.06,1.74,1.74,0,0,1-.67.7,2,2,0,0,1-1,.24Zm.56-3.8v3.34h.59a1.28,1.28,0,0,0,1-.4,1.67,1.67,0,0,0,.36-1.15V57a1.68,1.68,0,0,0-.34-1.13,1.19,1.19,0,0,0-1-.41Z" transform="translate(0 0)" style="fill:#fff"/><path d="M172.88,59.23h-.56V55h.56Z" transform="translate(0 0)" style="fill:#fff"/><path d="M177.05,57.88a1.59,1.59,0,0,1-.5,1,1.66,1.66,0,0,1-1.12.36,1.52,1.52,0,0,1-1.21-.54,2.19,2.19,0,0,1-.45-1.45v-.41a2.49,2.49,0,0,1,.21-1,1.56,1.56,0,0,1,.6-.69,1.68,1.68,0,0,1,.9-.24,1.47,1.47,0,0,1,1.57,1.43h-.57a1.18,1.18,0,0,0-.31-.74,1.11,1.11,0,0,0-1.53.17,1.77,1.77,0,0,0-.31,1.13v.42a1.89,1.89,0,0,0,.29,1.1.92.92,0,0,0,.81.41,1.07,1.07,0,0,0,.72-.21,1.14,1.14,0,0,0,.33-.74Z" transform="translate(0 0)" style="fill:#fff"/><path d="M180.17,58.12h-1.78L178,59.23h-.58L179,55h.5l1.63,4.26h-.58Zm-1.61-.46H180l-.73-2Z" transform="translate(0 0)" style="fill:#fff"/><path d="M184.3,55.43h-1.37v3.8h-.56v-3.8H181V55h3.3Z" transform="translate(0 0)" style="fill:#fff"/><path d="M185.54,59.23H185V55h.56Z" transform="translate(0 0)" style="fill:#fff"/><path d="M189.85,57.24a2.62,2.62,0,0,1-.21,1.09,1.59,1.59,0,0,1-.6.72,1.81,1.81,0,0,1-1.8,0,1.62,1.62,0,0,1-.6-.71,2.39,2.39,0,0,1-.22-1.06V57a2.68,2.68,0,0,1,.21-1.09,1.6,1.6,0,0,1,.61-.72,1.57,1.57,0,0,1,.89-.25,1.6,1.6,0,0,1,.9.25,1.56,1.56,0,0,1,.61.72,2.62,2.62,0,0,1,.21,1.09Zm-.56-.28A1.86,1.86,0,0,0,189,55.8a1.08,1.08,0,0,0-1.69,0,1.87,1.87,0,0,0-.31,1.13v.31a1.92,1.92,0,0,0,.31,1.16,1,1,0,0,0,.85.42,1,1,0,0,0,.84-.4,2,2,0,0,0,.31-1.14Z" transform="translate(0 0)" style="fill:#fff"/><path d="M194,59.23h-.57L191.26,56v3.28h-.57V55h.57l2.15,3.3V55H194Z" transform="translate(0 0)" style="fill:#fff"/><path d="M153.29,77.59h-1v1.72h-.57V75.05h1.42a1.67,1.67,0,0,1,1.11.33,1.18,1.18,0,0,1,.38,1,1.13,1.13,0,0,1-.21.69,1.37,1.37,0,0,1-.6.45l1,1.81v0h-.6Zm-1-.46h.86a1,1,0,0,0,.67-.22.72.72,0,0,0,.25-.58.76.76,0,0,0-.24-.61,1,1,0,0,0-.68-.21h-.86Z" transform="translate(0 0)" style="fill:#fff"/><path d="M157.83,77.34H156v1.51h2.15v.46h-2.71V75.05h2.68v.46H156v1.37h1.85Z" transform="translate(0 0)" style="fill:#fff"/><path d="M160.09,77.41A2.62,2.62,0,0,1,159,76.9a1,1,0,0,1-.33-.75,1,1,0,0,1,.4-.83,1.61,1.61,0,0,1,1-.33,1.79,1.79,0,0,1,.78.17,1.22,1.22,0,0,1,.53.47,1.15,1.15,0,0,1,.19.65h-.56a.8.8,0,0,0-.25-.61,1,1,0,0,0-.69-.22,1,1,0,0,0-.65.18.6.6,0,0,0-.24.51.54.54,0,0,0,.23.44,2,2,0,0,0,.75.33,3.56,3.56,0,0,1,.83.33,1.31,1.31,0,0,1,.45.42,1.15,1.15,0,0,1,.14.57,1,1,0,0,1-.4.83,1.71,1.71,0,0,1-1.08.31,1.93,1.93,0,0,1-.83-.17,1.34,1.34,0,0,1-.58-.46,1.1,1.1,0,0,1-.21-.66h.57a.74.74,0,0,0,.28.61,1.21,1.21,0,0,0,.77.22,1.12,1.12,0,0,0,.68-.18.66.66,0,0,0,0-1A2.72,2.72,0,0,0,160.09,77.41Z" transform="translate(0 0)" style="fill:#fff"/><path d="M163,79.31h-.56V75.05H163Z" transform="translate(0 0)" style="fill:#fff"/><path d="M164.59,78.85h2v.46H164V75.05h.57Z" transform="translate(0 0)" style="fill:#fff"/><path d="M167.85,79.31h-.56V75.05h.56Z" transform="translate(0 0)" style="fill:#fff"/><path d="M171.29,77.34h-1.84v1.51h2.14v.46h-2.71V75.05h2.68v.46h-2.11v1.37h1.84Z" transform="translate(0 0)" style="fill:#fff"/><path d="M175.57,79.31H175L172.86,76v3.28h-.57V75.05h.57l2.15,3.3v-3.3h.56Z" transform="translate(0 0)" style="fill:#fff"/><path d="M179.71,78a1.54,1.54,0,0,1-.5,1,1.61,1.61,0,0,1-1.12.37,1.5,1.5,0,0,1-1.21-.54,2.21,2.21,0,0,1-.46-1.45V77a2.46,2.46,0,0,1,.22-1,1.56,1.56,0,0,1,.6-.69,1.68,1.68,0,0,1,.9-.24,1.55,1.55,0,0,1,1.09.38,1.62,1.62,0,0,1,.48,1h-.57a1.24,1.24,0,0,0-.31-.74,1,1,0,0,0-.69-.23,1,1,0,0,0-.84.4A1.77,1.77,0,0,0,177,77v.42a1.89,1.89,0,0,0,.29,1.1.94.94,0,0,0,.81.41,1.1,1.1,0,0,0,.72-.21,1.14,1.14,0,0,0,.33-.74Z" transform="translate(0 0)" style="fill:#fff"/><path d="M182.89,77.34H181v1.51h2.15v.46h-2.71V75.05h2.68v.46H181v1.37h1.85Z" transform="translate(0 0)" style="fill:#fff"/><path d="M157.74,102.19a2.66,2.66,0,0,1-.19,1.07,1.69,1.69,0,0,1-.55.7l.76.59-.39.36-.9-.72a1.61,1.61,0,0,1-.44.06,1.69,1.69,0,0,1-.9-.25,1.62,1.62,0,0,1-.6-.71,2.51,2.51,0,0,1-.22-1.06v-.31a2.6,2.6,0,0,1,.21-1.08,1.7,1.7,0,0,1,.61-.73,1.68,1.68,0,0,1,.89-.25,1.7,1.7,0,0,1,.91.25,1.64,1.64,0,0,1,.6.72,2.65,2.65,0,0,1,.21,1.09Zm-.56-.27a1.93,1.93,0,0,0-.3-1.16,1,1,0,0,0-.86-.41,1,1,0,0,0-.83.4,1.87,1.87,0,0,0-.32,1.13v.31a1.9,1.9,0,0,0,.31,1.16,1.08,1.08,0,0,0,1.69,0,1.91,1.91,0,0,0,.31-1.14Z" transform="translate(0 0)" style="fill:#fff"/><path d="M161.61,99.92v2.9a1.36,1.36,0,0,1-.38,1,1.5,1.5,0,0,1-1,.43h-.15a1.59,1.59,0,0,1-1.11-.38,1.37,1.37,0,0,1-.43-1V99.92h.56v2.89a1,1,0,1,0,2,0V99.92Z" transform="translate(0 0)" style="fill:#fff"/><path d="M164.79,103.07H163l-.4,1.12H162l1.63-4.27h.49l1.64,4.27h-.58Zm-1.62-.46h1.45l-.72-2Z" transform="translate(0 0)" style="fill:#fff"/><path d="M166.92,103.73h2v.46h-2.59V99.92h.57Z" transform="translate(0 0)" style="fill:#fff"/><path d="M170.18,104.19h-.56V99.92h.56Z" transform="translate(0 0)" style="fill:#fff"/><path d="M174.07,100.38H172.7v3.81h-.56v-3.81h-1.37v-.46h3.3Z" transform="translate(0 0)" style="fill:#fff"/><path d="M176.05,102.06l1.12-2.14h.63l-1.47,2.68v1.59h-.56V102.6l-1.47-2.68H175Z" transform="translate(0 0)" style="fill:#fff"/><path d="M27.68,7.5V.39h2A3.27,3.27,0,0,1,31.33.8,2.77,2.77,0,0,1,32.43,2a3.72,3.72,0,0,1,.39,1.74v.45a3.77,3.77,0,0,1-.39,1.76,2.65,2.65,0,0,1-1.1,1.17,3.48,3.48,0,0,1-1.68.41Zm.94-6.34V6.73h1a2.14,2.14,0,0,0,1.69-.67,2.8,2.8,0,0,0,.61-1.92V3.72a2.83,2.83,0,0,0-.57-1.88,2,2,0,0,0-1.62-.68Z" transform="translate(0 0)" style="fill:#582197"/><path d="M36.29,7.6a2.31,2.31,0,0,1-1.75-.71A2.61,2.61,0,0,1,33.87,5V4.84a3.16,3.16,0,0,1,.3-1.4,2.28,2.28,0,0,1,.84-1,2.14,2.14,0,0,1,1.17-.35,2,2,0,0,1,1.6.68,2.93,2.93,0,0,1,.57,1.94v.38H34.77a1.87,1.87,0,0,0,.46,1.26,1.43,1.43,0,0,0,1.11.48,1.57,1.57,0,0,0,.81-.19,2.38,2.38,0,0,0,.58-.52l.55.43A2.22,2.22,0,0,1,36.29,7.6Zm-.11-4.74a1.19,1.19,0,0,0-.92.4,1.92,1.92,0,0,0-.46,1.12h2.65V4.31a1.75,1.75,0,0,0-.37-1.07A1.17,1.17,0,0,0,36.18,2.86Z" transform="translate(0 0)" style="fill:#582197"/><path d="M42.47,6.1a.67.67,0,0,0-.27-.57,2.68,2.68,0,0,0-1-.35,4.66,4.66,0,0,1-1.09-.35,1.63,1.63,0,0,1-.59-.49,1.15,1.15,0,0,1-.19-.67,1.35,1.35,0,0,1,.55-1.1,2.12,2.12,0,0,1,1.4-.45,2.22,2.22,0,0,1,1.46.46,1.49,1.49,0,0,1,.56,1.19h-.91a.82.82,0,0,0-.32-.64,1.17,1.17,0,0,0-.79-.27,1.18,1.18,0,0,0-.77.22.66.66,0,0,0-.28.56.55.55,0,0,0,.26.49,3.1,3.1,0,0,0,.93.32,4.88,4.88,0,0,1,1.1.36,1.54,1.54,0,0,1,.62.51,1.18,1.18,0,0,1,.2.72,1.33,1.33,0,0,1-.56,1.13,2.35,2.35,0,0,1-1.47.43,2.63,2.63,0,0,1-1.12-.23,1.91,1.91,0,0,1-.77-.62,1.55,1.55,0,0,1-.27-.88h.9a.91.91,0,0,0,.36.72,1.42,1.42,0,0,0,.9.27,1.45,1.45,0,0,0,.82-.21A.63.63,0,0,0,42.47,6.1Z" transform="translate(0 0)" style="fill:#582197"/><path d="M46.67,6.86a1.37,1.37,0,0,0,.85-.29,1.06,1.06,0,0,0,.4-.73h.85a1.67,1.67,0,0,1-.31.86,2,2,0,0,1-.77.65,2.14,2.14,0,0,1-1,.25A2.19,2.19,0,0,1,45,6.88a2.89,2.89,0,0,1-.63-2V4.76a3.18,3.18,0,0,1,.28-1.38,2.17,2.17,0,0,1,.81-.93,2.34,2.34,0,0,1,1.26-.33,2.12,2.12,0,0,1,1.47.53A2,2,0,0,1,48.77,4h-.85a1.28,1.28,0,0,0-.39-.84,1.22,1.22,0,0,0-.86-.33,1.27,1.27,0,0,0-1.07.5,2.34,2.34,0,0,0-.38,1.43V5a2.3,2.3,0,0,0,.38,1.41A1.26,1.26,0,0,0,46.67,6.86Z" transform="translate(0 0)" style="fill:#582197"/><path d="M52.34,3a2.12,2.12,0,0,0-.44,0,1.2,1.2,0,0,0-1.21.76V7.5h-.9V2.22h.87l0,.61a1.42,1.42,0,0,1,1.26-.71.87.87,0,0,1,.4.07Z" transform="translate(0 0)" style="fill:#582197"/><path d="M53.17.82a.57.57,0,0,1,.14-.38.51.51,0,0,1,.4-.15.52.52,0,0,1,.4.15.57.57,0,0,1,.13.38.52.52,0,0,1-.13.36.52.52,0,0,1-.4.15.51.51,0,0,1-.4-.15A.52.52,0,0,1,53.17.82Zm1,6.68h-.9V2.22h.9Z" transform="translate(0 0)" style="fill:#582197"/><path d="M60.07,4.92a3.15,3.15,0,0,1-.56,1.94A1.78,1.78,0,0,1,58,7.6a1.84,1.84,0,0,1-1.55-.71l0,.61H55.6V0h.9V2.8A1.84,1.84,0,0,1,58,2.12a1.78,1.78,0,0,1,1.51.73,3.2,3.2,0,0,1,.55,2Zm-.9-.11a2.4,2.4,0,0,0-.36-1.42,1.17,1.17,0,0,0-1-.5,1.32,1.32,0,0,0-1.28.83V6a1.37,1.37,0,0,0,1.29.83,1.17,1.17,0,0,0,1-.5A2.62,2.62,0,0,0,59.17,4.81Z" transform="translate(0 0)" style="fill:#582197"/><path d="M63.4,7.6a2.31,2.31,0,0,1-1.75-.71A2.61,2.61,0,0,1,61,5V4.84a3.16,3.16,0,0,1,.3-1.4,2.28,2.28,0,0,1,.84-1,2.14,2.14,0,0,1,1.17-.35,2,2,0,0,1,1.6.68,2.93,2.93,0,0,1,.57,1.94v.38H61.88a1.87,1.87,0,0,0,.46,1.26,1.43,1.43,0,0,0,1.11.48,1.57,1.57,0,0,0,.81-.19,2.38,2.38,0,0,0,.58-.52l.55.43A2.22,2.22,0,0,1,63.4,7.6Zm-.11-4.74a1.19,1.19,0,0,0-.92.4,1.92,1.92,0,0,0-.46,1.12h2.65V4.31a1.75,1.75,0,0,0-.37-1.07A1.17,1.17,0,0,0,63.29,2.86Z" transform="translate(0 0)" style="fill:#582197"/><path d="M74.59,4.17A4.49,4.49,0,0,1,74.24,6a2.74,2.74,0,0,1-1,1.19,2.74,2.74,0,0,1-4-1.18,4.27,4.27,0,0,1-.37-1.77V3.73a4.35,4.35,0,0,1,.36-1.82,2.72,2.72,0,0,1,1-1.2A2.68,2.68,0,0,1,71.73.29a2.74,2.74,0,0,1,1.51.42,2.68,2.68,0,0,1,1,1.19,4.49,4.49,0,0,1,.35,1.83Zm-.93-.45a3.16,3.16,0,0,0-.51-1.94,1.8,1.8,0,0,0-2.82,0,3,3,0,0,0-.52,1.87v.52a3.23,3.23,0,0,0,.51,1.93,1.66,1.66,0,0,0,1.42.7,1.68,1.68,0,0,0,1.41-.66,3.18,3.18,0,0,0,.51-1.9Z" transform="translate(0 0)" style="fill:#582197"/><path d="M81.25,6.57a2.25,2.25,0,0,1-1,.77,4.12,4.12,0,0,1-1.51.26,2.93,2.93,0,0,1-1.54-.41,2.67,2.67,0,0,1-1-1.16,3.84,3.84,0,0,1-.38-1.74V3.67a3.74,3.74,0,0,1,.75-2.49,2.61,2.61,0,0,1,2.1-.89,2.72,2.72,0,0,1,1.8.57,2.54,2.54,0,0,1,.83,1.62h-.94a1.55,1.55,0,0,0-1.68-1.42,1.66,1.66,0,0,0-1.43.66,3.24,3.24,0,0,0-.49,1.92v.58a3,3,0,0,0,.55,1.91,1.75,1.75,0,0,0,1.48.7,3.16,3.16,0,0,0,.92-.12,1.31,1.31,0,0,0,.65-.39V4.73H78.67V4h2.58Z" transform="translate(0 0)" style="fill:#582197"/><path d="M85.15.82a.57.57,0,0,1,.13-.38.51.51,0,0,1,.4-.15.52.52,0,0,1,.4.15.57.57,0,0,1,.14.38.52.52,0,0,1-.14.36.52.52,0,0,1-.4.15.51.51,0,0,1-.4-.15A.52.52,0,0,1,85.15.82Zm1,6.68h-.9V2.22h.9Z" transform="translate(0 0)" style="fill:#582197"/><path d="M88.42,2.22l0,.66A1.92,1.92,0,0,1,90,2.12c1.12,0,1.68.63,1.69,1.89V7.5h-.9V4a1.19,1.19,0,0,0-.26-.84,1.06,1.06,0,0,0-.8-.27,1.27,1.27,0,0,0-.77.23,1.66,1.66,0,0,0-.52.62V7.5h-.9V2.22Z" transform="translate(0 0)" style="fill:#582197"/><path d="M98.82,7.5a1.9,1.9,0,0,1-.12-.56,2,2,0,0,1-1.51.66,1.88,1.88,0,0,1-1.28-.44A1.45,1.45,0,0,1,95.41,6,1.51,1.51,0,0,1,96,4.75,3,3,0,0,1,97.8,4.3h.88V3.88a1,1,0,0,0-.28-.75,1.14,1.14,0,0,0-.84-.28,1.34,1.34,0,0,0-.81.24.73.73,0,0,0-.32.59h-.91a1.21,1.21,0,0,1,.28-.76,2,2,0,0,1,.76-.59,2.61,2.61,0,0,1,1.06-.21,2.07,2.07,0,0,1,1.43.46,1.67,1.67,0,0,1,.54,1.25V6.26a3,3,0,0,0,.18,1.16V7.5Zm-1.5-.69a1.54,1.54,0,0,0,.81-.22A1.26,1.26,0,0,0,98.68,6V4.94H98c-1.1,0-1.66.32-1.66,1a.82.82,0,0,0,.29.66A1.08,1.08,0,0,0,97.32,6.81Z" transform="translate(0 0)" style="fill:#582197"/><path d="M108.15,6.26l1-4h.9L108.54,7.5h-.74l-1.28-4-1.25,4h-.73L103,2.22h.9l1,4,1.23-3.95h.73Z" transform="translate(0 0)" style="fill:#582197"/><path d="M110.75,4.81a3.06,3.06,0,0,1,.31-1.4,2.18,2.18,0,0,1,.85-1,2.42,2.42,0,0,1,3,.41,2.87,2.87,0,0,1,.66,2v.07a3.25,3.25,0,0,1-.29,1.38,2.27,2.27,0,0,1-.85,1,2.4,2.4,0,0,1-1.26.34,2.21,2.21,0,0,1-1.74-.75,2.84,2.84,0,0,1-.67-2Zm.91.11a2.29,2.29,0,0,0,.41,1.41,1.31,1.31,0,0,0,1.09.53,1.29,1.29,0,0,0,1.09-.54,2.46,2.46,0,0,0,.41-1.51,2.29,2.29,0,0,0-.41-1.41,1.32,1.32,0,0,0-1.1-.54,1.3,1.3,0,0,0-1.08.53A2.51,2.51,0,0,0,111.66,4.92Z" transform="translate(0 0)" style="fill:#582197"/><path d="M119.25,3a2.15,2.15,0,0,0-.45,0,1.19,1.19,0,0,0-1.2.76V7.5h-.91V2.22h.88l0,.61a1.4,1.4,0,0,1,1.26-.71.87.87,0,0,1,.4.07Z" transform="translate(0 0)" style="fill:#582197"/><path d="M119.77,4.81a3.1,3.1,0,0,1,.57-1.95,2,2,0,0,1,3-.11V0h.9V7.5h-.83l0-.57a2,2,0,0,1-3-.08,3.2,3.2,0,0,1-.57-2Zm.9.11a2.29,2.29,0,0,0,.37,1.4,1.2,1.2,0,0,0,1,.51,1.32,1.32,0,0,0,1.25-.77V3.63a1.31,1.31,0,0,0-1.24-.74,1.21,1.21,0,0,0-1,.51A2.56,2.56,0,0,0,120.67,4.92Z" transform="translate(0 0)" style="fill:#582197"/><path d="M158.52,5.26l.13.94.2-.85,1.41-5h.79l1.37,5,.2.86.15-1,1.1-4.86h.95L163.09,7.5h-.85l-1.47-5.18-.11-.54-.11.54L159,7.5h-.85L156.46.39h.93Z" transform="translate(0 0)" style="fill:#582197"/><path d="M166.62,2.86a1.9,1.9,0,0,1,1.56-.74c1.12,0,1.68.63,1.69,1.89V7.5H169V4a1.24,1.24,0,0,0-.26-.84,1.07,1.07,0,0,0-.8-.27,1.25,1.25,0,0,0-.77.23,1.5,1.5,0,0,0-.52.62V7.5h-.91V0h.91Z" transform="translate(0 0)" style="fill:#582197"/><path d="M174.48,7.5a1.9,1.9,0,0,1-.12-.56,2,2,0,0,1-1.51.66,1.88,1.88,0,0,1-1.28-.44,1.45,1.45,0,0,1-.5-1.12,1.51,1.51,0,0,1,.63-1.29,3,3,0,0,1,1.76-.45h.88V3.88a1,1,0,0,0-.28-.75,1.14,1.14,0,0,0-.84-.28,1.34,1.34,0,0,0-.81.24.73.73,0,0,0-.32.59h-.91a1.21,1.21,0,0,1,.28-.76,2,2,0,0,1,.76-.59,2.61,2.61,0,0,1,1.06-.21,2.07,2.07,0,0,1,1.43.46,1.67,1.67,0,0,1,.54,1.25V6.26a3,3,0,0,0,.18,1.16V7.5ZM173,6.81a1.54,1.54,0,0,0,.81-.22,1.26,1.26,0,0,0,.55-.57V4.94h-.71c-1.1,0-1.66.32-1.66,1a.82.82,0,0,0,.29.66A1.08,1.08,0,0,0,173,6.81Z" transform="translate(0 0)" style="fill:#582197"/><path d="M177.89.94V2.22h1v.7h-1V6.2a.69.69,0,0,0,.13.47.55.55,0,0,0,.45.16,2.16,2.16,0,0,0,.43-.06V7.5a2.47,2.47,0,0,1-.7.1,1.11,1.11,0,0,1-.91-.37,1.59,1.59,0,0,1-.31-1V2.92h-1v-.7h1V.94Z" transform="translate(0 0)" style="fill:#582197"/><path d="M180,2.39,179.48,2A2.37,2.37,0,0,0,180,.7V0h.89V.63a2.18,2.18,0,0,1-.24,1A2.28,2.28,0,0,1,180,2.39Z" transform="translate(0 0)" style="fill:#582197"/><path d="M184.45,6.1a.67.67,0,0,0-.27-.57,2.69,2.69,0,0,0-1-.35,4.51,4.51,0,0,1-1.09-.35,1.59,1.59,0,0,1-.6-.49,1.15,1.15,0,0,1-.19-.67,1.35,1.35,0,0,1,.55-1.1,2.12,2.12,0,0,1,1.4-.45,2.2,2.2,0,0,1,1.46.46,1.49,1.49,0,0,1,.56,1.19h-.91a.81.81,0,0,0-.31-.64,1.38,1.38,0,0,0-1.57,0,.69.69,0,0,0-.28.56.55.55,0,0,0,.26.49,3.19,3.19,0,0,0,.94.32,4.78,4.78,0,0,1,1.09.36,1.64,1.64,0,0,1,.63.51,1.25,1.25,0,0,1,.2.72,1.34,1.34,0,0,1-.57,1.13,2.35,2.35,0,0,1-1.47.43,2.63,2.63,0,0,1-1.12-.23,1.91,1.91,0,0,1-.77-.62,1.55,1.55,0,0,1-.27-.88h.9a.92.92,0,0,0,.37.72,1.37,1.37,0,0,0,.89.27,1.42,1.42,0,0,0,.82-.21A.63.63,0,0,0,184.45,6.1Z" transform="translate(0 0)" style="fill:#582197"/><path d="M194.62,4.17A4.49,4.49,0,0,1,194.27,6a2.74,2.74,0,0,1-1,1.19,2.74,2.74,0,0,1-4-1.18,4.27,4.27,0,0,1-.37-1.77V3.73a4.35,4.35,0,0,1,.36-1.82,2.72,2.72,0,0,1,1-1.2,2.68,2.68,0,0,1,1.49-.42,2.74,2.74,0,0,1,1.51.42,2.68,2.68,0,0,1,1,1.19,4.49,4.49,0,0,1,.35,1.83Zm-.93-.45a3.16,3.16,0,0,0-.51-1.94,1.8,1.8,0,0,0-2.82,0,3.1,3.1,0,0,0-.52,1.87v.52a3.23,3.23,0,0,0,.51,1.93,1.66,1.66,0,0,0,1.42.7,1.68,1.68,0,0,0,1.41-.66,3.18,3.18,0,0,0,.51-1.9Z" transform="translate(0 0)" style="fill:#582197"/><path d="M201.28,6.57a2.19,2.19,0,0,1-1,.77,4.12,4.12,0,0,1-1.51.26,2.93,2.93,0,0,1-1.54-.41,2.67,2.67,0,0,1-1-1.16,3.84,3.84,0,0,1-.38-1.74V3.67a3.74,3.74,0,0,1,.75-2.49,2.61,2.61,0,0,1,2.1-.89,2.72,2.72,0,0,1,1.8.57,2.54,2.54,0,0,1,.83,1.62h-.94a1.55,1.55,0,0,0-1.68-1.42,1.66,1.66,0,0,0-1.43.66,3.24,3.24,0,0,0-.49,1.92v.58a3,3,0,0,0,.55,1.91,1.75,1.75,0,0,0,1.48.7,3.16,3.16,0,0,0,.92-.12,1.31,1.31,0,0,0,.65-.39V4.73H198.7V4h2.58Z" transform="translate(0 0)" style="fill:#582197"/><path d="M202.76,2.39,202.25,2A2.37,2.37,0,0,0,202.72.7V0h.89V.63a2.18,2.18,0,0,1-.24,1A2.28,2.28,0,0,1,202.76,2.39Z" transform="translate(0 0)" style="fill:#582197"/><path d="M207.22,6.1a.67.67,0,0,0-.27-.57,2.69,2.69,0,0,0-1-.35,4.51,4.51,0,0,1-1.09-.35,1.59,1.59,0,0,1-.6-.49,1.15,1.15,0,0,1-.19-.67,1.35,1.35,0,0,1,.55-1.1,2.12,2.12,0,0,1,1.4-.45,2.2,2.2,0,0,1,1.46.46,1.49,1.49,0,0,1,.56,1.19h-.91a.82.82,0,0,0-.32-.64,1.17,1.17,0,0,0-.79-.27,1.2,1.2,0,0,0-.77.22.66.66,0,0,0-.28.56.55.55,0,0,0,.26.49,3.08,3.08,0,0,0,.94.32,4.78,4.78,0,0,1,1.09.36,1.54,1.54,0,0,1,.62.51,1.18,1.18,0,0,1,.21.72,1.34,1.34,0,0,1-.57,1.13,2.35,2.35,0,0,1-1.47.43A2.63,2.63,0,0,1,205,7.37a1.91,1.91,0,0,1-.77-.62,1.55,1.55,0,0,1-.27-.88h.9a.94.94,0,0,0,.36.72,1.67,1.67,0,0,0,1.72.06A.63.63,0,0,0,207.22,6.1Z" transform="translate(0 0)" style="fill:#582197"/><path d="M214.85,6.1a.67.67,0,0,0-.27-.57,2.62,2.62,0,0,0-1-.35,4.51,4.51,0,0,1-1.09-.35,1.59,1.59,0,0,1-.6-.49,1.15,1.15,0,0,1-.19-.67,1.35,1.35,0,0,1,.55-1.1,2.14,2.14,0,0,1,1.4-.45,2.2,2.2,0,0,1,1.46.46,1.49,1.49,0,0,1,.56,1.19h-.91a.81.81,0,0,0-.31-.64,1.38,1.38,0,0,0-1.57,0,.69.69,0,0,0-.28.56.55.55,0,0,0,.26.49,3.19,3.19,0,0,0,.94.32,4.78,4.78,0,0,1,1.09.36,1.64,1.64,0,0,1,.63.51,1.25,1.25,0,0,1,.2.72,1.34,1.34,0,0,1-.57,1.13,2.35,2.35,0,0,1-1.47.43,2.63,2.63,0,0,1-1.12-.23,1.91,1.91,0,0,1-.77-.62,1.55,1.55,0,0,1-.27-.88h.9a.92.92,0,0,0,.37.72,1.37,1.37,0,0,0,.89.27,1.42,1.42,0,0,0,.82-.21A.63.63,0,0,0,214.85,6.1Z" transform="translate(0 0)" style="fill:#582197"/><path d="M220.2,7a1.93,1.93,0,0,1-1.55.62,1.69,1.69,0,0,1-1.29-.49,2.14,2.14,0,0,1-.44-1.46V2.22h.9V5.63c0,.8.32,1.2,1,1.2a1.35,1.35,0,0,0,1.37-.77V2.22h.91V7.5h-.86Z" transform="translate(0 0)" style="fill:#582197"/><path d="M226.91,4.92a3.14,3.14,0,0,1-.55,1.94,1.79,1.79,0,0,1-1.5.74A2,2,0,0,1,223.35,7V9.53h-.9V2.22h.82l0,.58a1.86,1.86,0,0,1,1.53-.68,1.81,1.81,0,0,1,1.51.72,3.18,3.18,0,0,1,.55,2Zm-.9-.11a2.38,2.38,0,0,0-.38-1.41,1.25,1.25,0,0,0-1-.51,1.32,1.32,0,0,0-1.23.72V6.14a1.33,1.33,0,0,0,1.24.72,1.22,1.22,0,0,0,1-.51A2.55,2.55,0,0,0,226,4.81Z" transform="translate(0 0)" style="fill:#582197"/><path d="M230.25,7.6a2.31,2.31,0,0,1-1.75-.71A2.61,2.61,0,0,1,227.83,5V4.84a3.16,3.16,0,0,1,.3-1.4,2.28,2.28,0,0,1,.84-1,2.14,2.14,0,0,1,1.17-.35,2,2,0,0,1,1.6.68,2.93,2.93,0,0,1,.57,1.94v.38h-3.58a1.92,1.92,0,0,0,.46,1.26,1.43,1.43,0,0,0,1.11.48,1.57,1.57,0,0,0,.81-.19,2.38,2.38,0,0,0,.58-.52l.55.43A2.21,2.21,0,0,1,230.25,7.6Zm-.11-4.74a1.19,1.19,0,0,0-.92.4,1.92,1.92,0,0,0-.46,1.12h2.65V4.31A1.75,1.75,0,0,0,231,3.24,1.14,1.14,0,0,0,230.14,2.86Z" transform="translate(0 0)" style="fill:#582197"/><path d="M235.91,3a2.06,2.06,0,0,0-.44,0,1.2,1.2,0,0,0-1.21.76V7.5h-.9V2.22h.87l0,.61a1.42,1.42,0,0,1,1.26-.71.84.84,0,0,1,.4.07Z" transform="translate(0 0)" style="fill:#582197"/><path d="M243.68,4.92a3.21,3.21,0,0,1-.55,1.94,1.79,1.79,0,0,1-1.5.74A2,2,0,0,1,240.12,7V9.53h-.9V2.22H240l0,.58a1.88,1.88,0,0,1,1.54-.68,1.79,1.79,0,0,1,1.5.72,3.18,3.18,0,0,1,.56,2Zm-.91-.11a2.31,2.31,0,0,0-.38-1.41,1.22,1.22,0,0,0-1-.51,1.32,1.32,0,0,0-1.23.72V6.14a1.33,1.33,0,0,0,1.24.72,1.22,1.22,0,0,0,1-.51A2.56,2.56,0,0,0,242.77,4.81Z" transform="translate(0 0)" style="fill:#582197"/><path d="M244.59,4.81a3.19,3.19,0,0,1,.3-1.4,2.31,2.31,0,0,1,.85-1A2.27,2.27,0,0,1,247,2.12a2.23,2.23,0,0,1,1.75.75,2.88,2.88,0,0,1,.67,2v.07a3.11,3.11,0,0,1-.3,1.38,2.31,2.31,0,0,1-.84,1A2.43,2.43,0,0,1,247,7.6a2.23,2.23,0,0,1-1.74-.75,2.89,2.89,0,0,1-.66-2Zm.9.11a2.29,2.29,0,0,0,.41,1.41,1.39,1.39,0,0,0,2.19,0,2.47,2.47,0,0,0,.4-1.51,2.29,2.29,0,0,0-.41-1.41,1.31,1.31,0,0,0-1.1-.54,1.33,1.33,0,0,0-1.08.53A2.51,2.51,0,0,0,245.49,4.92Z" transform="translate(0 0)" style="fill:#582197"/><path d="M255.21,6.26l1-4h.91L255.59,7.5h-.74l-1.28-4-1.25,4h-.73l-1.53-5.28H251l1,4,1.23-3.95H254Z" transform="translate(0 0)" style="fill:#582197"/><path d="M260.24,7.6a2.31,2.31,0,0,1-1.75-.71A2.61,2.61,0,0,1,257.81,5V4.84a3.16,3.16,0,0,1,.3-1.4,2.28,2.28,0,0,1,.84-1,2.14,2.14,0,0,1,1.17-.35,2,2,0,0,1,1.61.68,2.93,2.93,0,0,1,.57,1.94v.38h-3.58a1.86,1.86,0,0,0,.45,1.26,1.46,1.46,0,0,0,1.11.48,1.63,1.63,0,0,0,.82-.19,2.38,2.38,0,0,0,.58-.52l.55.43A2.22,2.22,0,0,1,260.24,7.6Zm-.12-4.74a1.17,1.17,0,0,0-.91.4,1.92,1.92,0,0,0-.46,1.12h2.64V4.31A1.69,1.69,0,0,0,261,3.24,1.14,1.14,0,0,0,260.12,2.86Z" transform="translate(0 0)" style="fill:#582197"/><path d="M265.9,3a2.15,2.15,0,0,0-.45,0,1.21,1.21,0,0,0-1.21.76V7.5h-.9V2.22h.88v.61a1.42,1.42,0,0,1,1.26-.71.92.92,0,0,1,.41.07Z" transform="translate(0 0)" style="fill:#582197"/><path d="M267.78,5.49a3.07,3.07,0,0,1,.14-.92,2.29,2.29,0,0,1,.49-.74l.64-.66a1.45,1.45,0,0,0,.41-1,1.15,1.15,0,0,0-.26-.81,1,1,0,0,0-.79-.29,1.17,1.17,0,0,0-.8.27.89.89,0,0,0-.3.71h-.9A1.62,1.62,0,0,1,267,.78a2.13,2.13,0,0,1,1.44-.49,2,2,0,0,1,1.44.5,1.77,1.77,0,0,1,.52,1.36,2.49,2.49,0,0,1-.79,1.68l-.54.52a1.71,1.71,0,0,0-.35,1.14Zm0,1.55a.52.52,0,0,1,.13-.37.51.51,0,0,1,.4-.15.52.52,0,1,1,0,1,.5.5,0,0,1-.4-.14A.52.52,0,0,1,267.75,7Z" transform="translate(0 0)" style="fill:#582197"/></svg>