<?xml version="1.0" encoding="utf-8"?>
<!-- Generator: Adobe Illustrator 25.2.0, SVG Export Plug-In . SVG Version: 6.00 Build 0)  -->
<svg version="1.1" id="Layer_1" xmlns="http://www.w3.org/2000/svg" xmlns:xlink="http://www.w3.org/1999/xlink" x="0px" y="0px"
	 viewBox="0 0 380 334" style="enable-background:new 0 0 380 334;" xml:space="preserve">
<style type="text/css">
	.st0{fill:#582197;}
	.st1{display:none;}
	.st2{fill:#E0D5EB;}
</style>
<g>
	<path class="st0" d="M214,275.8h-9.8v26.6h-7.9v-26.6h-9.6v-6.1H214V275.8z"/>
	<path class="st0" d="M233.2,296.3h-10.8l-1.9,6.1h-8.4l12-32.7h7.4l12.1,32.7h-8.5L233.2,296.3z M224.3,290.2h7l-3.5-11.3
		L224.3,290.2z"/>
	<path class="st0" d="M268.9,275.8h-9.8v26.6h-7.9v-26.6h-9.6v-6.1h27.3V275.8z"/>
</g>
<g class="st1">
	
		<image style="display:inline;overflow:visible;" width="458" height="391" xlink:href="30B3D024.jpg"  transform="matrix(0.9727 0 0 -0.9732 -43.5772 357)">
	</image>
</g>
<path class="st2" d="M85.7,168.4c0.1-45.6,37.3-82.7,82.8-82.5c45.8,0.2,82.8,37.4,82.6,83.1c-0.2,45.8-37.3,82.6-83.5,82.3
	C121.9,250.9,85.7,213.9,85.7,168.4z M171.3,165.6c0-1,0-1.7,0-2.4c0-16.4,0-32.8,0-49.3c0-0.6,0.1-1.2,0-1.8
	c-0.3-1.6-1.3-2.6-2.9-2.6c-1.6,0-2.6,0.9-2.9,2.5c-0.1,0.6,0,1.2,0,1.8c0,16.5,0,33,0,49.5c0,0.7,0,1.4,0,2.3c-1.2,0-2.1-0.1-3,0
	c-1.7,0.1-2.9,1.3-2.9,3c0,1.6,1.2,2.8,3,2.9c1,0.1,1.9,0,2.8,0c0.3,4.6,0.9,6,2.9,5.9c3.8-0.2,2.9-3.4,3.1-5.9c0.8,0,1.4,0,2.1,0
	c14.6,0,29.2,0,43.7,0c0.6,0,1.2,0.1,1.8-0.1c1.5-0.3,2.4-1.3,2.4-2.8c0-1.6-0.9-2.6-2.5-2.9c-0.6-0.1-1.2-0.1-1.8-0.1
	c-12.2,0-24.5,0-36.7,0C177.5,165.6,174.5,165.6,171.3,165.6z M199.9,117.8c0.4-0.2,1.3-0.5,1.8-1.2c1.2-1.8,2.3-3.8,3.3-5.7
	c0.7-1.5,0.2-2.8-1.2-3.6c-1.3-0.8-2.8-0.6-3.6,0.6c-1.3,1.9-2.5,3.9-3.5,6C195.8,115.7,197.3,117.7,199.9,117.8z M136.7,117.8
	c2.8,0.1,4.3-2.2,3.2-4.2c-0.9-1.8-1.9-3.6-3-5.3c-0.9-1.5-2.6-1.8-4-1c-1.4,0.8-1.8,2.4-1,4c0.9,1.7,1.8,3.4,2.9,4.9
	C135.3,117,136.3,117.4,136.7,117.8z M117.5,136.9c-0.3-0.4-0.7-1.3-1.4-1.8c-1.7-1.1-3.5-2.1-5.3-3c-1.5-0.8-3-0.3-3.8,1.1
	c-0.8,1.3-0.5,3,0.9,3.9c1.8,1.2,3.7,2.3,5.6,3.2C115.5,141.2,117.6,139.6,117.5,136.9z M109.5,206.1c2.7-1.8,5.3-3.3,7.6-5.2
	c0.5-0.4,0.2-2.3-0.3-3.2c-0.6-1.2-2-1.5-3.2-0.9c-2,1-4,2.2-5.9,3.4c-1.2,0.8-1.5,2.1-0.9,3.3C107.3,204.5,108.4,205.1,109.5,206.1
	z M134.9,230.3c0.3-0.2,1.3-0.5,1.8-1.2c1.2-1.8,2.3-3.8,3.3-5.7c0.7-1.5,0.2-2.8-1.2-3.6c-1.4-0.8-2.9-0.6-3.8,0.7
	c-1.3,1.9-2.4,3.9-3.4,5.9C130.8,228.3,132.3,230.3,134.9,230.3z M200,219.4c-2.8-0.1-4.3,2.1-3.3,4.2c0.9,1.8,1.9,3.6,3,5.3
	c0.9,1.5,2.6,1.8,4,1c1.4-0.8,1.8-2.4,1-4c-0.9-1.7-1.9-3.5-3-5.1C201.3,220.1,200.4,219.7,200,219.4z M222,141.2
	c2.8-1.8,5.3-3.3,7.6-5.2c0.5-0.4,0.3-2.4-0.2-3.1c-0.6-0.7-2.2-1.3-3-1c-2.2,0.9-4.3,2.1-6.2,3.6c-0.7,0.5-1,2.2-0.8,3.1
	C219.7,139.4,220.9,140.1,222,141.2z M230.1,201.9c-0.2-0.3-0.6-1.3-1.3-1.8c-1.7-1.2-3.6-2.2-5.4-3.1c-1.4-0.7-3.1-0.2-3.8,1.2
	c-0.7,1.4-0.5,2.9,0.8,3.8c1.8,1.2,3.8,2.3,5.7,3.3C228,206.1,230.1,204.7,230.1,201.9z M168.3,97.7c-1.6,0-2.9,1.3-2.9,2.9
	c0,1.7,1.4,3,3.1,3c1.6-0.1,2.9-1.4,2.8-3C171.2,99,169.9,97.7,168.3,97.7z M97.5,168.4c-0.1,1.6,1.2,3,2.8,3.1
	c1.6,0.1,3.1-1.2,3.1-2.9c0-1.6-1.3-2.9-2.8-3C98.9,165.6,97.6,166.9,97.5,168.4z M236.2,171.5c1.6,0,2.9-1.2,3-2.8
	c0.1-1.6-1.3-3.1-3-3.1c-1.6,0-2.9,1.3-2.9,2.9C233.3,170.1,234.6,171.5,236.2,171.5z M168.3,239.4c1.6,0,2.9-1.3,3-2.9
	c0-1.7-1.4-3-3-3c-1.6,0-2.9,1.4-2.9,3C165.4,238.1,166.7,239.4,168.3,239.4z"/>
<path class="st0" d="M331.2,157.2C326.1,71.5,255,3.5,168,3.5C77.7,3.5,4.4,76.7,4.4,167S77.7,330.5,168,330.5c0.5,0,1,0,1.5,0
	v-74.4c-48.4,0-87.6-39.2-87.6-87.6s39.2-87.6,87.6-87.6c44.6,0,81.4,33.3,86.9,76.4h-45.3l82.5,113.2L376,157.2H331.2z"/>
</svg>
