<svg id="Layer_1" data-name="Layer 1" xmlns="http://www.w3.org/2000/svg" xmlns:xlink="http://www.w3.org/1999/xlink" viewBox="0 0 552.6 417.1"><defs><style>.cls-1{fill:none;}.cls-2{fill:#b7b7b7;}.cls-13,.cls-3{fill:#fff;}.cls-4{fill:#9e9e9e;}.cls-5{isolation:isolate;opacity:0.1;}.cls-6{fill:#04a0f4;}.cls-7{fill:#c5ced1;}.cls-8{fill:#009193;}.cls-9{clip-path:url(#clip-path);}.cls-10{fill:#531b93;}.cls-11{fill:#484949;}.cls-12{fill:#050505;}.cls-13{stroke:#484949;stroke-miterlimit:10;}.cls-14{fill:#999;}</style><clipPath id="clip-path" transform="translate(67.9 2.3)"><path class="cls-1" d="M47.9,333.3c100.6,54.5,187,62.1,250.3,29.8,26.2-13.3,75.6-53.2,129.1-53.2L425,23.5H47.9Z"/></clipPath></defs><path class="cls-2" d="M204.7,414.8C93.48,414.8,3,324.32,3,213.1A199.61,199.61,0,0,1,45,89.89l.8.62A198.55,198.55,0,0,0,4,213.1C4,323.77,94,413.8,204.7,413.8s200.7-90,200.7-200.7h1C406.4,324.32,315.92,414.8,204.7,414.8Z" transform="translate(67.9 2.3)"/><circle class="cls-3" cx="188.3" cy="74" r="27.9"/><path class="cls-4" d="M120.4,100.1a28.4,28.4,0,1,1,28.4-28.4A28.43,28.43,0,0,1,120.4,100.1Zm0-55.8a27.4,27.4,0,1,0,27.4,27.4A27.43,27.43,0,0,0,120.4,44.3Z" transform="translate(67.9 2.3)"/><circle class="cls-3" cx="188.3" cy="74" r="27.9"/><g class="cls-5"><path class="cls-6" d="M120.4,71.7,104.4,87a22.14,22.14,0,0,1,16-37.4h.3Z" transform="translate(67.9 2.3)"/></g><path class="cls-7" d="M120.4,80.1a1.64,1.64,0,0,1-1.6-1.6V43.8a1.6,1.6,0,0,1,3.2,0V78.5A1.58,1.58,0,0,1,120.4,80.1Z" transform="translate(67.9 2.3)"/><path class="cls-8" d="M141.5,74.2H116.3a2.5,2.5,0,0,1,0-5h25.2a2.54,2.54,0,0,1,2.5,2.5A2.69,2.69,0,0,1,141.5,74.2Z" transform="translate(67.9 2.3)"/><g class="cls-5"><path class="cls-6" d="M34.3,195.4c4.9,4.2,11,7.3,17.2,9.7,9.9,3.9,20.5,6.5,29.6,12,8.3,5,15,12.2,22.6,18.1,28.7,22.2,48.2-5.9,76.7-11,20.8-3.7,41.8-4.1,62.5-9,18.2-4.3,29.3-11.9,43.9-26.3,29.5-29.3,75.9-10.3,109.2-18.8,3.1-.8,6.5-2,8.5-5.6,3-5.3,1.7-13.7-1.1-19.3a28.88,28.88,0,0,0-21.5-15.9c-8.2-1.4-16.5-.1-24.8-.4-25.2-1-49.8-15-74.3-22-27-7.8-55-1.5-81.4,8.3-35.7,13.3-70.8,33-107.6,33.8-21.3.5-55.1-12.8-67.4,11.9a28,28,0,0,0,.3,25.2A32.06,32.06,0,0,0,34.3,195.4Z" transform="translate(67.9 2.3)"/></g><g class="cls-9"><path class="cls-10" d="M341.5,139.7c6.4-4.3,16.7-7,20.4-.3,1.5,2.7,1.2,6.1.8,9.2-1.1,9.2-2.3,18.4-3.4,27.6a214,214,0,0,1,25.3-2.1c3.2-.1,6.8,0,9.2,2.2,2.8,2.5,2.9,7,1.4,10.4s-4.2,6.2-6.5,9c-3.5,4.2-6.5,9.2-7.1,14.6s1.5,11.5,6.3,14.2c3.1,1.8,6.8,2,10.1,3.1,11.1,3.9,15.8,18.1,12.5,29.4s-12.4,19.9-22,26.6A132.59,132.59,0,0,1,296.6,306c-5.5-.7-11-1.8-15.8-4.6-13-7.6-16.2-25.1-14.9-40.1C269.4,218.6,305.7,163.5,341.5,139.7Z" transform="translate(67.9 2.3)"/><path class="cls-11" d="M330.4,390.6a646.54,646.54,0,0,1,5.3-136.9c-6.5,3.6-13,7.1-19.5,10.7-2.4,1.3-5,2.8-6.3,5.2-1.2,2.1-1.3,4.7-1.4,7.1-1.3,36.8-2.7,73.5-4,110.3-.1,2.4-1.8.3-2.3,2.6a87.34,87.34,0,0,1,27,.4C328.6,387.5,330.6,393.2,330.4,390.6Z" transform="translate(67.9 2.3)"/><path class="cls-8" d="M248.2,41.6c9.4-1.9,20.1,2.9,23.7,11.8,1.9,4.8,1.7,10,2.5,15.1a41.73,41.73,0,0,0,14,25.4c12,10.3,29.6,13.6,38.8,26.4,7.1,9.9,7.4,23.2,5.1,35.1-2.6,14.1-8.3,29-2.5,42.1,3.1,7.1,9.2,12.3,13.5,18.7a44.82,44.82,0,0,1-16.7,65.4c-9.1,4.6-19.5,6-29.7,6.8a357.26,357.26,0,0,1-78.7-2.1c-13.5-1.9-27.9-5.1-36.7-15.5-10.7-12.6-8.2-34.2,5.2-44,6.7-4.9,15.6-7.3,20.3-14.1,5.3-7.7,3.2-18.4-1.3-26.6s-11.2-15-15.5-23.3-5.6-19.3.4-26.5c6.8-8,18.2-9.9,25.1-18.2,6.6-7.9,10-18.3,10.3-28.5C226.5,71.6,224.9,46.5,248.2,41.6Z" transform="translate(67.9 2.3)"/><path class="cls-11" d="M279.6,190a265.13,265.13,0,0,1,12.8,88c-.4,15.1,1.1,71.6.7,87-.2,7.8-.4,15.6-.6,23.3,0,.9-41.9.8-44.8.3-.3-6.4,1.5-12.6,1.3-19.3a136.4,136.4,0,0,1,2.1-27.1c2.9-17.7,8-34.9,11.6-52.5a288.15,288.15,0,0,0,4.5-82.9c-.9-10.1-2.3-20.2-3.5-30.3-.5-4.1-9.1-37.3,2.1-33.4,4.4,1.5,5.4,17.1,6.4,21.1C274.4,172.8,276.8,181.4,279.6,190Z" transform="translate(67.9 2.3)"/><path class="cls-3" d="M167.1,336.3a30.21,30.21,0,0,0,.5-12.7,2.1,2.1,0,0,0-.4-1.1,2.23,2.23,0,0,0-1.4-.3,4.49,4.49,0,0,0-3.2.9,3.92,3.92,0,0,0-.8,1.4,48.33,48.33,0,0,0-3.4,11.2c-.5,3-1.8,8.8-.5,11.6,1,2.3,2.7-1.2,3.8-2.4C164,342.2,166,339.8,167.1,336.3Z" transform="translate(67.9 2.3)"/><path class="cls-11" d="M158.72,348.57h-.12c-.49-.05-.87-.41-1.16-1.06-1.2-2.58-.33-7.42.25-10.63.08-.45.15-.87.22-1.25a48.35,48.35,0,0,1,3.43-11.32,4.21,4.21,0,0,1,.91-1.55,4.83,4.83,0,0,1,3.55-1.05,2.65,2.65,0,0,1,1.7.4,1.88,1.88,0,0,1,.53,1.12c0,.09,0,.17.05.26a30.24,30.24,0,0,1-.5,13h0c-1.16,3.68-3.27,6.15-5.5,8.77a13.05,13.05,0,0,0-.82,1.08C160.46,347.41,159.64,348.57,158.72,348.57Zm7.08-25.87a4.08,4.08,0,0,0-2.85.75,3.73,3.73,0,0,0-.69,1.24,47.54,47.54,0,0,0-3.37,11.1c-.06.37-.14.8-.22,1.26-.55,3.08-1.39,7.74-.32,10,.16.37.3.47.35.48h0c.4,0,1.26-1.2,1.72-1.85.32-.44.62-.86.89-1.16,2.15-2.52,4.2-4.92,5.29-8.41a29.32,29.32,0,0,0,.48-12.48l0-.26a1.06,1.06,0,0,0-.2-.56A2.06,2.06,0,0,0,165.8,322.7Z" transform="translate(67.9 2.3)"/><path class="cls-3" d="M93,402.7h62.4l.6-25.2c.2-8,8.1-51.9,7.8-66.9,0-1.2.4-4-.2-5.1a7.25,7.25,0,0,0-2.9-2.3c-8.2-4.2-17.7-5.7-27-5.1a83.31,83.31,0,0,0-26.8,6.8c-3.4,1.5-6.9,3.2-9.1,6.2-5.4,7.1-3.5,21.4-3.7,29.8-.2,13.1-.5,26.2-.7,39.2C93.2,387.7,93.1,395.2,93,402.7Z" transform="translate(67.9 2.3)"/><path class="cls-11" d="M155.89,403.2H92.49v-.51c.1-7.37.2-15,.4-22.6q.15-9.66.35-19.37c.12-6.6.25-13.22.35-19.83,0-1.79,0-3.87-.07-6.08-.21-8.15-.47-18.3,3.87-24,2.25-3.08,5.83-4.83,9.3-6.36a83.68,83.68,0,0,1,27-6.84,52.41,52.41,0,0,1,27.26,5.15,7.71,7.71,0,0,1,3.09,2.48c.54,1,.42,2.79.33,4.25,0,.44,0,.83,0,1.12.19,9.28-2.73,29.4-5.07,45.57-1.43,9.82-2.65,18.3-2.73,21.34Zm-62.38-1h61.4l.59-24.71c.08-3.1,1.31-11.61,2.74-21.47,2.34-16.13,5.24-36.21,5.06-45.41,0-.32,0-.73,0-1.2.08-1.18.19-3-.19-3.67a6.8,6.8,0,0,0-2.7-2.1,51.32,51.32,0,0,0-26.73-5,82.82,82.82,0,0,0-26.64,6.76c-3.33,1.47-6.77,3.15-8.89,6-4.14,5.44-3.88,15.39-3.67,23.39.06,2.21.11,4.3.07,6.12-.1,6.61-.23,13.23-.35,19.83s-.25,12.93-.35,19.37C93.7,387.54,93.6,395,93.51,402.2Z" transform="translate(67.9 2.3)"/><path class="cls-3" d="M225.9,98.9c-8.3,6.1-12.8,10.6-22.6,13.9,7.4,2,2.7,16.1,1.6,21.4-1.5,7.7-6.9,12.1-5.9,19.9a31.06,31.06,0,0,0,3.5,9.8,9.56,9.56,0,0,0,8.8,6.3c6.3,1,12.9,1.1,19-.7s11.8-5.5,15.2-11c5.4-9-2.1-17.9-7.4-27C237,129.4,225.6,99.1,225.9,98.9Z" transform="translate(67.9 2.3)"/><path class="cls-11" d="M219.81,171.41a54.49,54.49,0,0,1-8.59-.72,10,10,0,0,1-9.16-6.56,31.79,31.79,0,0,1-3.56-10c-.61-4.79,1.09-8.29,2.88-12a32.25,32.25,0,0,0,3-8.08c.15-.73.37-1.62.62-2.63,1.52-6.2,4.06-16.59-1.86-18.19l-1.59-.43,1.56-.52c7.76-2.62,12.22-6,17.87-10.36,1.41-1.08,2.9-2.23,4.54-3.43l.07-.06.29.42h.48c.18,1.29,11.08,30.34,12.15,32.38.79,1.36,1.66,2.75,2.5,4.1,4.73,7.62,9.63,15.49,4.89,23.39A26.86,26.86,0,0,1,230.44,170,37.59,37.59,0,0,1,219.81,171.41Zm-15.09-58.58c5.2,2.84,2.77,12.77,1.28,18.88-.25,1-.46,1.87-.61,2.59a32.67,32.67,0,0,1-3.11,8.31c-1.73,3.57-3.36,6.94-2.78,11.43a30.92,30.92,0,0,0,3.44,9.63,9.1,9.1,0,0,0,8.44,6c7.1,1.12,13.42.89,18.78-.69a25.87,25.87,0,0,0,14.92-10.78c4.41-7.37-.1-14.64-4.89-22.34-.84-1.36-1.71-2.76-2.52-4.15-.61-1.16-3.88-9.66-6.66-17.09-3.58-9.52-5-13.34-5.39-14.93-1.43,1.06-2.75,2.07-4,3C216.21,106.91,211.88,110.23,204.72,112.83Z" transform="translate(67.9 2.3)"/><path class="cls-3" d="M196.2,331.2q3.9,34.5,7.8,69.1a352.85,352.85,0,0,0,37.1-.7c-2.4-9.9-.9-20,.1-30a236.39,236.39,0,0,0-.8-52.5,281.22,281.22,0,0,0-46.2,14.1C195.6,332.1,196,329.8,196.2,331.2Z" transform="translate(67.9 2.3)"/><path class="cls-11" d="M216,401q-6,0-12-.2h-.43l-.05-.43q-3.74-33.21-7.47-66.24l-.29-2.53a1.48,1.48,0,0,1-1.81,0l-.81-.52.89-.36a280.73,280.73,0,0,1,46.28-14.13l.54-.11.07.54a238.26,238.26,0,0,1,.8,52.61c-.11,1.12-.23,2.24-.35,3.37-.92,8.73-1.87,17.76.24,26.46l.13.58-.58,0C233,400.7,224.57,401,216,401Zm-11.57-1.19a351.34,351.34,0,0,0,36-.67c-2-8.69-1-17.6-.13-26.23.12-1.12.24-2.24.35-3.36A236.87,236.87,0,0,0,240,317.7a283.94,283.94,0,0,0-43.35,13.06,3.11,3.11,0,0,1,.08.37h0L197,334Q200.74,366.86,204.45,399.81Z" transform="translate(67.9 2.3)"/><path class="cls-3" d="M263.8,316.4c.1,1.3-15,7-16.7,7.7-5.5,2.2-11,4.6-16.9,5.1-.4,10.1-.5,20.3.9,30.4,1.5,11,5,21.9,4.6,33a296.66,296.66,0,0,0,34-.1,86.66,86.66,0,0,1-1.1-12.5Q267.4,348,263.8,316.4Z" transform="translate(67.9 2.3)"/><path class="cls-11" d="M252,393.54c-5.4,0-10.87-.15-16.37-.44l-.49,0,0-.49c.26-7.28-1.2-14.62-2.61-21.72-.72-3.66-1.48-7.45-2-11.19-1.44-10.42-1.28-20.81-.9-30.49l0-.44.44,0c5.3-.45,10.38-2.5,15.29-4.48l1.46-.58,1.38-.55c11.86-4.64,14.72-6.25,15-6.79a.88.88,0,0,0,0,.14l1-.1c2.39,21,4,42.42,4.8,63.64l.07,1.56a74.73,74.73,0,0,0,1,10.86l.11.56-.57,0C263.94,393.36,258,393.54,252,393.54Zm-15.83-1.41A300.29,300.29,0,0,0,269.1,392a80.47,80.47,0,0,1-.93-10.46L268.1,380c-.78-20.84-2.36-41.87-4.68-62.52-1.46,1-5.25,2.8-14.76,6.52l-1.37.54-1.46.59c-4.85,2-9.86,4-15.15,4.51-.37,9.51-.5,19.69.91,29.87.51,3.72,1.26,7.49,2,11.14C235,377.66,236.4,384.89,236.21,392.13Z" transform="translate(67.9 2.3)"/><path class="cls-10" d="M240.6,137.3c1.2-.2,1.9,1.2,2.2,2.3a294.31,294.31,0,0,1,7.8,32.1c1.5,8.4,2.4,17,3.3,25.5,2.1,20.2,4.3,40.5,6.4,60.7,2.4,22.9,4.8,45.9,2.9,68.9a6,6,0,0,1-.9,3.2,5.74,5.74,0,0,1-2.6,1.6c-4.9,2-9.8,3.9-14.7,5.9-6.2,2.5-12.4,4.9-19,5.7-6,.7-12,0-17.9-.7-5.6-.7-11.2-1.3-16.8-2a7.76,7.76,0,0,1-3.3-.9c-1.9-1.3-2-4.1-1.9-6.5q1.35-35,2.8-69.9c1.3-34.2,4.4-68.4,6.5-102.5.4-7.5.9-15,2.8-22.3,5,7.8,15.6,16.3,25.5,14.4a21.83,21.83,0,0,0,10.7-5.4C235.3,146.4,240.5,137.3,240.6,137.3Z" transform="translate(67.9 2.3)"/><path class="cls-12" d="M177.7,114.1c1.6,1.5,3.6,2.6,5.1,4.3,1.8,2,2.3,5,2.1,7.7,0-.1,6.7-2.1,7.3-2.4,3.9-1.9,6.6-4.8,9.4-8a29,29,0,0,0,7.1-13.8,16.66,16.66,0,0,0-.1-8c-1.3-4.5-5.3-7.8-9.6-9.5s-9.1-1.9-13.8-1.8c-3,.1-8.6-.5-10.3,2.3C172.9,88.3,169.7,106.6,177.7,114.1Z" transform="translate(67.9 2.3)"/><path class="cls-3" d="M240.4,216.2c2.1,11.7,5,23.3,7.6,34.9a544.34,544.34,0,0,1,13.1,121.3c14.3-2.6,28.6-5.3,42.9-7.9-1.8-9.4-3.4-18.8-5-28.2-5.1-31.5-8.9-63.1-12.2-94.8-1.6-15.9-3.1-31.7-4.6-47.6-1.4-15-2-30.3-4.7-45.1a31.57,31.57,0,0,0-8.3-16.7,22.16,22.16,0,0,0-17.1-6.7c-2.8.2-5.3-.7-7.9-1.6a12.81,12.81,0,0,0-6.1-.9,1.85,1.85,0,0,0-.7.2c-1.5.9-.6,4.3-.6,5.6q.15,3.6,0,7.2c-.2,5.4-.4,10.9-.5,16.3C235.9,173.6,236.7,195.1,240.4,216.2Z" transform="translate(67.9 2.3)"/><path class="cls-11" d="M260.6,373v-.6a543.56,543.56,0,0,0-13.09-121.19c-.69-3.1-1.41-6.2-2.13-9.31-1.93-8.37-3.93-17-5.47-25.61h0c-3.27-18.65-4.58-39-4.11-64.1.1-5.23.28-10.48.5-16.31.1-2.38.1-4.78,0-7.16,0-.3-.05-.7-.1-1.17-.2-1.7-.48-4,.94-4.88a2.46,2.46,0,0,1,1-.27,13.46,13.46,0,0,1,6.27.93l.21.07c2.5.87,4.88,1.69,7.48,1.5a22.71,22.71,0,0,1,17.49,6.85,31.84,31.84,0,0,1,8.44,17c2,10.71,2.82,21.83,3.66,32.58.33,4.13.66,8.4,1.05,12.56,1.44,15.28,3,31.54,4.6,47.6,3.86,37.14,7.74,67.25,12.19,94.77,1.57,9.21,3.19,18.74,5,28.19l.1.49-.5.09q-10.77,2-21.53,4t-21.37,3.93ZM240.89,216.11c1.54,8.56,3.54,17.21,5.47,25.57.72,3.1,1.43,6.21,2.13,9.31A545,545,0,0,1,261.6,371.8Q272,369.91,282.37,368q10.53-2,21-3.87c-1.77-9.3-3.36-18.66-4.9-27.72-4.46-27.54-8.34-57.67-12.21-94.83-1.61-16.07-3.16-32.33-4.6-47.6-.39-4.18-.72-8.45-1-12.58-.84-10.73-1.71-21.82-3.65-32.48a31,31,0,0,0-8.16-16.44,21.72,21.72,0,0,0-16.71-6.55c-2.84.2-5.29-.65-7.89-1.55l-.21-.08a12.47,12.47,0,0,0-5.87-.87,1.3,1.3,0,0,0-.55.15c-.83.5-.59,2.53-.43,3.88a11.68,11.68,0,0,1,.11,1.27c.1,2.38.1,4.82,0,7.22-.22,5.82-.4,11.06-.5,16.29-.47,25,.83,45.32,4.09,63.9Z" transform="translate(67.9 2.3)"/><path class="cls-3" d="M167.6,150c10.5-10.4,24-17.2,37.3-23.8-.8,8.5-1.6,17-2.5,25.6s-1.7,17.4-2,26.1-.1,17.6.1,26.4q1.8,83.1.2,166.3c-9.3-.1-23.1-.3-32.4-.4-1-34.2,5-148.9,4.9-168.8a158.12,158.12,0,0,1-49.4,26.8c6.3-2.1-2.8-29.8-3.9-34.6,7.8-.7,17.1-7.8,28.2-20.4C155.4,165.3,159.7,157.8,167.6,150Z" transform="translate(67.9 2.3)"/><path class="cls-11" d="M201.19,371.1h-.5l-16.2-.2-16.2-.2h-.48v-.49c-.62-21.2,1.44-73,3.09-114.59,1-24,1.78-44.82,1.81-53.18A157.71,157.71,0,0,1,124,228.67l-.32-.94c4.84-1.62-1-22.34-3.18-30.13-.48-1.74-.87-3.11-1-3.89l-.13-.56.57-.05c7.34-.66,16.46-7.27,27.88-20.23,3.23-3.5,5.91-7,8.5-10.32a122.14,122.14,0,0,1,11-12.91C178,139,192.18,132,204.68,125.75l.8-.4-.08.9c-.79,8.33-1.6,16.95-2.5,25.6l-.35,3.73c-.68,7.32-1.39,14.9-1.65,22.34-.3,8.79-.1,17.73.1,26.37,1.21,55.92,1.28,111.88.2,166.32Zm-32.4-1.39c4.56,0,10.14.12,15.72.19l15.7.19c1.07-54.27,1-110-.21-165.78-.2-8.65-.4-17.6-.1-26.43.26-7.47,1-15,1.65-22.39l.35-3.74c.87-8.34,1.66-16.65,2.42-24.7-12.23,6.07-25.95,13-36.37,23.31h0A120.66,120.66,0,0,0,157,163.16c-2.6,3.37-5.3,6.86-8.55,10.38C137.18,186.36,128,193.07,120.52,194c.2.78.52,1.92.91,3.28,3.63,12.92,6.54,25.19,4.3,29.7a156.75,156.75,0,0,0,47.16-26l.8-.65v1c0,7.58-.82,29.21-1.81,54.26C170.25,296.94,168.21,348.24,168.79,369.71Z" transform="translate(67.9 2.3)"/><path class="cls-8" d="M272,269.8c6.2.4,21.8,1.2,27.7,1.5a2.33,2.33,0,0,1,2.2,2.4l-.4,12.4a2.35,2.35,0,0,1-2.4,2.3l-27.3-.9a2.33,2.33,0,0,1-2.3-2.3V272.1A2.38,2.38,0,0,1,272,269.8Z" transform="translate(67.9 2.3)"/><path class="cls-3" d="M281.9,270.1a9.15,9.15,0,0,1,1.7.1c.1,3.9.3,7.9.6,11.8a2.9,2.9,0,0,0,.5,1.8,1.18,1.18,0,0,0,1.6.4,2.92,2.92,0,0,0,1.3,2.4c1.3.6,2-.9,2.3-1.9,0,.5.6.9,1.1,1,1.9.1,2.4-2.5,2.7-3.9.2.5,1,.5,1.5.2a2,2,0,0,0,.8-1.5,49.42,49.42,0,0,0,1.4-7.5,10.77,10.77,0,0,0,.1-4,16.84,16.84,0,0,0-1.7-4.2,44.46,44.46,0,0,1-3-7.1,3.29,3.29,0,0,0-.7-1.3,4.05,4.05,0,0,0-.9-.5,6.81,6.81,0,0,0-6,1.1c-1.8,1.5-2.2,3.5-2.5,5.6C282.7,263.1,281.8,270.1,281.9,270.1Z" transform="translate(67.9 2.3)"/><path class="cls-11" d="M288.17,287.24a1.75,1.75,0,0,1-.78-.19,3.05,3.05,0,0,1-1.49-2.17,1.91,1.91,0,0,1-1.59-.77,3.31,3.31,0,0,1-.61-2.11c-.28-3.68-.48-7.52-.59-11.37-.37,0-.8,0-1.21,0h-.22l-.16-.17c-.19-.22-.19-.22.33-4.68.16-1.38.35-2.95.35-3.15.32-2.27.76-4.39,2.68-6a7.31,7.31,0,0,1,6.46-1.2,5,5,0,0,1,1,.56,3.12,3.12,0,0,1,.79,1.29l.09.24a45,45,0,0,0,3,7.06l.2.39A15.18,15.18,0,0,1,298,268.9a11.2,11.2,0,0,1-.1,4.18,48.5,48.5,0,0,1-1.41,7.55,2.45,2.45,0,0,1-1,1.8,1.92,1.92,0,0,1-1.43.22c-.37,1.54-1,3.67-3.06,3.55a2.45,2.45,0,0,1-1-.41,2.7,2.7,0,0,1-1.2,1.31A1.58,1.58,0,0,1,288.17,287.24Zm-1.46-4,.09.91a2.44,2.44,0,0,0,1,2,.61.61,0,0,0,.59,0,2.59,2.59,0,0,0,1-1.62l1-3.26v3.4c0,.16.33.44.7.51,1.2.06,1.73-1.72,2.09-3.4l.36-1.72.61,1.52s0,.05.1.07a.94.94,0,0,0,.68-.11,1.57,1.57,0,0,0,.57-1.15,48.57,48.57,0,0,0,1.39-7.48,10.45,10.45,0,0,0,.11-3.83,14.55,14.55,0,0,0-1.46-3.7l-.2-.39a45.3,45.3,0,0,1-3-7.17l-.08-.22a2.36,2.36,0,0,0-.49-.88,3.68,3.68,0,0,0-.71-.37,6.29,6.29,0,0,0-5.54,1c-1.63,1.36-2,3.19-2.3,5.27,0,.15-.11,1.1-.36,3.2-.15,1.28-.34,2.93-.42,3.73a7.44,7.44,0,0,1,1.28.11l.39.08v.4c.1,4,.3,7.93.6,11.77a2.44,2.44,0,0,0,.39,1.53,1.14,1.14,0,0,0,.52.37.38.38,0,0,0,.38-.05Z" transform="translate(67.9 2.3)"/><path class="cls-3" d="M261.1,168.9c2.7,10.5,6,67.7,5.6,91.9,12.4,0,24.8,0,37.2-.1a1096.56,1096.56,0,0,0-20.9-109c-1.3-5.3-2.7-10.6-5.5-15.3-6.7-11.1-21-14-32.6-16.9-1.6-.4-8.5-.8-10.1-1.3" transform="translate(67.9 2.3)"/><path class="cls-11" d="M266.7,261.3h-.51v-.51c.38-23.25-2.84-81.08-5.58-91.77l1-.24c2.75,10.66,6,67.9,5.63,91.52,11.84,0,24.07,0,36.12-.09a1099.72,1099.72,0,0,0-20.82-108.39c-1.37-5.6-2.73-10.61-5.44-15.16-6.18-10.24-18.89-13.37-30.1-16.13l-2.19-.55c-.7-.17-2.59-.36-4.43-.54a44.69,44.69,0,0,1-5.7-.76l.3-1a45.14,45.14,0,0,0,5.5.73A43.34,43.34,0,0,1,245,119l2.19.54c11.4,2.81,24.33,6,30.72,16.58,2.78,4.67,4.21,10,5.56,15.44a1105.28,1105.28,0,0,1,20.91,109l.07.57h-.57C291.5,261.3,278.89,261.3,266.7,261.3Z" transform="translate(67.9 2.3)"/><path class="cls-3" d="M189.6,146.7c0,.1.1.2.2.4.7,1.2,2.1,1.8,2.5,3.1a3.48,3.48,0,0,1-.6,2.9c-2,3.1-5.2,4.6-4.5,8.8.3,1.7,5.8,16.9,6.9,20.7,2.2,7.8,4.4,15.5,6.6,23.3h0c.4-13.8.8-42.9,1.8-54.1a254.65,254.65,0,0,1,4.7-27.9A43.49,43.49,0,0,0,195,135.5a44.92,44.92,0,0,0-3.7,5.9C190.3,142.8,188.9,144.9,189.6,146.7Z" transform="translate(67.9 2.3)"/><path class="cls-11" d="M201.11,209.18l-.89-3.14c-1.09-3.87-2.18-7.71-3.27-11.55s-2.22-7.82-3.33-11.75c-.51-1.75-2-6-3.39-10.1-1.73-5-3.35-9.7-3.52-10.65-.54-3.21,1-5,2.67-6.79a19.52,19.52,0,0,0,1.9-2.37,3.06,3.06,0,0,0,.55-2.47,4,4,0,0,0-1.2-1.57,6.3,6.3,0,0,1-1.26-1.44l-.1-.18a1,1,0,0,1-.16-.35c-.78-2.13.89-4.45,1.78-5.71a44.87,44.87,0,0,1,3.71-5.91,43.4,43.4,0,0,1,12.34-11.73l1-.62-.28,1.17A251.33,251.33,0,0,0,203,151.84c-.74,8.32-1.15,26.46-1.48,41-.12,5-.22,9.51-.32,13Zm-11-62.56a1.87,1.87,0,0,1,.15.26,5.49,5.49,0,0,0,1.06,1.18,4.76,4.76,0,0,1,1.47,2,4,4,0,0,1-.66,3.33,20.17,20.17,0,0,1-2,2.48c-1.55,1.73-2.89,3.23-2.44,6,.16.87,1.85,5.76,3.48,10.49,1.43,4.12,2.9,8.38,3.41,10.15q1.66,5.91,3.33,11.75c.79,2.8,1.59,5.59,2.38,8.39.07-2.89.15-6.21.23-9.76.33-14.58.74-32.73,1.48-41.08A255.64,255.64,0,0,1,206.44,125a43.56,43.56,0,0,0-11,10.83,45,45,0,0,0-3.66,5.83c-.77,1.1-2.31,3.25-1.67,4.89Z" transform="translate(67.9 2.3)"/><path class="cls-11" d="M184.76,213.47l-.32-.94c7.52-2.61,11.32-10.55,12.37-17.11.92-5.79.33-11.78-.25-17.57-.16-1.67-.33-3.34-.46-5-1.24-15.59,3.16-44.56,10.73-49.46l.54.84c-6.67,4.32-11.6,31.88-10.27,48.54.13,1.66.3,3.33.46,5,.58,5.86,1.18,11.91.23,17.83C196.7,202.42,192.7,210.72,184.76,213.47Z" transform="translate(67.9 2.3)"/><circle class="cls-11" cx="252.5" cy="215.3" r="4.7"/><path class="cls-3" d="M220.3,94.3a24.81,24.81,0,0,1-.4,8.6,23.82,23.82,0,0,1-8,12.2,45.13,45.13,0,0,1-12.9,7.1c-1.5.6-3.2,1.1-4.6.3a5.17,5.17,0,0,1-1.6-1.7c-1.7-2.5-3.4-4.9-5.1-7.4-.5-.7-1.2-1.6-2.1-1.6a8.08,8.08,0,0,1-1.6.1c-1.7-.2-1.7-2.6-1.7-4.2,0-2.7-1.4-5.3-2.3-7.9-1.8-4.8-3.3-12.4,0-16.8s7.8-8.1,13.2-9a28.12,28.12,0,0,1,5.8-.1C210.7,74.9,219.1,82.3,220.3,94.3Z" transform="translate(67.9 2.3)"/><path class="cls-11" d="M196.05,123.42a3.74,3.74,0,0,1-1.9-.49,5.66,5.66,0,0,1-1.77-1.85c-.84-1.25-1.69-2.47-2.54-3.7s-1.7-2.45-2.55-3.7c-.51-.71-1.08-1.38-1.69-1.38a4.4,4.4,0,0,0-.51,0,3.2,3.2,0,0,1-1.17,0c-2.12-.24-2.12-3-2.12-4.69a16,16,0,0,0-1.5-5.7c-.27-.68-.54-1.36-.77-2-1-2.67-4-11.86.07-17.26,2.2-3,6.89-8.09,13.52-9.19A28,28,0,0,1,199,73.4c12.25,1,20.59,9,21.77,20.85a25.24,25.24,0,0,1-.41,8.77,24.11,24.11,0,0,1-8.17,12.46,45.6,45.6,0,0,1-13,7.19A8.8,8.8,0,0,1,196.05,123.42ZM185.6,111.3c1.21,0,2.06,1.18,2.51,1.81.85,1.26,1.7,2.48,2.55,3.7s1.7,2.46,2.55,3.71a4.86,4.86,0,0,0,1.44,1.55c1.21.69,2.79.22,4.16-.33,4.1-1.61,8.81-3.69,12.77-7a23.22,23.22,0,0,0,7.84-11.94,24,24,0,0,0,.38-8.43h0C218.65,82.87,210.86,75.42,199,74.4a27.75,27.75,0,0,0-5.68.09c-6.28,1.05-10.77,6-12.88,8.81-3,4-1.92,11,.07,16.32.23.68.49,1.34.76,2a16.88,16.88,0,0,1,1.57,6.07c0,1.8.1,3.57,1.26,3.7a2.87,2.87,0,0,0,.88,0A3.7,3.7,0,0,1,185.6,111.3Z" transform="translate(67.9 2.3)"/><path class="cls-3" d="M183.7,98.9a5.83,5.83,0,0,1,3.6-2.3,16.13,16.13,0,0,1,4.4-.1h-1.1" transform="translate(67.9 2.3)"/><path class="cls-11" d="M184.12,99.18l-.84-.56a6.36,6.36,0,0,1,3.92-2.51,16.74,16.74,0,0,1,4.53-.11l0,1h-1.1v-.07a12.51,12.51,0,0,0-3.2.16A5.32,5.32,0,0,0,184.12,99.18Z" transform="translate(67.9 2.3)"/><path class="cls-3" d="M188,101.5a11.58,11.58,0,0,0,4.8-1.4" transform="translate(67.9 2.3)"/><path class="cls-11" d="M188,102l-.06-1a11,11,0,0,0,4.59-1.34l.48.88A12.14,12.14,0,0,1,188,102Z" transform="translate(67.9 2.3)"/><path class="cls-3" d="M180.8,102.9c.7-.3,1.4-.5,2.1-.8" transform="translate(67.9 2.3)"/><path class="cls-11" d="M181,103.36l-.4-.92c.36-.15.72-.28,1.08-.41s.68-.24,1-.39l.4.92c-.36.15-.72.28-1.08.41S181.34,103.21,181,103.36Z" transform="translate(67.9 2.3)"/><path class="cls-3" d="M112.3,181.8c-1.1-3.7-2.6-7.4-3.6-11.1-2.3-8.2-1.7-19.7,7.4-23.6a20.56,20.56,0,0,1,8.5-1.4c5.5,0,11.5,1.4,14.6,5.8,1.6,2.2,2.2,5,2.8,7.7,1.2,5.8,2.6,13.2,1,19.1a6,6,0,0,1-3.3,4.1,12.54,12.54,0,0,0-2.5.9c-4,2.4-2.4,8.7-.8,12.1,1.8,4,7.8,9,1.5,12a26.53,26.53,0,0,1-10.5,2c-3.6.2-14,.2-15.2-4.7-.2-1,.7-2.7,1-3.8a27.45,27.45,0,0,0,.8-5,35.52,35.52,0,0,0-.4-9.2C113.2,185,112.7,183.4,112.3,181.8Z" transform="translate(67.9 2.3)"/><path class="cls-11" d="M125,210c-4.55,0-12.14-.69-13.24-5.15a5.94,5.94,0,0,1,.62-2.94c.15-.4.3-.79.39-1.11a26.85,26.85,0,0,0,.78-4.9,34.72,34.72,0,0,0-.39-9.09c-.22-.91-.47-1.83-.73-2.74-.19-.71-.39-1.41-.56-2.11-.49-1.63-1.06-3.29-1.62-4.9-.7-2-1.42-4.13-2-6.2-2.61-9.28-1.24-20.37,7.68-24.19a21.13,21.13,0,0,1,8.7-1.44c4,0,11.32.78,15,6,1.62,2.24,2.24,5,2.84,7.73l0,.15c1.31,6.32,2.57,13.54,1,19.34a6.51,6.51,0,0,1-3.59,4.43c-.31.12-.61.2-.92.29a5.75,5.75,0,0,0-1.5.57c-3.7,2.22-2.13,8.25-.62,11.47a23.09,23.09,0,0,0,1.79,3c1.49,2.24,3,4.56,2.44,6.69a4.91,4.91,0,0,1-3,3c-3.51,1.65-7.56,2-10.7,2.05C126.81,209.93,126,210,125,210Zm-.35-63.77a20,20,0,0,0-8.3,1.36c-9.56,4.1-9,16.39-7.12,23,.55,2.05,1.27,4.13,2,6.14.56,1.62,1.14,3.3,1.63,5v0c.18.7.37,1.39.57,2.1.25.91.51,1.84.74,2.81a36,36,0,0,1,.41,9.36,28.14,28.14,0,0,1-.81,5.07c-.1.36-.26.78-.42,1.21a5.73,5.73,0,0,0-.58,2.37c.91,3.72,8.48,4.65,14.68,4.3,3-.08,7-.38,10.32-2a4,4,0,0,0,2.43-2.35c.47-1.69-1-3.81-2.31-5.86a24.44,24.44,0,0,1-1.87-3.14c-1.65-3.5-3.3-10.15,1-12.73a6.43,6.43,0,0,1,1.76-.69,7.1,7.1,0,0,0,.82-.25,5.41,5.41,0,0,0,3-3.76c1.64-6.06,0-14.08-1-18.87l0-.15c-.58-2.6-1.18-5.28-2.68-7.36C135.37,146.93,128.43,146.2,124.6,146.2Z" transform="translate(67.9 2.3)"/><path class="cls-3" d="M114.1,171.2c1.6,4,3.9,5.7,7.8,7.4a39.45,39.45,0,0,0,11.6,3.3" transform="translate(67.9 2.3)"/><path class="cls-11" d="M133.44,182.4a40,40,0,0,1-11.75-3.35c-3.91-1.7-6.36-3.43-8-7.66l.92-.38c1.57,3.92,3.86,5.53,7.54,7.13a38.76,38.76,0,0,0,11.46,3.26Z" transform="translate(67.9 2.3)"/><path class="cls-3" d="M126.3,157.7a10.19,10.19,0,0,1,3-2.1,5.5,5.5,0,0,1,5.5.9" transform="translate(67.9 2.3)"/><path class="cls-11" d="M126.68,158l-.38-.33-.28-.42a10.44,10.44,0,0,1,3.11-2.15,6,6,0,0,1,6,1l-.66.76a5,5,0,0,0-5-.81A9.67,9.67,0,0,0,126.68,158Z" transform="translate(67.9 2.3)"/><path class="cls-3" d="M139.4,157.4c.7-.6,2.2.1,2.4,1" transform="translate(67.9 2.3)"/><path class="cls-11" d="M141.31,158.51a1.29,1.29,0,0,0-.86-.77.79.79,0,0,0-.72,0l-.66-.76a1.73,1.73,0,0,1,1.7-.22,2.23,2.23,0,0,1,1.52,1.49Z" transform="translate(67.9 2.3)"/><path class="cls-13" d="M141.8,161.2" transform="translate(67.9 2.3)"/><path class="cls-3" d="M142.3,161.4a3.74,3.74,0,0,0-3.1-.3" transform="translate(67.9 2.3)"/><path class="cls-11" d="M142,161.8a3.3,3.3,0,0,0-2.64-.23l-.32-.94a4.17,4.17,0,0,1,3.56.37Z" transform="translate(67.9 2.3)"/><path class="cls-7" d="M120.4,203.7c2.9,1,5.9,2,8.9,1.3,4.1-.9,7-4.7,10.7-6.7a2,2,0,0,1,1.1-.3,2.18,2.18,0,0,1,.8.5c4,3.8,6.9,8.6,9.5,13.5,3.4,6.5,6.4,13.2,8,20.4a109.61,109.61,0,0,1,2.2,17.1c1.5,20.3,2.1,40.8,2,61.2a1.79,1.79,0,0,1-.4,1.4,2.54,2.54,0,0,1-1.3.5,89.64,89.64,0,0,0-22.2,5.2c-6.6,2.4-12.9,5.6-19.8,6.7s-14.7-.3-19.2-5.8c-3.9-4.8-4.3-11.5-4.4-17.7-.4-12.1-.7-24.1-1.1-36.2-.3-11.5-.7-23.1.5-34.5.7-6.8,2.6-13.1,4-19.7.3-1.2.5-2.4.8-3.6a14.36,14.36,0,0,1,1.9-3.1,18.67,18.67,0,0,1,2.6-3,7.58,7.58,0,0,1,3.8-1.6c1.7-.2,2.5.4,3.9,1C115.5,201.5,117.8,202.8,120.4,203.7Z" transform="translate(67.9 2.3)"/><path class="cls-11" d="M127.39,396.38l-1-.16c1-6.54,1.06-13.31,1.08-19.85,0-2.82,0-5.73.11-8.59.38-12.39,2.52-24.79,4.58-36.78l.33-1.88,1,.17-.32,1.88c-2.06,11.95-4.19,24.32-4.57,36.65-.09,2.84-.1,5.74-.11,8.55C128.47,383,128.45,389.76,127.39,396.38Z" transform="translate(67.9 2.3)"/><path class="cls-12" d="M215.3,73.9c-2.8-2.7-6-5.3-9.7-6.3a19,19,0,0,0-12.2,1.2,45,45,0,0,0-15.5,11.1c-1.1,1.2-2.2,2.9-1.6,4.4a4.86,4.86,0,0,0,1.5,1.7c3.2,2.4,7.2,3.6,11.1,4.4a68.34,68.34,0,0,0,9.9,1.7c1.2.1,2.4,10.1,2.5,11.3a48.21,48.21,0,0,1-.3,11.4c6,.9,11.8-2.3,17.7-3.8a32.17,32.17,0,0,1,14.8-.1s-.7-5.1-.8-5.7a44.22,44.22,0,0,0-2.3-8.1,89.87,89.87,0,0,0-7.8-14.7A44.52,44.52,0,0,0,215.3,73.9Z" transform="translate(67.9 2.3)"/><path class="cls-11" d="M198.52,92.33c-1.48-5.72-6.47-12.18-10.39-16.6l.74-.66c4,4.49,9.09,11.09,10.61,17Z" transform="translate(67.9 2.3)"/><path class="cls-11" d="M179.65,100.38l-.27-1a17.27,17.27,0,0,1,2.15-.52l.14,1A14.71,14.71,0,0,0,179.65,100.38Z" transform="translate(67.9 2.3)"/><path class="cls-3" d="M248.9,144.7c0,2,1.3,2.9,2.6,4.1.9.9,2.7,2.4,2.9,3.7a10.12,10.12,0,0,1-.5,4.2,230,230,0,0,1-8.7,25.8c-1.6,3.9-3.4,7.7-4.8,11.7-.6,1.8-1.9,9.3-1.7,10.7-6.8-41-.1-62.5-7.6-91.4,6.3,2.6,20.7,13.9,24.2,24.2-1.9,2.4-6.3,3.4-6.4,6.9Z" transform="translate(67.9 2.3)"/><path class="cls-11" d="M238.21,205c-3.31-19.94-3.43-35.43-3.54-49.09-.11-14.73-.21-27.46-4-42.26l-.26-1,.93.38c6.63,2.73,21,14.11,24.48,24.5l.09.26-.17.21a12.45,12.45,0,0,1-2.85,2.36c-1.74,1.17-3.38,2.27-3.44,4.24v.09c0,1.54.87,2.33,2,3.32l.46.41.51.49c1,1,2.35,2.25,2.54,3.5a10.54,10.54,0,0,1-.51,4.42,229.56,229.56,0,0,1-8.72,25.85c-.53,1.3-1.09,2.59-1.64,3.87-1.09,2.53-2.22,5.15-3.15,7.81-.6,1.8-1.85,9.22-1.67,10.46Zm-6.37-90.6c3.62,14.5,3.72,27,3.83,41.51.1,12.69.21,27,2.89,44.93a55.94,55.94,0,0,1,1.37-6.78c.94-2.69,2.07-5.33,3.17-7.87.55-1.28,1.11-2.57,1.64-3.86a233,233,0,0,0,8.68-25.74,9.74,9.74,0,0,0,.49-4c-.15-.91-1.41-2.12-2.25-2.92l-.51-.5-.44-.39c-1.13-1-2.31-2.07-2.31-4.06v-.1c.07-2.5,2-3.8,3.88-5.06a13.1,13.1,0,0,0,2.45-1.94C251.36,128.16,238.46,117.59,231.84,114.38Z" transform="translate(67.9 2.3)"/><path class="cls-11" d="M249.1,219.43a6.18,6.18,0,0,1-1-.09,7.4,7.4,0,0,1-4.77-3.06c-1.61-2.32-2.11-5.47-1.48-9.36a57,57,0,0,1,2.77-10.07c.39-1.13.78-2.26,1.14-3.4a41.86,41.86,0,0,0,2-12.67,209.46,209.46,0,0,0-.69-22.46v-.19c-.11-1.68-.2-3.36-.29-5-.43-7.64-.83-14.85-2.69-22.08-1.62-6.57-3.79-11-10.6-15.61l.56-.82c7.08,4.78,9.33,9.38,11,16.19,1.89,7.32,2.31,14.92,2.71,22.27.1,1.67.19,3.34.3,5v.18a213.89,213.89,0,0,1,.69,22.57,43.59,43.59,0,0,1-2,12.94c-.36,1.14-.75,2.28-1.14,3.42a56.85,56.85,0,0,0-2.74,9.89c-.58,3.63-.14,6.54,1.32,8.65a6.59,6.59,0,0,0,4.12,2.64,4.3,4.3,0,0,0,3.28-.67l.58.81A5,5,0,0,1,249.1,219.43Z" transform="translate(67.9 2.3)"/><path class="cls-11" d="M256.23,215.74l-.46-.88a7.36,7.36,0,0,0,4.14-7.79c-.9-5.47-2.08-11.15-5.78-15.13-1.4-1.52-2.66-2.26-4-2.34s-3,2.46-4.29,6.45l-1-.3c.71-2.17,2.61-7.15,5.19-7.15h.12a7.22,7.22,0,0,1,4.64,2.66c3.88,4.19,5.1,10,6,15.66A8.39,8.39,0,0,1,256.23,215.74Z" transform="translate(67.9 2.3)"/><path class="cls-11" d="M256.93,196.07a67.91,67.91,0,0,0-3.83-8.23c-2.54-4.92-5.17-10-5.3-14.53l1,0c.12,4.3,2.7,9.27,5.19,14.09a69.23,69.23,0,0,1,3.88,8.35Z" transform="translate(67.9 2.3)"/><path class="cls-11" d="M128.7,148.7c1.2,0,2.5.1,3.7.1,5,.1,8.2,3.8,10,8.6a21,21,0,0,0-1.4-6.6,5.64,5.64,0,0,1,2,1.1,16.82,16.82,0,0,0-8.6-10.7,23.64,23.64,0,0,0-13.3-2.4,28.06,28.06,0,0,0-17.2,7.5,23,23,0,0,0-7.1,17.9c.4,6.1,3.5,11.5,6.5,16.7,2.5,4.3,4.9,8.6,7.4,12.9a9.66,9.66,0,0,0,3.1-9.1,6.89,6.89,0,0,0,1.3,1.1c.1-4.2-2.5-8.7-4.1-12.4a13.32,13.32,0,0,1-1-2.8c-.2-1.2-.7-2.8.5-3.6a4.49,4.49,0,0,1,2.3-.4,4.66,4.66,0,0,1,2,.6c.1-2,1.2-4.4,1.7-6.4a30.26,30.26,0,0,0,1.2-5,21,21,0,0,0-.3-7.5C121.3,148.5,125,148.6,128.7,148.7Z" transform="translate(67.9 2.3)"/><path class="cls-3" d="M112.8,166.8a2.71,2.71,0,0,0-3,1,4.05,4.05,0,0,0-.7,3.2,7.12,7.12,0,0,0,3.1,5.2c.9.6,2,1.2,3,.8,1.3-.6,1.2-2.4,1-3.8" transform="translate(67.9 2.3)"/><path class="cls-11" d="M114.5,177.63a4.91,4.91,0,0,1-2.58-1,7.68,7.68,0,0,1-3.32-5.56,4.57,4.57,0,0,1,.8-3.57,3.2,3.2,0,0,1,3.57-1.16l-.34.94a2.23,2.23,0,0,0-2.44.84,3.53,3.53,0,0,0-.6,2.8,6.62,6.62,0,0,0,2.9,4.88c.81.54,1.75,1.06,2.52.75s1-1.36.7-3.27l1-.14c.14,1.05.49,3.5-1.29,4.32A2.27,2.27,0,0,1,114.5,177.63Z" transform="translate(67.9 2.3)"/><path class="cls-8" d="M104.9,248.3c.1-5.8-.6-11.9,1.1-17.5,2.2-7.3,7.9-7.7,6.1-20.1a37.48,37.48,0,0,1,0-6.7c.5-3.6,1-4.4,1.3-7.5-9,.9-17.9,6.1-24.5,12.5-4.3,4.2-5.3,8.5-6.7,14.3-2.6,10.9-3.6,22.1-5.5,33.1-1.3,7.5-3,15-4.8,22.4-1.6,7-6.9,37.7-7.1,40.9l17.1,1.5c-.2,0-.2,4.4-.3,4.7-.2,2-1.1,4-1.5,6.1-.6,3.2-.4,6.8,1.7,9.2a12.43,12.43,0,0,0,3.5,2.5c5.6,3.1,11.6,6.4,18.2,6.3,1.1-10.9,2-21.7,2.4-32.6.5-15.3-.3-30.7-.8-46C104.9,263.6,104.8,255.9,104.9,248.3Z" transform="translate(67.9 2.3)"/><path class="cls-8" d="M153.6,226.4c2.8,10.7,3.4,21.8,4,32.9,1.6,31,3.4,62.2,10.4,92.5,2-.1,2.4-1.3,4.4-1.4-2.3-21.1,2.2-110.1-3.6-123.8-1.2-2.8-3-6-3.3-9a2.81,2.81,0,0,1,1-2.6c.5-.3,1.1-.4,1.6-.7a1.51,1.51,0,0,0,.9-1.4,2.12,2.12,0,0,0-.3-.7c-4.1-5.8-8.7-9.1-14.9-12.2a40,40,0,0,0-8.2-2.9,73.17,73.17,0,0,0-9.1-1.8c.3,2.7,3,5,4.3,6.8,1.7,2.3,3.7,4.2,5.3,6.7A65.33,65.33,0,0,1,153.6,226.4Z" transform="translate(67.9 2.3)"/><path class="cls-11" d="M95,214.92a11.27,11.27,0,0,1-3.25-.44l.27-1a.28.28,0,0,0-.12,0c.79-.27,3.72-4.93,5.13-7.16.81-1.29,1.4-2.23,1.67-2.57A21.81,21.81,0,0,1,113.45,196l.1,1a20.77,20.77,0,0,0-14.06,7.42c-.24.29-.87,1.29-1.6,2.46a52.42,52.42,0,0,1-4.76,6.89c2.41.41,4.92-.09,7.55-.61a39.52,39.52,0,0,1,5-.76c1.48-.08,4.1.07,5,2.1l-.92.4c-.67-1.53-3-1.56-4-1.5a38.56,38.56,0,0,0-4.86.74A30,30,0,0,1,95,214.92Z" transform="translate(67.9 2.3)"/><path class="cls-3" d="M74.7,339.9a12.32,12.32,0,0,0,6.4,5.7,11.41,11.41,0,0,0,4.1.7,5.68,5.68,0,0,0,2.9-.3,2.6,2.6,0,0,0,1.6-2.2.6.6,0,0,0-.1-.4.76.76,0,0,0-.4-.2c-2.9-.7-5.7-.7-6.8-4a12.52,12.52,0,0,1-.5-5.1c2.1.7,4.3,4.6,5.4,6.4a1.76,1.76,0,0,0,.9.8,1.08,1.08,0,0,0,1.1-.6,3,3,0,0,0,.2-1.3c-.1-3.5-1.3-5.6-2.7-8.7s-4.3-6.3-4.7-9.6c.1.3-8.5-.7-8.5-.7s-1.3,11.4-.3,15.4A12.47,12.47,0,0,0,74.7,339.9Z" transform="translate(67.9 2.3)"/><path class="cls-11" d="M86.19,346.86c-.37,0-.72,0-1-.06a11.43,11.43,0,0,1-4.23-.73,12.75,12.75,0,0,1-6.66-5.93h0a13.21,13.21,0,0,1-1.46-4.27c-1-4,.25-15.06.3-15.53l.06-.49.5,0c3.14.37,6.66.72,7.88.76L81,316.23l1.65,5,0,.05c.3,2,1.56,4,2.78,6a33.31,33.31,0,0,1,1.84,3.25c.19.41.37.79.54,1.17,1.18,2.56,2.12,4.58,2.21,7.73a3.42,3.42,0,0,1-.25,1.53,1.58,1.58,0,0,1-1.67.87,2.24,2.24,0,0,1-1.2-1l-.31-.51c-.95-1.58-2.62-4.36-4.21-5.39a10.66,10.66,0,0,0,.51,4.14c.84,2.53,2.71,2.91,5.08,3.4.44.09.88.18,1.33.29a1.26,1.26,0,0,1,.67.34,1,1,0,0,1,.25.75,3.09,3.09,0,0,1-1.9,2.66A5.13,5.13,0,0,1,86.19,346.86Zm-11-7.2a11.76,11.76,0,0,0,6.13,5.47,10.84,10.84,0,0,0,3.93.67,5.3,5.3,0,0,0,2.7-.26,2.1,2.1,0,0,0,1.3-1.74v-.09s0,0-.06,0l-1.39-.29c-2.36-.49-4.81-1-5.82-4a13,13,0,0,1-.53-5.29l0-.65.62.2c2.1.71,4.15,4.1,5.37,6.13l.3.49c.07.11.34.51.59.57s.42-.12.53-.33A2.58,2.58,0,0,0,89,339.4c-.08-2.93-1-4.87-2.12-7.32q-.25-.57-.54-1.17a29.52,29.52,0,0,0-1.78-3.14,19,19,0,0,1-2.88-6.13c-.92,0-2.92-.14-7.64-.68-.23,2.22-1.1,11.32-.26,14.72A12.06,12.06,0,0,0,75.14,339.66Z" transform="translate(67.9 2.3)"/><path class="cls-11" d="M89.9,322.33l-12.44-.93.08-1,11.56.87c2-9.57,12.78-73.14,11.4-87.32l1-.1C102.91,248.36,91.72,314,90,321.91Z" transform="translate(67.9 2.3)"/><path class="cls-3" d="M97.7,202.1a34.79,34.79,0,0,0-7.3,1.2c-3.4,1.1-5.7,4.6-7.2,7.7-2.6,5.1-3.5,11.7,1.3,16a4.7,4.7,0,0,0,.9.6c2.1.6,3-3.3,3.5-4.6a14,14,0,0,0,.9-2.9,24.19,24.19,0,0,0,1.4-7c0-1.1-.1-2.2,0-3.3" transform="translate(67.9 2.3)"/><path class="cls-11" d="M85.84,228.17a2.1,2.1,0,0,1-.58-.09,2.81,2.81,0,0,1-.77-.46l-.27-.2c-4.3-3.85-4.83-10.06-1.47-16.65,2.11-4.34,4.63-7,7.5-8a35.44,35.44,0,0,1,7.41-1.22l.08,1a34.87,34.87,0,0,0-7.19,1.18c-2.59.84-4.92,3.34-6.9,7.44-1.18,2.32-4.57,10.25,1.18,15.41a2,2,0,0,1,.28.2,1.76,1.76,0,0,0,.45.29c1.2.35,2-1.65,2.62-3.56.09-.29.18-.54.25-.74a13.47,13.47,0,0,0,.88-2.82,24.12,24.12,0,0,0,1.39-6.9c0-.36,0-.72,0-1.08a19.16,19.16,0,0,1,0-2.27l1,.1a16.77,16.77,0,0,0,0,2.13c0,.38,0,.75,0,1.12a24.75,24.75,0,0,1-1.42,7.15,14.5,14.5,0,0,1-.92,2.95c-.06.16-.14.4-.23.68C88.61,225.42,87.7,228.17,85.84,228.17Z" transform="translate(67.9 2.3)"/><path class="cls-3" d="M173.3,201.4c.3-13.6,1.9-41.8,3.3-47" transform="translate(67.9 2.3)"/><path class="cls-11" d="M173.8,201.41l-1,0c.29-13,1.88-41.8,3.32-47.12l1,.26C175.67,159.79,174.09,188.48,173.8,201.41Z" transform="translate(67.9 2.3)"/><path class="cls-11" d="M126.88,209.76c-3.36,0-7.39-1.14-12.62-4l.48-.88c13.31,7.32,18.24,3.14,25-2.64l.59-.5.64.76-.58.5C136.16,206.61,132.45,209.76,126.88,209.76Z" transform="translate(67.9 2.3)"/><path class="cls-11" d="M138.8,169v-1c.85,0,1.37-.29,1.41-.48s-.1-.61-.5-1.11c-2.14-2.85-3.05-7-.66-9.36l.7.7c-2,2-1.08,5.61.75,8.05a2.36,2.36,0,0,1,.69,1.9C141,168.65,139.8,169,138.8,169Z" transform="translate(67.9 2.3)"/><path class="cls-7" d="M141.6,172.9a.72.72,0,0,1-.7.4,15.82,15.82,0,0,1-6.5-.5c-.3-.1-2.4-.7-1.9-1.2.2-.2,1.1.1,1.4.1.7.1,1.3.1,2,.2a37.45,37.45,0,0,0,5.8.1A2.22,2.22,0,0,1,141.6,172.9Z" transform="translate(67.9 2.3)"/><ellipse class="cls-11" cx="318.1" cy="220.8" rx="1.9" ry="1.5"/><ellipse class="cls-11" cx="256.41" cy="215.21" rx="1.9" ry="1.5" transform="translate(2.58 125.05) rotate(-23.97)"/><path class="cls-11" d="M129.45,161l-.5-.86a7.35,7.35,0,0,1,5.12-.34l-.34.94A6.5,6.5,0,0,0,129.45,161Z" transform="translate(67.9 2.3)"/><path class="cls-11" d="M162.29,218.78a38.78,38.78,0,0,0-12.24-11.35l.5-.86a39.59,39.59,0,0,1,12.56,11.65Z" transform="translate(67.9 2.3)"/></g><path class="cls-14" d="M211.92,383c-49.54,0-96.82-16.43-133.14-33.94-4.72-2.27-9.5-4.66-14.12-7-15.17-7.59-30.85-15.44-46.9-20.1-23.84-6.92-45.63-5.32-63,4.65l-.5-.86C-28.13,315.66-6.07,314,18,321c16.14,4.69,31.86,12.56,47.07,20.16,4.62,2.32,9.39,4.71,14.11,7,57.1,27.54,141.41,52.4,218.76,14.5,10.16-5,20.1-11.2,29.71-17.22,10.23-6.4,20.8-13,31.7-18.18a184.1,184.1,0,0,1,68-17.85l.06,1a183,183,0,0,0-67.62,17.75c-10.84,5.14-21.39,11.74-31.59,18.13-9.63,6-19.59,12.26-29.8,17.27C270,377.5,240.56,383,211.92,383Z" transform="translate(67.9 2.3)"/><rect class="cls-1" width="552.6" height="409.1"/></svg>