<svg id="Layer_1" data-name="Layer 1" xmlns="http://www.w3.org/2000/svg" viewBox="0 0 415.12 375.65"><defs><style>.cls-1{isolation:isolate;opacity:0.1;}.cls-2{fill:#531b93;}.cls-3{fill:#fff;}.cls-4{fill:#484949;}.cls-5{fill:#009193;}.cls-6{fill:#c5ced1;}.cls-7{fill:#b7b7b7;}.cls-8{fill:#9e9e9e;}.cls-9{fill:#04a0f4;}</style></defs><g class="cls-1"><path class="cls-2" d="M408.8,128.4C398.5,108.6,380,92.9,359,84.7c-48.2-18.8-97.8-6.3-125.3,37.4-11.1,17.6-21.7,36.9-39.9,47-33.2,18.4-76-1.8-112.2,9.5-27.4,8.6-47.1,35.6-49.8,64.1C27.9,283.3,56.1,319.4,86,343.4c31.1,25,70.4,41.1,110.6,39.5,59.6-2.3,113.6-40.7,156.1-79,39.7-35.8,74.7-101.9,63.2-156A80,80,0,0,0,408.8,128.4Z" transform="translate(-3 -39.14)"/></g><path class="cls-3" d="M238.4,149.8c2-8.2,6.7-15.6,12.5-21.7a17.81,17.81,0,0,1,7.2-5.2c2.8-1,6.2-.7,8.3,1.4,2.4,2.4,2.5,6.1,2.4,9.5-.3,13.1-.7,26.4-3.4,39.3a90,90,0,0,1-5.9,18.9c-2.2,5-3.9,9.8-5.9,14.8-6.8,16.6-45.2,36.9-48.1,37.5,0-4.1-7.8-32.7-14-30.3,7.4-2.8,21.8-11.8,27.1-17.7C222,192.6,230.5,182.2,238.4,149.8Z" transform="translate(-3 -39.14)"/><path class="cls-4" d="M205,244.91v-.61c0-3.57-6-25.75-11.43-29.46a2,2,0,0,0-1.87-.38h0l-.36-.94h0c7.36-2.8,21.7-11.8,26.87-17.56,7.59-8.25,14.21-23.82,19.69-46.28h0c1.85-7.61,6.22-15.19,12.62-21.93a18.54,18.54,0,0,1,7.4-5.32,8.43,8.43,0,0,1,8.81,1.52c2.55,2.54,2.65,6.42,2.55,9.86-.26,11.55-.59,25.93-3.41,39.39a90.67,90.67,0,0,1-5.93,19c-1.44,3.26-2.69,6.51-3.9,9.66-.65,1.69-1.31,3.4-2,5.12-6.95,17-45.71,37.24-48.46,37.81Zm-11.42-31.23a4.79,4.79,0,0,1,.56.33c5.5,3.77,11.27,24.38,11.82,29.61,5.43-2.16,40.81-21.48,47.18-37q1-2.58,2-5.11c1.21-3.15,2.47-6.42,3.91-9.7a88.78,88.78,0,0,0,5.87-18.8c2.8-13.37,3.13-27.7,3.39-39.21.1-3.24,0-6.88-2.25-9.14-2.07-2.06-5.4-2.13-7.78-1.28a17.68,17.68,0,0,0-7,5.07c-6.29,6.61-10.57,14-12.38,21.48h0c-5.52,22.62-12.22,38.34-19.92,46.72C214,202.18,201.41,210.22,193.58,213.68Z" transform="translate(-3 -39.14)"/><path class="cls-4" d="M217,409.8c-.5,2.2-.63,2-.33,4.19,19,.12,68.1-8.21,112-42.49a116.59,116.59,0,0,0-40.8-21.4c-4.5-1.3-9.4-2.3-13.7-.4-6.4,2.9-8.5,10.7-10.7,17.4a74.41,74.41,0,0,1-7.2,15.7,34.64,34.64,0,0,1-7.8,9.6c-4.9,4-11.1,5.7-17.1,7.9S218.3,403.6,217,409.8Z" transform="translate(-3 -39.14)"/><path class="cls-3" d="M350.3,235.8c1.67,57.76-.51,60.17.5,117.94-24.33,21.06-40,30.93-51.62,37a69.55,69.55,0,0,1-14.88-3.8c-3.5-19.8-6.3-39.7-8.6-59.7-2.1-18.4-5.6-37.9-5.4-56.3.3-30.1,1.5-60.3,3.1-90.3.4-7.4.8-14.8,1.9-22.2a82.74,82.74,0,0,1,3.5-14.7,64.87,64.87,0,0,1,5.9-12.5,29,29,0,0,1,6.7-8.1,20.78,20.78,0,0,1,18.6-3.8,33.88,33.88,0,0,1,9.1,4.6A167.76,167.76,0,0,1,333.2,135a75.74,75.74,0,0,1,9.2,8.7,87.7,87.7,0,0,1,6.7,9.3c1,1.6,2.1,3.2,3.1,4.7a2.11,2.11,0,0,1,.5,1.3c0,.5-.5.9-.9.7" transform="translate(-3 -39.14)"/><path class="cls-4" d="M299.26,391.22l-.17,0a71.26,71.26,0,0,1-15-3.84l-.25-.1-.05-.27c-3.34-18.91-6.16-38.45-8.61-59.73-.54-4.8-1.2-9.77-1.83-14.58-1.83-13.84-3.72-28.15-3.57-41.79.27-27,1.25-55.7,3.1-90.32.39-7.28.8-14.81,1.91-22.24a83.76,83.76,0,0,1,3.52-14.8,65.17,65.17,0,0,1,5.94-12.59,28.83,28.83,0,0,1,6.82-8.23,21.18,21.18,0,0,1,19.05-3.89,33.86,33.86,0,0,1,9.24,4.67,166.11,166.11,0,0,1,14.14,11.13,75.77,75.77,0,0,1,9.26,8.76,87.72,87.72,0,0,1,6.74,9.35c.75,1.2,1.56,2.4,2.33,3.56l.77,1.13a2.6,2.6,0,0,1,.58,1.58,1.28,1.28,0,0,1-.6,1.08,1,1,0,0,1-1,.07l.44-.9c.15-.1.18-.18.18-.25a1.63,1.63,0,0,0-.4-1l-.78-1.16c-.78-1.16-1.59-2.37-2.34-3.57A86.43,86.43,0,0,0,342,144a75.47,75.47,0,0,0-9.14-8.65,169.09,169.09,0,0,0-14.06-11.07,33.09,33.09,0,0,0-9-4.53,20.16,20.16,0,0,0-18.14,3.71,27.6,27.6,0,0,0-6.59,8,64.17,64.17,0,0,0-5.86,12.4,84,84,0,0,0-3.48,14.62c-1.09,7.38-1.5,14.89-1.89,22.15-1.85,34.6-2.83,63.28-3.1,90.28-.15,13.56,1.74,27.84,3.56,41.64.63,4.81,1.29,9.79,1.84,14.59,2.43,21.17,5.23,40.6,8.54,59.4a70.6,70.6,0,0,0,14.35,3.64c9.53-4.95,25.17-14.14,51.21-36.67-.47-26.55-.26-41.18-.05-55.32.23-16.11.45-31.32-.45-62.38l1,0c.9,31.08.68,46.29.45,62.41-.21,14.18-.42,28.84.05,55.53V354l-.17.15c-26.37,22.83-42.15,32.07-51.72,37Z" transform="translate(-3 -39.14)"/><path class="cls-4" d="M292.9,249.7a10.09,10.09,0,0,0,1.5-.7c.4-.2.6-.5,1.1-.5a19.27,19.27,0,0,1,2.4.1,2.35,2.35,0,0,1,.8.2c.4,0,.8-.1,1.2-.1a1.7,1.7,0,0,1,1.5,2.9A12.23,12.23,0,0,1,298,255a29,29,0,0,1-2.9,1.9c-1.5.9-2.9,1.9-4.4,2.8a3.7,3.7,0,0,1-1.1.5,3.79,3.79,0,0,1-1.5,0c-1.4-.2-2.8-.4-4.1-.7a3.18,3.18,0,0,1-.9-.3,2.87,2.87,0,0,1-1-2.2c-.1-.6-.1-1.1-.2-1.7,0-.3-.1-.6.1-.8s.3-.3.5-.5C285.7,252.1,289.4,251.1,292.9,249.7Z" transform="translate(-3 -39.14)"/><path class="cls-4" d="M332.8,279.1c-1.4.7-12.8-11.6-15-18l9.9-3.5s2.5,8.6,3.2,11.5C331.5,271.5,332.8,279.1,332.8,279.1Z" transform="translate(-3 -39.14)"/><path class="cls-3" d="M223.6,361.4c-2.9,16.2-6,31.8-5.7,48.2A262.42,262.42,0,0,1,250,394.2c5.4-2.2,11.1-4.2,16.9-3.8,1-8.5,3.9-17,6.2-25.3,2.8-10.1,5.6-20.2,7.8-30.4,4.5-21.4,5.9-43.4,6.3-65.3.5-29-1.9-51.3-1.8-80.2,0-4.1,1.7-14.8,1-18.8-.9-5.2-2.9-10.1-4.1-15.2a112.92,112.92,0,0,1-1.9-11.4c-1.7-12.7-.6-25.8.9-38.5-10.5,2.4-27.4,13.1-33.3,22.1-9.9,15.2-15.6,37.3-15.6,58.9,0,5.4-.3,10.9-.4,16.3-.3,11.5-.7,23-1.1,34.5-.8,22.5-1.8,45.1-2.9,67.6-.8,16.1-1.6,32.2-3.1,48.2C224.4,355.6,224.1,358.5,223.6,361.4Z" transform="translate(-3 -39.14)"/><path class="cls-4" d="M217.42,410.45l0-.84c-.28-15.14,2.29-29.36,5-44.41l.7-3.89c.23-1.35.42-2.69.6-4,.22-1.56.43-3,.7-4.48,1.49-15.94,2.3-32.31,3.09-48.13,1.22-25.06,2.17-47.17,2.9-67.6v-.34c.39-11.19.79-22.77,1.09-34.15,0-2.16.11-4.33.18-6.51.11-3.22.22-6.55.22-9.78,0-22,5.86-44.1,15.68-59.17,6.25-9.54,23.5-20,33.61-22.32l.69-.16-.08.71c-1.47,12.44-2.6,25.7-.9,38.37a111,111,0,0,0,1.89,11.35c.5,2.13,1.15,4.26,1.78,6.32a72.3,72.3,0,0,1,2.32,8.91c.45,2.56-.05,7.68-.49,12.2-.26,2.66-.5,5.17-.5,6.69,0,13.46.46,25.65.94,37.43.56,13.41,1.13,27.28.86,42.78-.49,26.8-2.44,47-6.31,65.39-2.21,10.24-5.06,20.5-7.81,30.43-.51,1.85-1.05,3.7-1.59,5.56-1.88,6.44-3.82,13.09-4.59,19.67l-.06.47-.47,0c-5.88-.41-11.69,1.73-16.68,3.76a262.61,262.61,0,0,0-32,15.37ZM280.72,106c-10,2.58-26.31,12.59-32.3,21.72-9.72,14.92-15.52,36.84-15.52,58.63,0,3.25-.11,6.58-.22,9.81-.07,2.17-.14,4.34-.18,6.5-.3,11.39-.7,23-1.09,34.17v.34c-.73,20.43-1.68,42.55-2.9,67.6-.79,15.84-1.6,32.22-3.1,48.23-.27,1.47-.48,2.93-.69,4.48-.19,1.34-.38,2.69-.62,4.05h0l-.7,3.89c-2.66,14.72-5.17,28.65-5,43.37a263.1,263.1,0,0,1,31.42-15c5-2,10.73-4.15,16.65-3.87.82-6.5,2.72-13,4.57-19.36.54-1.86,1.08-3.71,1.59-5.55,2.75-9.91,5.59-20.16,7.79-30.37,3.86-18.35,5.8-38.46,6.29-65.2.27-15.47-.3-29.32-.86-42.72-.48-11.79-1-24-.94-37.47,0-1.57.25-4.11.51-6.79.43-4.45.92-9.5.5-11.93a72.74,72.74,0,0,0-2.3-8.79c-.63-2.07-1.29-4.22-1.8-6.38-.9-3.82-1.41-7.7-1.91-11.45C278.23,131.33,279.28,118.26,280.72,106Z" transform="translate(-3 -39.14)"/><path class="cls-3" d="M328.3,259.3c-3.8.6-14.2,3.3-17.6,5.1-1.3.7-2.6,1.5-4,2.2a19.41,19.41,0,0,1-21.7-3.7c-1.4-1.4-2.7-3.2-2.7-5.2,5.4.3,10.2-3.2,14.4-6.5-2.8.9-5.4,2.4-8.1,3.4s-5.9,1.6-8.6.5c-.7-.3-1.6-1-1.3-1.8.2-.6,1-.9,1.6-1.1,4.6-1.3,8.1-5.6,12.8-6.7,3.9-.9,7.9.5,11.8.8,4.9.4,13.9-2,18.4-4.6,1.5-.9,3.9-.4,5.5.4a9.16,9.16,0,0,1,3.6,3.7,11.58,11.58,0,0,1,1.5,8.3A6.48,6.48,0,0,1,328.3,259.3Z" transform="translate(-3 -39.14)"/><path class="cls-4" d="M298.57,268.92a19.71,19.71,0,0,1-13.92-5.67c-1.89-1.89-2.85-3.75-2.85-5.55v-.53l.53,0c4,.23,7.63-1.7,11.09-4.16l-1.07.49c-1.17.54-2.37,1.09-3.58,1.54-3.53,1.31-6.55,1.48-9,.49-1.07-.46-2-1.39-1.58-2.44.29-.85,1.34-1.21,1.91-1.4a21.5,21.5,0,0,0,6-3.22A21.31,21.31,0,0,1,293,245c2.74-.63,5.52-.17,8.2.28,1.24.2,2.52.42,3.75.51,4.54.36,13.51-1.87,18.11-4.53,1.63-1,4.18-.52,6,.38a9.62,9.62,0,0,1,3.81,3.89,12.08,12.08,0,0,1,1.56,8.68,7,7,0,0,1-6,5.57c-3.71.59-14.13,3.3-17.44,5-.5.27-1,.56-1.51.85-.8.45-1.63.92-2.5,1.36A19.31,19.31,0,0,1,298.57,268.92Zm-15.74-10.7a7.85,7.85,0,0,0,2.52,4.33,18.83,18.83,0,0,0,21.13,3.6c.84-.42,1.65-.88,2.44-1.33.52-.3,1-.59,1.54-.86,3.46-1.83,13.89-4.54,17.76-5.16h0a5.94,5.94,0,0,0,5.18-4.81,11,11,0,0,0-1.45-8,8.43,8.43,0,0,0-3.38-3.49c-1.5-.76-3.72-1.21-5-.42-4.35,2.51-13.46,5.1-18.7,4.67-1.28-.1-2.57-.32-3.83-.53-2.59-.43-5.27-.87-7.82-.28a20.4,20.4,0,0,0-6.48,3.34,22.55,22.55,0,0,1-6.29,3.35c-.33.11-1.13.38-1.27.78s.5,1,1,1.18c2.16.88,4.93.71,8.23-.51,1.17-.43,2.35-1,3.5-1.51a43.86,43.86,0,0,1,4.62-1.9l2.65-.85L297,251.59c-4.28,3.36-8.88,6.63-14.06,6.63Z" transform="translate(-3 -39.14)"/><path class="cls-3" d="M290.4,104.4c1.3-.1,2.5-.2,3.7-.2,22.1-1,51.7,13.1,64.3,24.5,8.8,8,14.3,19,19,29.9,9.4,21.7,10.8,49.4,4.5,73.1-7.3,27.1-47.9,47.1-49.1,47.4,0-4.1-7.7-37.8-14-35.4,13.1-5.1,22.9-12.5,27.8-26,6.1-16.6,2-37-5-52.6" transform="translate(-3 -39.14)"/><path class="cls-4" d="M332.3,279.74v-.64c0-3.82-6.21-30.8-11.76-34.62a1.62,1.62,0,0,0-1.56-.31l-.36-.94c14.64-5.7,23.13-13.63,27.51-25.7,5.2-14.15,3.34-33.68-5-52.23l.92-.41c8.42,18.79,10.3,38.59,5,53-4.31,11.87-12.45,19.81-26.3,25.57l.34.21c5.7,3.93,11.55,29,12.14,34.69,5-2.47,41.36-21.51,48.17-46.77,6.44-24.23,4.76-51.43-4.48-72.77-4.63-10.74-10.12-21.77-18.88-29.73-11.73-10.61-41.23-25.41-63.94-24.37-1.12,0-2.24.09-3.42.18l-.26,0-.08-1,.26,0c1.21-.09,2.34-.18,3.48-.18,22.92-1,52.78,13.9,64.64,24.63,8.89,8.09,14.45,19.23,19.12,30.07,9.33,21.54,11,49,4.52,73.43-7.52,27.94-49.07,47.66-49.46,47.75Z" transform="translate(-3 -39.14)"/><path class="cls-3" d="M103.1,148c-.4,1-.7,2.1-1.1,3.1a33.47,33.47,0,0,1-15,17.7c-5.6,3.1-12,4.6-17.7,7.5-7.1,3.6-9.6,8.3-10.2,16.3A23,23,0,0,0,60.3,203c2.1,5.3,6.8,9,11.7,11.9,18.5,10.9,41.2,12.4,62.3,9.1,4.1-.6,8.4-1.5,11.7-4.1,5.8-4.5,6.8-12.8,6.7-20.1-.1-6.8-.8-13.7-3.6-19.8-2-4.3-3.7-4.8-7.6-6.6a72.22,72.22,0,0,1-12.9-8.2c-1.2-.9-2.4-1.9-2.6-3.3a5.57,5.57,0,0,1,1.1-3.7,60.34,60.34,0,0,1,7.3-10.1c-.5.5,8.4,1.1,8.9,1,3.5-.2,7-.5,10.1-2.3,3.3-2.5,4.9-7.4,4.1-11.5-2.5-15.6-5-35.9-17.3-42.8-7.4-3.3-16.5-1.6-24.7-1.6-6.6.8-13.2,2.5-17.3,8.2-4.1,4.9-6.6,11.5-5.8,18.1.8,5.8,3.3,9.9,8.2,14C106,136.3,105.2,141.8,103.1,148Z" transform="translate(-3 -39.14)"/><path class="cls-4" d="M115,226.05c-13.81,0-29.31-2.52-43.22-10.72-4-2.36-9.55-6.18-11.91-12.15a23.14,23.14,0,0,1-1.24-10.62c.64-8.53,3.58-13.21,10.47-16.71a82.48,82.48,0,0,1,8.34-3.47,68.75,68.75,0,0,0,9.35-4,33,33,0,0,0,14.77-17.43c.2-.51.37-1,.55-1.54s.35-1.06.55-1.56c2.22-6.56,2.6-11.57-2.37-16.27-5.05-4.22-7.56-8.5-8.36-14.29a24.58,24.58,0,0,1,5.92-18.49c4.33-6,11.34-7.62,17.62-8.38,2.11,0,4.27-.11,6.36-.22,6.37-.32,13-.66,18.6,1.86,11.84,6.64,14.78,25.36,17.15,40.4l.44,2.78a12.61,12.61,0,0,1-4.29,12c-3.18,1.85-6.72,2.19-10.37,2.4,0,0-6.77-.19-8.82-.87a59.54,59.54,0,0,0-7,9.72,5.11,5.11,0,0,0-1,3.37c.18,1.21,1.29,2.14,2.41,3a70.91,70.91,0,0,0,12.81,8.14l.84.39c3.38,1.54,5.08,2.31,7,6.46,3.07,6.69,3.56,14.2,3.65,20,.09,6.44-.53,15.57-6.89,20.5-3.36,2.65-7.73,3.59-11.94,4.2A125.8,125.8,0,0,1,115,226.05ZM128.34,91c-2.15,0-4.33.11-6.49.22s-4.27.22-6.35.22c-6,.73-12.77,2.26-16.89,8a23.54,23.54,0,0,0-5.71,17.75c.77,5.59,3.09,9.55,8,13.68,6,5.63,4.5,11.9,2.65,17.34v0c-.19.5-.36,1-.54,1.53s-.35,1.07-.56,1.57a34,34,0,0,1-15.22,18,70.52,70.52,0,0,1-9.48,4.08,77.58,77.58,0,0,0-8.23,3.42c-6.62,3.36-9.31,7.67-9.93,15.9a22.21,22.21,0,0,0,1.17,10.18c2.25,5.68,7.63,9.37,11.48,11.65,20.76,12.23,45.16,11.66,62,9,4.08-.59,8.29-1.49,11.47-4,4.58-3.55,6.64-9.81,6.51-19.7-.08-5.71-.56-13.09-3.55-19.6-1.77-3.81-3.26-4.49-6.51-6l-.85-.39a72.38,72.38,0,0,1-13-8.25c-1.29-1-2.57-2-2.8-3.63a6,6,0,0,1,1.18-4A60,60,0,0,1,134,147.76h0l0,0,.37.35.45,0a.37.37,0,0,0-.17-.28c.69.36,7.73.91,8.52.82,3.71-.22,7-.53,9.93-2.24,3-2.29,4.65-6.91,3.86-11l-.44-2.8c-2.34-14.82-5.25-33.28-16.61-39.66A28.51,28.51,0,0,0,128.34,91Z" transform="translate(-3 -39.14)"/><path class="cls-3" d="M119.2,138.2a2.53,2.53,0,0,1-2.3,1.3,4.66,4.66,0,0,1-2-.6,11.24,11.24,0,0,1-5.1-8,6.51,6.51,0,0,1,.4-3.9,3.63,3.63,0,0,1,3.1-2.1,3,3,0,0,1,1.6.5c1.6.7,3.2,1.5,4.7,2.3" transform="translate(-3 -39.14)"/><path class="cls-4" d="M116.9,140a5.09,5.09,0,0,1-2.22-.65,11.76,11.76,0,0,1-5.37-8.37,6.86,6.86,0,0,1,.44-4.21,4.11,4.11,0,0,1,3.55-2.37,3.44,3.44,0,0,1,1.86.57c1.39.6,3,1.38,4.68,2.29l-.48.88c-1.67-.89-3.24-1.66-4.66-2.28a2.64,2.64,0,0,0-1.4-.46,3.13,3.13,0,0,0-2.65,1.82,5.88,5.88,0,0,0-.36,3.6,10.72,10.72,0,0,0,4.86,7.64,4.12,4.12,0,0,0,1.75.54,2,2,0,0,0,1.85-1l.9.45A3,3,0,0,1,116.9,140Z" transform="translate(-3 -39.14)"/><path class="cls-5" d="M138,248.65a17.74,17.74,0,0,0-11.1-9.1c-10.4-2.7-15.1,4.8-21.7,11.1a188.65,188.65,0,0,1-23.7,19.1c-4.5,3-9.1,5.9-13,9.6s-6.6,7.2-7.8,12.5c-4.8,21.6-11.7,51,6.5,68.4,14,13.4,35.8,12.6,53.6,16.9,20.66,5,36.65,16.43,47,33.37,5.94,1.28,20.54,3.73,31.39,3.29-1.4-5.7-2-13.16-2.39-19s-.9-11.8-1.3-17.7c-.7-9.4-4.4-16-10.9-22.7-7.2-7.5-21-10.1-30.5-14-10-4.1-20.1-9.9-25.2-19.4,18.3,2.6,35,11.6,49.8,22.4,15.9,11.6,27.7,20.8,30.8,41.4,1.45,9.72,1.3,19.65,2.22,29.5,9.09-.44,28.9-2,35.34-4.68.62-6.73,1.54-13.29,1.54-20.12,0-9-.5-17.9-1.3-26.9-.6-6.7-1.5-13.5-4.3-19.7-2.9-6.6-7.5-10.7-14-13.4s-12.3-7.8-18.5-11.3a184.57,184.57,0,0,0-42.7-18.1c-8.3-2.3-13.9-4-18.7-11.5a55.64,55.64,0,0,1-8.3-23.7C140.23,259.45,140.43,253.65,138,248.65Z" transform="translate(-3 -39.14)"/><path class="cls-3" d="M171,259.6a268.06,268.06,0,0,1-12.8-30.9c-1.9-5.3-3.7-10.5-5.3-15.9-.7-2.1-1-4.3-1.8-6.3-.9-2.3-2-4.6-1.6-7.2.5-3.6,3.9-6,7-7.8,2.6-1.5,5.8-2.9,8.6-1.8,1.8.7,2.9-1.5,4,.2,3.1,4.9,10.1,31.1,12.4,36.7,2.7,6.7,5.6,13.4,8.6,20,2.6,5.7,4.2,11.5,6.8,17.1a242,242,0,0,0,18.2,32.6c2.6,4,5.4,7.9,8.3,11.8,1.3,1.7,7.7,7.2,9.4,8.7,4.6,4.1,7.8,9.5,10.2,15.2.7,1.8.9,18.9,1.4,22.9,0,.3,0,.7-.2.8s-.3,0-.5,0c-3.6-1.3-6.4-5-8.6-8a52,52,0,0,1-4.5-7,33.36,33.36,0,0,0-2.5-4,18.28,18.28,0,0,0,.8,5.7,29.87,29.87,0,0,1,1.5,5.1,2.39,2.39,0,0,1-.4,2c-1.7-.5-3.6-2.7-4.6-4.2-1.8-2.7-7-14.8-7.6-18.2a55.83,55.83,0,0,0-.9-5.9c-.5-2-1.7-3.1-3.1-4.6-2.9-3.4-6.1-6.6-8.9-10.1C193.5,291.9,179.3,276.2,171,259.6Z" transform="translate(-3 -39.14)"/><path class="cls-4" d="M244.07,356.24l-.25,0-.12,0-.17,0c-3.86-1.39-6.85-5.47-8.83-8.17a53.4,53.4,0,0,1-4.54-7.06l-.29-.51c-.41-.72-.8-1.42-1.24-2.11a23,23,0,0,0,.75,3.95c.16.54.36,1.09.56,1.64a15.56,15.56,0,0,1,1,3.53,2.85,2.85,0,0,1-.52,2.38l-.21.25-.31-.09c-1.78-.52-3.74-2.7-4.88-4.4-1.86-2.8-7.07-15-7.67-18.39-.1-.68-.18-1.34-.26-2a29.21,29.21,0,0,0-.63-3.87,8.55,8.55,0,0,0-2.56-3.94l-.43-.45c-1.22-1.43-2.5-2.83-3.73-4.19-1.75-1.91-3.55-3.89-5.19-5.94-2.55-3.26-5.18-6.51-8-9.95-9.59-11.85-19.52-24.1-26-37h0a264.93,264.93,0,0,1-12.82-30.95c-1.76-4.92-3.63-10.26-5.31-15.93-.31-.92-.54-1.88-.77-2.8a27.85,27.85,0,0,0-1-3.46l-.31-.75c-.83-2.1-1.7-4.26-1.32-6.71.52-3.78,4-6.25,7.24-8.15,2.38-1.38,5.91-3.06,9-1.84A2.14,2.14,0,0,0,167,189c.72-.29,1.71-.7,2.54.59,2,3.11,5.33,14.15,8.3,23.9,1.76,5.79,3.28,10.78,4.14,12.88,2.55,6.32,5.44,13,8.6,20,1.28,2.82,2.34,5.69,3.36,8.48s2.12,5.79,3.43,8.62A240.81,240.81,0,0,0,215.52,296c2.28,3.51,4.83,7.14,8.28,11.78,1.09,1.42,6,5.72,8.38,7.79l.95.83c4.15,3.7,7.53,8.73,10.33,15.38.41,1.05.62,5.85.9,13.06.17,4.27.33,8.3.54,10,0,.44,0,1-.41,1.27A.71.71,0,0,1,244.07,356.24Zm-.27-1h.09c0-.1,0-.23,0-.31-.21-1.66-.37-5.71-.54-10-.2-5.24-.45-11.76-.83-12.72-2.73-6.5-6-11.41-10.06-15l-.95-.83c-2.57-2.25-7.37-6.43-8.52-7.94-3.46-4.66-6-8.31-8.32-11.83a242.65,242.65,0,0,1-18.23-32.66c-1.33-2.87-2.42-5.83-3.47-8.7s-2.06-5.62-3.33-8.4c-3.17-7-6.06-13.7-8.61-20-.88-2.14-2.41-7.16-4.18-13-2.8-9.21-6.29-20.66-8.18-23.65-.37-.57-.56-.51-1.33-.2a3.14,3.14,0,0,1-2.43.2c-2.73-1.07-6,.49-8.17,1.76-3.08,1.79-6.29,4.07-6.75,7.44-.34,2.18.44,4.13,1.26,6.18l.31.77a26.64,26.64,0,0,1,1.05,3.58c.23.91.46,1.84.75,2.74,1.68,5.67,3.54,11,5.3,15.89a264.93,264.93,0,0,0,12.78,30.85h0c6.42,12.84,16.31,25,25.87,36.85,2.79,3.44,5.42,6.69,8,10,1.62,2,3.41,4,5.14,5.89,1.25,1.36,2.53,2.77,3.75,4.19l.41.44a9.45,9.45,0,0,1,2.8,4.37,30.33,30.33,0,0,1,.66,4c.07.65.15,1.3.24,1.94.59,3.31,5.7,15.26,7.53,18a11.15,11.15,0,0,0,4,3.87,2.28,2.28,0,0,0,.11-1.32,14.49,14.49,0,0,0-.91-3.32c-.21-.57-.41-1.13-.58-1.71a19,19,0,0,1-.82-5.87l.07-1.35.83,1.07a29.92,29.92,0,0,1,2.24,3.54l.29.52a51,51,0,0,0,4.47,6.94C237.4,350,240.26,353.89,243.8,355.2Z" transform="translate(-3 -39.14)"/><path class="cls-3" d="M131.1,184.3a13.39,13.39,0,0,0,1.4-6.9c0-5.6-2.4-8.9-4.9-13.6.8,1.5,17.9,0,33.2,14a46.5,46.5,0,0,1,10.4,14.1c0,.1-17.9,14.7-19.3,15.8a1.78,1.78,0,0,0-.7.8,3,3,0,0,0,.1,1.3c2.1,6.2,2.4,10.2,2.2,16.6a76.83,76.83,0,0,1-3,19c-1.7,6.1-4.2,12-5.3,18.3a43.14,43.14,0,0,0,3.7,26c-2.9-5.9-43.6,7.4-48.3,8.9-8,2.6-15.9,5.7-23.6,9-6.8,3-16.4,6.6-22.2,11.3,2.9-21.5-.1-101.2,1.1-122.4.2-4.4.8-8.8,2.8-12.7C64.2,173,76.5,171,87.1,168.6c.1,0,.3-.1.5,0a1,1,0,0,1,.4.5c3.3,8.2,10.4,13.3,18.3,16.6a33.16,33.16,0,0,0,18.1,2.5,11,11,0,0,0,5.8-2.6C130.6,185.1,130.8,184.7,131.1,184.3Z" transform="translate(-3 -39.14)"/><path class="cls-4" d="M54.14,320.08l.16-1.25c1.73-12.79,1.36-46.26,1-75.78-.21-19.55-.41-38,.07-46.58.17-3.74.65-8.6,2.86-12.9,5.22-10.25,16.51-12.75,26.48-15l2.25-.5h.11a1,1,0,0,1,.72.05,1.48,1.48,0,0,1,.63.73c2.84,7.05,8.9,12.54,18,16.36a32.62,32.62,0,0,0,17.83,2.47,10.37,10.37,0,0,0,5.53-2.46c.18-.24.33-.48.48-.7s.23-.36.35-.53c1.16-2,1.32-4.44,1.32-6.62,0-4.6-1.63-7.54-3.69-11.26-.37-.67-.76-1.37-1.15-2.11l.88-.47a15.33,15.33,0,0,0,3.14.61c6,.89,18.45,2.73,30,13.26a47.19,47.19,0,0,1,10.51,14.26l0,.21c0,.64-19.3,16-19.49,16.19a1.46,1.46,0,0,0-.54.57,2.42,2.42,0,0,0,.09.9l0,.14c2.13,6.26,2.41,10.39,2.21,16.72a77.28,77.28,0,0,1-3,19.12c-.62,2.21-1.35,4.43-2.06,6.57a85,85,0,0,0-3.23,11.68,42.72,42.72,0,0,0,3.66,25.69h0l-.9.44h0c-1.64-3.33-19.25,0-47.1,9l-.6.2c-7.22,2.34-14.93,5.28-23.55,9l-3.88,1.67c-6.33,2.69-13.5,5.74-18.21,9.56Zm33-151-2.22.5c-9.75,2.16-20.81,4.6-25.81,14.44-2.12,4.13-2.58,8.84-2.75,12.49-.48,8.54-.28,27-.07,46.52.32,28.68.68,61.08-.89,74.73,4.79-3.56,11.51-6.42,17.49-9,1.35-.58,2.65-1.13,3.87-1.67,8.66-3.71,16.39-6.66,23.65-9l.59-.19c18.32-5.88,40.16-11.92,46.62-9.73a43.81,43.81,0,0,1-2.95-24.58A85.09,85.09,0,0,1,148,251.8c.71-2.14,1.44-4.34,2.05-6.53a76.29,76.29,0,0,0,3-18.89c.19-6.2-.08-10.24-2.17-16.42l-.05-.2a3.07,3.07,0,0,1-.06-1.38,2.27,2.27,0,0,1,.9-1.1c1.49-1.17,16.78-13.65,19-15.51a46.45,46.45,0,0,0-10.13-13.6c-11.28-10.32-23.54-12.13-29.43-13-1-.14-1.75-.25-2.33-.37.17.29.33.58.49.87,2,3.69,3.81,6.88,3.81,11.74,0,2.33-.17,5-1.47,7.16l0,0c-.12.16-.22.32-.33.49a9.2,9.2,0,0,1-.58.82,11.1,11.1,0,0,1-6.1,2.78,33.53,33.53,0,0,1-18.38-2.53c-9.4-3.92-15.65-9.6-18.57-16.87,0-.08-.11-.22-.16-.24Z" transform="translate(-3 -39.14)"/><path class="cls-4" d="M143.41,149.35a43.8,43.8,0,0,1-17-3.39l.4-.92a43,43,0,0,0,18.68,3.26l0,1C144.82,149.33,144.11,149.35,143.41,149.35Z" transform="translate(-3 -39.14)"/><path class="cls-2" d="M156.6,226.6a1.57,1.57,0,0,0-.5,1.8c2.4,6.6,5.2,13.1,8.1,19.5,1.4,3.2,2.9,6.4,4.4,9.6.9,1.9,1.8,6.1,4.1,6.8a2.72,2.72,0,0,0,.9,0,100,100,0,0,0,13.1-3.2,29.81,29.81,0,0,0,9.5-5c.2-.2.4-.3.5-.6a1.23,1.23,0,0,0-.2-1c-5-10.9-10-21.9-15-32.8-.8-1.8-1.6-3.5-2.4-5.3-4,.7-8,3.3-11.5,5-2.3,1.1-4.5,2.2-6.8,3.3C159.7,225.1,157.6,225.7,156.6,226.6Z" transform="translate(-3 -39.14)"/><path class="cls-4" d="M178.5,245.8a10.1,10.1,0,1,0-10.1-10.1A10.1,10.1,0,0,0,178.5,245.8Z" transform="translate(-3 -39.14)"/><path class="cls-3" d="M80.2,205.6c.7,4.4,1.3,25.6,5.9,36.1,15.6,36.1,36.4,56.7,45.9,66.4,12,12.2,28.2,20.2,40.7,31.9,1.1,1.1,15.4,16.3,12.9,17-4.5,1.3-9.3-.9-13.1-3.7a56.46,56.46,0,0,0-9.2-6.1c1.1,2.9,4.2,4.8,4.9,7.9-3.2-.2-6-2.2-8.6-4.2-4.5-3.7-6.9-10-12.3-12.1-11.5-4.3-41.2-28.5-49.5-36.6C84.4,289.3,79.2,282.3,68.5,267,58,252.1,50.3,229.5,48.4,211c-.9-8.5.6-17.5,5.4-24.7,5.1-7.6,13.6-10.4,21.4-14.6,3.5-1.9,9.5-.7,13.5-.9" transform="translate(-3 -39.14)"/><path class="cls-4" d="M182.84,357.88c-4,0-7.88-2.15-10.64-4.18l-1.28-.95a55.68,55.68,0,0,0-6.47-4.39,21.9,21.9,0,0,0,1.56,2.06,11.29,11.29,0,0,1,2.68,4.57l.14.65-.66,0c-3.3-.21-6.08-2.15-8.87-4.3a32,32,0,0,1-4.78-5.3c-2.2-2.84-4.27-5.52-7.4-6.73-11.86-4.44-41.92-29.15-49.67-36.71-13.19-12.7-18.25-19.39-29.36-35.27C58,253,49.89,230.37,47.9,211.05c-1-9.35,1-18.24,5.48-25,4.1-6.1,10.44-9.21,16.58-12.22,1.65-.82,3.36-1.65,5-2.54,2.56-1.39,6.35-1.2,9.69-1,1.45.07,2.83.14,4,.08l0,1c-1.25.06-2.65,0-4.13-.08-3.21-.16-6.85-.34-9.16.92-1.67.9-3.38,1.74-5,2.55-6.3,3.09-12.24,6-16.18,11.89-4.4,6.59-6.29,15.25-5.32,24.37,2,19.16,10,41.57,20,55.76C80,282.54,85,289.2,98.15,301.84c8.94,8.73,38.15,32.31,49.33,36.49,3.39,1.32,5.65,4.24,7.83,7.06a31.77,31.77,0,0,0,4.61,5.12c2.44,1.88,4.87,3.6,7.59,4a12.37,12.37,0,0,0-2.27-3.46,13.85,13.85,0,0,1-2.41-3.68l-.44-1.18,1.13.55a47.64,47.64,0,0,1,8,5.2l1.28.95c3.22,2.37,8,4.92,12.6,3.64.14-1.86-10.16-13.29-13.05-16.19-5.82-5.44-12.58-10.18-19.12-14.76-7.46-5.22-15.17-10.62-21.59-17.14l-.84-.86c-9.73-9.92-30-30.54-45.16-65.69-3.57-8.14-4.72-22.35-5.42-30.83-.2-2.46-.35-4.39-.51-5.39l1-.16c.17,1,.33,3,.53,5.46.69,8.43,1.84,22.53,5.34,30.52,15.11,35,35.27,55.52,44.95,65.39l.85.86c6.34,6.45,14,11.83,21.44,17,6.57,4.6,13.36,9.36,19.24,14.86.15.16,14,14.56,13.32,17.22a.86.86,0,0,1-.63.63A10.28,10.28,0,0,1,182.84,357.88Z" transform="translate(-3 -39.14)"/><path class="cls-3" d="M192.3,213.8c3.2-1,8.3,10.4,9.5,15.1-3.2,1.1-3.8,1.5-5,2.4-2.3,1.6-3.6,5-5.9,6.6-.5.4-4.8,3.3-5.4,3.6-1.6.6-3.3-.2-5-.3-2.3-.3-2.4-2.4-.2-3,1.6-.4,3.7-.3,4.8-1.7s2.1-2.4,2.4-4.1a1.07,1.07,0,0,0-.3-1.1,1.27,1.27,0,0,0-.6-.1c-3.1.1-6,1.9-8.6,3.4-2.9,1.6-5.5,3.6-8.5,5.1a1.85,1.85,0,0,1-.7.2c-.8-.2-1.2-3.2-1.3-3.8a5.34,5.34,0,0,1-.2-3.3.6.6,0,0,0,.1-.4c0-.2-.1-.3-.2-.5a2.16,2.16,0,0,1-.1-2.2l.6-.9c.4-.9-.2-1.7.4-2.7a10.05,10.05,0,0,1,3.6-3.2C173,222,190,214.5,192.3,213.8Z" transform="translate(-3 -39.14)"/><path class="cls-4" d="M184.17,242.21a10.75,10.75,0,0,1-2-.26,12,12,0,0,0-1.65-.25c-1.32-.17-2.19-.9-2.26-1.84s.71-1.8,2-2.14c.44-.11.9-.19,1.37-.26,1.22-.19,2.47-.39,3.17-1.27.16-.22.34-.44.51-.65a7.23,7.23,0,0,0,1.79-3.23.68.68,0,0,0-.09-.6h-.32c-2.76.09-5.46,1.65-7.84,3l-.51.29c-1.27.7-2.5,1.49-3.68,2.25a54.78,54.78,0,0,1-4.85,2.87,2.4,2.4,0,0,1-.92.25l-.12,0c-.76-.19-1.22-1.31-1.64-4l0-.19a5.64,5.64,0,0,1-.18-3.55l.1-.17s0,0,0-.06a.48.48,0,0,0-.05-.11l-.1-.17a2.61,2.61,0,0,1-.08-2.67l.61-.93a1.87,1.87,0,0,0,.05-.88,2.85,2.85,0,0,1,.34-1.8,10.5,10.5,0,0,1,3.78-3.38c1.27-.88,18.32-8.41,20.7-9.14a2.26,2.26,0,0,1,1.79.27c3.44,1.92,7.41,11.51,8.34,15.18l.12.45-.44.15c-3.24,1.12-3.75,1.5-4.86,2.33a13.07,13.07,0,0,0-2.84,3.19,14,14,0,0,1-3.07,3.42c-.47.37-4.83,3.32-5.47,3.64A4.47,4.47,0,0,1,184.17,242.21Zm2.44-11.51a1.65,1.65,0,0,1,.81.15,1.56,1.56,0,0,1,.56,1.67,8,8,0,0,1-2,3.65l-.5.63c-.94,1.2-2.46,1.44-3.81,1.65-.44.07-.87.13-1.27.23-.87.24-1.23.73-1.21,1.11s.56.81,1.35.91a11.77,11.77,0,0,1,1.75.27,5.52,5.52,0,0,0,3,.06c.5-.25,4.74-3.1,5.27-3.52a13.13,13.13,0,0,0,2.85-3.2,13.86,13.86,0,0,1,3.07-3.42,13.55,13.55,0,0,1,4.69-2.31c-1.22-4.32-5-12.58-7.75-14.12a1.33,1.33,0,0,0-1-.19h0c-2.23.67-19.25,8.19-20.47,9a9.58,9.58,0,0,0-3.46,3.06,1.86,1.86,0,0,0-.19,1.21,2.8,2.8,0,0,1-.17,1.42l-.64,1a1.64,1.64,0,0,0,.1,1.64l.09.17a1.23,1.23,0,0,1,0,1.25A5,5,0,0,0,168,236l0,.25c.38,2.42.73,3,.88,3.17a1.9,1.9,0,0,0,.38-.13,53,53,0,0,0,4.75-2.81c1.2-.77,2.44-1.57,3.73-2.28l.5-.29c2.48-1.44,5.3-3.07,8.32-3.17Z" transform="translate(-3 -39.14)"/><path class="cls-4" d="M194.77,372.65q-3.32,0-6.71-.15c-13.31-.6-23.83-2.53-33.12-6.07a75.77,75.77,0,0,1-19.56-11.15,34.31,34.31,0,0,1-9-9.57c-5.24-8.63-4.77-20.7,1.2-30.72,4.69-7.88,12.73-14.74,23.91-20.38,1.15-.58,2.32-1.14,3.49-1.69a56.79,56.79,0,0,0,11-6.3c5.65-4.44,11.47-12,7.09-23.05l1.86-.74c3.83,9.62,1.16,18.39-7.71,25.36a58.51,58.51,0,0,1-11.42,6.54c-1.16.55-2.31,1.09-3.45,1.66-10.83,5.48-18.6,12.08-23.09,19.62-5.6,9.4-6.07,20.65-1.2,28.67a32.23,32.23,0,0,0,8.55,9,74.12,74.12,0,0,0,19,10.86c9.08,3.45,19.4,5.34,32.49,5.93,14.53.65,27.84-.82,39.56-4.36,15.69-4.56,25.92-10.9,30.42-18.83,7.88-14-2-31.43-9.25-44.17l-.65-1.15c-5.48-9.87-7.44-22.1-5.1-31.92,1.32-6,4.9-10.89,9.56-13,5.19-2.31,11.57-1.89,17.2-1.53,1.52.1,3,.2,4.34.24,6.43.19,13.75-.12,19.31-3.83l1.11,1.66c-6,4-13.73,4.36-20.48,4.17-1.42,0-2.87-.14-4.41-.24-5.4-.35-11.51-.75-16.25,1.35-4.09,1.84-7.24,6.17-8.43,11.6-2.2,9.24-.27,21.2,4.89,30.5l.65,1.14c7.46,13.16,17.68,31.18,9.25,46.14-4.77,8.41-15.4,15.06-31.59,19.77A115.88,115.88,0,0,1,194.77,372.65Z" transform="translate(-3 -39.14)"/><path class="cls-3" d="M306.9,87.2a4.1,4.1,0,0,0-.1-2.9,3.55,3.55,0,0,0-2.5-1c-7.5-.6-14.8,3.1-21.1,7.3a14.59,14.59,0,0,0-4.6,4.3,14.45,14.45,0,0,0-1.7,5.8c-1.3,9-2.2,18.1-2.8,27.2a89.86,89.86,0,0,0,.1,17.2c1.7,14.2,8.5,27.1,11,40.9,1.2-5.5,2.8-11.2,3.4-16.8a94.38,94.38,0,0,1,3.3-15.8,103.17,103.17,0,0,1,13.7-29.3c2.5-3.7,5.3-7.4,5.7-11.8.5-4.7-2.2-7-4.1-10.7C304.9,97.5,305.9,91.7,306.9,87.2Z" transform="translate(-3 -39.14)"/><path class="cls-4" d="M285.15,188.55l-.44-2.46a135.45,135.45,0,0,0-5.17-18.38c-2.41-7.25-4.9-14.75-5.84-22.55a92,92,0,0,1-.1-17.3c.63-9.56,1.58-18.72,2.81-27.23v-.11a14.6,14.6,0,0,1,1.76-5.89,15.24,15.24,0,0,1,4.74-4.45c5.23-3.48,13.14-8,21.42-7.38A4,4,0,0,1,307.21,84a4.59,4.59,0,0,1,.18,3.29h0c-1.07,4.82-1.88,10.25.25,14a29.58,29.58,0,0,0,1.58,2.68c1.52,2.41,3,4.69,2.58,8.32-.38,4.11-2.76,7.6-5.07,11l-.72,1a102.44,102.44,0,0,0-13.63,29.16,93,93,0,0,0-3.28,15.72,104.57,104.57,0,0,1-2.4,12.44c-.35,1.48-.69,3-1,4.41ZM302.7,83.73c-7.4,0-14.45,4.1-19.22,7.28A14.13,14.13,0,0,0,279,95.16a13.79,13.79,0,0,0-1.62,5.51l0,.1c-1.22,8.48-2.16,17.62-2.79,27.16a90,90,0,0,0,.1,17.11c.92,7.7,3.4,15.15,5.79,22.36a156.94,156.94,0,0,1,4.74,16.19c.16-.7.33-1.41.5-2.12a101.71,101.71,0,0,0,2.37-12.32,94.83,94.83,0,0,1,3.32-15.89,103.22,103.22,0,0,1,13.77-29.44l.71-1c2.24-3.28,4.55-6.66,4.9-10.52.35-3.29-.94-5.33-2.43-7.68-.54-.86-1.1-1.75-1.61-2.74-2.29-4.07-1.46-9.73-.35-14.73a3.86,3.86,0,0,0,0-2.54c-.37-.51-1.4-.68-2.14-.76C303.73,83.75,303.21,83.73,302.7,83.73Z" transform="translate(-3 -39.14)"/><path class="cls-6" d="M275.9,121.1a9.13,9.13,0,0,0,1.3.8c4.8,2.6,11.5,1,16.3-.9a32.23,32.23,0,0,0,13.2-9.6c.9-1.1,3.1.5,3.3,1.9s-.7,2.7-1.5,3.9c-6.9,10.9-7.6,24.6-12.5,36.6-2,4.8-4.6,9.3-6.5,14.2-2.5,6.6-3.6,13.7-4.6,20.7a76.52,76.52,0,0,0-3.1-9.2c-4.4-10.6-11.6-20.5-12.5-32a131,131,0,0,1,1-15.3c.3-2.4.1-4.8.3-7.2.2-2.1,1.5-4.4,2.3-6.4A24.84,24.84,0,0,0,275.9,121.1Z" transform="translate(-3 -39.14)"/><path class="cls-3" d="M267,132a3.85,3.85,0,0,0,1.6-2.7,4.19,4.19,0,0,0-.4-1.5,22.88,22.88,0,0,1-2.3-8.5c-.1-3,1.4-4.8,3.6-6.8,1.5-1.3,3.2-2.6,4.8-3.8a20.62,20.62,0,0,1,1.8-1.1c-.8,6.7-1.5,13.5-1.9,20.3a89.86,89.86,0,0,0,.1,17.2c1.7,14.2,7.7,22.8,10.2,36.6.1-.4,1.2,11.9.9,15.8.4-8.2-3.9-16.2-8-22.8-4.3-7-9.1-13.9-12.5-21.5a29.38,29.38,0,0,1-2.6-9.2A15.19,15.19,0,0,1,267,132Z" transform="translate(-3 -39.14)"/><path class="cls-4" d="M285.9,197.54l-1-.06c.39-8-3.79-15.86-7.92-22.52-1-1.63-2-3.26-3.07-4.89a133.51,133.51,0,0,1-9.47-16.67,29.57,29.57,0,0,1-2.64-9.35,15.71,15.71,0,0,1,4.86-12.41v0a3.46,3.46,0,0,0,1.43-2.32,3.86,3.86,0,0,0-.36-1.31,23.51,23.51,0,0,1-2.34-8.67c-.11-3.38,1.72-5.33,3.76-7.19,1.53-1.32,3.23-2.62,4.84-3.83a19,19,0,0,1,1.83-1.12l.87-.5-.1,1c-1,7.94-1.56,14.38-1.9,20.27a90,90,0,0,0,.1,17.11c.91,7.62,3,13.49,5.26,19.71A100.2,100.2,0,0,1,285,181.61h0a50.53,50.53,0,0,1,.63,6.52A87.13,87.13,0,0,1,285.9,197.54Zm-18.56-65.17A14.66,14.66,0,0,0,262.8,144a28.41,28.41,0,0,0,2.56,9,133.43,133.43,0,0,0,9.39,16.53c1,1.64,2.07,3.27,3.08,4.91a61.05,61.05,0,0,1,6.79,13.91c-.19-2.68-.41-5.09-.52-6.07l-.09-.49a100.33,100.33,0,0,0-4.89-16.7c-2.16-6-4.39-12.2-5.32-19.93a92,92,0,0,1-.1-17.3c.33-5.65.9-11.81,1.79-19.33a9.49,9.49,0,0,0-.89.57c-1.6,1.2-3.28,2.48-4.77,3.78-2.29,2.08-3.52,3.72-3.43,6.4a22.45,22.45,0,0,0,2.26,8.32,4.6,4.6,0,0,1,.44,1.7A4.36,4.36,0,0,1,267.34,132.37Z" transform="translate(-3 -39.14)"/><path class="cls-3" d="M272.4,106.5c10.7,1,21.6-5.2,29.1-12.2A37.23,37.23,0,0,0,312.6,77c1-3.5,2.6-6.8,3.3-10.5a35.65,35.65,0,0,0,.3-11.3,14.52,14.52,0,0,0-1.5-5.4,14.55,14.55,0,0,0-6.4-5.6c-6.5-3.3-13.9-4.3-21.2-4-6.9.2-14.7,2.2-17.9,8.3a18.32,18.32,0,0,0-1.5,4.5A132.37,132.37,0,0,0,264,78c-.3,5.1-.3,10.1-.1,15.2.1,3.3.6,8.1,2.8,10.7A9.16,9.16,0,0,0,272.4,106.5Z" transform="translate(-3 -39.14)"/><path class="cls-4" d="M274.61,107.1c-.76,0-1.52,0-2.26-.1h0a9.66,9.66,0,0,1-6-2.76c-1.79-2.12-2.77-5.82-2.93-11-.21-5.46-.18-10.44.1-15.24a133.74,133.74,0,0,1,3.71-25.09,18.82,18.82,0,0,1,1.54-4.6c3.73-7.11,13.09-8.43,18.33-8.58,8.27-.34,15.48,1,21.45,4a15,15,0,0,1,6.61,5.8,15.08,15.08,0,0,1,1.56,5.6,36.25,36.25,0,0,1-.31,11.44,42.17,42.17,0,0,1-2,6.52c-.47,1.31-1,2.67-1.35,4a37.86,37.86,0,0,1-11.24,17.53C293.38,102.57,283.37,107.1,274.61,107.1Zm-2.16-1.1c9,.85,19.71-3.67,28.71-12.07a36.77,36.77,0,0,0,11-17.07c.4-1.39.89-2.76,1.37-4.09a41.45,41.45,0,0,0,1.92-6.36,35,35,0,0,0,.29-11.15A13.76,13.76,0,0,0,314.26,50a13.92,13.92,0,0,0-6.18-5.38c-5.82-3-12.87-4.28-21-3.95-5,.14-14,1.38-17.48,8a18.15,18.15,0,0,0-1.45,4.37A131.39,131.39,0,0,0,264.5,78c-.28,4.77-.31,9.73-.1,15.16.15,4.9,1.08,8.5,2.68,10.4a8.64,8.64,0,0,0,5.37,2.42Z" transform="translate(-3 -39.14)"/><path class="cls-4" d="M311.4,81.4c-.7,1.3-1.5,2.6-2.3,3.8.6-1-3.6-4-4.3-4.3-1.8-.7-4.1.5-5.9,1a8,8,0,0,0-2,.7c-.3.2-1.7,1.3-1.7,1.6.2-4.5,0-9.8-3.5-12.4,1.1-1.9,2.3-3.8,2.6-6s-.2-4.7-2-5.9c-1.6-1.1-3.6-1-5.5-.9-2.7.2-5.3.3-8,.5-8.2.5-17.1-2.3-13.1-12.8,2.3-6.2,10.3-6.8,15.8-7.1a101.11,101.11,0,0,1,11-.4,32.63,32.63,0,0,1,11.2,2,27.74,27.74,0,0,1,8.5,4.9,18.6,18.6,0,0,1,4.8,7.5C320.3,63.2,316.2,73,311.4,81.4Z" transform="translate(-3 -39.14)"/><path class="cls-4" d="M272.61,118.38c-4.42,0-9.13-1.32-11.63-7.08-2.91-6.82-3.13-18,2.07-26.33l1.7,1.06c-4.84,7.7-4.63,18.14-1.93,24.48,2.88,6.66,9,6.31,15.53,5.3,6-.91,20.78-9.34,23.61-17,1.71-4.61,1.36-8.41-1-11.31l1.54-1.28c2.83,3.44,3.31,8,1.37,13.29-3.11,8.36-18.6,17.24-25.19,18.24A40.39,40.39,0,0,1,272.61,118.38Z" transform="translate(-3 -39.14)"/><path class="cls-4" d="M283.58,86l-.36-.94c6.17-2.36,14.75-5.17,20.85-6.81l.26,1C298.26,80.82,289.72,83.61,283.58,86Z" transform="translate(-3 -39.14)"/><path class="cls-4" d="M261.61,73.85l-.42-.91a18.81,18.81,0,0,0,3-1.85l.58.82A20.46,20.46,0,0,1,261.61,73.85Z" transform="translate(-3 -39.14)"/><path class="cls-4" d="M300.34,95.81a3.69,3.69,0,0,1-2.71-1.18,4.41,4.41,0,0,1-.92-4l1,.24a3.4,3.4,0,0,0,.68,3.14,2.58,2.58,0,0,0,2.82.68A4,4,0,0,0,303,92.93a20.44,20.44,0,0,1,2.27-2.88,11.64,11.64,0,0,1,1.07-1A6.63,6.63,0,0,0,308,87.18a4.55,4.55,0,0,0-.21-3.2,4.83,4.83,0,0,0-6-2.51l-.36-.94a5.87,5.87,0,0,1,7.24,3.08,5.41,5.41,0,0,1,.19,4A7.24,7.24,0,0,1,307,89.76c-.36.33-.71.64-1,1a20,20,0,0,0-2.16,2.76,5,5,0,0,1-2.21,2.07A3.08,3.08,0,0,1,300.34,95.81Z" transform="translate(-3 -39.14)"/><path class="cls-4" d="M300.9,91l-1-.06a9.74,9.74,0,0,1,5.48-8l.44.9A8.85,8.85,0,0,0,300.9,91Z" transform="translate(-3 -39.14)"/><path class="cls-4" d="M279.46,90.83a5.37,5.37,0,0,1-1.23-.15,7.88,7.88,0,0,1-5.78-6.82,4.16,4.16,0,0,1,5.35-4.54,7.5,7.5,0,0,1,3.95,2.51c2.29,2.69,2.47,6.31.41,8A4.08,4.08,0,0,1,279.46,90.83Zm-2.88-10.65a3.12,3.12,0,0,0-2.05.7,3.41,3.41,0,0,0-1.08,2.92,6.86,6.86,0,0,0,5,5.91,3.39,3.39,0,0,0,3.05-.59h0c1.64-1.39,1.41-4.37-.52-6.64a6.44,6.44,0,0,0-3.41-2.18A4.4,4.4,0,0,0,276.58,80.18Z" transform="translate(-3 -39.14)"/><path class="cls-4" d="M264.44,83.55a4.87,4.87,0,0,1-2.42-.66,5.85,5.85,0,0,1-2.65-3.25c-1-2.92.29-6,2.89-6.92a4.7,4.7,0,0,1,3.91.41,6.09,6.09,0,0,1,2.57,7.44,4.69,4.69,0,0,1-2.82,2.73h0A4.42,4.42,0,0,1,264.44,83.55Zm-.69-10.08a3.53,3.53,0,0,0-1.16.19c-2.08.72-3.1,3.26-2.28,5.66a5,5,0,0,0,2.2,2.7,3.76,3.76,0,0,0,3.09.34h0a3.79,3.79,0,0,0,2.22-2.17A5.11,5.11,0,0,0,265.68,74,3.93,3.93,0,0,0,263.75,73.47Z" transform="translate(-3 -39.14)"/><path class="cls-4" d="M273.8,81.66l-1-.12a4.84,4.84,0,0,0-.56-2.44,3.13,3.13,0,0,0-1.52-1.43,1.37,1.37,0,0,0-1.59.48l-.86-.5a2.37,2.37,0,0,1,2.81-.92,4.24,4.24,0,0,1,2.05,1.92A5.84,5.84,0,0,1,273.8,81.66Z" transform="translate(-3 -39.14)"/><path class="cls-4" d="M221,257.52c-8.6,0-20.17-5.39-32.36-11.06-3.36-1.56-6.82-3.17-10.19-4.64l.8-1.84c3.39,1.49,6.87,3.11,10.23,4.67,13,6,25.26,11.76,33.45,10.76s28.2-6.17,38.5-30.4c4.72-11.22,3.83-24,2.53-33.88-.28-2.22-1-5.59-2-9.86-3.82-17.51-10.93-50.12,1.13-67.05l1.62,1.16c-11.54,16.21-4.55,48.25-.79,65.47.94,4.31,1.68,7.72,2,10,1.33,10.13,2.24,23.25-2.67,34.92-10.71,25.18-31.6,30.49-40.09,31.6A17.14,17.14,0,0,1,221,257.52Z" transform="translate(-3 -39.14)"/><path class="cls-3" d="M285.4,202.1c-.2-2.1-.2-15,0-17.1,1.1-9.3,6.6-20,18.2-33.9,3.4-4,7.5-7.7,6.1-13.1-.7-2.6-2.3-4.9-3.1-7.5a2.87,2.87,0,0,1,0-2.4,2.55,2.55,0,0,1,1.5-.9c2.6-.8,5.3-.7,8-1,4.6-.5,7.8-2.3,6.7-7.2-.9-3.9-3.7-7.4-6.6-10s-5.7-5.9-9.8-6.3c1.2.1.5,8.2.3,9a25.47,25.47,0,0,1-3.5,8.5,132,132,0,0,0-10.3,20.6C286.3,158.1,284,183.7,285.4,202.1Z" transform="translate(-3 -39.14)"/><path class="cls-4" d="M284.9,202.15a3.53,3.53,0,0,1,0-.36c-1.23-16.79.61-43,7.55-61.17a132.92,132.92,0,0,1,10.34-20.68,24.84,24.84,0,0,0,3.44-8.34c.25-1,.69-7.74,0-8.45a.22.22,0,0,0,.11,0l.09-1h0c3.59.36,6.31,2.91,8.7,5.15.46.44.92.87,1.37,1.28,2.53,2.26,5.75,5.88,6.76,10.26a6,6,0,0,1-.68,5c-1.12,1.56-3.23,2.5-6.46,2.85-.83.09-1.66.14-2.49.2a22.94,22.94,0,0,0-5.41.78,2.12,2.12,0,0,0-1.22.68,2.45,2.45,0,0,0,0,2,26.26,26.26,0,0,0,1.48,3.53,23.17,23.17,0,0,1,1.63,4c1.3,5-1.88,8.62-4.95,12.12-.42.47-.84.95-1.25,1.43-11.21,13.44-17,24.13-18.08,33.64-.19,2-.2,13.79,0,16.65l0,.35Zm22.47-98.79c.54,2.37-.07,8-.18,8.46a26.08,26.08,0,0,1-3.56,8.64A130,130,0,0,0,293.37,141c-4.31,11.28-6.63,25.66-7.48,38.92,2.29-8.43,7.9-17.83,17.33-29.12.41-.49.84-1,1.26-1.45,3-3.46,5.9-6.72,4.74-11.21a23.51,23.51,0,0,0-1.57-3.84,26,26,0,0,1-1.53-3.63,3.31,3.31,0,0,1,.05-2.8,3,3,0,0,1,1.77-1.13,24.56,24.56,0,0,1,5.65-.82c.82-.05,1.64-.11,2.45-.2,2.93-.32,4.81-1.11,5.76-2.43a5,5,0,0,0,.51-4.16c-.95-4.12-4-7.57-6.44-9.74-.46-.41-.93-.84-1.4-1.29C312.34,106.08,310.14,104,307.37,103.36Z" transform="translate(-3 -39.14)"/><path class="cls-3" d="M126.3,159.4c-3.6,6.6-4.6,13.5-3.6,17.4Z" transform="translate(-3 -39.14)"/><path class="cls-4" d="M122.22,176.92c-1-3.75-.21-10.7,3.64-17.76l.88.48c-3.72,6.82-4.47,13.47-3.56,17Z" transform="translate(-3 -39.14)"/><path class="cls-4" d="M144.3,95.2c-1-4.4-1.7-9.3-5.2-12.6-5.2-5-13.1-5.6-20.3-5.3-9.8.3-20.2,4-24.5,13.6-1.3,3-2,6.3-3.9,8.9-4.3,6-13.9,7.1-16.6,14-3.5,8.7,5.8,19.3,1.3,27.5-2.4,4.3-8.8,4.1-12.9,7-3.6,2.5-4.9,7.3-4.5,11.7.4,3.7,2,6.6,3.2,10,.8,2.4.9,4.9,1.9,7.2,8.7-.9,16.6-3.3,25.5-2.4,3.4.3,6.9.9,10.2-.1,10-3.2,4.6-21.1,6.1-28.8a22.48,22.48,0,0,1,3.3-8.2c1.1-1.7,3.1-3.4,4-5.2.6-1.3.3-2.6,1.6-3.7,1.7-1.4,4.4-.9,6.4-.9a22.11,22.11,0,0,1,8.4,1.7,19.43,19.43,0,0,1,5.4-18.3,6,6,0,0,0,2-2.5,5.46,5.46,0,0,0,.1-1.8c-.2-3.8.5-9.2,4.2-11.2,1.7-.9,2.7-.2,4.4-.3A.37.37,0,0,1,144.3,95.2Z" transform="translate(-3 -39.14)"/><path class="cls-2" d="M178.4,157a36.91,36.91,0,0,1,54.8-34.3l20.7-12-9.5,21.6a36.08,36.08,0,0,1,7.7,20.6,36.91,36.91,0,1,1-73.7,4.1Z" transform="translate(-3 -39.14)"/><path class="cls-3" d="M230.3,161.7h.5a2.26,2.26,0,0,0,2.3-2.3V147.9a2.26,2.26,0,0,0-2.3-2.3h-.5a2.26,2.26,0,0,0-2.3,2.3v11.5A2.26,2.26,0,0,0,230.3,161.7Z" transform="translate(-3 -39.14)"/><path class="cls-3" d="M239.1,156.6h.5a2.26,2.26,0,0,0,2.3-2.3v-.5a2.26,2.26,0,0,0-2.3-2.3h-.5a2.26,2.26,0,0,0-2.3,2.3v.5A2.26,2.26,0,0,0,239.1,156.6Z" transform="translate(-3 -39.14)"/><path class="cls-3" d="M221.7,167.6h.5a2.26,2.26,0,0,0,2.3-2.3V142.1a2.26,2.26,0,0,0-2.3-2.3h-.5a2.26,2.26,0,0,0-2.3,2.3v23.2A2.26,2.26,0,0,0,221.7,167.6Z" transform="translate(-3 -39.14)"/><path class="cls-3" d="M213.1,179.3h.5a2.26,2.26,0,0,0,2.3-2.3V130.3a2.26,2.26,0,0,0-2.3-2.3h-.5a2.26,2.26,0,0,0-2.3,2.3V177A2.2,2.2,0,0,0,213.1,179.3Z" transform="translate(-3 -39.14)"/><path class="cls-3" d="M204.4,167.6h.5a2.26,2.26,0,0,0,2.3-2.3V142.1a2.26,2.26,0,0,0-2.3-2.3h-.5a2.26,2.26,0,0,0-2.3,2.3v23.2A2.33,2.33,0,0,0,204.4,167.6Z" transform="translate(-3 -39.14)"/><path class="cls-3" d="M195.8,161.7h.5a2.26,2.26,0,0,0,2.3-2.3V147.9a2.26,2.26,0,0,0-2.3-2.3h-.5a2.26,2.26,0,0,0-2.3,2.3v11.5A2.26,2.26,0,0,0,195.8,161.7Z" transform="translate(-3 -39.14)"/><path class="cls-7" d="M204.7,414.8C93.48,414.8,3,324.32,3,213.1A199.61,199.61,0,0,1,45,89.89l.8.61A198.6,198.6,0,0,0,4,213.1C4,323.77,94,413.8,204.7,413.8s200.7-90,200.7-200.7h1C406.4,324.32,315.92,414.8,204.7,414.8Z" transform="translate(-3 -39.14)"/><path class="cls-3" d="M346.4,387.6a27.9,27.9,0,1,0-27.9-27.9A27.9,27.9,0,0,0,346.4,387.6Z" transform="translate(-3 -39.14)"/><path class="cls-8" d="M346.4,388.1a28.4,28.4,0,1,1,28.4-28.4A28.43,28.43,0,0,1,346.4,388.1Zm0-55.8a27.4,27.4,0,1,0,27.4,27.4A27.43,27.43,0,0,0,346.4,332.3Z" transform="translate(-3 -39.14)"/><path class="cls-3" d="M346.4,387.6a27.9,27.9,0,1,0-27.9-27.9A27.9,27.9,0,0,0,346.4,387.6Z" transform="translate(-3 -39.14)"/><g class="cls-1"><path class="cls-9" d="M346.4,359.7l-16,15.3a22.14,22.14,0,0,1,16-37.4h.3Z" transform="translate(-3 -39.14)"/></g><path class="cls-6" d="M346.4,368.1a1.64,1.64,0,0,1-1.6-1.6V331.8a1.64,1.64,0,0,1,1.6-1.6,1.58,1.58,0,0,1,1.6,1.6v34.7A1.58,1.58,0,0,1,346.4,368.1Z" transform="translate(-3 -39.14)"/><path class="cls-5" d="M367.5,362.2H342.3a2.5,2.5,0,0,1,0-5h25.2a2.54,2.54,0,0,1,2.5,2.5A2.69,2.69,0,0,1,367.5,362.2Z" transform="translate(-3 -39.14)"/></svg>