<svg width="423" height="435" viewBox="0 0 423 435" fill="none" xmlns="http://www.w3.org/2000/svg">
<path opacity="0.1" d="M408.8 128.398C398.5 108.598 380 92.8983 359 84.6983C310.8 65.8983 261.2 78.3983 233.7 122.098C222.6 139.698 212 158.998 193.8 169.098C160.6 187.498 117.8 167.298 81.6 178.598C54.2 187.198 34.5 214.198 31.8 242.698C27.9 283.298 56.1 319.398 86 343.398C117.1 368.398 156.4 384.498 196.6 382.898C256.2 380.598 310.2 342.198 352.7 303.898C392.4 268.098 427.4 201.998 415.9 147.898C414.4 141.098 412 134.598 408.8 128.398Z" fill="#04A0F4"/>
<path d="M238.4 149.799C240.4 141.599 245.1 134.199 250.9 128.099C252.9 125.899 255.2 123.899 258.1 122.899C260.9 121.899 264.3 122.199 266.4 124.299C268.8 126.699 268.9 130.399 268.8 133.799C268.5 146.899 268.1 160.199 265.4 173.099C264.1 179.599 262.2 185.899 259.5 191.999C257.3 196.999 255.6 201.799 253.6 206.799C246.8 223.399 208.4 243.699 205.5 244.299C205.5 240.199 197.7 211.599 191.5 213.999C198.9 211.199 213.3 202.199 218.6 196.299C222 192.599 230.5 182.199 238.4 149.799Z" fill="white" stroke="#484949" stroke-miterlimit="10"/>
<path d="M217 409.799C216.5 411.999 216.373 411.794 216.673 413.994C235.712 414.111 284.772 405.776 328.7 371.499C316.7 361.799 302.8 354.399 287.9 350.099C283.4 348.799 278.5 347.799 274.2 349.699C267.8 352.599 265.7 360.399 263.5 367.099C261.7 372.599 259.3 377.899 256.3 382.799C254.2 386.399 251.7 389.799 248.5 392.399C243.6 396.399 237.4 398.099 231.4 400.299C225.4 402.499 218.3 403.599 217 409.799Z" fill="#484949"/>
<path d="M350.3 235.8C351.966 293.563 349.787 295.974 350.8 353.736C326.471 374.804 310.814 384.671 299.177 390.704C293.919 389.818 288.737 388.744 284.3 386.9C280.8 367.1 278 347.2 275.7 327.2C273.6 308.8 270.1 289.3 270.3 270.9C270.6 240.8 271.8 210.6 273.4 180.6C273.8 173.2 274.2 165.8 275.3 158.4C276.1 153.4 277.1 148.5 278.8 143.7C280.3 139.3 282.3 135.2 284.7 131.2C286.5 128.2 288.6 125.3 291.4 123.1C296.5 118.9 303.7 117.5 310 119.3C313.3 120.3 316.3 122 319.1 123.9C324.1 127.3 328.6 131.1 333.2 135C336.4 137.7 339.7 140.5 342.4 143.7C344.9 146.6 347 149.8 349.1 153C350.1 154.6 351.2 156.2 352.2 157.7C352.5 158.1 352.7 158.5 352.7 159C352.7 159.5 352.2 159.9 351.8 159.7" fill="white"/>
<path d="M350.3 235.8C351.966 293.563 349.787 295.974 350.8 353.736C326.471 374.804 310.814 384.671 299.177 390.704C293.919 389.818 288.737 388.744 284.3 386.9C280.8 367.1 278 347.2 275.7 327.2C273.6 308.8 270.1 289.3 270.3 270.9C270.6 240.8 271.8 210.6 273.4 180.6C273.8 173.2 274.2 165.8 275.3 158.4C276.1 153.4 277.1 148.5 278.8 143.7C280.3 139.3 282.3 135.2 284.7 131.2C286.5 128.2 288.6 125.3 291.4 123.1C296.5 118.9 303.7 117.5 310 119.3C313.3 120.3 316.3 122 319.1 123.9C324.1 127.3 328.6 131.1 333.2 135C336.4 137.7 339.7 140.5 342.4 143.7C344.9 146.6 347 149.8 349.1 153C350.1 154.6 351.2 156.2 352.2 157.7C352.5 158.1 352.7 158.5 352.7 159C352.7 159.5 352.2 159.9 351.8 159.7" stroke="#484949" stroke-miterlimit="10"/>
<path d="M292.9 249.7C293.4 249.5 293.9 249.3 294.4 249C294.8 248.8 295 248.5 295.5 248.5C296.3 248.5 297.1 248.5 297.9 248.6C298.2 248.6 298.4 248.7 298.7 248.8C299.1 248.8 299.5 248.7 299.9 248.7C300.6 248.7 301.3 248.9 301.7 249.5C302.1 250.1 301.8 250.9 301.4 251.6C300.6 253 299.3 254 298 255C297.1 255.7 296.1 256.3 295.1 256.9C293.6 257.8 292.2 258.8 290.7 259.7C290.4 259.9 290 260.1 289.6 260.2C289.1 260.3 288.6 260.3 288.1 260.2C286.7 260 285.3 259.8 284 259.5C283.7 259.4 283.4 259.4 283.1 259.2C282.4 258.8 282.2 257.8 282.1 257C282 256.4 282 255.9 281.9 255.3C281.9 255 281.8 254.7 282 254.5C282.1 254.3 282.3 254.2 282.5 254C285.7 252.1 289.4 251.1 292.9 249.7Z" fill="#484949"/>
<path d="M332.8 279.1C331.4 279.8 320 267.5 317.8 261.1L327.7 257.6C327.7 257.6 330.2 266.2 330.9 269.1C331.5 271.5 332.8 279.1 332.8 279.1Z" fill="#484949"/>
<path d="M223.6 361.399C220.7 377.599 217.6 393.199 217.9 409.599C228.3 403.699 239 398.599 250 394.199C255.4 391.999 261.1 389.999 266.9 390.399C267.9 381.899 270.8 373.399 273.1 365.099C275.9 354.999 278.7 344.899 280.9 334.699C285.4 313.299 286.8 291.299 287.2 269.399C287.7 240.399 285.3 218.099 285.4 189.199C285.4 185.099 287.1 174.399 286.4 170.399C285.5 165.199 283.5 160.299 282.3 155.199C281.4 151.399 280.9 147.599 280.4 143.799C278.7 131.099 279.8 117.999 281.3 105.299C270.8 107.699 253.9 118.399 248 127.399C238.1 142.599 232.4 164.699 232.4 186.299C232.4 191.699 232.1 197.199 232 202.599C231.7 214.099 231.3 225.599 230.9 237.099C230.1 259.599 229.1 282.199 228 304.699C227.2 320.799 226.4 336.899 224.9 352.899C224.4 355.599 224.1 358.499 223.6 361.399Z" fill="white" stroke="#484949" stroke-miterlimit="10"/>
<path d="M328.3 259.299C324.5 259.899 314.1 262.599 310.7 264.399C309.4 265.099 308.1 265.899 306.7 266.599C299.6 269.999 290.6 268.499 285 262.899C283.6 261.499 282.3 259.699 282.3 257.699C287.7 257.999 292.5 254.499 296.7 251.199C293.9 252.099 291.3 253.599 288.6 254.599C285.9 255.599 282.7 256.199 280 255.099C279.3 254.799 278.4 254.099 278.7 253.299C278.9 252.699 279.7 252.399 280.3 252.199C284.9 250.899 288.4 246.599 293.1 245.499C297 244.599 301 245.999 304.9 246.299C309.8 246.699 318.8 244.299 323.3 241.699C324.8 240.799 327.2 241.299 328.8 242.099C330.4 242.899 331.5 244.299 332.4 245.799C333.8 248.299 334.6 251.299 333.9 254.099C333.3 256.899 331.2 258.899 328.3 259.299Z" fill="white" stroke="#484949" stroke-miterlimit="10"/>
<path d="M290.4 104.399C291.7 104.299 292.9 104.199 294.1 104.199C316.2 103.199 345.8 117.299 358.4 128.699C367.2 136.699 372.7 147.699 377.4 158.599C386.8 180.299 388.2 207.999 381.9 231.699C374.6 258.799 334 278.799 332.8 279.099C332.8 274.999 325.1 241.299 318.8 243.699C331.9 238.599 341.7 231.199 346.6 217.699C352.7 201.099 348.6 180.699 341.6 165.099" fill="white"/>
<path d="M290.4 104.399C291.7 104.299 292.9 104.199 294.1 104.199C316.2 103.199 345.8 117.299 358.4 128.699C367.2 136.699 372.7 147.699 377.4 158.599C386.8 180.299 388.2 207.999 381.9 231.699C374.6 258.799 334 278.799 332.8 279.099C332.8 274.999 325.1 241.299 318.8 243.699C331.9 238.599 341.7 231.199 346.6 217.699C352.7 201.099 348.6 180.699 341.6 165.099" stroke="#484949" stroke-miterlimit="10"/>
<path d="M103.1 147.999C102.7 148.999 102.4 150.099 102 151.099C99.3001 158.499 93.9001 164.999 87.0001 168.799C81.4001 171.899 75.0001 173.399 69.3001 176.299C62.2001 179.899 59.7001 184.599 59.1001 192.599C58.8001 196.099 59.0001 199.699 60.3001 202.999C62.4001 208.299 67.1001 211.999 72.0001 214.899C90.5001 225.799 113.2 227.299 134.3 223.999C138.4 223.399 142.7 222.499 146 219.899C151.8 215.399 152.8 207.099 152.7 199.799C152.6 192.999 151.9 186.099 149.1 179.999C147.1 175.699 145.4 175.199 141.5 173.399C136.9 171.299 132.6 168.199 128.6 165.199C127.4 164.299 126.2 163.299 126 161.899C125.8 160.599 126.4 159.299 127.1 158.199C129.2 154.599 131.6 151.199 134.4 148.099C133.9 148.599 142.8 149.199 143.3 149.099C146.8 148.899 150.3 148.599 153.4 146.799C156.7 144.299 158.3 139.399 157.5 135.299C155 119.699 152.5 99.3987 140.2 92.4987C132.8 89.1987 123.7 90.8987 115.5 90.8987C108.9 91.6987 102.3 93.3987 98.2001 99.0987C94.1001 103.999 91.6001 110.599 92.4001 117.199C93.2001 122.999 95.7001 127.099 100.6 131.199C106 136.299 105.2 141.799 103.1 147.999Z" fill="white" stroke="#484949" stroke-miterlimit="10"/>
<path d="M119.2 138.198C118.8 138.998 117.9 139.498 116.9 139.498C116.2 139.498 115.5 139.198 114.9 138.898C112.1 137.298 110.3 134.098 109.8 130.898C109.6 129.598 109.6 128.198 110.2 126.998C110.8 125.798 112 124.898 113.3 124.898C113.9 124.898 114.4 125.098 114.9 125.398C116.5 126.098 118.1 126.898 119.6 127.698" fill="white"/>
<path d="M119.2 138.198C118.8 138.998 117.9 139.498 116.9 139.498C116.2 139.498 115.5 139.198 114.9 138.898C112.1 137.298 110.3 134.098 109.8 130.898C109.6 129.598 109.6 128.198 110.2 126.998C110.8 125.798 112 124.898 113.3 124.898C113.9 124.898 114.4 125.098 114.9 125.398C116.5 126.098 118.1 126.898 119.6 127.698" stroke="#484949" stroke-miterlimit="10"/>
<path d="M138.032 248.648C136.532 245.448 133.932 242.848 130.832 241.148C129.632 240.448 128.332 239.948 126.932 239.548C116.532 236.848 111.832 244.348 105.232 250.648C97.8323 257.648 89.9323 264.048 81.5323 269.748C77.0323 272.748 72.4323 275.648 68.5323 279.348C64.6323 283.148 61.9323 286.548 60.7323 291.848C55.9323 313.448 49.0323 342.848 67.2323 360.248C81.2323 373.648 103.032 372.848 120.832 377.148C141.487 382.124 157.482 393.577 167.832 410.523C173.774 411.803 188.37 414.253 199.223 413.806C197.823 408.106 197.232 400.648 196.832 394.848C196.332 388.948 195.932 383.048 195.532 377.148C194.832 367.748 191.132 361.148 184.632 354.448C177.432 346.948 163.632 344.348 154.132 340.448C144.132 336.348 134.032 330.548 128.932 321.048C147.232 323.648 163.932 332.648 178.732 343.448C194.632 355.048 206.432 364.248 209.532 384.848C210.982 394.567 210.832 404.504 211.748 414.348C220.843 413.914 240.645 412.37 247.093 409.665C247.708 402.937 248.632 396.375 248.632 389.548C248.632 380.548 248.132 371.648 247.332 362.648C246.732 355.948 245.832 349.148 243.032 342.948C240.132 336.348 235.532 332.248 229.032 329.548C222.632 326.848 216.732 321.748 210.532 318.248C197.132 310.548 182.732 304.248 167.832 300.148C159.532 297.848 153.932 296.148 149.132 288.648C144.632 281.548 141.732 273.348 140.832 264.948C140.232 259.448 140.432 253.648 138.032 248.648Z" fill="#FF695B"/>
<path d="M171 259.599C166 249.599 161.9 239.199 158.2 228.699C156.3 223.399 154.5 218.199 152.9 212.799C152.2 210.699 151.9 208.499 151.1 206.499C150.2 204.199 149.1 201.899 149.5 199.299C150 195.699 153.4 193.299 156.5 191.499C159.1 189.999 162.3 188.599 165.1 189.699C166.9 190.399 168 188.199 169.1 189.899C172.2 194.799 179.2 220.999 181.5 226.599C184.2 233.299 187.1 239.999 190.1 246.599C192.7 252.299 194.3 258.099 196.9 263.699C202.1 274.999 208.2 285.899 215.1 296.299C217.7 300.299 220.5 304.199 223.4 308.099C224.7 309.799 231.1 315.299 232.8 316.799C237.4 320.899 240.6 326.299 243 331.999C243.7 333.799 243.9 350.899 244.4 354.899C244.4 355.199 244.4 355.599 244.2 355.699C244.1 355.799 243.9 355.699 243.7 355.699C240.1 354.399 237.3 350.699 235.1 347.699C233.4 345.499 231.9 343.099 230.6 340.699C229.8 339.299 229.1 337.999 228.1 336.699C228 338.699 228.4 340.499 228.9 342.399C229.4 344.099 230.2 345.699 230.4 347.499C230.5 348.199 230.5 348.899 230 349.499C228.3 348.999 226.4 346.799 225.4 345.299C223.6 342.599 218.4 330.499 217.8 327.099C217.5 325.099 217.4 323.099 216.9 321.199C216.4 319.199 215.2 318.099 213.8 316.599C210.9 313.199 207.7 309.999 204.9 306.499C193.5 291.899 179.3 276.199 171 259.599Z" fill="white" stroke="#484949" stroke-miterlimit="10"/>
<path d="M131.1 184.299C132.3 182.299 132.5 179.799 132.5 177.399C132.5 171.799 130.1 168.499 127.6 163.799C128.4 165.299 145.5 163.799 160.8 177.799C165.1 181.799 168.7 186.599 171.2 191.899C171.2 191.999 153.3 206.599 151.9 207.699C151.6 207.899 151.3 208.199 151.2 208.499C151.1 208.899 151.2 209.299 151.3 209.799C153.4 215.999 153.7 219.999 153.5 226.399C153.3 232.799 152.3 239.199 150.5 245.399C148.8 251.499 146.3 257.399 145.2 263.699C143.7 272.499 145 281.699 148.9 289.699C146 283.799 105.3 297.099 100.6 298.599C92.6 301.199 84.7 304.299 77 307.599C70.2 310.599 60.6 314.199 54.8 318.899C57.7 297.399 54.7001 217.699 55.9001 196.499C56.1001 192.099 56.7001 187.699 58.7001 183.799C64.2001 172.999 76.5 170.999 87.1 168.599C87.2 168.599 87.4 168.499 87.6 168.599C87.8 168.699 87.9 168.899 88 169.099C91.3 177.299 98.4001 182.399 106.3 185.699C112 188.099 118.3 189.199 124.4 188.199C126.5 187.799 128.7 187.099 130.2 185.599C130.6 185.099 130.8 184.699 131.1 184.299Z" fill="white" stroke="#484949" stroke-miterlimit="10"/>
<path d="M145.5 148.8C139.1 149.1 132.5 148 126.6 145.5" stroke="#484949" stroke-miterlimit="10"/>
<path d="M156.6 226.598C156.1 227.098 155.8 227.698 156.1 228.398C158.5 234.998 161.3 241.498 164.2 247.898C165.6 251.098 167.1 254.298 168.6 257.498C169.5 259.398 170.4 263.598 172.7 264.298C173 264.398 173.3 264.298 173.6 264.298C178 263.398 182.4 262.598 186.7 261.098C190.2 259.898 193.4 258.398 196.2 256.098C196.4 255.898 196.6 255.798 196.7 255.498C196.8 255.198 196.7 254.798 196.5 254.498C191.5 243.598 186.5 232.598 181.5 221.698C180.7 219.898 179.9 218.198 179.1 216.398C175.1 217.098 171.1 219.698 167.6 221.398C165.3 222.498 163.1 223.598 160.8 224.698C159.7 225.098 157.6 225.698 156.6 226.598Z" fill="#04A0F4"/>
<path d="M178.5 245.8C184.078 245.8 188.6 241.278 188.6 235.7C188.6 230.122 184.078 225.6 178.5 225.6C172.922 225.6 168.4 230.122 168.4 235.7C168.4 241.278 172.922 245.8 178.5 245.8Z" fill="#484949"/>
<path d="M80.2001 205.6C80.9001 210 81.5001 231.2 86.1001 241.7C101.7 277.8 122.5 298.4 132 308.1C144 320.3 160.2 328.3 172.7 340C173.8 341.1 188.1 356.3 185.6 357C181.1 358.3 176.3 356.1 172.5 353.3C169.4 351 166.8 348.9 163.3 347.2C164.4 350.1 167.5 352 168.2 355.1C165 354.9 162.2 352.9 159.6 350.9C155.1 347.2 152.7 340.9 147.3 338.8C135.8 334.5 106.1 310.3 97.8001 302.2C84.4001 289.3 79.2001 282.3 68.5001 267C58.0001 252.1 50.3001 229.5 48.4001 211C47.5001 202.5 49.0001 193.5 53.8001 186.3C58.9001 178.7 67.4001 175.9 75.2001 171.7C78.7001 169.8 84.7001 171 88.7001 170.8" fill="white"/>
<path d="M80.2001 205.6C80.9001 210 81.5001 231.2 86.1001 241.7C101.7 277.8 122.5 298.4 132 308.1C144 320.3 160.2 328.3 172.7 340C173.8 341.1 188.1 356.3 185.6 357C181.1 358.3 176.3 356.1 172.5 353.3C169.4 351 166.8 348.9 163.3 347.2C164.4 350.1 167.5 352 168.2 355.1C165 354.9 162.2 352.9 159.6 350.9C155.1 347.2 152.7 340.9 147.3 338.8C135.8 334.5 106.1 310.3 97.8001 302.2C84.4001 289.3 79.2001 282.3 68.5001 267C58.0001 252.1 50.3001 229.5 48.4001 211C47.5001 202.5 49.0001 193.5 53.8001 186.3C58.9001 178.7 67.4001 175.9 75.2001 171.7C78.7001 169.8 84.7001 171 88.7001 170.8" stroke="#484949" stroke-miterlimit="10"/>
<path d="M192.3 213.798C195.5 212.798 200.6 224.198 201.8 228.898C198.6 229.998 198 230.398 196.8 231.298C194.5 232.898 193.2 236.298 190.9 237.898C190.4 238.298 186.1 241.198 185.5 241.498C183.9 242.098 182.2 241.298 180.5 241.198C178.2 240.898 178.1 238.798 180.3 238.198C181.9 237.798 184 237.898 185.1 236.498C186.1 235.198 187.2 234.098 187.5 232.398C187.6 231.998 187.5 231.498 187.2 231.298C187 231.198 186.8 231.198 186.6 231.198C183.5 231.298 180.6 233.098 178 234.598C175.1 236.198 172.5 238.198 169.5 239.698C169.3 239.798 169 239.898 168.8 239.898C168 239.698 167.6 236.698 167.5 236.098C167.2 234.998 166.9 233.898 167.3 232.798C167.4 232.698 167.4 232.498 167.4 232.398C167.4 232.198 167.3 232.098 167.2 231.898C166.8 231.298 166.7 230.398 167.1 229.698C167.3 229.398 167.5 229.098 167.7 228.798C168.1 227.898 167.5 227.098 168.1 226.098C169 224.698 170.3 223.698 171.7 222.898C173 221.998 190 214.498 192.3 213.798Z" fill="white" stroke="#484949" stroke-miterlimit="10"/>
<path d="M294.1 252.799C288.4 256.599 281.1 256.999 274.2 256.799C267.6 256.599 259.4 255.199 253.1 257.999C248.2 260.199 245.2 265.299 244.1 270.299C241.7 280.399 244.1 292.499 249.1 301.499C256.4 314.399 267.4 332.899 259 347.799C253.1 358.199 239 363.899 228 367.099C215.1 370.999 201.5 372.099 188.1 371.499C177 370.999 165.8 369.499 155.3 365.499C148.4 362.799 141.8 359.099 136 354.499C132.6 351.899 129.4 348.899 127.2 345.199C121.8 336.299 123.1 324.399 128.4 315.499C133.7 306.599 142.6 300.199 151.9 295.499C156.9 292.999 162.2 290.899 166.6 287.399C174.5 281.199 177.9 272.999 174 263.199" stroke="#484949" stroke-width="2" stroke-miterlimit="10"/>
<path d="M306.9 87.1985C307.1 86.1985 307.3 85.0985 306.8 84.2985C306.3 83.5985 305.2 83.3985 304.3 83.2985C296.8 82.6985 289.5 86.3985 283.2 90.5985C281.4 91.7985 279.7 93.0985 278.6 94.8985C277.5 96.5985 277.2 98.6985 276.9 100.699C275.6 109.699 274.7 118.799 274.1 127.899C273.7 133.599 273.5 139.399 274.2 145.099C275.9 159.299 282.7 172.199 285.2 185.999C286.4 180.499 288 174.799 288.6 169.199C289.2 163.899 290.4 158.499 291.9 153.399C294.9 142.999 299.5 133.099 305.6 124.099C308.1 120.399 310.9 116.699 311.3 112.299C311.8 107.599 309.1 105.299 307.2 101.599C304.9 97.4985 305.9 91.6985 306.9 87.1985Z" fill="white" stroke="#484949" stroke-miterlimit="10"/>
<path d="M275.9 121.099C276.3 121.399 276.8 121.699 277.2 121.899C282 124.499 288.7 122.899 293.5 120.999C298.6 118.999 303.2 115.699 306.7 111.399C307.6 110.299 309.8 111.899 310 113.299C310.2 114.699 309.3 115.999 308.5 117.199C301.6 128.099 300.9 141.799 296 153.799C294 158.599 291.4 163.099 289.5 167.999C287 174.599 285.9 181.699 284.9 188.699C284.1 185.599 283 182.499 281.8 179.499C277.4 168.899 270.2 158.999 269.3 147.499C269.3 142.299 269.7 137.399 270.3 132.199C270.6 129.799 270.4 127.399 270.6 124.999C270.8 122.899 272.1 120.599 272.9 118.599C273.8 119.499 274.8 120.299 275.9 121.099Z" fill="#C5CED1"/>
<path d="M267 132C267.8 131.3 268.6 130.4 268.6 129.3C268.6 128.8 268.4 128.3 268.2 127.8C267 125.1 266 122.3 265.9 119.3C265.8 116.3 267.3 114.5 269.5 112.5C271 111.2 272.7 109.9 274.3 108.7C274.7 108.4 275.4 108 276.1 107.6C275.3 114.3 274.6 121.1 274.2 127.9C273.8 133.6 273.6 139.4 274.3 145.1C276 159.3 282 167.9 284.5 181.7C284.6 181.3 285.7 193.6 285.4 197.5C285.8 189.3 281.5 181.3 277.4 174.7C273.1 167.7 268.3 160.8 264.9 153.2C263.6 150.3 262.6 147.2 262.3 144C262 139.6 263.7 135.1 267 132Z" fill="white" stroke="#484949" stroke-miterlimit="10"/>
<path d="M272.4 106.499C283.1 107.499 294 101.299 301.5 94.2989C306.7 89.4989 310.7 83.7989 312.6 76.9989C313.6 73.4989 315.2 70.1989 315.9 66.4989C316.6 62.7989 316.7 58.9989 316.2 55.1989C316 53.2989 315.6 51.4989 314.7 49.7989C313.3 47.2989 310.9 45.4989 308.3 44.1989C301.8 40.8989 294.4 39.8989 287.1 40.1989C280.2 40.3989 272.4 42.3989 269.2 48.4989C268.5 49.8989 268 51.4989 267.7 52.9989C265.7 61.1989 264.4 69.5989 264 77.9989C263.7 83.0989 263.7 88.0989 263.9 93.1989C264 96.4989 264.5 101.299 266.7 103.899C268.1 105.399 270.3 106.299 272.4 106.499Z" fill="white" stroke="#484949" stroke-miterlimit="10"/>
<path d="M311.4 81.399C310.7 82.699 309.9 83.999 309.1 85.199C309.7 84.199 305.5 81.199 304.8 80.899C303 80.199 300.7 81.399 298.9 81.899C298.3 82.099 297.5 82.199 296.9 82.599C296.6 82.799 295.2 83.899 295.2 84.199C295.4 79.699 295.2 74.399 291.7 71.799C292.8 69.899 294 67.999 294.3 65.799C294.7 63.599 294.1 61.099 292.3 59.899C290.7 58.799 288.7 58.899 286.8 58.999C284.1 59.199 281.5 59.299 278.8 59.499C270.6 59.999 261.7 57.199 265.7 46.699C268 40.499 276 39.899 281.5 39.599C285.2 39.399 288.8 38.999 292.5 39.199C296.3 39.299 300.2 39.799 303.7 41.199C306.6 42.299 309.9 43.999 312.2 46.099C314.4 48.099 316 50.799 317 53.599C320.3 63.199 316.2 72.999 311.4 81.399Z" fill="#484949"/>
<path d="M301.7 86.9C304.5 90.3 304.6 94.6 302.9 99.2C300 107 285.1 115.8 278.5 116.8C272 117.8 265.1 118.3 261.9 110.9C259 104.1 259 93.3 263.9 85.5" stroke="#484949" stroke-width="2" stroke-miterlimit="10"/>
<path d="M304.2 78.6992C297.9 80.3992 289.4 83.1992 283.4 85.4992" stroke="#484949" stroke-miterlimit="10"/>
<path d="M264.5 71.5C263.5 72.2 262.5 72.9 261.4 73.4" stroke="#484949" stroke-miterlimit="10"/>
<path d="M297.2 90.6989C296.9 91.8989 297.1 93.2989 298 94.2989C298.8 95.1989 300.3 95.5989 301.4 95.0989C302.3 94.6989 302.9 93.9989 303.4 93.1989C304.1 92.1989 304.8 91.1989 305.6 90.3989C306.5 89.3989 307.8 88.5989 308.4 87.3989C308.9 86.3989 308.6 84.7989 308.2 83.7989C307.2 81.2989 304 80.0989 301.6 80.9989" stroke="#484949" stroke-miterlimit="10"/>
<path d="M305.6 83.3984C302.7 84.7984 300.6 87.7984 300.4 90.9984" stroke="#484949" stroke-miterlimit="10"/>
<path d="M281.834 89.5027C283.687 87.931 283.481 84.6421 281.374 82.1569C279.266 79.6716 276.055 78.9311 274.202 80.5029C272.348 82.0746 272.554 85.3635 274.662 87.8487C276.77 90.334 279.981 91.0745 281.834 89.5027Z" stroke="#484949" stroke-miterlimit="10"/>
<path d="M265.76 82.8293C268.109 82.0174 269.267 79.2012 268.347 76.5392C267.427 73.8772 264.777 72.3774 262.428 73.1893C260.079 74.0013 258.921 76.8175 259.841 79.4795C260.761 82.1415 263.411 83.6413 265.76 82.8293Z" stroke="#484949" stroke-miterlimit="10"/>
<path d="M273.3 81.5998C273.4 80.6998 273.1 79.7998 272.7 78.8998C272.3 78.1998 271.7 77.4998 270.9 77.1998C270.1 76.8998 269.1 77.1998 268.7 77.8998" stroke="#484949" stroke-miterlimit="10"/>
<path d="M178.8 240.899C195 247.999 212.3 257.699 223 256.399C229.1 255.599 251.2 251.499 262.3 225.399C266.8 214.699 266.4 202.399 264.9 190.999C263.4 179.199 249.3 135.299 263.9 114.799" stroke="#484949" stroke-width="2" stroke-miterlimit="10"/>
<path d="M285.4 202.099C285.2 199.999 285.2 187.099 285.4 184.999C286.5 175.699 292 164.999 303.6 151.099C307 147.099 311.1 143.399 309.7 137.999C309 135.399 307.4 133.099 306.6 130.499C306.3 129.699 306.2 128.799 306.6 128.099C306.9 127.599 307.5 127.399 308.1 127.199C310.7 126.399 313.4 126.499 316.1 126.199C320.7 125.699 323.9 123.899 322.8 118.999C321.9 115.099 319.1 111.599 316.2 108.999C313.4 106.499 310.5 103.099 306.4 102.699C307.6 102.799 306.9 110.899 306.7 111.699C306.1 114.799 304.8 117.599 303.2 120.199C299.2 126.799 295.7 133.599 292.9 140.799C286.3 158.099 284 183.699 285.4 202.099Z" fill="white" stroke="#484949" stroke-miterlimit="10"/>
<path d="M126.3 159.398C122.7 165.998 121.7 172.898 122.7 176.798L126.3 159.398Z" fill="white"/>
<path d="M126.3 159.398C122.7 165.998 121.7 172.898 122.7 176.798" stroke="#484949" stroke-miterlimit="10"/>
<path d="M144.3 95.1981C143.3 90.7981 142.6 85.8981 139.1 82.5981C133.9 77.5981 126 76.9981 118.8 77.2981C109 77.5981 98.6 81.2981 94.3 90.8981C93 93.8981 92.3 97.1981 90.4 99.7981C86.1 105.798 76.5 106.898 73.8 113.798C70.3 122.498 79.6 133.098 75.1 141.298C72.7 145.598 66.3 145.398 62.2 148.298C58.6 150.798 57.3 155.598 57.7 159.998C58.1 163.698 59.7 166.598 60.9 169.998C61.7 172.398 61.8 174.898 62.8 177.198C71.5 176.298 79.4 173.898 88.3 174.798C91.7 175.098 95.2 175.698 98.5 174.698C108.5 171.498 103.1 153.598 104.6 145.898C105.1 142.998 106.3 140.198 107.9 137.698C109 135.998 111 134.298 111.9 132.498C112.5 131.198 112.2 129.898 113.5 128.798C115.2 127.398 117.9 127.898 119.9 127.898C122.8 127.898 125.6 128.498 128.3 129.598C126.7 123.098 128.9 115.898 133.7 111.298C134.5 110.598 135.4 109.798 135.7 108.798C135.9 108.198 135.8 107.598 135.8 106.998C135.6 103.198 136.3 97.7981 140 95.7981C141.7 94.8981 142.7 95.5981 144.4 95.4981C144.3 95.3981 144.3 95.2981 144.3 95.1981Z" fill="#484949"/>
<path d="M178.4 156.999C177.3 136.699 192.8 119.299 213.2 118.099C220.4 117.699 227.3 119.399 233.2 122.699L253.9 110.699L244.4 132.299C248.9 137.999 251.7 145.099 252.1 152.899C253.2 173.199 237.7 190.599 217.3 191.799C197 192.899 179.6 177.299 178.4 156.999Z" fill="#04A0F4"/>
<path d="M230.3 161.7H230.8C232.1 161.7 233.1 160.7 233.1 159.4V147.9C233.1 146.6 232.1 145.6 230.8 145.6H230.3C229 145.6 228 146.6 228 147.9V159.4C228 160.7 229 161.7 230.3 161.7Z" fill="white"/>
<path d="M239.1 156.6H239.6C240.9 156.6 241.9 155.6 241.9 154.3V153.8C241.9 152.5 240.9 151.5 239.6 151.5H239.1C237.8 151.5 236.8 152.5 236.8 153.8V154.3C236.8 155.6 237.8 156.6 239.1 156.6Z" fill="white"/>
<path d="M221.7 167.599H222.2C223.5 167.599 224.5 166.599 224.5 165.299V142.099C224.5 140.799 223.5 139.799 222.2 139.799H221.7C220.4 139.799 219.4 140.799 219.4 142.099V165.299C219.4 166.599 220.4 167.599 221.7 167.599Z" fill="white"/>
<path d="M213.1 179.3H213.6C214.9 179.3 215.9 178.3 215.9 177V130.3C215.9 129 214.9 128 213.6 128H213.1C211.8 128 210.8 129 210.8 130.3V177C210.7 178.3 211.8 179.3 213.1 179.3Z" fill="white"/>
<path d="M204.4 167.599H204.9C206.2 167.599 207.2 166.599 207.2 165.299V142.099C207.2 140.799 206.2 139.799 204.9 139.799H204.4C203.1 139.799 202.1 140.799 202.1 142.099V165.299C202.1 166.599 203.2 167.599 204.4 167.599Z" fill="white"/>
<path d="M195.8 161.7H196.3C197.6 161.7 198.6 160.7 198.6 159.4V147.9C198.6 146.6 197.6 145.6 196.3 145.6H195.8C194.5 145.6 193.5 146.6 193.5 147.9V159.4C193.5 160.7 194.5 161.7 195.8 161.7Z" fill="white"/>
<path d="M45.4 90.1992C19.1 124.199 3.5 166.799 3.5 213.099C3.5 324.199 93.6 414.299 204.7 414.299C315.8 414.299 405.9 324.199 405.9 213.099" stroke="#B7B7B7" stroke-miterlimit="10"/>
<path d="M346.4 387.599C361.809 387.599 374.3 375.108 374.3 359.699C374.3 344.29 361.809 331.799 346.4 331.799C330.991 331.799 318.5 344.29 318.5 359.699C318.5 375.108 330.991 387.599 346.4 387.599Z" fill="white" stroke="#9E9E9E" stroke-miterlimit="10"/>
<path d="M346.4 387.599C361.809 387.599 374.3 375.108 374.3 359.699C374.3 344.29 361.809 331.799 346.4 331.799C330.991 331.799 318.5 344.29 318.5 359.699C318.5 375.108 330.991 387.599 346.4 387.599Z" fill="white"/>
<path opacity="0.1" d="M346.4 359.7L330.4 375C326.5 370.9 324.3 365.4 324.3 359.7C324.3 347.6 334.3 337.6 346.4 337.6C346.5 337.6 346.6 337.6 346.7 337.6L346.4 359.7Z" fill="#04A0F4"/>
<path d="M346.4 368.099C345.6 368.099 344.8 367.399 344.8 366.499V331.799C344.8 330.999 345.5 330.199 346.4 330.199C347.3 330.199 348 330.899 348 331.799V366.499C348 367.399 347.3 368.099 346.4 368.099Z" fill="#C5CED1"/>
<path d="M367.5 362.199H342.3C341 362.199 339.8 361.099 339.8 359.699C339.8 358.399 340.9 357.199 342.3 357.199H367.5C368.8 357.199 370 358.299 370 359.699C369.9 360.999 368.8 362.199 367.5 362.199Z" fill="#FF695B"/>
</svg>
