<?xml version="1.0" encoding="utf-8"?>
<!-- Generator: Adobe Illustrator 24.1.2, SVG Export Plug-In . SVG Version: 6.00 Build 0)  -->
<svg version="1.1" xmlns="http://www.w3.org/2000/svg" xmlns:xlink="http://www.w3.org/1999/xlink" x="0px" y="0px"
	 viewBox="0 0 422.1 434.9" style="enable-background:new 0 0 422.1 434.9;" xml:space="preserve">
<style type="text/css">
	.st0{fill:none;stroke:#B7B7B7;stroke-miterlimit:10;}
	.st1{fill:#FFFFFF;stroke:#9E9E9E;stroke-miterlimit:10;}
	.st2{fill:#FFFFFF;}
	.st3{opacity:0.1;fill:#04A0F4;enable-background:new    ;}
	.st4{fill:#C5CED1;}
	.st5{fill:#FF695B;}
	.st6{opacity:0.1;fill:#04A0F4;}
	.st7{clip-path:url(#SVGID_4_);}
	.st8{fill:#31AA62;}
	.st9{fill:#484949;}
	.st10{fill:#3CCC79;}
	.st11{fill:#FFFFFF;stroke:#484949;stroke-miterlimit:10;}
	.st12{fill:#04A0F4;}
	.st13{fill:#FFBE4F;}
	.st14{fill:none;stroke:#484949;stroke-miterlimit:10;}
	.st15{fill:none;stroke:#999999;stroke-miterlimit:10;}
	.st16{fill:none;}
</style>
<g id="Layer_4">
</g>
<g id="Layer_1">
	<g>
		<g>
			<defs>
				<path id="SVGID_1_" d="M420.9,122.1c-5.3-48.8-15.5-106.7-59-131.3c-11.6-6.6-25.1-9.1-38.5-10.2c-25.2-2-51.2,1.1-74.2,11.7
					c-19,8.7-35.4,22.3-53.7,32.3c-28.2,15.3-60.2,21.9-92.1,25.5C81.4,52.5,57.8,54.2,40,67.5C23.9,79.7,10.5,98.8,10.2,119
					c-1.6,92,30.2,177.1,54.8,203.7c33.9,36.7,82.5,61.8,132.4,59.9c59.6-2.3,113.6-40.7,156.1-79
					C367.9,290.6,431.7,221.4,420.9,122.1z"/>
			</defs>
			<clipPath id="SVGID_2_">
				<use xlink:href="#SVGID_1_"  style="overflow:visible;"/>
			</clipPath>
		</g>
		<path class="st0" d="M45.4,90.2c-26.3,34-41.9,76.6-41.9,122.9c0,111.1,90.1,201.2,201.2,201.2s201.2-90.1,201.2-201.2"/>
	</g>
	<g>
		<circle class="st1" cx="120.4" cy="71.7" r="27.9"/>
		<circle class="st2" cx="120.4" cy="71.7" r="27.9"/>
		<path class="st3" d="M120.4,71.7l-16,15.3c-3.9-4.1-6.1-9.6-6.1-15.3c0-12.1,10-22.1,22.1-22.1c0.1,0,0.2,0,0.3,0L120.4,71.7z"/>
		<g>
			<path class="st4" d="M120.4,80.1c-0.8,0-1.6-0.7-1.6-1.6V43.8c0-0.8,0.7-1.6,1.6-1.6c0.8,0,1.6,0.7,1.6,1.6v34.7
				C122,79.4,121.3,80.1,120.4,80.1z"/>
		</g>
		<g>
			<path class="st5" d="M141.5,74.2h-25.2c-1.3,0-2.5-1.1-2.5-2.5c0-1.3,1.1-2.5,2.5-2.5h25.2c1.3,0,2.5,1.1,2.5,2.5
				C143.9,73,142.8,74.2,141.5,74.2z"/>
		</g>
	</g>
	<g>
		<g>
			<path class="st6" d="M34.3,195.4c4.9,4.2,11,7.3,17.2,9.7c9.9,3.9,20.5,6.5,29.6,12c8.3,5,15,12.2,22.6,18.1
				c28.7,22.2,48.2-5.9,76.7-11c20.8-3.7,41.8-4.1,62.5-9c18.2-4.3,29.3-11.9,43.9-26.3c29.5-29.3,75.9-10.3,109.2-18.8
				c3.1-0.8,6.5-2,8.5-5.6c3-5.3,1.7-13.7-1.1-19.3c-4.9-9.8-13.3-14.5-21.5-15.9s-16.5-0.1-24.8-0.4c-25.2-1-49.8-15-74.3-22
				c-27-7.8-55-1.5-81.4,8.3c-35.7,13.3-70.8,33-107.6,33.8c-21.3,0.5-55.1-12.8-67.4,11.9c-3.9,7.8-3.8,17.5,0.3,25.2
				C28.5,189.6,31.2,192.7,34.3,195.4z"/>
			<g>
				<defs>
					<path id="SVGID_3_" d="M47.9,333.3c100.6,54.5,187,62.1,250.3,29.8c26.2-13.3,75.6-53.2,129.1-53.2l-2.3-286.4H47.9V333.3z"/>
				</defs>
				<clipPath id="SVGID_4_">
					<use xlink:href="#SVGID_3_"  style="overflow:visible;"/>
				</clipPath>
				<g class="st7">
					<path class="st8" d="M341.5,139.7c6.4-4.3,16.7-7,20.4-0.3c1.5,2.7,1.2,6.1,0.8,9.2c-1.1,9.2-2.3,18.4-3.4,27.6
						c8.4-1.2,16.8-1.9,25.3-2.1c3.2-0.1,6.8,0,9.2,2.2c2.8,2.5,2.9,7,1.4,10.4c-1.5,3.4-4.2,6.2-6.5,9c-3.5,4.2-6.5,9.2-7.1,14.6
						c-0.6,5.5,1.5,11.5,6.3,14.2c3.1,1.8,6.8,2,10.1,3.1c11.1,3.9,15.8,18.1,12.5,29.4c-3.3,11.3-12.4,19.9-22,26.6
						c-26.5,18.4-59.9,26.6-91.9,22.4c-5.5-0.7-11-1.8-15.8-4.6c-13-7.6-16.2-25.1-14.9-40.1C269.4,218.6,305.7,163.5,341.5,139.7z"
						/>
					<path class="st9" d="M330.4,390.6c-3.1-45.6-1.3-91.6,5.3-136.9c-6.5,3.6-13,7.1-19.5,10.7c-2.4,1.3-5,2.8-6.3,5.2
						c-1.2,2.1-1.3,4.7-1.4,7.1c-1.3,36.8-2.7,73.5-4,110.3c-0.1,2.4-1.8,0.3-2.3,2.6c8.9-1.3,18.1-1.1,27,0.4
						C328.6,387.5,330.6,393.2,330.4,390.6z"/>
					<path class="st10" d="M248.2,41.6c9.4-1.9,20.1,2.9,23.7,11.8c1.9,4.8,1.7,10,2.5,15.1c1.4,9.8,6.5,18.9,14,25.4
						c12,10.3,29.6,13.6,38.8,26.4c7.1,9.9,7.4,23.2,5.1,35.1c-2.6,14.1-8.3,29-2.5,42.1c3.1,7.1,9.2,12.3,13.5,18.7
						c7.2,10.5,9.6,24.2,6.5,36.5c-3.2,12.3-11.8,23.2-23.2,28.9c-9.1,4.6-19.5,6-29.7,6.8c-26.2,2.2-52.6,1.5-78.7-2.1
						c-13.5-1.9-27.9-5.1-36.7-15.5c-10.7-12.6-8.2-34.2,5.2-44c6.7-4.9,15.6-7.3,20.3-14.1c5.3-7.7,3.2-18.4-1.3-26.6
						c-4.6-8.2-11.2-15-15.5-23.3c-4.3-8.3-5.6-19.3,0.4-26.5c6.8-8,18.2-9.9,25.1-18.2c6.6-7.9,10-18.3,10.3-28.5
						C226.5,71.6,224.9,46.5,248.2,41.6z"/>
					<path class="st9" d="M279.6,190c9.2,28.3,13.5,58.2,12.8,88c-0.4,15.1,1.1,71.6,0.7,87c-0.2,7.8-0.4,15.6-0.6,23.3
						c0,0.9-41.9,0.8-44.8,0.3c-0.3-6.4,1.5-12.6,1.3-19.3c-0.3-9.1,0.6-18.2,2.1-27.1c2.9-17.7,8-34.9,11.6-52.5
						c5.5-27.2,7-55.2,4.5-82.9c-0.9-10.1-2.3-20.2-3.5-30.3c-0.5-4.1-9.1-37.3,2.1-33.4c4.4,1.5,5.4,17.1,6.4,21.1
						C274.4,172.8,276.8,181.4,279.6,190z"/>
					<g>
						<path class="st11" d="M167.1,336.3c1.2-4.1,1.1-8.5,0.5-12.7c-0.1-0.4-0.1-0.8-0.4-1.1c-0.4-0.3-0.9-0.3-1.4-0.3
							c-1.1,0-2.4,0.1-3.2,0.9c-0.4,0.4-0.6,0.9-0.8,1.4c-1.6,3.6-2.7,7.3-3.4,11.2c-0.5,3-1.8,8.8-0.5,11.6c1,2.3,2.7-1.2,3.8-2.4
							C164,342.2,166,339.8,167.1,336.3z"/>
						<path class="st11" d="M93,402.7c20.8,0,41.6,0,62.4,0c0.2-8.4,0.4-16.8,0.6-25.2c0.2-8,8.1-51.9,7.8-66.9c0-1.2,0.4-4-0.2-5.1
							c-0.7-1.1-1.8-1.7-2.9-2.3c-8.2-4.2-17.7-5.7-27-5.1c-9.2,0.6-18.3,3.2-26.8,6.8c-3.4,1.5-6.9,3.2-9.1,6.2
							c-5.4,7.1-3.5,21.4-3.7,29.8c-0.2,13.1-0.5,26.2-0.7,39.2C93.2,387.7,93.1,395.2,93,402.7z"/>
						<path class="st11" d="M225.9,98.9c-8.3,6.1-12.8,10.6-22.6,13.9c7.4,2,2.7,16.1,1.6,21.4c-1.5,7.7-6.9,12.1-5.9,19.9
							c0.5,3.5,1.9,6.7,3.5,9.8c0.9,1.7,1.9,3.4,3.4,4.5c1.6,1.1,3.5,1.5,5.4,1.8c6.3,1,12.9,1.1,19-0.7c6.1-1.8,11.8-5.5,15.2-11
							c5.4-9-2.1-17.9-7.4-27C237,129.4,225.6,99.1,225.9,98.9z"/>
						<path class="st11" d="M196.2,331.2c2.6,23,5.2,46,7.8,69.1c12.4,0.4,24.8,0.2,37.1-0.7c-2.4-9.9-0.9-20,0.1-30
							c1.7-17.5,1.4-35-0.8-52.5c-15.7,3.4-31.8,8.2-46.2,14.1C195.6,332.1,196,329.8,196.2,331.2z"/>
						<path class="st11" d="M263.8,316.4c0.1,1.3-15,7-16.7,7.7c-5.5,2.2-11,4.6-16.9,5.1c-0.4,10.1-0.5,20.3,0.9,30.4
							c1.5,11,5,21.9,4.6,33c11.3,0.6,22.7,0.6,34-0.1c-0.8-4.1-0.9-8.3-1.1-12.5C267.8,358.7,266.2,337.5,263.8,316.4z"/>
						<path class="st12" d="M240.6,137.3c1.2-0.2,1.9,1.2,2.2,2.3c3.1,10.6,5.9,21.2,7.8,32.1c1.5,8.4,2.4,17,3.3,25.5
							c2.1,20.2,4.3,40.5,6.4,60.7c2.4,22.9,4.8,45.9,2.9,68.9c-0.1,1.1-0.2,2.3-0.9,3.2c-0.6,0.8-1.6,1.2-2.6,1.6
							c-4.9,2-9.8,3.9-14.7,5.9c-6.2,2.5-12.4,4.9-19,5.7c-6,0.7-12,0-17.9-0.7c-5.6-0.7-11.2-1.3-16.8-2c-1.1-0.1-2.3-0.3-3.3-0.9
							c-1.9-1.3-2-4.1-1.9-6.5c0.9-23.3,1.8-46.6,2.8-69.9c1.3-34.2,4.4-68.4,6.5-102.5c0.4-7.5,0.9-15,2.8-22.3
							c5,7.8,15.6,16.3,25.5,14.4c4-0.7,7.7-2.7,10.7-5.4C235.3,146.4,240.5,137.3,240.6,137.3z"/>
						<path class="st13" d="M177.7,114.1c1.6,1.5,3.6,2.6,5.1,4.3c1.8,2,2.3,5,2.1,7.7c0-0.1,6.7-2.1,7.3-2.4c3.9-1.9,6.6-4.8,9.4-8
							c3.5-3.9,6.1-8.6,7.1-13.8c0.5-2.6,0.7-5.4-0.1-8c-1.3-4.5-5.3-7.8-9.6-9.5c-4.4-1.7-9.1-1.9-13.8-1.8
							c-3,0.1-8.6-0.5-10.3,2.3C172.9,88.3,169.7,106.6,177.7,114.1z"/>
						<path class="st11" d="M240.4,216.2c2.1,11.7,5,23.3,7.6,34.9c8.9,39.8,13.3,80.6,13.1,121.3c14.3-2.6,28.6-5.3,42.9-7.9
							c-1.8-9.4-3.4-18.8-5-28.2c-5.1-31.5-8.9-63.1-12.2-94.8c-1.6-15.9-3.1-31.7-4.6-47.6c-1.4-15-2-30.3-4.7-45.1
							c-1.1-6.2-3.9-12.3-8.3-16.7c-4.5-4.5-10.8-7.2-17.1-6.7c-2.8,0.2-5.3-0.7-7.9-1.6c-2-0.7-4-1.2-6.1-0.9
							c-0.2,0-0.5,0.1-0.7,0.2c-1.5,0.9-0.6,4.3-0.6,5.6c0.1,2.4,0.1,4.8,0,7.2c-0.2,5.4-0.4,10.9-0.5,16.3
							C235.9,173.6,236.7,195.1,240.4,216.2z"/>
						<path class="st11" d="M167.6,150c10.5-10.4,24-17.2,37.3-23.8c-0.8,8.5-1.6,17-2.5,25.6c-0.8,8.7-1.7,17.4-2,26.1
							c-0.3,8.8-0.1,17.6,0.1,26.4c1.2,55.4,1.3,110.8,0.2,166.3c-9.3-0.1-23.1-0.3-32.4-0.4c-1-34.2,5-148.9,4.9-168.8
							c-14.7,11.8-31.5,20.9-49.4,26.8c6.3-2.1-2.8-29.8-3.9-34.6c7.8-0.7,17.1-7.8,28.2-20.4C155.4,165.3,159.7,157.8,167.6,150z"
							/>
						<g>
							<path class="st13" d="M272,269.8c6.2,0.4,21.8,1.2,27.7,1.5c1.3,0.1,2.2,1.1,2.2,2.4l-0.4,12.4c0,1.3-1.1,2.3-2.4,2.3
								l-27.3-0.9c-1.3,0-2.3-1.1-2.3-2.3v-13.1C269.5,270.8,270.6,269.8,272,269.8z"/>
							<path class="st11" d="M281.9,270.1c0.6,0,1.2,0,1.7,0.1c0.1,3.9,0.3,7.9,0.6,11.8c0,0.6,0.1,1.3,0.5,1.8
								c0.4,0.5,1.1,0.8,1.6,0.4c0.1,1,0.5,2,1.3,2.4c1.3,0.6,2-0.9,2.3-1.9c0,0.5,0.6,0.9,1.1,1c1.9,0.1,2.4-2.5,2.7-3.9
								c0.2,0.5,1,0.5,1.5,0.2c0.5-0.3,0.7-0.9,0.8-1.5c0.7-2.5,1.1-5,1.4-7.5c0.2-1.3,0.4-2.7,0.1-4c-0.3-1.5-1-2.8-1.7-4.2
								c-1.2-2.3-2.2-4.6-3-7.1c-0.2-0.5-0.3-0.9-0.7-1.3c-0.3-0.2-0.6-0.4-0.9-0.5c-2-0.6-4.3-0.2-6,1.1c-1.8,1.5-2.2,3.5-2.5,5.6
								C282.7,263.1,281.8,270.1,281.9,270.1z"/>
						</g>
						<path class="st11" d="M261.1,168.9c2.7,10.5,6,67.7,5.6,91.9c12.4,0,24.8,0,37.2-0.1c-5.1-36.6-12.1-73-20.9-109
							c-1.3-5.3-2.7-10.6-5.5-15.3c-6.7-11.1-21-14-32.6-16.9c-1.6-0.4-8.5-0.8-10.1-1.3"/>
						<path class="st11" d="M189.6,146.7c0,0.1,0.1,0.2,0.2,0.4c0.7,1.2,2.1,1.8,2.5,3.1c0.3,0.9,0,2-0.6,2.9
							c-2,3.1-5.2,4.6-4.5,8.8c0.3,1.7,5.8,16.9,6.9,20.7c2.2,7.8,4.4,15.5,6.6,23.3c0,0,0,0,0,0c0.4-13.8,0.8-42.9,1.8-54.1
							c0.7-8.2,3.5-23,4.7-27.9c-4.8,2.9-8.9,7.1-12.2,11.6c-1.4,1.9-2.6,3.8-3.7,5.9C190.3,142.8,188.9,144.9,189.6,146.7z"/>
						<path class="st14" d="M207.1,123.8c-7.1,4.6-11.8,32.7-10.5,49c0.6,7.6,1.9,15.2,0.7,22.7c-1.2,7.5-5.5,15-12.7,17.5"/>
						<circle class="st9" cx="184.6" cy="213" r="4.7"/>
						<g>
							<path class="st11" d="M220.3,94.3c0.3,2.9,0.3,5.8-0.4,8.6c-1.2,4.8-4.2,9-8,12.2c-3.8,3.2-8.3,5.3-12.9,7.1
								c-1.5,0.6-3.2,1.1-4.6,0.3c-0.7-0.4-1.2-1.1-1.6-1.7c-1.7-2.5-3.4-4.9-5.1-7.4c-0.5-0.7-1.2-1.6-2.1-1.6
								c-0.5,0-1,0.2-1.6,0.1c-1.7-0.2-1.7-2.6-1.7-4.2c0-2.7-1.4-5.3-2.3-7.9c-1.8-4.8-3.3-12.4,0-16.8c3.2-4.3,7.8-8.1,13.2-9
								c1.9-0.3,3.9-0.2,5.8-0.1C210.7,74.9,219.1,82.3,220.3,94.3z"/>
							<path class="st11" d="M183.7,98.9c0.8-1.2,2.2-2,3.6-2.3c1.4-0.3,2.9-0.2,4.4-0.1c-0.4,0-0.8,0-1.1,0"/>
							<path class="st11" d="M188,101.5c1.7-0.1,3.3-0.6,4.8-1.4"/>
							<path class="st11" d="M180.8,102.9c0.7-0.3,1.4-0.5,2.1-0.8"/>
						</g>
						<path class="st11" d="M112.3,181.8c-1.1-3.7-2.6-7.4-3.6-11.1c-2.3-8.2-1.7-19.7,7.4-23.6c2.7-1.2,5.6-1.4,8.5-1.4
							c5.5,0,11.5,1.4,14.6,5.8c1.6,2.2,2.2,5,2.8,7.7c1.2,5.8,2.6,13.2,1,19.1c-0.5,1.8-1.6,3.4-3.3,4.1c-0.8,0.3-1.7,0.4-2.5,0.9
							c-4,2.4-2.4,8.7-0.8,12.1c1.8,4,7.8,9,1.5,12c-3.2,1.5-6.9,1.9-10.5,2c-3.6,0.2-14,0.2-15.2-4.7c-0.2-1,0.7-2.7,1-3.8
							c0.4-1.6,0.7-3.3,0.8-5c0.3-3.1,0.1-6.1-0.4-9.2C113.2,185,112.7,183.4,112.3,181.8z"/>
						<path class="st11" d="M114.1,171.2c1.6,4,3.9,5.7,7.8,7.4c3.7,1.7,7.6,2.8,11.6,3.3"/>
						<path class="st11" d="M126.3,157.7c0.9-0.8,1.9-1.7,3-2.1c1.8-0.7,4-0.4,5.5,0.9"/>
						<path class="st11" d="M139.4,157.4c0.7-0.6,2.2,0.1,2.4,1"/>
						<path class="st11" d="M141.8,161.2"/>
						<path class="st11" d="M142.3,161.4c-0.8-0.6-2.2-0.6-3.1-0.3"/>
						<path class="st4" d="M120.4,203.7c2.9,1,5.9,2,8.9,1.3c4.1-0.9,7-4.7,10.7-6.7c0.3-0.2,0.7-0.3,1.1-0.3
							c0.3,0.1,0.6,0.3,0.8,0.5c4,3.8,6.9,8.6,9.5,13.5c3.4,6.5,6.4,13.2,8,20.4c1.3,5.6,1.8,11.4,2.2,17.1
							c1.5,20.3,2.1,40.8,2,61.2c0,0.5,0,1-0.4,1.4c-0.3,0.3-0.8,0.4-1.3,0.5c-7.6,0.8-15,2.5-22.2,5.2c-6.6,2.4-12.9,5.6-19.8,6.7
							c-6.9,1.1-14.7-0.3-19.2-5.8c-3.9-4.8-4.3-11.5-4.4-17.7c-0.4-12.1-0.7-24.1-1.1-36.2c-0.3-11.5-0.7-23.1,0.5-34.5
							c0.7-6.8,2.6-13.1,4-19.7c0.3-1.2,0.5-2.4,0.8-3.6c0.4-1.1,1.2-2.1,1.9-3.1c0.8-1.1,1.6-2.1,2.6-3c1.1-0.9,2.4-1.4,3.8-1.6
							c1.7-0.2,2.5,0.4,3.9,1C115.5,201.5,117.8,202.8,120.4,203.7z"/>
						<path class="st14" d="M126.9,396.3c1.5-9.4,0.9-19,1.2-28.5c0.4-13,2.7-25.8,4.9-38.6"/>
						<path class="st13" d="M215.3,73.9c-2.8-2.7-6-5.3-9.7-6.3c-4-1.1-8.4-0.4-12.2,1.2c-5.7,2.4-11.4,6.5-15.5,11.1
							c-1.1,1.2-2.2,2.9-1.6,4.4c0.3,0.7,0.9,1.2,1.5,1.7c3.2,2.4,7.2,3.6,11.1,4.4c3.3,0.7,6.6,1.5,9.9,1.7
							c1.2,0.1,2.4,10.1,2.5,11.3c0.4,3.9,0.2,7.6-0.3,11.4c6,0.9,11.8-2.3,17.7-3.8c4.8-1.2,9.9-1.2,14.8-0.1c0,0-0.7-5.1-0.8-5.7
							c-0.5-2.8-1.3-5.5-2.3-8.1c-2-5.2-4.9-10-7.8-14.7C220.8,79.4,218,76.5,215.3,73.9z"/>
						<path class="st14" d="M199,92.2c-1.5-5.8-6.5-12.3-10.5-16.8"/>
						<path class="st14" d="M179.5,99.9c0.7-0.2,1.4-0.4,2.1-0.5"/>
						<path class="st11" d="M248.9,144.7c0,2,1.3,2.9,2.6,4.1c0.9,0.9,2.7,2.4,2.9,3.7c0.2,1.4-0.1,2.8-0.5,4.2
							c-2.4,8.8-5.3,17.4-8.7,25.8c-1.6,3.9-3.4,7.7-4.8,11.7c-0.6,1.8-1.9,9.3-1.7,10.7c-6.8-41-0.1-62.5-7.6-91.4
							c6.3,2.6,20.7,13.9,24.2,24.2c-1.9,2.4-6.3,3.4-6.4,6.9C248.9,144.6,248.9,144.6,248.9,144.7z"/>
						<g>
							<path class="st14" d="M233.7,115c7.1,4.8,9.2,9.4,10.8,15.9c2.3,8.9,2.4,18,3,27.2c0.5,7.6,1,15.1,0.7,22.7
								c-0.2,4.6-0.5,8.4-2,12.8c-1.4,4.4-3.2,8.7-3.9,13.4c-0.5,3.1-0.4,6.4,1.4,9c1.8,2.6,5.6,3.9,8.1,2.1"/>
							<path class="st14" d="M256,215.3c4.4-2.3,4.7-6.3,4.4-8.3c-0.9-5.5-2.1-11.3-5.9-15.4c-1.2-1.3-2.6-2.4-4.3-2.5
								c-1.7-0.1-3.5,2.8-4.8,6.8"/>
							<path class="st14" d="M257.4,195.9c-2.5-7.1-8.9-15.6-9.1-22.6"/>
						</g>
						<path class="st9" d="M128.7,148.7c1.2,0,2.5,0.1,3.7,0.1c5,0.1,8.2,3.8,10,8.6c-0.1-2.3-0.6-4.5-1.4-6.6
							c0.7,0.2,1.4,0.6,2,1.1c-1.1-4.7-4.5-8.5-8.6-10.7c-4.1-2.2-8.8-2.8-13.3-2.4c-6.3,0.5-12.5,3-17.2,7.5
							c-4.7,4.5-7.6,11.2-7.1,17.9c0.4,6.1,3.5,11.5,6.5,16.7c2.5,4.3,4.9,8.6,7.4,12.9c2.5-2.1,3.8-5.8,3.1-9.1
							c0.4,0.4,0.8,0.8,1.3,1.1c0.1-4.2-2.5-8.7-4.1-12.4c-0.4-0.9-0.8-1.8-1-2.8c-0.2-1.2-0.7-2.8,0.5-3.6c0.7-0.4,1.5-0.4,2.3-0.4
							c0.7,0.1,1.4,0.2,2,0.6c0.1-2,1.2-4.4,1.7-6.4c0.4-1.6,1.1-3.4,1.2-5c0.2-2.5,0.4-5.1-0.3-7.5
							C121.3,148.5,125,148.6,128.7,148.7z"/>
						<path class="st11" d="M112.8,166.8c-1.1-0.4-2.3,0.1-3,1c-0.7,0.9-0.9,2.1-0.7,3.2c0.3,2.3,1.3,3.9,3.1,5.2
							c0.9,0.6,2,1.2,3,0.8c1.3-0.6,1.2-2.4,1-3.8"/>
						<path class="st5" d="M104.9,248.3c0.1-5.8-0.6-11.9,1.1-17.5c2.2-7.3,7.9-7.7,6.1-20.1c-0.2-1.5-0.2-5.2,0-6.7
							c0.5-3.6,1-4.4,1.3-7.5c-9,0.9-17.9,6.1-24.5,12.5c-4.3,4.2-5.3,8.5-6.7,14.3c-2.6,10.9-3.6,22.1-5.5,33.1
							c-1.3,7.5-3,15-4.8,22.4c-1.6,7-6.9,37.7-7.1,40.9c5.7,0.5,11.4,1,17.1,1.5c-0.2,0-0.2,4.4-0.3,4.7c-0.2,2-1.1,4-1.5,6.1
							c-0.6,3.2-0.4,6.8,1.7,9.2c1,1.1,2.2,1.8,3.5,2.5c5.6,3.1,11.6,6.4,18.2,6.3c1.1-10.9,2-21.7,2.4-32.6
							c0.5-15.3-0.3-30.7-0.8-46C104.9,263.6,104.8,255.9,104.9,248.3z"/>
						<path class="st5" d="M153.6,226.4c2.8,10.7,3.4,21.8,4,32.9c1.6,31,3.4,62.2,10.4,92.5c2-0.1,2.4-1.3,4.4-1.4
							c-2.3-21.1,2.2-110.1-3.6-123.8c-1.2-2.8-3-6-3.3-9c-0.1-1,0.2-2,1-2.6c0.5-0.3,1.1-0.4,1.6-0.7c0.5-0.3,1-0.8,0.9-1.4
							c0-0.2-0.2-0.5-0.3-0.7c-4.1-5.8-8.7-9.1-14.9-12.2c-2.6-1.3-5.4-2.2-8.2-2.9c-2.6-0.7-6.5-1.5-9.1-1.8c0.3,2.7,3,5,4.3,6.8
							c1.7,2.3,3.7,4.2,5.3,6.7C149.5,214.2,151.9,220.2,153.6,226.4z"/>
						<path class="st14" d="M110.2,214.7c-0.7-1.6-2.8-1.9-4.5-1.8c-4.7,0.3-9.4,2.4-13.8,1.1c1.1,0.3,6.3-8.8,7.2-9.9
							c3.6-4.4,8.7-7,14.4-7.6"/>
						<path class="st11" d="M74.7,339.9c1.4,2.5,3.6,4.7,6.4,5.7c1.3,0.5,2.7,0.7,4.1,0.7c1,0.1,2,0.1,2.9-0.3
							c0.9-0.4,1.6-1.3,1.6-2.2c0-0.1,0-0.3-0.1-0.4c-0.1-0.1-0.3-0.2-0.4-0.2c-2.9-0.7-5.7-0.7-6.8-4c-0.6-1.6-0.6-3.4-0.5-5.1
							c2.1,0.7,4.3,4.6,5.4,6.4c0.2,0.3,0.5,0.7,0.9,0.8c0.4,0.1,0.9-0.2,1.1-0.6c0.2-0.4,0.2-0.9,0.2-1.3c-0.1-3.5-1.3-5.6-2.7-8.7
							c-1.4-3-4.3-6.3-4.7-9.6c0.1,0.3-8.5-0.7-8.5-0.7s-1.3,11.4-0.3,15.4C73.5,337.2,74,338.6,74.7,339.9z"/>
						<path class="st14" d="M101,233.9c1.4,14.4-9.8,80.1-11.5,87.9l-12-0.9"/>
						<path class="st11" d="M97.7,202.1c-2.5,0.2-5,0.5-7.3,1.2c-3.4,1.1-5.7,4.6-7.2,7.7c-2.6,5.1-3.5,11.7,1.3,16
							c0.3,0.2,0.6,0.5,0.9,0.6c2.1,0.6,3-3.3,3.5-4.6c0.4-0.9,0.7-1.9,0.9-2.9c0.7-2.3,1.4-4.6,1.4-7c0-1.1-0.1-2.2,0-3.3"/>
						<path class="st11" d="M173.3,201.4c0.3-13.6,1.9-41.8,3.3-47"/>
						<path class="st14" d="M114.5,205.3c14,7.7,19,2.9,26.2-3.2"/>
						<path class="st14" d="M139.4,157.4c-2.3,2.3-1.1,6.3,0.7,8.7c0.4,0.5,0.7,1,0.6,1.5c-0.1,0.6-1,0.9-1.9,0.9"/>
						<path class="st4" d="M141.6,172.9c-0.1,0.2-0.3,0.4-0.7,0.4c-2.2,0.3-4.4,0.1-6.5-0.5c-0.3-0.1-2.4-0.7-1.9-1.2
							c0.2-0.2,1.1,0.1,1.4,0.1c0.7,0.1,1.3,0.1,2,0.2c1.9,0.1,3.9,0.3,5.8,0.1C141.7,172.4,141.7,172.7,141.6,172.9z"/>
						<ellipse class="st9" cx="250.2" cy="218.5" rx="1.9" ry="1.5"/>
						
							<ellipse transform="matrix(0.9137 -0.4063 0.4063 0.9137 -65.3033 122.7595)" class="st9" cx="256.4" cy="215.2" rx="1.9" ry="1.5"/>
						<path class="st14" d="M129.2,160.6c1.2-0.7,3.6-0.7,4.7-0.3"/>
						<path class="st14" d="M162.7,218.5c-3.2-4.7-7.5-8.6-12.4-11.5"/>
					</g>
				</g>
			</g>
			<path class="st15" d="M-45.5,326.2c19.7-11.3,42.4-10.8,63.4-4.7c21,6.1,40.9,17.4,61.1,27.1c70.1,33.8,149.2,48.8,219.2,14.5
				c21-10.3,40.3-25.4,61.4-35.4c21.7-10.3,44.7-16.4,67.8-17.8"/>
		</g>
		<rect x="-67.9" y="-2.3" class="st16" width="552.6" height="409.1"/>
	</g>
</g>
</svg>
