<svg id="Layer_1" data-name="Layer 1" xmlns="http://www.w3.org/2000/svg" xmlns:xlink="http://www.w3.org/1999/xlink" viewBox="0 0 1989.07 900.46"><defs><clipPath id="clip-path" transform="translate(31.59 -99.5)"><circle cx="1741.1" cy="634.8" r="35" style="fill:none"/></clipPath><clipPath id="clip-path-2" transform="translate(31.59 -99.5)"><circle cx="217.3" cy="208.3" r="31.4" style="fill:none"/></clipPath></defs><g id="Layer_1-2" data-name="Layer 1" style="opacity:0.30000001192092896"><g id="_1" data-name="1"><path d="M1949.5,840.5s-461,179-961-38-1016-22-1016-22" transform="translate(31.59 -99.5)" style="fill:none;stroke:#c9c9c9;stroke-miterlimit:10"/><path d="M1949.5,740.5s-461,179-961-38-1016-22-1016-22" transform="translate(31.59 -99.5)" style="fill:none;stroke:#c9c9c9;stroke-miterlimit:10"/><path d="M1949.5,640.5s-461,179-961-38-1016-22-1016-22" transform="translate(31.59 -99.5)" style="fill:none;stroke:#c9c9c9;stroke-miterlimit:10"/><path d="M1949.5,540.5s-461,179-961-38-1016-22-1016-22" transform="translate(31.59 -99.5)" style="fill:none;stroke:#c9c9c9;stroke-miterlimit:10"/><path d="M1949.5,440.5s-461,179-961-38-1016-22-1016-22" transform="translate(31.59 -99.5)" style="fill:none;stroke:#c9c9c9;stroke-miterlimit:10"/><path d="M1949.5,340.5s-461,179-961-38-1016-22-1016-22" transform="translate(31.59 -99.5)" style="fill:none;stroke:#c9c9c9;stroke-miterlimit:10"/><path d="M1949.5,240.5s-461,179-961-38-1016-22-1016-22" transform="translate(31.59 -99.5)" style="fill:none;stroke:#c9c9c9;stroke-miterlimit:10"/></g><g id="_2" data-name="2"><path d="M-31.4,921.9s457.6,187.4,961.5-20.4,1016.2-3.4,1016.2-3.4" transform="translate(31.59 -99.5)" style="fill:none;stroke:#c9c9c9;stroke-miterlimit:10"/><path d="M-29.6,821.9S428,1009.3,931.9,801.5s1016.2-3.4,1016.2-3.4" transform="translate(31.59 -99.5)" style="fill:none;stroke:#c9c9c9;stroke-miterlimit:10"/><path d="M-27.8,721.9s457.6,187.4,961.5-20.4,1016.2-3.4,1016.2-3.4" transform="translate(31.59 -99.5)" style="fill:none;stroke:#c9c9c9;stroke-miterlimit:10"/><path d="M-25.9,621.9s457.6,187.4,961.5-20.4,1016.2-3.4,1016.2-3.4" transform="translate(31.59 -99.5)" style="fill:none;stroke:#c9c9c9;stroke-miterlimit:10"/><path d="M-24.1,521.9s457.6,187.4,961.5-20.4,1016.2-3.4,1016.2-3.4" transform="translate(31.59 -99.5)" style="fill:none;stroke:#c9c9c9;stroke-miterlimit:10"/><path d="M-22.3,422s457.6,187.4,961.5-20.4,1016.2-3.4,1016.2-3.4" transform="translate(31.59 -99.5)" style="fill:none;stroke:#c9c9c9;stroke-miterlimit:10"/><path d="M-20.4,322s457.6,187.4,961.5-20.4,1016.2-3.4,1016.2-3.4" transform="translate(31.59 -99.5)" style="fill:none;stroke:#c9c9c9;stroke-miterlimit:10"/></g></g><g id="Layer_4" data-name="Layer 4"><circle cx="1772.69" cy="535.3" r="35" style="fill:#ffbe4f"/><g style="clip-path:url(#clip-path)"><path d="M1735.7,641.8c-.2.5-.3.9-.5,1.4a14.86,14.86,0,0,1-6.7,7.9c-2.5,1.4-5.3,2-7.9,3.3-3.2,1.6-4.3,3.7-4.6,7.3a11.66,11.66,0,0,0,.5,4.6c.9,2.3,3.1,4,5.2,5.3,8.2,4.8,18.4,5.5,27.8,4a11.54,11.54,0,0,0,5.2-1.8c2.6-2,3-5.7,3-9a22.63,22.63,0,0,0-1.6-8.9c-.9-1.9-1.7-2.2-3.4-2.9a29.91,29.91,0,0,1-5.8-3.7c-.5-.4-1.1-.8-1.2-1.5a2.79,2.79,0,0,1,.5-1.7,28.27,28.27,0,0,1,3.2-4.5c-.2.2,3.7.5,4,.5a9.88,9.88,0,0,0,4.5-1,5.2,5.2,0,0,0,1.8-5.1c-1.1-7-2.2-16-7.7-19.1-3.3-1.5-7.3-.7-11-.7-2.9.4-5.9,1.1-7.7,3.7a11.17,11.17,0,0,0-2.6,8.1,9.25,9.25,0,0,0,3.7,6.2C1737,636.7,1736.6,639.1,1735.7,641.8Z" transform="translate(31.59 -99.5)" style="fill:#fff"/><path d="M1748.2,658.1a6.38,6.38,0,0,0,.6-3.1c0-2.5-1.1-4-2.2-6.1.4.7,5.5.9,6.4,1.1a18.73,18.73,0,0,1,8.4,5.1,26.55,26.55,0,0,1,4.7,6.3s-8,6.5-8.6,7c-.1.1-.3.2-.3.4a.66.66,0,0,0,.1.6,18.69,18.69,0,0,1,1,7.4,35.75,35.75,0,0,1-1.3,8.5,77.06,77.06,0,0,0-2.4,8.2,19.35,19.35,0,0,0,1.6,11.6c-1.3-2.6-19.5,3.3-21.6,4-3.6,1.2-7.1,2.5-10.6,4-3,1.3-7.3,2.9-9.9,5,1.3-9.6,0-45.1.5-54.6a16.16,16.16,0,0,1,1.2-5.7c2.5-4.8,7.9-5.7,12.6-6.8h.2c.1,0,.1.1.2.2,1.5,3.7,4.6,5.9,8.2,7.4a14.12,14.12,0,0,0,8.1,1.1,4.82,4.82,0,0,0,2.6-1.2A1,1,0,0,0,1748.2,658.1Z" transform="translate(31.59 -99.5)" style="fill:#531b93"/><path d="M1753.9,618.3c.5-1.6-1.2-4.7-2.2-5.6-2.3-2.2-5.8-2.5-9-2.4-4.4.1-9,1.8-10.9,6.1a28.26,28.26,0,0,1-1.7,4c-1.9,2.7-6.2,3.2-7.4,6.2-1.5,3.9,2.6,8.6.6,12.3-1.1,1.9-3.9,1.8-5.7,3.1a5.63,5.63,0,0,0-2,5.2,25.89,25.89,0,0,0,1.4,4.5c.4,1.1.4,2.2.8,3.2,3.9-.4,7.4-1.5,11.4-1.1a14.2,14.2,0,0,0,4.6,0c6.1-1.9.4-14.7,4.9-18.9a9,9,0,0,1,2-1.4,17.71,17.71,0,0,1,6.8-1.9c0-3.2-1-8.2,1.3-10.8,1.3-1.4,4.1-.9,5-2.1C1753.8,618.6,1753.9,618.4,1753.9,618.3Z" transform="translate(31.59 -99.5)" style="fill:#484949"/></g></g><g id="Layer_10" data-name="Layer 10"><path d="M1604.7,856.6H1452.3a14.08,14.08,0,0,1-14.1-14.1V783a14.08,14.08,0,0,1,14.1-14.1h152.4a14.08,14.08,0,0,1,14.1,14.1v59.6A14.06,14.06,0,0,1,1604.7,856.6Z" transform="translate(31.59 -99.5)" style="fill:#fff;stroke:#9e9e9e;stroke-miterlimit:10"/><circle cx="1512.99" cy="711.7" r="31.3" style="fill:#531b93"/><path d="M1485.5,808.2c0-8.2,2.3-9.7,4.9-9.7,6,0,11.7,7.7,13.3,15s2.6,15.2-7.2,15.2c-13.2,0-11-7.4-11-11.5Z" transform="translate(31.59 -99.5)" style="fill:#fff"/><path d="M1478,808.2c0-8.2-2.3-9.7-4.9-9.7-6,0-11.7,7.7-13.3,15s-2.6,15.2,7.2,15.2c12.7,0,11-7.4,11-11.5Z" transform="translate(31.59 -99.5)" style="fill:#fff"/><path d="M1481.4,788.8v11.8c0,4.7,4.7,7.9,10.9,10.4" transform="translate(31.59 -99.5)" style="fill:none;stroke:#fff;stroke-miterlimit:10;stroke-width:2px"/><path d="M1481.4,788.8v11.8c0,4.7-4.7,7.9-10.9,10.4" transform="translate(31.59 -99.5)" style="fill:none;stroke:#fff;stroke-miterlimit:10;stroke-width:2px"/><circle cx="1536.39" cy="720" r="5.4" style="fill:#ff695b"/><line x1="1556.19" y1="692.2" x2="1619.29" y2="692.2" style="fill:none;stroke:#9e9e9e;stroke-linecap:round;stroke-miterlimit:10;stroke-width:6px"/><line x1="1600.49" y1="705.2" x2="1627.39" y2="705.2" style="fill:none;stroke:#9e9e9e;stroke-linecap:round;stroke-miterlimit:10;stroke-width:6px"/><line x1="1556.19" y1="718.2" x2="1621.79" y2="718.2" style="fill:none;stroke:#9e9e9e;stroke-linecap:round;stroke-miterlimit:10;stroke-width:6px"/><line x1="1556.19" y1="731.2" x2="1598.09" y2="731.2" style="fill:none;stroke:#9e9e9e;stroke-linecap:round;stroke-miterlimit:10;stroke-width:6px"/><line x1="1556.19" y1="705.2" x2="1580.99" y2="705.2" style="fill:none;stroke:#9e9e9e;stroke-linecap:round;stroke-miterlimit:10;stroke-width:6px"/><line x1="1589.39" y1="718.2" x2="1621.79" y2="718.2" style="fill:none;stroke:#9e9e9e;stroke-linecap:round;stroke-miterlimit:10;stroke-width:6px"/></g><g id="Layer_11" data-name="Layer 11"><path d="M1537.3,505.3a32.94,32.94,0,0,0-48.9-30.6L1470,464l8.5,19.3a32.92,32.92,0,0,0,24.1,53.1A33,33,0,0,0,1537.3,505.3Z" transform="translate(31.59 -99.5)" style="fill:#531b93"/><path d="M1490.8,509.5h0a2.26,2.26,0,0,1-2.3-2.3v-9.8a2.26,2.26,0,0,1,2.3-2.3h0a2.26,2.26,0,0,1,2.3,2.3v9.8A2.26,2.26,0,0,1,1490.8,509.5Z" transform="translate(31.59 -99.5)" style="fill:#fff"/><path d="M1482.9,504.9h0a2.26,2.26,0,0,1-2.3-2.3h0a2.26,2.26,0,0,1,2.3-2.3h0a2.26,2.26,0,0,1,2.3,2.3h0A2.26,2.26,0,0,1,1482.9,504.9Z" transform="translate(31.59 -99.5)" style="fill:#fff"/><path d="M1498.5,514.7h0a2.26,2.26,0,0,1-2.3-2.3V492.1a2.26,2.26,0,0,1,2.3-2.3h0a2.26,2.26,0,0,1,2.3,2.3v20.3A2.26,2.26,0,0,1,1498.5,514.7Z" transform="translate(31.59 -99.5)" style="fill:#fff"/><path d="M1506.2,525.2h0a2.26,2.26,0,0,1-2.3-2.3V481.6a2.26,2.26,0,0,1,2.3-2.3h0a2.26,2.26,0,0,1,2.3,2.3v41.3A2.26,2.26,0,0,1,1506.2,525.2Z" transform="translate(31.59 -99.5)" style="fill:#fff"/><path d="M1513.9,514.7h0a2.26,2.26,0,0,1-2.3-2.3V492.1a2.26,2.26,0,0,1,2.3-2.3h0a2.26,2.26,0,0,1,2.3,2.3v20.3A2.26,2.26,0,0,1,1513.9,514.7Z" transform="translate(31.59 -99.5)" style="fill:#fff"/><path d="M1521.6,509.5h0a2.26,2.26,0,0,1-2.3-2.3v-9.8a2.26,2.26,0,0,1,2.3-2.3h0a2.26,2.26,0,0,1,2.3,2.3v9.8A2.26,2.26,0,0,1,1521.6,509.5Z" transform="translate(31.59 -99.5)" style="fill:#fff"/></g><g id="Layer_6" data-name="Layer 6"><circle cx="232.39" cy="781.1" r="38.3" style="fill:#fff;stroke:#9e9e9e;stroke-miterlimit:10"/><circle cx="232.39" cy="781.1" r="38.3" style="fill:#fff"/><path d="M200.8,892.2a2.22,2.22,0,0,1-2.2-2.2V842.4a2.2,2.2,0,1,1,4.4,0V890A2.29,2.29,0,0,1,200.8,892.2Z" transform="translate(31.59 -99.5)" style="fill:#c9c9c7"/><path d="M229.7,884H195.2a3.4,3.4,0,1,1,0-6.8h34.5a3.37,3.37,0,0,1,3.4,3.4A3.5,3.5,0,0,1,229.7,884Z" transform="translate(31.59 -99.5)" style="fill:#ff695b"/></g><g id="Layer_9" data-name="Layer 9"><circle cx="1633.59" cy="161.6" r="112.9" style="fill:#531b93;opacity:0.10000000149011612;isolation:isolate"/><circle cx="1633.59" cy="161.6" r="81.9" style="fill:#531b93;opacity:0.10000000149011612;isolation:isolate"/><circle cx="1633.59" cy="161.6" r="64.2" style="fill:#531b93;opacity:0.10000000149011612;isolation:isolate"/><circle cx="1633.59" cy="161.6" r="50.7" style="fill:#fff;stroke:#9e9e9e;stroke-miterlimit:10"/><path d="M1628.7,279.7a2.51,2.51,0,0,1-2.2-1.2,2.4,2.4,0,0,1,.3-2.9,2.52,2.52,0,0,1,4.9.8v.6a2.75,2.75,0,0,1-1.2,2.2l-.5.3A5.85,5.85,0,0,1,1628.7,279.7Z" transform="translate(31.59 -99.5)" style="fill:#531b93"/><path d="M1629.3,269.6a2.48,2.48,0,0,1-2.5-2.5v-1.3a2.5,2.5,0,1,1,5,0v1.3A2.69,2.69,0,0,1,1629.3,269.6Zm0-10.6a2.48,2.48,0,0,1-2.5-2.5v-1.3a2.5,2.5,0,0,1,5,0v1.3A2.61,2.61,0,0,1,1629.3,259Z" transform="translate(31.59 -99.5)" style="fill:#531b93"/><path d="M1629.3,248.5a2.49,2.49,0,0,1-2.4-1.7,2.42,2.42,0,0,1-.3-2.9,2.47,2.47,0,0,1,3.4-.9l.5.3a2.4,2.4,0,0,1,1.2,2.2v.6A2.43,2.43,0,0,1,1629.3,248.5Z" transform="translate(31.59 -99.5)" style="fill:#531b93"/><path d="M1620.7,243a2.66,2.66,0,0,1-1.2-.3l-1.1-.7a2.49,2.49,0,1,1,2.5-4.3l1.1.7a2.47,2.47,0,0,1,.9,3.4A2.75,2.75,0,0,1,1620.7,243Zm-9.1-5.3a2.66,2.66,0,0,1-1.2-.3l-1.1-.7a2.49,2.49,0,0,1,2.5-4.3l1.1.7a2.47,2.47,0,0,1,.9,3.4A2.75,2.75,0,0,1,1611.6,237.7Z" transform="translate(31.59 -99.5)" style="fill:#531b93"/><path d="M1602.5,232.4a.75.75,0,0,1-.5-.1,2.55,2.55,0,0,1-2.7-1.2,2.47,2.47,0,0,1,.9-3.4l.5-.3a2.75,2.75,0,0,1,2.5,0l.5.3a2.47,2.47,0,0,1,.9,3.4A2.26,2.26,0,0,1,1602.5,232.4Z" transform="translate(31.59 -99.5)" style="fill:#531b93"/><path d="M1583.2,243a2.51,2.51,0,0,1-2.2-1.2,2.47,2.47,0,0,1,.9-3.4l1.1-.7a2.49,2.49,0,0,1,2.5,4.3l-1.1.7A5.27,5.27,0,0,1,1583.2,243Zm9.1-5.3a2.51,2.51,0,0,1-2.2-1.2,2.47,2.47,0,0,1,.9-3.4l1.1-.7a2.49,2.49,0,0,1,2.5,4.3l-1.1.7A2.66,2.66,0,0,1,1592.3,237.7Z" transform="translate(31.59 -99.5)" style="fill:#531b93"/><path d="M1574.7,248.5a2.48,2.48,0,0,1-2.5-2.5v-.6a2.44,2.44,0,0,1,1.2-2.1l.5-.3a2.47,2.47,0,0,1,3.4.9,2.4,2.4,0,0,1-.3,2.9A2.37,2.37,0,0,1,1574.7,248.5Z" transform="translate(31.59 -99.5)" style="fill:#531b93"/><path d="M1574.7,269.6a2.48,2.48,0,0,1-2.5-2.5v-1.3a2.5,2.5,0,1,1,5,0v1.3A2.69,2.69,0,0,1,1574.7,269.6Zm0-10.6a2.48,2.48,0,0,1-2.5-2.5v-1.3a2.5,2.5,0,0,1,5,0v1.3A2.61,2.61,0,0,1,1574.7,259Z" transform="translate(31.59 -99.5)" style="fill:#531b93"/><path d="M1575.2,279.7a2.66,2.66,0,0,1-1.2-.3l-.5-.3a2.35,2.35,0,0,1-1.2-2.1v-.6a2.52,2.52,0,0,1,4.9-.8,2.42,2.42,0,0,1,.3,2.9A2.8,2.8,0,0,1,1575.2,279.7Z" transform="translate(31.59 -99.5)" style="fill:#531b93"/><path d="M1593.4,290.2a2.66,2.66,0,0,1-1.2-.3l-1.1-.7a2.49,2.49,0,0,1,2.5-4.3l1.1.7a2.47,2.47,0,0,1,.9,3.4A2.51,2.51,0,0,1,1593.4,290.2Zm-9.1-5.2a2.66,2.66,0,0,1-1.2-.3l-1.1-.7a2.49,2.49,0,0,1,2.5-4.3l1.1.7a2.47,2.47,0,0,1,.9,3.4A2.75,2.75,0,0,1,1584.3,285Z" transform="translate(31.59 -99.5)" style="fill:#531b93"/><path d="M1602,295.1a2.38,2.38,0,0,1-1.2-.3l-.5-.3a2.47,2.47,0,0,1-.9-3.4,3.64,3.64,0,0,1,5.4,0,2.47,2.47,0,0,1-.9,3.4l-.5.3A4.41,4.41,0,0,1,1602,295.1Z" transform="translate(31.59 -99.5)" style="fill:#531b93"/><path d="M1610.5,290.2a2.51,2.51,0,0,1-2.2-1.2,2.47,2.47,0,0,1,.9-3.4l1.1-.7a2.49,2.49,0,1,1,2.5,4.3l-1.1.7A2.66,2.66,0,0,1,1610.5,290.2Zm9.1-5.2a2.51,2.51,0,0,1-2.2-1.2,2.47,2.47,0,0,1,.9-3.4l1.1-.7a2.49,2.49,0,1,1,2.5,4.3l-1.1.7A2.66,2.66,0,0,1,1619.6,285Z" transform="translate(31.59 -99.5)" style="fill:#531b93"/><path d="M1621,275.2a2.51,2.51,0,0,1-2.2-1.2,2.4,2.4,0,0,1,.3-2.9,2.52,2.52,0,0,1,4.9.8v.6a2.75,2.75,0,0,1-1.2,2.2l-.5.3A6.88,6.88,0,0,1,1621,275.2Z" transform="translate(31.59 -99.5)" style="fill:#531b93"/><path d="M1621.5,264.3a2.48,2.48,0,0,1-2.5-2.5v-1.4a2.5,2.5,0,0,1,5,0v1.4A2.48,2.48,0,0,1,1621.5,264.3Z" transform="translate(31.59 -99.5)" style="fill:#531b93"/><path d="M1621.5,253a2.49,2.49,0,0,1-2.4-1.7,2.42,2.42,0,0,1-.3-2.9,2.47,2.47,0,0,1,3.4-.9l.5.3a2.4,2.4,0,0,1,1.2,2.2v.6A2.37,2.37,0,0,1,1621.5,253Z" transform="translate(31.59 -99.5)" style="fill:#531b93"/><path d="M1612.3,247.1a2.66,2.66,0,0,1-1.2-.3l-1.2-.7a2.49,2.49,0,1,1,2.5-4.3l1.2.7a2.47,2.47,0,0,1,.9,3.4A2.75,2.75,0,0,1,1612.3,247.1Z" transform="translate(31.59 -99.5)" style="fill:#531b93"/><path d="M1602.5,241.4a.75.75,0,0,1-.5-.1,2.55,2.55,0,0,1-2.7-1.2,2.47,2.47,0,0,1,.9-3.4l.5-.3a2.75,2.75,0,0,1,2.5,0l.5.3a2.54,2.54,0,0,1-1.2,4.7Z" transform="translate(31.59 -99.5)" style="fill:#531b93"/><path d="M1591.6,247.1a2.51,2.51,0,0,1-2.2-1.2,2.47,2.47,0,0,1,.9-3.4l1.2-.7a2.49,2.49,0,0,1,2.5,4.3l-1.2.7A5.27,5.27,0,0,1,1591.6,247.1Z" transform="translate(31.59 -99.5)" style="fill:#531b93"/><path d="M1582.4,253a2.48,2.48,0,0,1-2.5-2.5v-.6a2.75,2.75,0,0,1,1.2-2.2l.5-.3a2.47,2.47,0,0,1,3.4.9,2.4,2.4,0,0,1-.3,2.9A2.37,2.37,0,0,1,1582.4,253Z" transform="translate(31.59 -99.5)" style="fill:#531b93"/><path d="M1582.4,264.3a2.48,2.48,0,0,1-2.5-2.5v-1.4a2.5,2.5,0,0,1,5,0v1.4A2.48,2.48,0,0,1,1582.4,264.3Z" transform="translate(31.59 -99.5)" style="fill:#531b93"/><path d="M1582.9,275.2a2.66,2.66,0,0,1-1.2-.3l-.5-.3a2.4,2.4,0,0,1-1.2-2.2v-.6a2.52,2.52,0,0,1,4.9-.8,2.42,2.42,0,0,1,.3,2.9A2.67,2.67,0,0,1,1582.9,275.2Z" transform="translate(31.59 -99.5)" style="fill:#531b93"/><path d="M1592.8,280.9a2.66,2.66,0,0,1-1.2-.3l-1.2-.7a2.49,2.49,0,1,1,2.5-4.3l1.2.7a2.47,2.47,0,0,1,.9,3.4A2.51,2.51,0,0,1,1592.8,280.9Z" transform="translate(31.59 -99.5)" style="fill:#531b93"/><path d="M1602,286.2a2.38,2.38,0,0,1-1.2-.3l-.5-.3a2.47,2.47,0,0,1-.9-3.4,3.64,3.64,0,0,1,5.4,0,2.47,2.47,0,0,1-.9,3.4l-.5.3A4.41,4.41,0,0,1,1602,286.2Z" transform="translate(31.59 -99.5)" style="fill:#531b93"/><path d="M1611.1,280.9a2.51,2.51,0,0,1-2.2-1.2,2.47,2.47,0,0,1,.9-3.4l1.2-.7a2.49,2.49,0,0,1,2.5,4.3l-1.2.7A2.38,2.38,0,0,1,1611.1,280.9Z" transform="translate(31.59 -99.5)" style="fill:#531b93"/></g><g id="Layer_7" data-name="Layer 7"><path d="M335.7,261H182a14.25,14.25,0,0,1-14.2-14.2V171.3A14.25,14.25,0,0,1,182,157.1H335.7a14.25,14.25,0,0,1,14.2,14.2v75.5A14.25,14.25,0,0,1,335.7,261Z" transform="translate(31.59 -99.5)" style="fill:#fff"/><path d="M341.3,261.3h-165a8.92,8.92,0,0,1-8.9-8.9V165.6a8.92,8.92,0,0,1,8.9-8.9h165a8.92,8.92,0,0,1,8.9,8.9v86.8A8.92,8.92,0,0,1,341.3,261.3Zm-165-103.9a8.28,8.28,0,0,0-8.3,8.3v86.8a8.28,8.28,0,0,0,8.3,8.3h165a8.28,8.28,0,0,0,8.3-8.3V165.7a8.28,8.28,0,0,0-8.3-8.3Z" transform="translate(31.59 -99.5)" style="fill:#9e9e9e"/><circle cx="248.89" cy="108.8" r="31.4" style="fill:#ffbe4f"/><g style="clip-path:url(#clip-path-2)"><path d="M212.4,214.6a11.22,11.22,0,0,1-.5,1.3,13.13,13.13,0,0,1-6,7.1c-2.3,1.2-4.8,1.8-7.1,3-2.8,1.5-3.9,3.3-4.1,6.5a10.12,10.12,0,0,0,.5,4.2c.8,2.1,2.7,3.6,4.7,4.8,7.4,4.3,16.5,4.9,25,3.6a9.54,9.54,0,0,0,4.7-1.7c2.3-1.8,2.7-5.1,2.7-8.1a17.68,17.68,0,0,0-1.5-7.9c-.8-1.7-1.5-1.9-3.1-2.6a28.5,28.5,0,0,1-5.2-3.3,2.3,2.3,0,0,1-1.1-1.3,2.82,2.82,0,0,1,.4-1.5,22.65,22.65,0,0,1,2.9-4c-.2.2,3.4.4,3.6.4a9.78,9.78,0,0,0,4.1-.9,4.72,4.72,0,0,0,1.6-4.6c-1-6.3-2-14.4-6.9-17.1-3-1.3-6.6-.7-9.9-.7-2.6.3-5.3,1-6.9,3.3a10,10,0,0,0-2.3,7.3,8.07,8.07,0,0,0,3.3,5.6C213.6,209.9,213.2,212.1,212.4,214.6Z" transform="translate(31.59 -99.5)" style="fill:#fff"/><path d="M223.6,229.1a5.25,5.25,0,0,0,.6-2.8c0-2.2-1-3.5-1.9-5.4.3.6,5,.8,5.8,1a15.82,15.82,0,0,1,7.5,4.6,21.58,21.58,0,0,1,4.2,5.7l-7.7,6.3-.3.3c-.1.2,0,.3.1.5a17,17,0,0,1,.9,6.7,32.56,32.56,0,0,1-1.2,7.6,60.93,60.93,0,0,0-2.1,7.3,17,17,0,0,0,1.5,10.4c-1.1-2.4-17.5,3-19.4,3.6-3.2,1.1-6.4,2.3-9.5,3.6-2.7,1.2-6.6,2.6-8.9,4.5,1.2-8.6,0-40.5.4-49a13,13,0,0,1,1.1-5.1c2.2-4.3,7.1-5.1,11.4-6.1h.2c.1,0,.1.1.2.2,1.3,3.3,4.2,5.3,7.3,6.7a12.84,12.84,0,0,0,7.2,1,3.36,3.36,0,0,0,2.3-1.1A2.19,2.19,0,0,0,223.6,229.1Z" transform="translate(31.59 -99.5)" style="fill:#531b93"/><path d="M228.8,193.4c.5-1.4-1.1-4.2-1.9-5-2.1-2-5.2-2.2-8.1-2.1-3.9.1-8.1,1.6-9.8,5.5a16.49,16.49,0,0,1-1.6,3.6c-1.7,2.4-5.6,2.9-6.6,5.6-1.4,3.5,2.3,7.7.5,11-1,1.7-3.5,1.6-5.2,2.8a5.07,5.07,0,0,0-1.8,4.7,18.71,18.71,0,0,0,1.3,4c.3,1,.4,2,.7,2.9,3.5-.3,6.7-1.3,10.2-1a11.3,11.3,0,0,0,4.1,0c5.5-1.7.4-13.2,4.4-16.9a7.07,7.07,0,0,1,1.8-1.2,14.69,14.69,0,0,1,6.1-1.7c0-2.9-.9-7.4,1.2-9.7,1.1-1.3,3.7-.8,4.5-1.9C228.7,193.7,228.7,193.5,228.8,193.4Z" transform="translate(31.59 -99.5)" style="fill:#484949"/></g><line x1="298.29" y1="86.6" x2="353.29" y2="86.6" style="fill:none"/><path d="M321.7,187.6h-55a1.5,1.5,0,0,1,0-3h55a1.54,1.54,0,0,1,1.5,1.5A1.47,1.47,0,0,1,321.7,187.6Z" transform="translate(31.59 -99.5)" style="fill:#9e9e9e"/><line x1="298.19" y1="95.1" x2="330.49" y2="95.1" style="fill:none"/><path d="M298.9,196.1H266.6a1.5,1.5,0,0,1,0-3h32.3a1.54,1.54,0,0,1,1.5,1.5A1.42,1.42,0,0,1,298.9,196.1Z" transform="translate(31.59 -99.5)" style="fill:#9e9e9e"/><circle cx="311.09" cy="121.7" r="12.8" style="fill:#fff"/><path d="M279.5,235.5a14.3,14.3,0,1,1,14.3-14.3A14.3,14.3,0,0,1,279.5,235.5Zm0-25.5a11.3,11.3,0,1,0,11.3,11.3A11.35,11.35,0,0,0,279.5,210Z" transform="translate(31.59 -99.5)" style="fill:#9e9e9e"/><polyline points="311.09 113 311.09 121.7 319.79 121.7" style="fill:#fff"/><path d="M288.2,222.7H278V212.5a1.5,1.5,0,0,1,3,0v7.2h7.2a1.5,1.5,0,0,1,0,3Z" transform="translate(31.59 -99.5)" style="fill:#9e9e9e"/></g><g id="Layer_3" data-name="Layer 3"><circle cx="181.99" cy="351.3" r="54.2" style="fill:#ffbe4f"/><polygon points="115.69 313.5 142.59 348 156.29 318.6 115.69 313.5" style="fill:#ffbe4f"/><path d="M187,453.9h-3.1a2.22,2.22,0,0,1-2.2-2.2v-3.1a2.22,2.22,0,0,1,2.2-2.2H187a2.22,2.22,0,0,1,2.2,2.2v3.1A2.22,2.22,0,0,1,187,453.9Z" transform="translate(31.59 -99.5)" style="fill:#fff"/><path d="M124.6,461.5h-3.1a2.22,2.22,0,0,1-2.2-2.2V440a2.22,2.22,0,0,1,2.2-2.2h3.1a2.22,2.22,0,0,1,2.2,2.2v19.2A2.18,2.18,0,0,1,124.6,461.5Z" transform="translate(31.59 -99.5)" style="fill:#fff"/><path d="M137.3,470.1h-3.1a2.22,2.22,0,0,1-2.2-2.2V431.5a2.22,2.22,0,0,1,2.2-2.2h3.1a2.22,2.22,0,0,1,2.2,2.2v36.4A2.22,2.22,0,0,1,137.3,470.1Z" transform="translate(31.59 -99.5)" style="fill:#fff"/><path d="M149.9,461.5h-3.1a2.22,2.22,0,0,1-2.2-2.2V440a2.22,2.22,0,0,1,2.2-2.2h3.1a2.22,2.22,0,0,1,2.2,2.2v19.2A2.24,2.24,0,0,1,149.9,461.5Z" transform="translate(31.59 -99.5)" style="fill:#fff"/><path d="M162.5,481.9h-3.1a2.22,2.22,0,0,1-2.2-2.2V419.6a2.22,2.22,0,0,1,2.2-2.2h3.1a2.22,2.22,0,0,1,2.2,2.2v60.1A2.22,2.22,0,0,1,162.5,481.9Z" transform="translate(31.59 -99.5)" style="fill:#fff"/><path d="M175.1,461.5H172a2.22,2.22,0,0,1-2.2-2.2V440a2.22,2.22,0,0,1,2.2-2.2h3.1a2.22,2.22,0,0,1,2.2,2.2v19.2A2.24,2.24,0,0,1,175.1,461.5Z" transform="translate(31.59 -99.5)" style="fill:#fff"/></g><g id="Layer_2" data-name="Layer 2"><circle cx="445.19" cy="596.9" r="79.2" style="fill:#531b93;opacity:0.10000000149011612;isolation:isolate"/><circle cx="445.19" cy="596.9" r="60" style="fill:#531b93;opacity:0.10000000149011612;isolation:isolate"/><path d="M415.2,653.6a43.07,43.07,0,0,0-45.4,40.6,42.23,42.23,0,0,0,5.4,23.4l-14,24.2,25.2-11.1a43.12,43.12,0,1,0,28.8-77.1Z" transform="translate(31.59 -99.5)" style="fill:#531b93"/><path d="M396,705.2h0a2.9,2.9,0,0,1-2.9-2.9V690.1a2.9,2.9,0,0,1,2.9-2.9h0a2.9,2.9,0,0,1,2.9,2.9v12.2A2.9,2.9,0,0,1,396,705.2Z" transform="translate(31.59 -99.5)" style="fill:#fff"/><path d="M386.2,699.4h0a2.9,2.9,0,0,1-2.9-2.9h0a2.9,2.9,0,0,1,2.9-2.9h0a2.9,2.9,0,0,1,2.9,2.9h0A2.84,2.84,0,0,1,386.2,699.4Z" transform="translate(31.59 -99.5)" style="fill:#fff"/><path d="M405.6,711.7h0a2.9,2.9,0,0,1-2.9-2.9V683.5a2.9,2.9,0,0,1,2.9-2.9h0a2.9,2.9,0,0,1,2.9,2.9v25.3A2.9,2.9,0,0,1,405.6,711.7Z" transform="translate(31.59 -99.5)" style="fill:#fff"/><path d="M415.2,724.7h0a2.9,2.9,0,0,1-2.9-2.9V670.4a2.9,2.9,0,0,1,2.9-2.9h0a2.9,2.9,0,0,1,2.9,2.9v51.4A2.84,2.84,0,0,1,415.2,724.7Z" transform="translate(31.59 -99.5)" style="fill:#fff"/><path d="M424.8,711.7h0a2.9,2.9,0,0,1-2.9-2.9V683.5a2.9,2.9,0,0,1,2.9-2.9h0a2.9,2.9,0,0,1,2.9,2.9v25.3A3,3,0,0,1,424.8,711.7Z" transform="translate(31.59 -99.5)" style="fill:#fff"/><path d="M434.4,705.2h0a2.9,2.9,0,0,1-2.9-2.9V690.1a2.9,2.9,0,0,1,2.9-2.9h0a2.9,2.9,0,0,1,2.9,2.9v12.2A3,3,0,0,1,434.4,705.2Z" transform="translate(31.59 -99.5)" style="fill:#fff"/></g></svg>